<svg width="8" height="6" viewBox="0 0 8 6" fill="none" xmlns="http://www.w3.org/2000/svg">
<path d="M0.667515 4.8867C0.792424 5.01087 0.961391 5.08057 1.13752 5.08057C1.31364 5.08057 1.48261 5.01087 1.60752 4.8867L4.00085 2.5267L6.36085 4.8867C6.48576 5.01087 6.65472 5.08057 6.83085 5.08057C7.00697 5.08057 7.17594 5.01087 7.30085 4.8867C7.36333 4.82473 7.41293 4.751 7.44678 4.66976C7.48062 4.58852 7.49805 4.50138 7.49805 4.41337C7.49805 4.32536 7.48062 4.23823 7.44678 4.15699C7.41293 4.07575 7.36333 4.00201 7.30085 3.94004L4.47418 1.11337C4.41221 1.05089 4.33847 1.00129 4.25723 0.967444C4.17599 0.933599 4.08886 0.916173 4.00085 0.916173C3.91284 0.916173 3.8257 0.933599 3.74446 0.967444C3.66322 1.00129 3.58949 1.05089 3.52752 1.11337L0.667515 3.94004C0.60503 4.00201 0.555434 4.07575 0.521588 4.15699C0.487742 4.23823 0.470316 4.32536 0.470316 4.41337C0.470316 4.50138 0.487742 4.58852 0.521588 4.66976C0.555434 4.75099 0.60503 4.82473 0.667515 4.8867Z" fill="#FFFBFF"/>
</svg>
