<svg width="32" height="32" viewBox="0 0 32 32" fill="none" xmlns="http://www.w3.org/2000/svg">
<path d="M19.7732 22.6669C20.0216 22.4171 20.1609 22.0791 20.1609 21.7269C20.1609 21.3746 20.0216 21.0367 19.7732 20.7869L15.0532 16.0002L19.7732 11.2802C20.0216 11.0304 20.161 10.6925 20.161 10.3402C20.161 9.98797 20.0216 9.65003 19.7732 9.40022C19.6493 9.27524 19.5018 9.17605 19.3393 9.10836C19.1769 9.04067 19.0026 9.00582 18.8266 9.00582C18.6505 9.00582 18.4763 9.04067 18.3138 9.10836C18.1513 9.17605 18.0038 9.27524 17.8799 9.40022L12.2266 15.0535C12.1016 15.1775 12.0024 15.325 11.9347 15.4874C11.867 15.6499 11.8322 15.8242 11.8322 16.0002C11.8322 16.1762 11.867 16.3505 11.9347 16.513C12.0024 16.6755 12.1016 16.8229 12.2266 16.9469L17.8799 22.6669C18.0038 22.7919 18.1513 22.891 18.3138 22.9587C18.4763 23.0264 18.6505 23.0613 18.8266 23.0613C19.0026 23.0613 19.1768 23.0264 19.3393 22.9587C19.5018 22.891 19.6493 22.7919 19.7732 22.6669Z" fill="#FFFBFF"/>
</svg>
