<svg width="51" height="51" viewBox="0 0 51 51" fill="none" xmlns="http://www.w3.org/2000/svg">
<path fill-rule="evenodd" clip-rule="evenodd" d="M25.5 50.8235C39.5833 50.8235 51 39.4463 51 25.4118C51 11.3772 39.5833 0 25.5 0C11.4167 0 0 11.3772 0 25.4118C0 39.4463 11.4167 50.8235 25.5 50.8235ZM30.3469 36.4016C31.3656 35.2839 31.875 33.8583 31.875 32.1249C31.875 30.9616 31.6203 29.9694 31.1109 29.1483C30.6015 28.3271 29.9417 27.6315 29.1313 27.0612C28.3209 26.491 27.1401 25.7611 25.5888 24.8715C24.3385 24.2101 23.4007 23.6741 22.7756 23.2635C22.1504 22.8529 21.6758 22.4082 21.3516 21.9292C21.0506 21.4502 20.9001 20.8685 20.9001 20.1843C20.9001 19.1351 21.2127 18.3253 21.8378 17.7551C22.4862 17.1849 23.3544 16.8998 24.4426 16.8998C25.6929 16.8998 26.677 17.2533 27.3947 17.9604C28.1125 18.6675 28.4714 19.5798 28.4714 20.6975V21.416C28.4714 21.6441 28.5872 21.7581 28.8187 21.7581H31.354C31.5856 21.7581 31.7013 21.6441 31.7013 21.416V20.6291C31.7013 18.8956 31.192 17.4586 30.1732 16.3181C29.1776 15.1777 27.8115 14.4706 26.075 14.1969C25.9824 14.1741 25.9361 14.117 25.9361 14.0258L26.0055 11.4598C26.0055 11.2317 25.8898 11.1176 25.6582 11.1176H23.6091C23.3776 11.1176 23.2618 11.2317 23.2618 11.4598L23.2965 13.9916C23.2965 14.0828 23.2502 14.1285 23.1576 14.1285C21.4674 14.3794 20.136 15.0408 19.1636 16.1128C18.1911 17.1621 17.7049 18.5306 17.7049 20.2185C17.7049 21.4502 17.9712 22.4994 18.5037 23.3661C19.0594 24.2329 19.7424 24.9514 20.5528 25.5216C21.3632 26.0918 22.463 26.7419 23.8522 27.4718C25.0794 28.1333 26.0171 28.6807 26.6654 29.114C27.3137 29.5474 27.7999 30.015 28.1241 30.5168C28.4714 31.0186 28.6451 31.6116 28.6451 32.2959C28.6451 33.3223 28.3093 34.1549 27.6379 34.7935C26.9896 35.4094 26.075 35.7173 24.8941 35.7173C23.6207 35.7173 22.6019 35.3751 21.8378 34.6909C21.0969 34.0066 20.7265 33.1056 20.7265 31.988V31.2353C20.7265 31.0072 20.6107 30.8932 20.3792 30.8932H17.8786C17.647 30.8932 17.5312 31.0072 17.5312 31.2353V32.1591C17.5312 33.8469 18.0406 35.2497 19.0594 36.3674C20.0782 37.485 21.479 38.1693 23.2618 38.4202C23.3544 38.443 23.4007 38.5 23.4007 38.5912L23.366 40.952C23.366 41.1801 23.4818 41.2941 23.7133 41.2941H25.7624C25.9939 41.2941 26.1097 41.1801 26.1097 40.952L26.075 38.6255C26.075 38.5342 26.1213 38.4772 26.2139 38.4544C27.9504 38.2035 29.3281 37.5192 30.3469 36.4016Z" fill="url(#paint0_linear)"/>
<defs>
<linearGradient id="paint0_linear" x1="55.7812" y1="-1.56042e-05" x2="-9.96337" y2="51.8317" gradientUnits="userSpaceOnUse">
<stop stop-color="#CE09FF"/>
<stop offset="1" stop-color="#FFA34E"/>
</linearGradient>
</defs>
</svg>
