<svg width="48" height="46" viewBox="0 0 48 46" fill="none" xmlns="http://www.w3.org/2000/svg">
<path d="M22.2376 1.28552C22.9918 -0.120587 25.0082 -0.120587 25.7624 1.28552L31.875 12.6806C32.1636 13.2186 32.6821 13.5953 33.2829 13.7035L46.0092 15.9956C47.5796 16.2785 48.2026 18.1961 47.0984 19.348L38.15 28.6827C37.7275 29.1234 37.5295 29.7329 37.6122 30.3378L39.3649 43.1495C39.5811 44.7304 37.9499 45.9156 36.5132 45.2214L24.8701 39.5955C24.3205 39.3298 23.6795 39.3298 23.1299 39.5955L11.4868 45.2214C10.0501 45.9156 8.41887 44.7304 8.63514 43.1495L10.3878 30.3378C10.4705 29.7329 10.2725 29.1234 9.85001 28.6827L0.90157 19.348C-0.202638 18.1961 0.420441 16.2785 1.99082 15.9956L14.7171 13.7035C15.3179 13.5953 15.8364 13.2186 16.125 12.6806L22.2376 1.28552Z" fill="url(#paint0_linear)"/>
<defs>
<linearGradient id="paint0_linear" x1="53.0309" y1="24.6153" x2="-3.3729" y2="23.7338" gradientUnits="userSpaceOnUse">
<stop stop-color="#CE09FF"/>
<stop offset="1" stop-color="#FFA34E"/>
</linearGradient>
</defs>
</svg>
