<svg width="20" height="20" viewBox="0 0 20 20" fill="none" xmlns="http://www.w3.org/2000/svg">
<path d="M13.71 10.71C13.801 10.6149 13.8724 10.5028 13.92 10.38C14.02 10.1365 14.02 9.86347 13.92 9.62C13.8724 9.49725 13.801 9.38511 13.71 9.29L10.71 6.29C10.5217 6.1017 10.2663 5.99591 10 5.99591C9.7337 5.99591 9.47831 6.1017 9.29 6.29C9.1017 6.47831 8.99591 6.7337 8.99591 7C8.99591 7.26631 9.1017 7.5217 9.29 7.71L10.59 9H7C6.73479 9 6.48043 9.10536 6.2929 9.2929C6.10536 9.48043 6 9.73479 6 10C6 10.2652 6.10536 10.5196 6.2929 10.7071C6.48043 10.8946 6.73479 11 7 11H10.59L9.29 12.29C9.19628 12.383 9.12188 12.4936 9.07111 12.6154C9.02034 12.7373 8.99421 12.868 8.99421 13C8.99421 13.132 9.02034 13.2627 9.07111 13.3846C9.12188 13.5064 9.19628 13.617 9.29 13.71C9.38297 13.8037 9.49357 13.8781 9.61543 13.9289C9.73729 13.9797 9.86799 14.0058 10 14.0058C10.132 14.0058 10.2627 13.9797 10.3846 13.9289C10.5064 13.8781 10.617 13.8037 10.71 13.71L13.71 10.71ZM20 10C20 8.02219 19.4135 6.08879 18.3147 4.4443C17.2159 2.79981 15.6541 1.51809 13.8268 0.761209C11.9996 0.00433284 9.98891 -0.193701 8.0491 0.192152C6.10929 0.578004 4.32746 1.53041 2.92894 2.92894C1.53041 4.32746 0.578004 6.10929 0.192152 8.0491C-0.193701 9.98891 0.00433284 11.9996 0.761209 13.8268C1.51809 15.6541 2.79981 17.2159 4.4443 18.3147C6.08879 19.4135 8.02219 20 10 20C12.6522 20 15.1957 18.9464 17.0711 17.0711C18.9464 15.1957 20 12.6522 20 10ZM2 10C2 8.41775 2.4692 6.87104 3.34825 5.55544C4.2273 4.23985 5.47673 3.21447 6.93854 2.60897C8.40035 2.00347 10.0089 1.84504 11.5607 2.15372C13.1126 2.4624 14.538 3.22433 15.6569 4.34315C16.7757 5.46197 17.5376 6.88743 17.8463 8.43928C18.155 9.99113 17.9965 11.5997 17.391 13.0615C16.7855 14.5233 15.7602 15.7727 14.4446 16.6518C13.129 17.5308 11.5823 18 10 18C7.87827 18 5.84344 17.1572 4.34315 15.6569C2.84286 14.1566 2 12.1217 2 10Z" fill="url(#paint0_linear)"/>
<defs>
<linearGradient id="paint0_linear" x1="20.7522" y1="9.85751" x2="-0.138109" y2="9.53105" gradientUnits="userSpaceOnUse">
<stop stop-color="#CE09FF"/>
<stop offset="1" stop-color="#FFA34E"/>
</linearGradient>
</defs>
</svg>
