<svg width="201" height="48" viewBox="0 0 201 48" fill="none" xmlns="http://www.w3.org/2000/svg">
<path d="M7.32031 10.2031C7.32031 11.1302 7.00521 11.8281 6.375 12.2969C5.74479 12.7656 4.84896 13 3.6875 13H0.4375V2.80469H3.50781C3.9349 2.80469 4.35417 2.84115 4.76562 2.91406C5.17708 2.98177 5.54427 3.11198 5.86719 3.30469C6.19531 3.4974 6.46094 3.76823 6.66406 4.11719C6.86719 4.46094 6.96875 4.90885 6.96875 5.46094C6.96875 5.97656 6.83594 6.44792 6.57031 6.875C6.3099 7.30208 5.91406 7.60938 5.38281 7.79688C6.03385 8 6.51823 8.28385 6.83594 8.64844C7.15885 9.01302 7.32031 9.53125 7.32031 10.2031ZM5.36719 5.67188C5.36719 5.375 5.3099 5.13281 5.19531 4.94531C5.08594 4.75781 4.94271 4.61458 4.76562 4.51562C4.58854 4.41146 4.39062 4.34375 4.17188 4.3125C3.95312 4.28125 3.73177 4.26562 3.50781 4.26562H2.05469V7.07812H3.50781C3.73177 7.07812 3.95312 7.0625 4.17188 7.03125C4.39062 7 4.58854 6.9349 4.76562 6.83594C4.94271 6.73177 5.08594 6.58594 5.19531 6.39844C5.3099 6.21094 5.36719 5.96875 5.36719 5.67188ZM5.71875 10.0391C5.71875 9.52865 5.53906 9.15104 5.17969 8.90625C4.82552 8.66146 4.32812 8.53906 3.6875 8.53906H2.05469V11.5469H3.6875C4.32812 11.5469 4.82552 11.4245 5.17969 11.1797C5.53906 10.9297 5.71875 10.5495 5.71875 10.0391ZM16.2578 9.36719C16.2578 9.9349 16.1667 10.4505 15.9844 10.9141C15.8073 11.3776 15.5495 11.7786 15.2109 12.1172C14.8776 12.4505 14.4766 12.7109 14.0078 12.8984C13.5391 13.0859 13.0156 13.1797 12.4375 13.1797C11.8698 13.1797 11.3516 13.0859 10.8828 12.8984C10.4141 12.7109 10.0104 12.4505 9.67188 12.1172C9.33854 11.7786 9.08073 11.3776 8.89844 10.9141C8.72135 10.4505 8.63281 9.9349 8.63281 9.36719C8.63281 8.8151 8.72135 8.30469 8.89844 7.83594C9.08073 7.36198 9.33854 6.95573 9.67188 6.61719C10.0104 6.27344 10.4141 6.01042 10.8828 5.82812C11.3516 5.64062 11.8698 5.54688 12.4375 5.54688C13.0156 5.54688 13.5391 5.64062 14.0078 5.82812C14.4766 6.01042 14.8776 6.27344 15.2109 6.61719C15.5495 6.95573 15.8073 7.36198 15.9844 7.83594C16.1667 8.30469 16.2578 8.8151 16.2578 9.36719ZM14.6484 9.36719C14.6484 9.03906 14.5964 8.72917 14.4922 8.4375C14.3932 8.14062 14.2474 7.88802 14.0547 7.67969C13.862 7.47135 13.6276 7.30729 13.3516 7.1875C13.0807 7.0625 12.776 7 12.4375 7C12.0938 7 11.7865 7.0625 11.5156 7.1875C11.2448 7.30729 11.0156 7.47135 10.8281 7.67969C10.6406 7.88802 10.4948 8.14062 10.3906 8.4375C10.2917 8.72917 10.2422 9.03906 10.2422 9.36719C10.2422 9.71094 10.2917 10.0234 10.3906 10.3047C10.4948 10.5859 10.6406 10.8333 10.8281 11.0469C11.0156 11.2604 11.2448 11.4271 11.5156 11.5469C11.7865 11.6615 12.0938 11.7188 12.4375 11.7188C12.776 11.7188 13.0807 11.6615 13.3516 11.5469C13.6276 11.4271 13.862 11.2604 14.0547 11.0469C14.2474 10.8333 14.3932 10.5859 14.4922 10.3047C14.5964 10.0234 14.6484 9.71094 14.6484 9.36719ZM24.4219 13H22.8047V8.50781C22.8047 7.9401 22.6979 7.54688 22.4844 7.32812C22.2708 7.10938 21.9609 7 21.5547 7C20.9557 7 20.4661 7.24219 20.0859 7.72656C19.7109 8.21094 19.5234 8.88021 19.5234 9.73438V13H17.9062V5.71875H19.5234V7.54688C19.6849 6.91667 19.9844 6.42708 20.4219 6.07812C20.8594 5.72396 21.3984 5.54688 22.0391 5.54688C22.7839 5.54688 23.3672 5.78906 23.7891 6.27344C24.2109 6.75781 24.4219 7.5026 24.4219 8.50781V13ZM26.6406 5.71875H28.2578V10.2188C28.2578 10.7812 28.3646 11.1719 28.5781 11.3906C28.7917 11.6094 29.1016 11.7188 29.5078 11.7188C30.1016 11.7188 30.5885 11.4766 30.9688 10.9922C31.349 10.5078 31.5391 9.83854 31.5391 8.98438V5.71875H33.1562V13H31.5391V11.1797C31.3776 11.8047 31.0781 12.2943 30.6406 12.6484C30.2031 13.0026 29.6641 13.1797 29.0234 13.1797C28.2786 13.1797 27.6953 12.9375 27.2734 12.4531C26.8516 11.9635 26.6406 11.2188 26.6406 10.2188V5.71875ZM41.8906 13H35.375V11.5625L39.5234 7.17969H36.7969V8.64844H35.375V5.71875H41.7422V7.17969L37.5859 11.5469H40.4609V10.1016H41.8906V13ZM59.8984 9.88281C59.7734 10.3828 59.6068 10.8359 59.3984 11.2422C59.1901 11.6484 58.9349 11.9948 58.6328 12.2812C58.3359 12.5677 57.987 12.7891 57.5859 12.9453C57.1901 13.1016 56.7344 13.1797 56.2188 13.1797C55.5052 13.1797 54.901 13.0339 54.4062 12.7422C53.9115 12.4453 53.5052 12.0521 53.1875 11.5625C52.875 11.0677 52.6484 10.5052 52.5078 9.875C52.3724 9.23958 52.3047 8.58073 52.3047 7.89844C52.3047 7.21615 52.3724 6.55729 52.5078 5.92188C52.6484 5.28646 52.8724 4.72656 53.1797 4.24219C53.4922 3.75781 53.888 3.36979 54.3672 3.07812C54.8464 2.78125 55.4323 2.63281 56.125 2.63281C56.349 2.63281 56.5755 2.66146 56.8047 2.71875C57.0339 2.77604 57.2474 2.86458 57.4453 2.98438C57.6432 3.09896 57.8151 3.24219 57.9609 3.41406C58.112 3.58594 58.2188 3.78385 58.2812 4.00781V2.80469H59.7422V6.66406H58.2812C58.2812 6.34635 58.2422 6.03385 58.1641 5.72656C58.0859 5.41406 57.9609 5.13802 57.7891 4.89844C57.6172 4.65885 57.401 4.46354 57.1406 4.3125C56.8802 4.16146 56.5729 4.08594 56.2188 4.08594C55.7604 4.08594 55.3854 4.19792 55.0938 4.42188C54.8021 4.64583 54.5677 4.9401 54.3906 5.30469C54.2135 5.66927 54.0885 6.07812 54.0156 6.53125C53.9479 6.98438 53.9141 7.4401 53.9141 7.89844C53.9141 8.35677 53.9479 8.8151 54.0156 9.27344C54.0885 9.73177 54.2109 10.1432 54.3828 10.5078C54.5547 10.8672 54.7891 11.1589 55.0859 11.3828C55.3828 11.6068 55.7604 11.7188 56.2188 11.7188C56.8802 11.7188 57.388 11.5078 57.7422 11.0859C58.1016 10.6641 58.388 10.0964 58.6016 9.38281L59.8984 9.88281ZM68.0938 13H66.4766V8.50781C66.4766 7.9401 66.3698 7.54688 66.1562 7.32812C65.9427 7.10938 65.6328 7 65.2266 7C64.6276 7 64.138 7.24219 63.7578 7.72656C63.3828 8.21094 63.1953 8.88021 63.1953 9.73438V13H61.5781V2.80469H63.1953V7.54688C63.3568 6.91667 63.6562 6.42708 64.0938 6.07812C64.5312 5.72396 65.0703 5.54688 65.7109 5.54688C66.4557 5.54688 67.0391 5.78906 67.4609 6.27344C67.8828 6.75781 68.0938 7.5026 68.0938 8.50781V13ZM69.8984 10.9062C69.8984 10.4792 70.013 10.1068 70.2422 9.78906C70.4714 9.46615 70.7708 9.19792 71.1406 8.98438C71.5156 8.77083 71.9427 8.61198 72.4219 8.50781C72.9062 8.39844 73.3984 8.34375 73.8984 8.34375C74.1745 8.34375 74.4115 8.34896 74.6094 8.35938C74.8073 8.36979 75.0078 8.38542 75.2109 8.40625V8.11719C75.2109 7.73698 75.0625 7.45312 74.7656 7.26562C74.474 7.07812 74.0885 6.98438 73.6094 6.98438C73.1719 6.98438 72.7266 7.04688 72.2734 7.17188C71.8203 7.29167 71.3906 7.46875 70.9844 7.70312L70.3281 6.4375C70.8073 6.16146 71.3203 5.94531 71.8672 5.78906C72.4193 5.6276 73 5.54688 73.6094 5.54688C74.0052 5.54688 74.3932 5.59115 74.7734 5.67969C75.1589 5.76823 75.5026 5.91406 75.8047 6.11719C76.112 6.32031 76.3568 6.58594 76.5391 6.91406C76.7214 7.23698 76.8125 7.63802 76.8125 8.11719V13H75.2109V11.9297C74.9557 12.3255 74.5781 12.6328 74.0781 12.8516C73.5833 13.0703 73.0495 13.1797 72.4766 13.1797C72.1224 13.1797 71.7865 13.1302 71.4688 13.0312C71.1562 12.9375 70.8854 12.7943 70.6562 12.6016C70.4271 12.4089 70.2422 12.1719 70.1016 11.8906C69.9661 11.6042 69.8984 11.276 69.8984 10.9062ZM72.8906 11.7344C73.2083 11.7344 73.5052 11.6953 73.7812 11.6172C74.0625 11.5339 74.3099 11.4219 74.5234 11.2812C74.737 11.1354 74.9036 10.9609 75.0234 10.7578C75.1484 10.5547 75.2109 10.3307 75.2109 10.0859V9.8125C74.9557 9.77083 74.7161 9.7474 74.4922 9.74219C74.2682 9.73698 74.0703 9.73438 73.8984 9.73438C73.1068 9.73438 72.5078 9.83854 72.1016 10.0469C71.7005 10.2552 71.5 10.513 71.5 10.8203C71.5 11.4297 71.9635 11.7344 72.8906 11.7344ZM85.5625 13H83.9453V8.50781C83.9453 7.9401 83.8385 7.54688 83.625 7.32812C83.4115 7.10938 83.1016 7 82.6953 7C82.0964 7 81.6068 7.24219 81.2266 7.72656C80.8516 8.21094 80.6641 8.88021 80.6641 9.73438V13H79.0469V5.71875H80.6641V7.54688C80.8255 6.91667 81.125 6.42708 81.5625 6.07812C82 5.72396 82.5391 5.54688 83.1797 5.54688C83.9245 5.54688 84.5078 5.78906 84.9297 6.27344C85.3516 6.75781 85.5625 7.5026 85.5625 8.50781V13ZM94.2969 13H92.6797V8.50781C92.6797 7.9401 92.5729 7.54688 92.3594 7.32812C92.1458 7.10938 91.8359 7 91.4297 7C90.8307 7 90.3411 7.24219 89.9609 7.72656C89.5859 8.21094 89.3984 8.88021 89.3984 9.73438V13H87.7812V5.71875H89.3984V7.54688C89.5599 6.91667 89.8594 6.42708 90.2969 6.07812C90.7344 5.72396 91.2734 5.54688 91.9141 5.54688C92.6589 5.54688 93.2422 5.78906 93.6641 6.27344C94.0859 6.75781 94.2969 7.5026 94.2969 8.50781V13ZM97.6172 9.97656C97.6953 10.4766 97.9323 10.8932 98.3281 11.2266C98.7292 11.5547 99.2656 11.7188 99.9375 11.7188C100.464 11.7188 100.919 11.638 101.305 11.4766C101.695 11.3099 102.031 11.0911 102.312 10.8203L103.141 11.9609C102.672 12.4297 102.174 12.75 101.648 12.9219C101.128 13.0938 100.557 13.1797 99.9375 13.1797C99.375 13.1797 98.8516 13.0859 98.3672 12.8984C97.8828 12.7109 97.4635 12.4505 97.1094 12.1172C96.7552 11.7786 96.4766 11.3776 96.2734 10.9141C96.0755 10.4505 95.9766 9.9349 95.9766 9.36719C95.9766 8.8151 96.0677 8.30729 96.25 7.84375C96.4375 7.375 96.6979 6.97135 97.0312 6.63281C97.3698 6.28906 97.7734 6.02344 98.2422 5.83594C98.7109 5.64323 99.2292 5.54688 99.7969 5.54688C100.385 5.54688 100.919 5.64844 101.398 5.85156C101.878 6.04948 102.286 6.33854 102.625 6.71875C102.969 7.09896 103.237 7.5651 103.43 8.11719C103.622 8.66406 103.719 9.28385 103.719 9.97656H97.6172ZM101.891 8.55469C101.807 8.08594 101.565 7.71094 101.164 7.42969C100.763 7.14323 100.307 7 99.7969 7C99.2865 7 98.8281 7.14323 98.4219 7.42969C98.0156 7.71094 97.7708 8.08594 97.6875 8.55469H101.891ZM110.992 13H106.102V11.5469H107.695V4.26562H106.102V2.80469H109.312V11.5469H110.992V13ZM129.953 7.89844C129.953 8.58073 129.88 9.23177 129.734 9.85156C129.594 10.4661 129.365 11.0078 129.047 11.4766C128.734 11.9401 128.328 12.3099 127.828 12.5859C127.333 12.862 126.734 13 126.031 13H122.719V2.80469H126.031C126.724 2.80469 127.318 2.94531 127.812 3.22656C128.312 3.5026 128.719 3.8724 129.031 4.33594C129.349 4.79948 129.581 5.33854 129.727 5.95312C129.878 6.56771 129.953 7.21615 129.953 7.89844ZM128.336 7.89844C128.336 6.72135 128.135 5.82292 127.734 5.20312C127.333 4.57812 126.766 4.26562 126.031 4.26562H124.336V11.5469H126.031C126.766 11.5469 127.333 11.2292 127.734 10.5938C128.135 9.95833 128.336 9.0599 128.336 7.89844ZM135.695 4.77344H133.727V2.80469H135.695V4.77344ZM137.18 13H132.289V11.5469H133.898V7.17969H132.289V5.71875H135.516V11.5469H137.18V13ZM146.906 7.44531C146.714 7.35156 146.516 7.28125 146.312 7.23438C146.115 7.18229 145.885 7.15625 145.625 7.15625C145.266 7.15625 144.927 7.21094 144.609 7.32031C144.297 7.42448 144.026 7.58333 143.797 7.79688C143.568 8.01042 143.388 8.27865 143.258 8.60156C143.133 8.91927 143.07 9.29688 143.07 9.73438V11.5469H144.703V13H139.805V11.5469H141.453V7.17969H139.805V5.71875H143.07V7.54688C143.336 6.81771 143.727 6.30208 144.242 6C144.763 5.69792 145.38 5.54688 146.094 5.54688C146.318 5.54688 146.552 5.57031 146.797 5.61719C147.042 5.66406 147.281 5.7474 147.516 5.86719L146.906 7.44531ZM150.023 9.97656C150.102 10.4766 150.339 10.8932 150.734 11.2266C151.135 11.5547 151.672 11.7188 152.344 11.7188C152.87 11.7188 153.326 11.638 153.711 11.4766C154.102 11.3099 154.438 11.0911 154.719 10.8203L155.547 11.9609C155.078 12.4297 154.581 12.75 154.055 12.9219C153.534 13.0938 152.964 13.1797 152.344 13.1797C151.781 13.1797 151.258 13.0859 150.773 12.8984C150.289 12.7109 149.87 12.4505 149.516 12.1172C149.161 11.7786 148.883 11.3776 148.68 10.9141C148.482 10.4505 148.383 9.9349 148.383 9.36719C148.383 8.8151 148.474 8.30729 148.656 7.84375C148.844 7.375 149.104 6.97135 149.438 6.63281C149.776 6.28906 150.18 6.02344 150.648 5.83594C151.117 5.64323 151.635 5.54688 152.203 5.54688C152.792 5.54688 153.326 5.64844 153.805 5.85156C154.284 6.04948 154.693 6.33854 155.031 6.71875C155.375 7.09896 155.643 7.5651 155.836 8.11719C156.029 8.66406 156.125 9.28385 156.125 9.97656H150.023ZM154.297 8.55469C154.214 8.08594 153.971 7.71094 153.57 7.42969C153.169 7.14323 152.714 7 152.203 7C151.693 7 151.234 7.14323 150.828 7.42969C150.422 7.71094 150.177 8.08594 150.094 8.55469H154.297ZM164.281 11.9609C163.812 12.4297 163.318 12.75 162.797 12.9219C162.281 13.0938 161.721 13.1797 161.117 13.1797C160.508 13.1797 159.953 13.0885 159.453 12.9062C158.958 12.724 158.536 12.4688 158.188 12.1406C157.844 11.8073 157.578 11.4062 157.391 10.9375C157.208 10.4688 157.117 9.94531 157.117 9.36719C157.117 8.8151 157.208 8.30469 157.391 7.83594C157.578 7.36198 157.828 6.95833 158.141 6.625C158.458 6.28646 158.831 6.02344 159.258 5.83594C159.685 5.64323 160.138 5.54688 160.617 5.54688C161.117 5.54688 161.552 5.65104 161.922 5.85938C162.292 6.06771 162.56 6.3724 162.727 6.77344V5.71875H164.172V9.10938H162.727C162.727 8.46875 162.549 7.95833 162.195 7.57812C161.846 7.19271 161.391 7 160.828 7C160.604 7 160.367 7.04688 160.117 7.14062C159.872 7.22917 159.646 7.36979 159.438 7.5625C159.234 7.75521 159.065 8 158.93 8.29688C158.794 8.59375 158.727 8.95052 158.727 9.36719C158.727 9.77344 158.792 10.125 158.922 10.4219C159.052 10.7135 159.221 10.9557 159.43 11.1484C159.643 11.3359 159.893 11.4792 160.18 11.5781C160.471 11.6719 160.771 11.7188 161.078 11.7188C161.604 11.7188 162.06 11.638 162.445 11.4766C162.836 11.3099 163.172 11.0911 163.453 10.8203L164.281 11.9609ZM173.367 10.6797C173.284 11.4453 172.982 12.0547 172.461 12.5078C171.945 12.9557 171.299 13.1797 170.523 13.1797C170.096 13.1797 169.706 13.1094 169.352 12.9688C168.997 12.8281 168.695 12.6328 168.445 12.3828C168.195 12.1328 168 11.8333 167.859 11.4844C167.724 11.1302 167.656 10.7448 167.656 10.3281V7.17969H166.008V5.71875H167.656V2.80469H169.273V5.71875H172.328V7.17969H169.273V10.3281C169.273 10.7969 169.388 11.1458 169.617 11.375C169.846 11.6042 170.148 11.7188 170.523 11.7188C170.982 11.7188 171.323 11.5859 171.547 11.3203C171.771 11.0547 171.904 10.7344 171.945 10.3594L173.367 10.6797ZM182.211 9.36719C182.211 9.9349 182.12 10.4505 181.938 10.9141C181.76 11.3776 181.503 11.7786 181.164 12.1172C180.831 12.4505 180.43 12.7109 179.961 12.8984C179.492 13.0859 178.969 13.1797 178.391 13.1797C177.823 13.1797 177.305 13.0859 176.836 12.8984C176.367 12.7109 175.964 12.4505 175.625 12.1172C175.292 11.7786 175.034 11.3776 174.852 10.9141C174.674 10.4505 174.586 9.9349 174.586 9.36719C174.586 8.8151 174.674 8.30469 174.852 7.83594C175.034 7.36198 175.292 6.95573 175.625 6.61719C175.964 6.27344 176.367 6.01042 176.836 5.82812C177.305 5.64062 177.823 5.54688 178.391 5.54688C178.969 5.54688 179.492 5.64062 179.961 5.82812C180.43 6.01042 180.831 6.27344 181.164 6.61719C181.503 6.95573 181.76 7.36198 181.938 7.83594C182.12 8.30469 182.211 8.8151 182.211 9.36719ZM180.602 9.36719C180.602 9.03906 180.549 8.72917 180.445 8.4375C180.346 8.14062 180.201 7.88802 180.008 7.67969C179.815 7.47135 179.581 7.30729 179.305 7.1875C179.034 7.0625 178.729 7 178.391 7C178.047 7 177.74 7.0625 177.469 7.1875C177.198 7.30729 176.969 7.47135 176.781 7.67969C176.594 7.88802 176.448 8.14062 176.344 8.4375C176.245 8.72917 176.195 9.03906 176.195 9.36719C176.195 9.71094 176.245 10.0234 176.344 10.3047C176.448 10.5859 176.594 10.8333 176.781 11.0469C176.969 11.2604 177.198 11.4271 177.469 11.5469C177.74 11.6615 178.047 11.7188 178.391 11.7188C178.729 11.7188 179.034 11.6615 179.305 11.5469C179.581 11.4271 179.815 11.2604 180.008 11.0469C180.201 10.8333 180.346 10.5859 180.445 10.3047C180.549 10.0234 180.602 9.71094 180.602 9.36719ZM190.578 7.44531C190.385 7.35156 190.188 7.28125 189.984 7.23438C189.786 7.18229 189.557 7.15625 189.297 7.15625C188.938 7.15625 188.599 7.21094 188.281 7.32031C187.969 7.42448 187.698 7.58333 187.469 7.79688C187.24 8.01042 187.06 8.27865 186.93 8.60156C186.805 8.91927 186.742 9.29688 186.742 9.73438V11.5469H188.375V13H183.477V11.5469H185.125V7.17969H183.477V5.71875H186.742V7.54688C187.008 6.81771 187.398 6.30208 187.914 6C188.435 5.69792 189.052 5.54688 189.766 5.54688C189.99 5.54688 190.224 5.57031 190.469 5.61719C190.714 5.66406 190.953 5.7474 191.188 5.86719L190.578 7.44531ZM199.43 5.71875L196.289 14.4219C196.055 15.0521 195.714 15.4844 195.266 15.7188C194.818 15.9531 194.284 16.0703 193.664 16.0703C193.451 16.0703 193.221 16.0495 192.977 16.0078C192.732 15.9661 192.477 15.8958 192.211 15.7969L192.547 14.3125C192.771 14.3958 192.977 14.4531 193.164 14.4844C193.352 14.5208 193.518 14.5391 193.664 14.5391C194.148 14.5391 194.479 14.3255 194.656 13.8984L194.945 13.1953L192.164 5.71875H193.844L195.844 11.2266L197.695 5.71875H199.43Z" fill="white"/>
<path opacity="0.4" d="M55.9277 34H52.2598V32.9102H53.4902V28.5625C53.4355 28.7539 53.3398 28.9238 53.2031 29.0723C53.0703 29.2207 52.9082 29.3457 52.7168 29.4473C52.5293 29.5449 52.3184 29.6211 52.084 29.6758C51.8535 29.7266 51.6152 29.752 51.3691 29.752V28.5391C51.6348 28.5391 51.8926 28.4961 52.1426 28.4102C52.3965 28.3203 52.623 28.1855 52.8223 28.0059C53.0215 27.8262 53.1816 27.6016 53.3027 27.332C53.4277 27.0586 53.4902 26.7324 53.4902 26.3535H54.7031V32.9102H55.9277V34ZM63.2227 28.4453C63.2227 28.8047 63.127 29.1719 62.9355 29.5469C62.7441 29.9219 62.4805 30.2773 62.1445 30.6133L59.7539 32.9102H61.998V31.8613H63.0938V34H58.1719V32.8574L61.2539 29.9102C61.5195 29.6367 61.7109 29.3809 61.8281 29.1426C61.9492 28.9004 62.0098 28.668 62.0098 28.4453C62.0098 28.2461 61.9707 28.0742 61.8926 27.9297C61.8184 27.7852 61.7207 27.668 61.5996 27.5781C61.4824 27.4844 61.3477 27.418 61.1953 27.3789C61.043 27.3359 60.8906 27.3145 60.7383 27.3145C60.2578 27.3145 59.8789 27.4551 59.6016 27.7363C59.3281 28.0176 59.1914 28.4336 59.1914 28.9844H58.0547C58.0547 28.1211 58.2832 27.4453 58.7402 26.957C59.2012 26.4688 59.8672 26.2246 60.7383 26.2246C61.0664 26.2246 61.3809 26.2734 61.6816 26.3711C61.9824 26.4648 62.2461 26.6035 62.4727 26.7871C62.7031 26.9707 62.8848 27.2031 63.0176 27.4844C63.1543 27.7656 63.2227 28.0859 63.2227 28.4453ZM69.7734 28.4453C69.7734 28.8047 69.6777 29.1719 69.4863 29.5469C69.2949 29.9219 69.0312 30.2773 68.6953 30.6133L66.3047 32.9102H68.5488V31.8613H69.6445V34H64.7227V32.8574L67.8047 29.9102C68.0703 29.6367 68.2617 29.3809 68.3789 29.1426C68.5 28.9004 68.5605 28.668 68.5605 28.4453C68.5605 28.2461 68.5215 28.0742 68.4434 27.9297C68.3691 27.7852 68.2715 27.668 68.1504 27.5781C68.0332 27.4844 67.8984 27.418 67.7461 27.3789C67.5938 27.3359 67.4414 27.3145 67.2891 27.3145C66.8086 27.3145 66.4297 27.4551 66.1523 27.7363C65.8789 28.0176 65.7422 28.4336 65.7422 28.9844H64.6055C64.6055 28.1211 64.834 27.4453 65.291 26.957C65.752 26.4688 66.418 26.2246 67.2891 26.2246C67.6172 26.2246 67.9316 26.2734 68.2324 26.3711C68.5332 26.4648 68.7969 26.6035 69.0234 26.7871C69.2539 26.9707 69.4355 27.2031 69.5684 27.4844C69.7051 27.7656 69.7734 28.0859 69.7734 28.4453ZM83.1504 31.6621C83.0566 32.0371 82.9316 32.377 82.7754 32.6816C82.6191 32.9863 82.4277 33.2461 82.2012 33.4609C81.9785 33.6758 81.7168 33.8418 81.416 33.959C81.1191 34.0762 80.7773 34.1348 80.3906 34.1348C79.8555 34.1348 79.4023 34.0254 79.0312 33.8066C78.6602 33.584 78.3555 33.2891 78.1172 32.9219C77.8828 32.5508 77.7129 32.1289 77.6074 31.6562C77.5059 31.1797 77.4551 30.6855 77.4551 30.1738C77.4551 29.6621 77.5059 29.168 77.6074 28.6914C77.7129 28.2148 77.8809 27.7949 78.1113 27.4316C78.3457 27.0684 78.6426 26.7773 79.002 26.5586C79.3613 26.3359 79.8008 26.2246 80.3203 26.2246C80.4883 26.2246 80.6582 26.2461 80.8301 26.2891C81.002 26.332 81.1621 26.3984 81.3105 26.4883C81.459 26.5742 81.5879 26.6816 81.6973 26.8105C81.8105 26.9395 81.8906 27.0879 81.9375 27.2559V26.3535H83.0332V29.248H81.9375C81.9375 29.0098 81.9082 28.7754 81.8496 28.5449C81.791 28.3105 81.6973 28.1035 81.5684 27.9238C81.4395 27.7441 81.2773 27.5977 81.082 27.4844C80.8867 27.3711 80.6562 27.3145 80.3906 27.3145C80.0469 27.3145 79.7656 27.3984 79.5469 27.5664C79.3281 27.7344 79.1523 27.9551 79.0195 28.2285C78.8867 28.502 78.793 28.8086 78.7383 29.1484C78.6875 29.4883 78.6621 29.8301 78.6621 30.1738C78.6621 30.5176 78.6875 30.8613 78.7383 31.2051C78.793 31.5488 78.8848 31.8574 79.0137 32.1309C79.1426 32.4004 79.3184 32.6191 79.541 32.7871C79.7637 32.9551 80.0469 33.0391 80.3906 33.0391C80.8867 33.0391 81.2676 32.8809 81.5332 32.5645C81.8027 32.248 82.0176 31.8223 82.1777 31.2871L83.1504 31.6621ZM85.2363 31.7324C85.2949 32.1074 85.4727 32.4199 85.7695 32.6699C86.0703 32.916 86.4727 33.0391 86.9766 33.0391C87.3711 33.0391 87.7129 32.9785 88.002 32.8574C88.2949 32.7324 88.5469 32.5684 88.7578 32.3652L89.3789 33.2207C89.0273 33.5723 88.6543 33.8125 88.2598 33.9414C87.8691 34.0703 87.4414 34.1348 86.9766 34.1348C86.5547 34.1348 86.1621 34.0645 85.7988 33.9238C85.4355 33.7832 85.1211 33.5879 84.8555 33.3379C84.5898 33.084 84.3809 32.7832 84.2285 32.4355C84.0801 32.0879 84.0059 31.7012 84.0059 31.2754C84.0059 30.8613 84.0742 30.4805 84.2109 30.1328C84.3516 29.7812 84.5469 29.4785 84.7969 29.2246C85.0508 28.9668 85.3535 28.7676 85.7051 28.627C86.0566 28.4824 86.4453 28.4102 86.8711 28.4102C87.3125 28.4102 87.7129 28.4863 88.0723 28.6387C88.4316 28.7871 88.7383 29.0039 88.9922 29.2891C89.25 29.5742 89.4512 29.9238 89.5957 30.3379C89.7402 30.748 89.8125 31.2129 89.8125 31.7324H85.2363ZM88.4414 30.666C88.3789 30.3145 88.1973 30.0332 87.8965 29.8223C87.5957 29.6074 87.2539 29.5 86.8711 29.5C86.4883 29.5 86.1445 29.6074 85.8398 29.8223C85.5352 30.0332 85.3516 30.3145 85.2891 30.666H88.4414ZM95.2676 34H91.5996V32.9102H92.7949V27.4492H91.5996V26.3535H94.0078V32.9102H95.2676V34ZM98.3379 31.7324C98.3965 32.1074 98.5742 32.4199 98.8711 32.6699C99.1719 32.916 99.5742 33.0391 100.078 33.0391C100.473 33.0391 100.814 32.9785 101.104 32.8574C101.396 32.7324 101.648 32.5684 101.859 32.3652L102.48 33.2207C102.129 33.5723 101.756 33.8125 101.361 33.9414C100.971 34.0703 100.543 34.1348 100.078 34.1348C99.6562 34.1348 99.2637 34.0645 98.9004 33.9238C98.5371 33.7832 98.2227 33.5879 97.957 33.3379C97.6914 33.084 97.4824 32.7832 97.3301 32.4355C97.1816 32.0879 97.1074 31.7012 97.1074 31.2754C97.1074 30.8613 97.1758 30.4805 97.3125 30.1328C97.4531 29.7812 97.6484 29.4785 97.8984 29.2246C98.1523 28.9668 98.4551 28.7676 98.8066 28.627C99.1582 28.4824 99.5469 28.4102 99.9727 28.4102C100.414 28.4102 100.814 28.4863 101.174 28.6387C101.533 28.7871 101.84 29.0039 102.094 29.2891C102.352 29.5742 102.553 29.9238 102.697 30.3379C102.842 30.748 102.914 31.2129 102.914 31.7324H98.3379ZM101.543 30.666C101.48 30.3145 101.299 30.0332 100.998 29.8223C100.697 29.6074 100.355 29.5 99.9727 29.5C99.5898 29.5 99.2461 29.6074 98.9414 29.8223C98.6367 30.0332 98.4531 30.3145 98.3906 30.666H101.543ZM104.062 26.3535H105.275V29.0312C105.506 28.8242 105.738 28.6699 105.973 28.5684C106.211 28.4629 106.482 28.4102 106.787 28.4102C107.139 28.4102 107.465 28.4824 107.766 28.627C108.066 28.7676 108.324 28.9648 108.539 29.2188C108.754 29.4688 108.924 29.7715 109.049 30.127C109.174 30.4785 109.236 30.8613 109.236 31.2754C109.236 31.6934 109.174 32.0781 109.049 32.4297C108.924 32.7812 108.754 33.084 108.539 33.3379C108.324 33.5879 108.066 33.7832 107.766 33.9238C107.465 34.0645 107.139 34.1348 106.787 34.1348C106.482 34.1348 106.211 34.0801 105.973 33.9707C105.738 33.8613 105.506 33.7031 105.275 33.4961V34H104.062V26.3535ZM105.275 32.5469C105.42 32.707 105.604 32.8301 105.826 32.916C106.053 32.998 106.27 33.0391 106.477 33.0391C106.934 33.0391 107.305 32.877 107.59 32.5527C107.879 32.2285 108.023 31.8027 108.023 31.2754C108.023 30.748 107.879 30.3203 107.59 29.9922C107.305 29.6641 106.934 29.5 106.477 29.5C106.27 29.5 106.053 29.543 105.826 29.6289C105.604 29.7109 105.42 29.832 105.275 29.9922V32.5469ZM115.652 29.834C115.508 29.7637 115.359 29.7109 115.207 29.6758C115.059 29.6367 114.887 29.6172 114.691 29.6172C114.422 29.6172 114.168 29.6582 113.93 29.7402C113.695 29.8184 113.492 29.9375 113.32 30.0977C113.148 30.2578 113.014 30.459 112.916 30.7012C112.822 30.9395 112.775 31.2227 112.775 31.5508V32.9102H114V34H110.326V32.9102H111.562V29.6348H110.326V28.5391H112.775V29.9102C112.975 29.3633 113.268 28.9766 113.654 28.75C114.045 28.5234 114.508 28.4102 115.043 28.4102C115.211 28.4102 115.387 28.4277 115.57 28.4629C115.754 28.498 115.934 28.5605 116.109 28.6504L115.652 29.834ZM120.346 27.8301H118.869V26.3535H120.346V27.8301ZM121.459 34H117.791V32.9102H118.998V29.6348H117.791V28.5391H120.211V32.9102H121.459V34ZM128.947 32.2598C128.885 32.834 128.658 33.291 128.268 33.6309C127.881 33.9668 127.396 34.1348 126.814 34.1348C126.494 34.1348 126.201 34.082 125.936 33.9766C125.67 33.8711 125.443 33.7246 125.256 33.5371C125.068 33.3496 124.922 33.125 124.816 32.8633C124.715 32.5977 124.664 32.3086 124.664 31.9961V29.6348H123.428V28.5391H124.664V26.3535H125.877V28.5391H128.168V29.6348H125.877V31.9961C125.877 32.3477 125.963 32.6094 126.135 32.7812C126.307 32.9531 126.533 33.0391 126.814 33.0391C127.158 33.0391 127.414 32.9395 127.582 32.7402C127.75 32.541 127.85 32.3008 127.881 32.0195L128.947 32.2598ZM133.447 27.8301H131.971V26.3535H133.447V27.8301ZM134.561 34H130.893V32.9102H132.1V29.6348H130.893V28.5391H133.312V32.9102H134.561V34ZM137.643 31.7324C137.701 32.1074 137.879 32.4199 138.176 32.6699C138.477 32.916 138.879 33.0391 139.383 33.0391C139.777 33.0391 140.119 32.9785 140.408 32.8574C140.701 32.7324 140.953 32.5684 141.164 32.3652L141.785 33.2207C141.434 33.5723 141.061 33.8125 140.666 33.9414C140.275 34.0703 139.848 34.1348 139.383 34.1348C138.961 34.1348 138.568 34.0645 138.205 33.9238C137.842 33.7832 137.527 33.5879 137.262 33.3379C136.996 33.084 136.787 32.7832 136.635 32.4355C136.486 32.0879 136.412 31.7012 136.412 31.2754C136.412 30.8613 136.48 30.4805 136.617 30.1328C136.758 29.7812 136.953 29.4785 137.203 29.2246C137.457 28.9668 137.76 28.7676 138.111 28.627C138.463 28.4824 138.852 28.4102 139.277 28.4102C139.719 28.4102 140.119 28.4863 140.479 28.6387C140.838 28.7871 141.145 29.0039 141.398 29.2891C141.656 29.5742 141.857 29.9238 142.002 30.3379C142.146 30.748 142.219 31.2129 142.219 31.7324H137.643ZM140.848 30.666C140.785 30.3145 140.604 30.0332 140.303 29.8223C140.002 29.6074 139.66 29.5 139.277 29.5C138.895 29.5 138.551 29.6074 138.246 29.8223C137.941 30.0332 137.758 30.3145 137.695 30.666H140.848ZM148.395 32.3652C148.395 32.7207 148.314 33.0098 148.154 33.2324C147.994 33.4551 147.787 33.6348 147.533 33.7715C147.283 33.9082 147.002 34.002 146.689 34.0527C146.381 34.1074 146.078 34.1348 145.781 34.1348C145.285 34.1348 144.791 34.0625 144.299 33.918C143.807 33.7734 143.381 33.584 143.021 33.3496L143.525 32.3535C143.955 32.6035 144.348 32.7812 144.703 32.8867C145.062 32.9883 145.422 33.0391 145.781 33.0391C146.27 33.0391 146.625 32.9883 146.848 32.8867C147.07 32.7812 147.182 32.6367 147.182 32.4531C147.182 32.3633 147.15 32.2891 147.088 32.2305C147.025 32.1719 146.922 32.1191 146.777 32.0723C146.633 32.0215 146.441 31.9727 146.203 31.9258C145.969 31.875 145.676 31.8223 145.324 31.7676C145.043 31.7207 144.775 31.6641 144.521 31.5977C144.271 31.5273 144.051 31.4297 143.859 31.3047C143.668 31.1797 143.514 31.0215 143.396 30.8301C143.283 30.6387 143.227 30.3984 143.227 30.1094C143.227 29.8164 143.301 29.5625 143.449 29.3477C143.602 29.1289 143.799 28.9492 144.041 28.8086C144.287 28.668 144.562 28.5664 144.867 28.5039C145.172 28.4414 145.477 28.4102 145.781 28.4102C146.211 28.4102 146.627 28.4668 147.029 28.5801C147.436 28.6895 147.791 28.8477 148.096 29.0547L147.615 29.9922C147.311 29.8008 147.014 29.6719 146.725 29.6055C146.439 29.5352 146.125 29.5 145.781 29.5C145.637 29.5 145.486 29.5078 145.33 29.5234C145.174 29.5391 145.029 29.5703 144.896 29.6172C144.764 29.6602 144.652 29.7207 144.562 29.7988C144.477 29.873 144.434 29.9648 144.434 30.0742C144.434 30.2188 144.561 30.3379 144.814 30.4316C145.072 30.5215 145.51 30.6113 146.127 30.7012C146.463 30.748 146.77 30.8086 147.047 30.8828C147.324 30.9531 147.562 31.0508 147.762 31.1758C147.961 31.2969 148.115 31.4551 148.225 31.6504C148.338 31.8418 148.395 32.0801 148.395 32.3652ZM79.5996 40.4453C79.5996 40.8047 79.5039 41.1719 79.3125 41.5469C79.1211 41.9219 78.8574 42.2773 78.5215 42.6133L76.1309 44.9102H78.375V43.8613H79.4707V46H74.5488V44.8574L77.6309 41.9102C77.8965 41.6367 78.0879 41.3809 78.2051 41.1426C78.3262 40.9004 78.3867 40.668 78.3867 40.4453C78.3867 40.2461 78.3477 40.0742 78.2695 39.9297C78.1953 39.7852 78.0977 39.668 77.9766 39.5781C77.8594 39.4844 77.7246 39.418 77.5723 39.3789C77.4199 39.3359 77.2676 39.3145 77.1152 39.3145C76.6348 39.3145 76.2559 39.4551 75.9785 39.7363C75.7051 40.0176 75.5684 40.4336 75.5684 40.9844H74.4316C74.4316 40.1211 74.6602 39.4453 75.1172 38.957C75.5781 38.4688 76.2441 38.2246 77.1152 38.2246C77.4434 38.2246 77.7578 38.2734 78.0586 38.3711C78.3594 38.4648 78.623 38.6035 78.8496 38.7871C79.0801 38.9707 79.2617 39.2031 79.3945 39.4844C79.5312 39.7656 79.5996 40.0859 79.5996 40.4453ZM86.4023 43.3984C86.4023 43.8203 86.332 44.1992 86.1914 44.5352C86.0547 44.8711 85.8633 45.1582 85.6172 45.3965C85.375 45.6309 85.0879 45.8125 84.7559 45.9414C84.4238 46.0703 84.0684 46.1348 83.6895 46.1348C83.1152 46.1348 82.6406 46.0254 82.2656 45.8066C81.8945 45.584 81.6016 45.291 81.3867 44.9277C81.1719 44.5645 81.0195 44.1445 80.9297 43.668C80.8438 43.1914 80.8008 42.6973 80.8008 42.1855C80.8008 41.666 80.8633 41.168 80.9883 40.6914C81.1172 40.2148 81.3145 39.793 81.5801 39.4258C81.8457 39.0547 82.1758 38.7617 82.5703 38.5469C82.9648 38.332 83.4355 38.2246 83.9824 38.2246C84.3652 38.2246 84.7266 38.2832 85.0664 38.4004C85.4062 38.5137 85.7031 38.6836 85.957 38.9102L85.3008 39.7949C85.1016 39.6191 84.8945 39.4961 84.6797 39.4258C84.4688 39.3516 84.2363 39.3145 83.9824 39.3145C83.6543 39.3145 83.3613 39.3809 83.1035 39.5137C82.8457 39.6465 82.6309 39.834 82.459 40.0762C82.2871 40.3145 82.1562 40.5977 82.0664 40.9258C81.9805 41.2539 81.9375 41.6133 81.9375 42.0039C82.0586 41.5977 82.2871 41.2656 82.623 41.0078C82.959 40.75 83.4023 40.6211 83.9531 40.6211C84.2812 40.6211 84.5938 40.6914 84.8906 40.832C85.1875 40.9727 85.4473 41.166 85.6699 41.4121C85.8965 41.6543 86.0742 41.9453 86.2031 42.2852C86.3359 42.625 86.4023 42.9961 86.4023 43.3984ZM85.1895 43.3984C85.1895 42.918 85.0566 42.5156 84.791 42.1914C84.5293 41.8672 84.1504 41.7051 83.6543 41.7051C83.1738 41.7051 82.7891 41.8555 82.5 42.1562C82.2148 42.4531 82.0723 42.8457 82.0723 43.334C82.0723 43.5762 82.1035 43.7988 82.166 44.002C82.2324 44.2051 82.3301 44.3848 82.459 44.541C82.5918 44.6973 82.7598 44.8203 82.9629 44.9102C83.1699 44.9961 83.416 45.0391 83.7012 45.0391C84.1348 45.0391 84.4902 44.8965 84.7676 44.6113C85.0488 44.3223 85.1895 43.918 85.1895 43.3984ZM99.3984 43.9023C99.3984 44.5977 99.1621 45.1211 98.6895 45.4727C98.2168 45.8242 97.5449 46 96.6738 46H94.2363V38.3535H96.5391C96.8594 38.3535 97.1738 38.3809 97.4824 38.4355C97.791 38.4863 98.0664 38.584 98.3086 38.7285C98.5547 38.873 98.7539 39.0762 98.9062 39.3379C99.0586 39.5957 99.1348 39.9316 99.1348 40.3457C99.1348 40.7324 99.0352 41.0859 98.8359 41.4062C98.6406 41.7266 98.3438 41.957 97.9453 42.0977C98.4336 42.25 98.7969 42.4629 99.0352 42.7363C99.2773 43.0098 99.3984 43.3984 99.3984 43.9023ZM97.9336 40.5039C97.9336 40.2812 97.8906 40.0996 97.8047 39.959C97.7227 39.8184 97.6152 39.7109 97.4824 39.6367C97.3496 39.5586 97.2012 39.5078 97.0371 39.4844C96.873 39.4609 96.707 39.4492 96.5391 39.4492H95.4492V41.5586H96.5391C96.707 41.5586 96.873 41.5469 97.0371 41.5234C97.2012 41.5 97.3496 41.4512 97.4824 41.377C97.6152 41.2988 97.7227 41.1895 97.8047 41.0488C97.8906 40.9082 97.9336 40.7266 97.9336 40.5039ZM98.1973 43.7793C98.1973 43.3965 98.0625 43.1133 97.793 42.9297C97.5273 42.7461 97.1543 42.6543 96.6738 42.6543H95.4492V44.9102H96.6738C97.1543 44.9102 97.5273 44.8184 97.793 44.6348C98.0625 44.4473 98.1973 44.1621 98.1973 43.7793ZM105.826 41.834C105.682 41.7637 105.533 41.7109 105.381 41.6758C105.232 41.6367 105.061 41.6172 104.865 41.6172C104.596 41.6172 104.342 41.6582 104.104 41.7402C103.869 41.8184 103.666 41.9375 103.494 42.0977C103.322 42.2578 103.188 42.459 103.09 42.7012C102.996 42.9395 102.949 43.2227 102.949 43.5508V44.9102H104.174V46H100.5V44.9102H101.736V41.6348H100.5V40.5391H102.949V41.9102C103.148 41.3633 103.441 40.9766 103.828 40.75C104.219 40.5234 104.682 40.4102 105.217 40.4102C105.385 40.4102 105.561 40.4277 105.744 40.4629C105.928 40.498 106.107 40.5605 106.283 40.6504L105.826 41.834ZM107.027 44.4297C107.027 44.1094 107.113 43.8301 107.285 43.5918C107.457 43.3496 107.682 43.1484 107.959 42.9883C108.24 42.8281 108.561 42.709 108.92 42.6309C109.283 42.5488 109.652 42.5078 110.027 42.5078C110.234 42.5078 110.412 42.5117 110.561 42.5195C110.709 42.5273 110.859 42.5391 111.012 42.5547V42.3379C111.012 42.0527 110.9 41.8398 110.678 41.6992C110.459 41.5586 110.17 41.4883 109.811 41.4883C109.482 41.4883 109.148 41.5352 108.809 41.6289C108.469 41.7188 108.146 41.8516 107.842 42.0273L107.35 41.0781C107.709 40.8711 108.094 40.709 108.504 40.5918C108.918 40.4707 109.354 40.4102 109.811 40.4102C110.107 40.4102 110.398 40.4434 110.684 40.5098C110.973 40.5762 111.23 40.6855 111.457 40.8379C111.688 40.9902 111.871 41.1895 112.008 41.4355C112.145 41.6777 112.213 41.9785 112.213 42.3379V46H111.012V45.1973C110.82 45.4941 110.537 45.7246 110.162 45.8887C109.791 46.0527 109.391 46.1348 108.961 46.1348C108.695 46.1348 108.443 46.0977 108.205 46.0234C107.971 45.9531 107.768 45.8457 107.596 45.7012C107.424 45.5566 107.285 45.3789 107.18 45.168C107.078 44.9531 107.027 44.707 107.027 44.4297ZM109.271 45.0508C109.51 45.0508 109.732 45.0215 109.939 44.9629C110.15 44.9004 110.336 44.8164 110.496 44.7109C110.656 44.6016 110.781 44.4707 110.871 44.3184C110.965 44.166 111.012 43.998 111.012 43.8145V43.6094C110.82 43.5781 110.641 43.5605 110.473 43.5566C110.305 43.5527 110.156 43.5508 110.027 43.5508C109.434 43.5508 108.984 43.6289 108.68 43.7852C108.379 43.9414 108.229 44.1348 108.229 44.3652C108.229 44.8223 108.576 45.0508 109.271 45.0508ZM118.775 46H117.562V42.6309C117.562 42.2051 117.482 41.9102 117.322 41.7461C117.162 41.582 116.93 41.5 116.625 41.5C116.176 41.5 115.809 41.6816 115.523 42.0449C115.242 42.4082 115.102 42.9102 115.102 43.5508V46H113.889V40.5391H115.102V41.9102C115.223 41.4375 115.447 41.0703 115.775 40.8086C116.104 40.543 116.508 40.4102 116.988 40.4102C117.547 40.4102 117.984 40.5918 118.301 40.9551C118.617 41.3184 118.775 41.877 118.775 42.6309V46ZM125.326 46H124.113V45.4961C123.879 45.7031 123.643 45.8613 123.404 45.9707C123.166 46.0801 122.895 46.1348 122.59 46.1348C122.238 46.1348 121.912 46.0645 121.611 45.9238C121.311 45.7832 121.051 45.5879 120.832 45.3379C120.617 45.084 120.447 44.7812 120.322 44.4297C120.201 44.0781 120.141 43.6934 120.141 43.2754C120.141 42.8613 120.201 42.4785 120.322 42.127C120.447 41.7715 120.617 41.4688 120.832 41.2188C121.051 40.9648 121.311 40.7676 121.611 40.627C121.912 40.4824 122.238 40.4102 122.59 40.4102C122.895 40.4102 123.166 40.4629 123.404 40.5684C123.643 40.6699 123.879 40.8242 124.113 41.0312V39.4492H123.059V38.3535H125.326V46ZM124.113 41.9922C123.969 41.832 123.781 41.7109 123.551 41.6289C123.324 41.543 123.107 41.5 122.9 41.5C122.443 41.5 122.07 41.6641 121.781 41.9922C121.496 42.3203 121.354 42.748 121.354 43.2754C121.354 43.8027 121.496 44.2285 121.781 44.5527C122.07 44.877 122.443 45.0391 122.9 45.0391C123.107 45.0391 123.324 44.998 123.551 44.916C123.781 44.8301 123.969 44.707 124.113 44.5469V41.9922ZM132.018 44.3652C132.018 44.7207 131.938 45.0098 131.777 45.2324C131.617 45.4551 131.41 45.6348 131.156 45.7715C130.906 45.9082 130.625 46.002 130.312 46.0527C130.004 46.1074 129.701 46.1348 129.404 46.1348C128.908 46.1348 128.414 46.0625 127.922 45.918C127.43 45.7734 127.004 45.584 126.645 45.3496L127.148 44.3535C127.578 44.6035 127.971 44.7812 128.326 44.8867C128.686 44.9883 129.045 45.0391 129.404 45.0391C129.893 45.0391 130.248 44.9883 130.471 44.8867C130.693 44.7812 130.805 44.6367 130.805 44.4531C130.805 44.3633 130.773 44.2891 130.711 44.2305C130.648 44.1719 130.545 44.1191 130.4 44.0723C130.256 44.0215 130.064 43.9727 129.826 43.9258C129.592 43.875 129.299 43.8223 128.947 43.7676C128.666 43.7207 128.398 43.6641 128.145 43.5977C127.895 43.5273 127.674 43.4297 127.482 43.3047C127.291 43.1797 127.137 43.0215 127.02 42.8301C126.906 42.6387 126.85 42.3984 126.85 42.1094C126.85 41.8164 126.924 41.5625 127.072 41.3477C127.225 41.1289 127.422 40.9492 127.664 40.8086C127.91 40.668 128.186 40.5664 128.49 40.5039C128.795 40.4414 129.1 40.4102 129.404 40.4102C129.834 40.4102 130.25 40.4668 130.652 40.5801C131.059 40.6895 131.414 40.8477 131.719 41.0547L131.238 41.9922C130.934 41.8008 130.637 41.6719 130.348 41.6055C130.062 41.5352 129.748 41.5 129.404 41.5C129.26 41.5 129.109 41.5078 128.953 41.5234C128.797 41.5391 128.652 41.5703 128.52 41.6172C128.387 41.6602 128.275 41.7207 128.186 41.7988C128.1 41.873 128.057 41.9648 128.057 42.0742C128.057 42.2188 128.184 42.3379 128.438 42.4316C128.695 42.5215 129.133 42.6113 129.75 42.7012C130.086 42.748 130.393 42.8086 130.67 42.8828C130.947 42.9531 131.186 43.0508 131.385 43.1758C131.584 43.2969 131.738 43.4551 131.848 43.6504C131.961 43.8418 132.018 44.0801 132.018 44.3652Z" fill="white"/>
</svg>
