<svg width="107" height="121" viewBox="0 0 107 121" fill="none" xmlns="http://www.w3.org/2000/svg">
<path fill-rule="evenodd" clip-rule="evenodd" d="M0 30.25L53.5021 0L107 30.25V90.75L53.5021 121L0 90.75V30.25ZM53.5021 113.438L100.312 86.9667V34.0292L53.5021 7.5625L6.68827 34.0292V86.9667L53.5021 113.438ZM54.1033 58.2289C52.5772 55.5161 50.3357 53.254 47.6127 51.6788C44.834 50.0772 41.661 49.2502 38.4369 49.287C35.6742 49.2555 32.9442 49.8738 30.4761 51.0899C28.109 52.2465 26.0598 53.9422 24.5003 56.0348V36.8401C24.513 36.501 24.4541 36.1629 24.3274 35.8471C24.2007 35.5312 24.0088 35.2443 23.7638 35.0043C23.5187 34.7644 23.2258 34.5765 22.9033 34.4523C22.5807 34.3282 22.2355 34.2706 21.8892 34.283C21.5491 34.2705 21.2101 34.3283 20.8943 34.4527C20.5785 34.5771 20.2931 34.7653 20.0565 35.005C19.8209 35.25 19.6373 35.5383 19.5164 35.8534C19.3955 36.1684 19.3397 36.5038 19.3523 36.8401V51.5134C19.3002 51.7053 19.278 51.9039 19.2864 52.1023V67.5015C19.2456 70.7589 20.0884 73.9684 21.7286 76.8024C23.3051 79.5526 25.6174 81.8298 28.4169 83.3889C31.3012 84.9963 34.5708 85.8219 37.8892 85.7806C41.2076 85.8221 44.4773 84.9965 47.3615 83.3889C50.1544 81.8272 52.4618 79.5521 54.0374 76.8064C55.6758 73.9717 56.5184 70.7627 56.4796 67.5056C56.5221 64.2639 55.7032 61.0671 54.1033 58.2289ZM49.6884 74.4792C48.5423 76.5181 46.8546 78.2155 44.804 79.3918H44.8122C43.2588 80.275 41.5423 80.8486 39.7616 81.0797C37.9809 81.3107 36.1711 81.1946 34.4364 80.738C32.7018 80.2814 31.0764 79.4934 29.6539 78.4193C28.2313 77.3451 27.0397 76.0061 26.1477 74.4792C24.9489 72.3431 24.3373 69.9387 24.3726 67.5015C24.364 66.9548 24.3873 66.4081 24.4426 65.864C24.4881 65.7595 24.5106 65.6468 24.5085 65.5333C24.862 62.3042 26.4229 59.3174 28.8905 57.148C31.3521 54.9696 34.5724 53.7975 37.8892 53.8729C40.3161 53.8497 42.7047 54.4669 44.804 55.6597C46.8557 56.8132 48.545 58.4956 49.6884 60.5239C50.8496 62.6739 51.4567 65.0693 51.4567 67.5015C51.4567 69.9338 50.8496 72.3292 49.6884 74.4792ZM87.7218 83.1591C87.7218 84.6891 86.9421 85.4541 85.3826 85.4541H60.5404C58.9809 85.4541 58.2012 84.6891 58.2012 83.1591C58.1531 82.5765 58.318 81.9961 58.6666 81.5216L80.6135 54.1998H60.2892C58.727 54.1998 57.9472 53.4361 57.95 51.9089C57.9527 50.3816 58.7324 49.6166 60.2892 49.6139H85.1108C86.6703 49.6139 87.45 50.3789 87.45 51.9089C87.4791 52.5199 87.2898 53.1218 86.9146 53.6109L65.1736 80.8682H85.3785C86.9407 80.8682 87.7218 81.6318 87.7218 83.1591Z" fill="url(#paint0_linear_1784_12074)"/>
<defs>
<linearGradient id="paint0_linear_1784_12074" x1="111.024" y1="59.6379" x2="-0.744834" y2="58.0934" gradientUnits="userSpaceOnUse">
<stop stop-color="#CE09FF"/>
<stop offset="1" stop-color="#FFA34E"/>
</linearGradient>
</defs>
</svg>
