<svg width="1440" height="459" viewBox="0 0 1440 459" fill="none" xmlns="http://www.w3.org/2000/svg">
    <g clip-path="url(#clip0_1784_11964)">
        <rect width="1440" height="459" fill="#130A58" />
        <g opacity="0.6" filter="url(#filter0_f_1784_11964)">
            <path
                d="M636.973 703.018C776.291 739.423 1174.27 1027.3 1183.5 1073C1336.66 1194.66 1106.75 814.576 1145 703.018V546L390.877 497.037C371.483 495.778 352.909 505.038 342.241 521.283L239 678.5C253.608 707.302 497.655 666.613 636.973 703.018Z"
                fill="#FF00F5" />
        </g>
        <g opacity="0.3">
            <mask id="mask0_1784_11964" style="mask-type:alpha" maskUnits="userSpaceOnUse" x="-27" y="106" width="609"
                height="429">
                <path opacity="0.9" fill-rule="evenodd" clip-rule="evenodd"
                    d="M576.403 114.612L576.403 120L572.743 120L572.743 114.612L567.146 114.612L567.146 111.388L572.743 111.388L572.743 106L576.403 106L576.403 111.388L582 111.388L582 114.612L576.403 114.612ZM576.403 197.612L576.403 203L572.743 203L572.743 197.612L567.146 197.612L567.146 194.388L572.743 194.388L572.743 189L576.403 189L576.403 194.388L582 194.388L582 197.612L576.403 197.612ZM576.403 286L576.403 280.612L582 280.612L582 277.388L576.403 277.388L576.403 272L572.743 272L572.743 277.388L567.146 277.388L567.146 280.612L572.743 280.612L572.743 286L576.403 286ZM576.403 363.612L576.403 369L572.743 369L572.743 363.612L567.146 363.612L567.146 360.388L572.743 360.388L572.743 355L576.403 355L576.403 360.388L582 360.388L582 363.612L576.403 363.612ZM576.403 452L576.403 446.612L582 446.612L582 443.388L576.403 443.388L576.403 438L572.743 438L572.743 443.388L567.146 443.388L567.146 446.612L572.743 446.612L572.743 452L576.403 452ZM576.403 529.612L576.403 535L572.743 535L572.743 529.612L567.146 529.612L567.146 526.388L572.743 526.388L572.743 521L576.403 521L576.403 526.388L582 526.388L582 529.612L576.403 529.612ZM477.379 120L477.379 114.612L482.976 114.612L482.976 111.388L477.379 111.388L477.379 106L473.719 106L473.719 111.388L468.122 111.388L468.122 114.612L473.719 114.612L473.719 120L477.379 120ZM477.379 197.612L477.379 203L473.719 203L473.719 197.612L468.122 197.612L468.122 194.388L473.719 194.388L473.719 189L477.379 189L477.379 194.388L482.976 194.388L482.976 197.612L477.379 197.612ZM477.379 286L477.379 280.612L482.976 280.612L482.976 277.388L477.379 277.388L477.379 272L473.719 272L473.719 277.388L468.122 277.388L468.122 280.612L473.719 280.612L473.719 286L477.379 286ZM477.379 363.612L477.379 369L473.719 369L473.719 363.612L468.122 363.612L468.122 360.388L473.719 360.388L473.719 355L477.379 355L477.379 360.388L482.976 360.388L482.976 363.612L477.379 363.612ZM477.379 452L477.379 446.612L482.976 446.612L482.976 443.388L477.379 443.388L477.379 438L473.719 438L473.719 443.388L468.122 443.388L468.122 446.612L473.719 446.612L473.719 452L477.379 452ZM477.379 529.612L477.379 535L473.719 535L473.719 529.612L468.122 529.612L468.122 526.388L473.719 526.388L473.719 521L477.379 521L477.379 526.388L482.976 526.388L482.976 529.612L477.379 529.612ZM378.355 120L378.355 114.612L383.951 114.612L383.951 111.388L378.355 111.388L378.355 106L374.694 106L374.694 111.388L369.098 111.388L369.098 114.612L374.694 114.612L374.694 120L378.355 120ZM378.355 197.612L378.355 203L374.694 203L374.694 197.612L369.098 197.612L369.098 194.388L374.694 194.388L374.694 189L378.355 189L378.355 194.388L383.951 194.388L383.951 197.612L378.355 197.612ZM378.355 286L378.355 280.612L383.951 280.612L383.951 277.388L378.355 277.388L378.355 272L374.694 272L374.694 277.388L369.098 277.388L369.098 280.612L374.694 280.612L374.694 286L378.355 286ZM378.355 363.612L378.355 369L374.694 369L374.694 363.612L369.098 363.612L369.098 360.388L374.694 360.388L374.694 355L378.355 355L378.355 360.388L383.951 360.388L383.951 363.612L378.355 363.612ZM378.355 452L378.355 446.612L383.951 446.612L383.951 443.388L378.355 443.388L378.355 438L374.694 438L374.694 443.388L369.098 443.388L369.098 446.612L374.694 446.612L374.694 452L378.355 452ZM378.355 529.612L378.355 535L374.694 535L374.694 529.612L369.098 529.612L369.098 526.388L374.694 526.388L374.694 521L378.355 521L378.355 526.388L383.951 526.388L383.951 529.612L378.355 529.612ZM279.33 120L279.33 114.612L284.927 114.612L284.927 111.388L279.33 111.388L279.33 106L275.67 106L275.67 111.388L270.073 111.388L270.073 114.612L275.67 114.612L275.67 120L279.33 120ZM279.33 197.612L279.33 203L275.67 203L275.67 197.612L270.073 197.612L270.073 194.388L275.67 194.388L275.67 189L279.33 189L279.33 194.388L284.927 194.388L284.927 197.612L279.33 197.612ZM279.33 286L279.33 280.612L284.927 280.612L284.927 277.388L279.33 277.388L279.33 272L275.67 272L275.67 277.388L270.073 277.388L270.073 280.612L275.67 280.612L275.67 286L279.33 286ZM279.33 363.612L279.33 369L275.67 369L275.67 363.612L270.073 363.612L270.073 360.388L275.67 360.388L275.67 355L279.33 355L279.33 360.388L284.927 360.388L284.927 363.612L279.33 363.612ZM279.33 452L279.33 446.612L284.927 446.612L284.927 443.388L279.33 443.388L279.33 438L275.67 438L275.67 443.388L270.073 443.388L270.073 446.612L275.67 446.612L275.67 452L279.33 452ZM279.33 529.612L279.33 535L275.67 535L275.67 529.612L270.073 529.612L270.073 526.388L275.67 526.388L275.67 521L279.33 521L279.33 526.388L284.927 526.388L284.927 529.612L279.33 529.612ZM180.306 120L180.306 114.612L185.902 114.612L185.902 111.388L180.306 111.388L180.306 106L176.645 106L176.645 111.388L171.049 111.388L171.049 114.612L176.645 114.612L176.645 120L180.306 120ZM180.306 197.612L180.306 203L176.645 203L176.645 197.612L171.049 197.612L171.049 194.388L176.645 194.388L176.645 189L180.306 189L180.306 194.388L185.902 194.388L185.902 197.612L180.306 197.612ZM180.306 286L180.306 280.612L185.902 280.612L185.902 277.388L180.306 277.388L180.306 272L176.645 272L176.645 277.388L171.049 277.388L171.049 280.612L176.645 280.612L176.645 286L180.306 286ZM180.306 363.612L180.306 369L176.645 369L176.645 363.612L171.049 363.612L171.049 360.388L176.645 360.388L176.645 355L180.306 355L180.306 360.388L185.902 360.388L185.902 363.612L180.306 363.612ZM180.306 452L180.306 446.612L185.902 446.612L185.902 443.388L180.306 443.388L180.306 438L176.645 438L176.645 443.388L171.049 443.388L171.049 446.612L176.645 446.612L176.645 452L180.306 452ZM180.306 529.612L180.306 535L176.645 535L176.645 529.612L171.049 529.612L171.049 526.388L176.645 526.388L176.645 521L180.306 521L180.306 526.388L185.902 526.388L185.902 529.612L180.306 529.612ZM81.2814 120L81.2814 114.612L86.8781 114.612L86.8781 111.388L81.2814 111.388L81.2814 106L77.621 106L77.621 111.388L72.0244 111.388L72.0244 114.612L77.621 114.612L77.621 120L81.2814 120ZM81.2814 197.612L81.2814 203L77.621 203L77.621 197.612L72.0244 197.612L72.0244 194.388L77.621 194.388L77.621 189L81.2814 189L81.2814 194.388L86.878 194.388L86.878 197.612L81.2814 197.612ZM81.2814 286L81.2814 280.612L86.878 280.612L86.878 277.388L81.2814 277.388L81.2814 272L77.621 272L77.621 277.388L72.0244 277.388L72.0244 280.612L77.621 280.612L77.621 286L81.2814 286ZM81.2814 363.612L81.2814 369L77.621 369L77.621 363.612L72.0244 363.612L72.0244 360.388L77.621 360.388L77.621 355L81.2814 355L81.2814 360.388L86.878 360.388L86.878 363.612L81.2814 363.612ZM81.2814 452L81.2814 446.612L86.878 446.612L86.878 443.388L81.2814 443.388L81.2814 438L77.621 438L77.621 443.388L72.0244 443.388L72.0244 446.612L77.621 446.612L77.621 452L81.2814 452ZM81.2814 529.612L81.2814 535L77.621 535L77.621 529.612L72.0244 529.612L72.0244 526.388L77.621 526.388L77.621 521L81.2814 521L81.2814 526.388L86.878 526.388L86.878 529.612L81.2814 529.612ZM-17.743 120L-17.743 114.612L-12.1464 114.612L-12.1464 111.388L-17.743 111.388L-17.743 106L-21.4034 106L-21.4034 111.388L-27 111.388L-27 114.612L-21.4034 114.612L-21.4034 120L-17.743 120ZM-17.743 197.612L-17.743 203L-21.4034 203L-21.4034 197.612L-27 197.612L-27 194.388L-21.4034 194.388L-21.4034 189L-17.743 189L-17.743 194.388L-12.1464 194.388L-12.1464 197.612L-17.743 197.612ZM-17.743 286L-17.743 280.612L-12.1464 280.612L-12.1464 277.388L-17.743 277.388L-17.743 272L-21.4034 272L-21.4034 277.388L-27 277.388L-27 280.612L-21.4034 280.612L-21.4034 286L-17.743 286ZM-17.743 363.612L-17.743 369L-21.4034 369L-21.4034 363.612L-27 363.612L-27 360.388L-21.4034 360.388L-21.4034 355L-17.743 355L-17.743 360.388L-12.1464 360.388L-12.1464 363.612L-17.743 363.612ZM-17.743 452L-17.743 446.612L-12.1464 446.612L-12.1464 443.388L-17.743 443.388L-17.743 438L-21.4034 438L-21.4034 443.388L-27 443.388L-27 446.612L-21.4034 446.612L-21.4034 452L-17.743 452ZM-17.743 529.612L-17.743 535L-21.4034 535L-21.4034 529.612L-27 529.612L-27 526.388L-21.4034 526.388L-21.4034 521L-17.743 521L-17.743 526.388L-12.1464 526.388L-12.1464 529.612L-17.743 529.612Z"
                    fill="#FFFBF8" />
            </mask>
            <g mask="url(#mask0_1784_11964)">
                <g filter="url(#filter1_f_1784_11964)">
                    <ellipse cx="223.037" cy="470" rx="149" ry="184.433" transform="rotate(90 223.037 470)"
                        fill="white" />
                </g>
            </g>
        </g>
        <g opacity="0.3">
            <mask id="mask1_1784_11964" style="mask-type:alpha" maskUnits="userSpaceOnUse" x="925" y="106" width="609"
                height="429">
                <path opacity="0.9" fill-rule="evenodd" clip-rule="evenodd"
                    d="M1528.4 114.612L1528.4 120L1524.74 120L1524.74 114.612L1519.15 114.612L1519.15 111.388L1524.74 111.388L1524.74 106L1528.4 106L1528.4 111.388L1534 111.388L1534 114.612L1528.4 114.612ZM1528.4 197.612L1528.4 203L1524.74 203L1524.74 197.612L1519.15 197.612L1519.15 194.388L1524.74 194.388L1524.74 189L1528.4 189L1528.4 194.388L1534 194.388L1534 197.612L1528.4 197.612ZM1528.4 286L1528.4 280.612L1534 280.612L1534 277.388L1528.4 277.388L1528.4 272L1524.74 272L1524.74 277.388L1519.15 277.388L1519.15 280.612L1524.74 280.612L1524.74 286L1528.4 286ZM1528.4 363.612L1528.4 369L1524.74 369L1524.74 363.612L1519.15 363.612L1519.15 360.388L1524.74 360.388L1524.74 355L1528.4 355L1528.4 360.388L1534 360.388L1534 363.612L1528.4 363.612ZM1528.4 452L1528.4 446.612L1534 446.612L1534 443.388L1528.4 443.388L1528.4 438L1524.74 438L1524.74 443.388L1519.15 443.388L1519.15 446.612L1524.74 446.612L1524.74 452L1528.4 452ZM1528.4 529.612L1528.4 535L1524.74 535L1524.74 529.612L1519.15 529.612L1519.15 526.388L1524.74 526.388L1524.74 521L1528.4 521L1528.4 526.388L1534 526.388L1534 529.612L1528.4 529.612ZM1429.38 120L1429.38 114.612L1434.98 114.612L1434.98 111.388L1429.38 111.388L1429.38 106L1425.72 106L1425.72 111.388L1420.12 111.388L1420.12 114.612L1425.72 114.612L1425.72 120L1429.38 120ZM1429.38 197.612L1429.38 203L1425.72 203L1425.72 197.612L1420.12 197.612L1420.12 194.388L1425.72 194.388L1425.72 189L1429.38 189L1429.38 194.388L1434.98 194.388L1434.98 197.612L1429.38 197.612ZM1429.38 286L1429.38 280.612L1434.98 280.612L1434.98 277.388L1429.38 277.388L1429.38 272L1425.72 272L1425.72 277.388L1420.12 277.388L1420.12 280.612L1425.72 280.612L1425.72 286L1429.38 286ZM1429.38 363.612L1429.38 369L1425.72 369L1425.72 363.612L1420.12 363.612L1420.12 360.388L1425.72 360.388L1425.72 355L1429.38 355L1429.38 360.388L1434.98 360.388L1434.98 363.612L1429.38 363.612ZM1429.38 452L1429.38 446.612L1434.98 446.612L1434.98 443.388L1429.38 443.388L1429.38 438L1425.72 438L1425.72 443.388L1420.12 443.388L1420.12 446.612L1425.72 446.612L1425.72 452L1429.38 452ZM1429.38 529.612L1429.38 535L1425.72 535L1425.72 529.612L1420.12 529.612L1420.12 526.388L1425.72 526.388L1425.72 521L1429.38 521L1429.38 526.388L1434.98 526.388L1434.98 529.612L1429.38 529.612ZM1330.35 120L1330.35 114.612L1335.95 114.612L1335.95 111.388L1330.35 111.388L1330.35 106L1326.69 106L1326.69 111.388L1321.1 111.388L1321.1 114.612L1326.69 114.612L1326.69 120L1330.35 120ZM1330.35 197.612L1330.35 203L1326.69 203L1326.69 197.612L1321.1 197.612L1321.1 194.388L1326.69 194.388L1326.69 189L1330.35 189L1330.35 194.388L1335.95 194.388L1335.95 197.612L1330.35 197.612ZM1330.35 286L1330.35 280.612L1335.95 280.612L1335.95 277.388L1330.35 277.388L1330.35 272L1326.69 272L1326.69 277.388L1321.1 277.388L1321.1 280.612L1326.69 280.612L1326.69 286L1330.35 286ZM1330.35 363.612L1330.35 369L1326.69 369L1326.69 363.612L1321.1 363.612L1321.1 360.388L1326.69 360.388L1326.69 355L1330.35 355L1330.35 360.388L1335.95 360.388L1335.95 363.612L1330.35 363.612ZM1330.35 452L1330.35 446.612L1335.95 446.612L1335.95 443.388L1330.35 443.388L1330.35 438L1326.69 438L1326.69 443.388L1321.1 443.388L1321.1 446.612L1326.69 446.612L1326.69 452L1330.35 452ZM1330.35 529.612L1330.35 535L1326.69 535L1326.69 529.612L1321.1 529.612L1321.1 526.388L1326.69 526.388L1326.69 521L1330.35 521L1330.35 526.388L1335.95 526.388L1335.95 529.612L1330.35 529.612ZM1231.33 120L1231.33 114.612L1236.93 114.612L1236.93 111.388L1231.33 111.388L1231.33 106L1227.67 106L1227.67 111.388L1222.07 111.388L1222.07 114.612L1227.67 114.612L1227.67 120L1231.33 120ZM1231.33 197.612L1231.33 203L1227.67 203L1227.67 197.612L1222.07 197.612L1222.07 194.388L1227.67 194.388L1227.67 189L1231.33 189L1231.33 194.388L1236.93 194.388L1236.93 197.612L1231.33 197.612ZM1231.33 286L1231.33 280.612L1236.93 280.612L1236.93 277.388L1231.33 277.388L1231.33 272L1227.67 272L1227.67 277.388L1222.07 277.388L1222.07 280.612L1227.67 280.612L1227.67 286L1231.33 286ZM1231.33 363.612L1231.33 369L1227.67 369L1227.67 363.612L1222.07 363.612L1222.07 360.388L1227.67 360.388L1227.67 355L1231.33 355L1231.33 360.388L1236.93 360.388L1236.93 363.612L1231.33 363.612ZM1231.33 452L1231.33 446.612L1236.93 446.612L1236.93 443.388L1231.33 443.388L1231.33 438L1227.67 438L1227.67 443.388L1222.07 443.388L1222.07 446.612L1227.67 446.612L1227.67 452L1231.33 452ZM1231.33 529.612L1231.33 535L1227.67 535L1227.67 529.612L1222.07 529.612L1222.07 526.388L1227.67 526.388L1227.67 521L1231.33 521L1231.33 526.388L1236.93 526.388L1236.93 529.612L1231.33 529.612ZM1132.31 120L1132.31 114.612L1137.9 114.612L1137.9 111.388L1132.31 111.388L1132.31 106L1128.65 106L1128.65 111.388L1123.05 111.388L1123.05 114.612L1128.65 114.612L1128.65 120L1132.31 120ZM1132.31 197.612L1132.31 203L1128.65 203L1128.65 197.612L1123.05 197.612L1123.05 194.388L1128.65 194.388L1128.65 189L1132.31 189L1132.31 194.388L1137.9 194.388L1137.9 197.612L1132.31 197.612ZM1132.31 286L1132.31 280.612L1137.9 280.612L1137.9 277.388L1132.31 277.388L1132.31 272L1128.65 272L1128.65 277.388L1123.05 277.388L1123.05 280.612L1128.65 280.612L1128.65 286L1132.31 286ZM1132.31 363.612L1132.31 369L1128.65 369L1128.65 363.612L1123.05 363.612L1123.05 360.388L1128.65 360.388L1128.65 355L1132.31 355L1132.31 360.388L1137.9 360.388L1137.9 363.612L1132.31 363.612ZM1132.31 452L1132.31 446.612L1137.9 446.612L1137.9 443.388L1132.31 443.388L1132.31 438L1128.65 438L1128.65 443.388L1123.05 443.388L1123.05 446.612L1128.65 446.612L1128.65 452L1132.31 452ZM1132.31 529.612L1132.31 535L1128.65 535L1128.65 529.612L1123.05 529.612L1123.05 526.388L1128.65 526.388L1128.65 521L1132.31 521L1132.31 526.388L1137.9 526.388L1137.9 529.612L1132.31 529.612ZM1033.28 120L1033.28 114.612L1038.88 114.612L1038.88 111.388L1033.28 111.388L1033.28 106L1029.62 106L1029.62 111.388L1024.02 111.388L1024.02 114.612L1029.62 114.612L1029.62 120L1033.28 120ZM1033.28 197.612L1033.28 203L1029.62 203L1029.62 197.612L1024.02 197.612L1024.02 194.388L1029.62 194.388L1029.62 189L1033.28 189L1033.28 194.388L1038.88 194.388L1038.88 197.612L1033.28 197.612ZM1033.28 286L1033.28 280.612L1038.88 280.612L1038.88 277.388L1033.28 277.388L1033.28 272L1029.62 272L1029.62 277.388L1024.02 277.388L1024.02 280.612L1029.62 280.612L1029.62 286L1033.28 286ZM1033.28 363.612L1033.28 369L1029.62 369L1029.62 363.612L1024.02 363.612L1024.02 360.388L1029.62 360.388L1029.62 355L1033.28 355L1033.28 360.388L1038.88 360.388L1038.88 363.612L1033.28 363.612ZM1033.28 452L1033.28 446.612L1038.88 446.612L1038.88 443.388L1033.28 443.388L1033.28 438L1029.62 438L1029.62 443.388L1024.02 443.388L1024.02 446.612L1029.62 446.612L1029.62 452L1033.28 452ZM1033.28 529.612L1033.28 535L1029.62 535L1029.62 529.612L1024.02 529.612L1024.02 526.388L1029.62 526.388L1029.62 521L1033.28 521L1033.28 526.388L1038.88 526.388L1038.88 529.612L1033.28 529.612ZM934.257 120L934.257 114.612L939.854 114.612L939.854 111.388L934.257 111.388L934.257 106L930.597 106L930.597 111.388L925 111.388L925 114.612L930.597 114.612L930.597 120L934.257 120ZM934.257 197.612L934.257 203L930.597 203L930.597 197.612L925 197.612L925 194.388L930.597 194.388L930.597 189L934.257 189L934.257 194.388L939.854 194.388L939.854 197.612L934.257 197.612ZM934.257 286L934.257 280.612L939.854 280.612L939.854 277.388L934.257 277.388L934.257 272L930.597 272L930.597 277.388L925 277.388L925 280.612L930.597 280.612L930.597 286L934.257 286ZM934.257 363.612L934.257 369L930.597 369L930.597 363.612L925 363.612L925 360.388L930.597 360.388L930.597 355L934.257 355L934.257 360.388L939.854 360.388L939.854 363.612L934.257 363.612ZM934.257 452L934.257 446.612L939.854 446.612L939.854 443.388L934.257 443.388L934.257 438L930.597 438L930.597 443.388L925 443.388L925 446.612L930.597 446.612L930.597 452L934.257 452ZM934.257 529.612L934.257 535L930.597 535L930.597 529.612L925 529.612L925 526.388L930.597 526.388L930.597 521L934.257 521L934.257 526.388L939.854 526.388L939.854 529.612L934.257 529.612Z"
                    fill="#FFFBF8" />
            </mask>
            <g mask="url(#mask1_1784_11964)">
                <g filter="url(#filter2_f_1784_11964)">
                    <ellipse cx="1175.04" cy="470" rx="149" ry="184.433" transform="rotate(90 1175.04 470)"
                        fill="white" />
                </g>
            </g>
        </g>
        <g filter="url(#filter3_b_1784_11964)">
            <rect x="1239.03" y="135" width="302" height="424" rx="8" transform="rotate(14.6211 1239.03 135)"
                fill="url(#paint0_linear_1784_11964)" />
        </g>
        <g filter="url(#filter4_b_1784_11964)">
            <rect width="302" height="424" rx="8" transform="matrix(-0.967616 0.252425 0.252425 0.967616 199.22 135)"
                fill="url(#paint1_linear_1784_11964)" />
        </g>
    </g>
    <defs>
        <filter id="filter0_f_1784_11964" x="-161" y="96.9233" width="1797.74" height="1399.81"
            filterUnits="userSpaceOnUse" color-interpolation-filters="sRGB">
            <feFlood flood-opacity="0" result="BackgroundImageFix" />
            <feBlend mode="normal" in="SourceGraphic" in2="BackgroundImageFix" result="shape" />
            <feGaussianBlur stdDeviation="200" result="effect1_foregroundBlur_1784_11964" />
        </filter>
        <filter id="filter1_f_1784_11964" x="-125.396" y="157" width="696.866" height="626" filterUnits="userSpaceOnUse"
            color-interpolation-filters="sRGB">
            <feFlood flood-opacity="0" result="BackgroundImageFix" />
            <feBlend mode="normal" in="SourceGraphic" in2="BackgroundImageFix" result="shape" />
            <feGaussianBlur stdDeviation="82" result="effect1_foregroundBlur_1784_11964" />
        </filter>
        <filter id="filter2_f_1784_11964" x="826.604" y="157" width="696.866" height="626" filterUnits="userSpaceOnUse"
            color-interpolation-filters="sRGB">
            <feFlood flood-opacity="0" result="BackgroundImageFix" />
            <feBlend mode="normal" in="SourceGraphic" in2="BackgroundImageFix" result="shape" />
            <feGaussianBlur stdDeviation="82" result="effect1_foregroundBlur_1784_11964" />
        </filter>
        <filter id="filter3_b_1784_11964" x="939.759" y="-57.2417" width="783.731" height="870.985"
            filterUnits="userSpaceOnUse" color-interpolation-filters="sRGB">
            <feFlood flood-opacity="0" result="BackgroundImageFix" />
            <feGaussianBlur in="BackgroundImage" stdDeviation="97" />
            <feComposite in2="SourceAlpha" operator="in" result="effect1_backgroundBlur_1784_11964" />
            <feBlend mode="normal" in="SourceGraphic" in2="effect1_backgroundBlur_1784_11964" result="shape" />
        </filter>
        <filter id="filter4_b_1784_11964" x="-285.242" y="-57.2417" width="783.732" height="870.985"
            filterUnits="userSpaceOnUse" color-interpolation-filters="sRGB">
            <feFlood flood-opacity="0" result="BackgroundImageFix" />
            <feGaussianBlur in="BackgroundImage" stdDeviation="97" />
            <feComposite in2="SourceAlpha" operator="in" result="effect1_backgroundBlur_1784_11964" />
            <feBlend mode="normal" in="SourceGraphic" in2="effect1_backgroundBlur_1784_11964" result="shape" />
        </filter>
        <linearGradient id="paint0_linear_1784_11964" x1="1390.03" y1="135" x2="1390.03" y2="559"
            gradientUnits="userSpaceOnUse">
            <stop stop-color="#180D64" />
            <stop offset="1" stop-color="#180D64" stop-opacity="0" />
        </linearGradient>
        <linearGradient id="paint1_linear_1784_11964" x1="151" y1="0" x2="151" y2="424" gradientUnits="userSpaceOnUse">
            <stop stop-color="#180D64" />
            <stop offset="1" stop-color="#180D64" stop-opacity="0" />
        </linearGradient>
        <clipPath id="clip0_1784_11964">
            <rect width="1440" height="459" fill="white" />
        </clipPath>
    </defs>
</svg>