<svg width="53" height="60" viewBox="0 0 53 60" fill="none" xmlns="http://www.w3.org/2000/svg">
    <path d="M52.2812 15V45L26.5 60L0.71875 45V15L26.5 0L52.2812 15Z" fill="url(#paint0_linear_1283:76)"/>
    <path d="M38.9536 35.7107C39.055 35.8863 39.2032 36.0296 39.3794 36.1225C39.5556 36.2154 39.752 36.2537 39.9437 36.2326C40.1354 36.2115 40.3138 36.132 40.4563 36.004C40.5989 35.8761 40.6992 35.7054 40.7445 35.5137C40.7899 35.322 40.7782 35.1178 40.7111 34.9269C40.644 34.7361 40.5243 34.5672 40.3674 34.4415C40.2104 34.3159 40.0231 34.2392 39.8291 34.2211C39.6352 34.203 39.4434 34.2443 39.2779 34.3398C39.0559 34.468 38.8971 34.6844 38.8363 34.9415C38.7755 35.1986 38.8177 35.4753 38.9536 35.7107ZM44.2045 31.8387L37.4579 29.8156C37.3322 29.7784 37.2019 29.7669 37.0745 29.7816C36.947 29.7962 36.8249 29.8369 36.7152 29.9011L27.5107 35.2154C26.8449 35.5997 26.3684 36.249 26.186 37.0202C26.0036 37.7915 26.1302 38.6216 26.538 39.3279L29.6132 44.6544C30.021 45.3607 30.6766 45.8854 31.4357 46.113C32.1949 46.3407 32.9954 46.2526 33.6611 45.8683L42.8656 40.554C42.9762 40.4911 43.0724 40.4057 43.1488 40.3027C43.2253 40.1996 43.2804 40.081 43.3111 39.9536L44.9323 33.0993C44.9631 32.9715 44.9686 32.8374 44.9487 32.7047C44.9287 32.572 44.8836 32.4433 44.8159 32.3261C44.7482 32.2089 44.6594 32.1055 44.5544 32.0219C44.4495 31.9382 44.3306 31.876 44.2045 31.8387ZM41.4975 38.9766L32.6361 44.0928C32.4141 44.2209 32.1473 44.2503 31.8943 44.1744C31.6412 44.0985 31.4227 43.9236 31.2868 43.6881L28.2115 38.3617C28.0756 38.1263 28.0334 37.8496 28.0942 37.5925C28.155 37.3354 28.3138 37.119 28.5358 36.9908L37.3972 31.8747L42.7944 33.4932L41.4975 38.9766Z" fill="white"/>
    <g filter="url(#filter0_b_1283:76)">
        <rect x="10" y="16" width="22" height="23" rx="1" fill="white" fill-opacity="0.2"/>
    </g>
    <path d="M25 31.1383C25 32.0574 24.7159 32.8133 24.1477 33.4059C23.5795 33.9985 22.8111 34.3613 21.8426 34.4943C21.791 34.5064 21.7651 34.5367 21.7651 34.585L21.7845 35.8186C21.7845 35.9395 21.7199 36 21.5908 36H20.4479C20.3188 36 20.2542 35.9395 20.2542 35.8186L20.2736 34.5669C20.2736 34.5185 20.2478 34.4883 20.1961 34.4762C19.2018 34.3432 18.4205 33.9803 17.8523 33.3878C17.2841 32.7952 17 32.0514 17 31.1565V30.6667C17 30.5457 17.0646 30.4853 17.1937 30.4853H18.5884C18.7175 30.4853 18.7821 30.5457 18.7821 30.6667V31.0658C18.7821 31.6584 18.9887 32.1361 19.4019 32.4989C19.8281 32.8617 20.3963 33.0431 21.1065 33.0431C21.7651 33.0431 22.2752 32.8798 22.6368 32.5533C23.0113 32.2147 23.1985 31.7732 23.1985 31.229C23.1985 30.8662 23.1017 30.5518 22.908 30.2857C22.7272 30.0197 22.456 29.7717 22.0944 29.542C21.7328 29.3122 21.2098 29.0219 20.5254 28.6712C19.7506 28.2842 19.1372 27.9395 18.6852 27.6372C18.2333 27.3348 17.8523 26.9539 17.5424 26.4943C17.2454 26.0348 17.0969 25.4785 17.0969 24.8254C17.0969 23.9305 17.368 23.2048 17.9104 22.6485C18.4528 22.0801 19.1953 21.7294 20.138 21.5964C20.1897 21.5964 20.2155 21.5722 20.2155 21.5238L20.1961 20.1814C20.1961 20.0605 20.2607 20 20.3898 20H21.5327C21.6618 20 21.7264 20.0605 21.7264 20.1814L21.6877 21.5419C21.6877 21.5903 21.7135 21.6206 21.7651 21.6327C22.7337 21.7778 23.4956 22.1527 24.0508 22.7574C24.619 23.3621 24.9031 24.124 24.9031 25.0431V25.4603C24.9031 25.5813 24.8386 25.6417 24.7094 25.6417H23.2954C23.1663 25.6417 23.1017 25.5813 23.1017 25.4603V25.0794C23.1017 24.4868 22.9015 24.003 22.5012 23.6281C22.1009 23.2532 21.5521 23.0658 20.8547 23.0658C20.2478 23.0658 19.7635 23.2169 19.4019 23.5193C19.0533 23.8216 18.8789 24.2509 18.8789 24.8073C18.8789 25.1701 18.9629 25.4785 19.1308 25.7324C19.3115 25.9864 19.5763 26.2222 19.9249 26.4399C20.2736 26.6576 20.7966 26.9418 21.4939 27.2925C22.3592 27.7642 23.0178 28.1512 23.4697 28.4535C23.9217 28.7559 24.2897 29.1247 24.5738 29.5601C24.8579 29.9955 25 30.5215 25 31.1383Z" fill="white"/>
    <defs>
        <filter id="filter0_b_1283:76" x="-1" y="5" width="44" height="45" filterUnits="userSpaceOnUse" color-interpolation-filters="sRGB">
            <feFlood flood-opacity="0" result="BackgroundImageFix"/>
            <feGaussianBlur in="BackgroundImage" stdDeviation="5.5"/>
            <feComposite in2="SourceAlpha" operator="in" result="effect1_backgroundBlur_1283:76"/>
            <feBlend mode="normal" in="SourceGraphic" in2="effect1_backgroundBlur_1283:76" result="shape"/>
        </filter>
        <linearGradient id="paint0_linear_1283:76" x1="0.737089" y1="-39.612" x2="80.8616" y2="31.7665" gradientUnits="userSpaceOnUse">
            <stop stop-color="#CE09FF"/>
            <stop offset="1" stop-color="#FFA34E"/>
        </linearGradient>
    </defs>
</svg>
