<svg width="57" height="64" viewBox="0 0 57 64" fill="none" xmlns="http://www.w3.org/2000/svg">

<path d="M14.849 9.03308L14.8387 9.03902L14.8283 9.04472L1.00738 16.5894L1.19822 31.9876L1.19837 32L1.19822 32.0124L1.00738 47.4106L14.8283 54.9553L14.8387 54.961L14.849 54.9669L28.5 62.8454L42.151 54.9669L42.1613 54.961L42.1717 54.9553L55.9926 47.4106L55.8018 32.0124L55.8016 32L55.8018 31.9876L55.9926 16.5894L42.1717 9.04472L42.1613 9.03902L42.151 9.03308L28.5 1.15459L14.849 9.03308Z" stroke="url(#paint0_linear)" stroke-width="2"/>

<path d="M29 22.1622C32.2041 22.1622 32.5837 22.1744 33.849 22.2321C35.019 22.2855 35.6544 22.481 36.0773 22.6453C36.6374 22.863 37.0371 23.123 37.457 23.5429C37.877 23.9629 38.137 24.3626 38.3547 24.9227C38.519 25.3456 38.7145 25.981 38.7679 27.1509C38.8256 28.4163 38.8378 28.7958 38.8378 31.9999C38.8378 35.2041 38.8256 35.5836 38.7679 36.849C38.7145 38.019 38.519 38.6543 38.3547 39.0772C38.137 39.6373 37.877 40.0371 37.4571 40.457C37.0371 40.8769 36.6374 41.1369 36.0773 41.3546C35.6544 41.519 35.019 41.7144 33.849 41.7678C32.5839 41.8255 32.2044 41.8378 29 41.8378C25.7956 41.8378 25.4162 41.8255 24.151 41.7678C22.981 41.7144 22.3456 41.519 21.9227 41.3546C21.3626 41.1369 20.9629 40.8769 20.543 40.457C20.1231 40.0371 19.863 39.6373 19.6453 39.0772C19.481 38.6543 19.2855 38.019 19.2321 36.849C19.1744 35.5836 19.1622 35.2041 19.1622 31.9999C19.1622 28.7958 19.1744 28.4163 19.2321 27.1509C19.2855 25.981 19.481 25.3456 19.6453 24.9227C19.863 24.3626 20.123 23.9629 20.543 23.543C20.9629 23.123 21.3626 22.863 21.9227 22.6453C22.3456 22.481 22.981 22.2855 24.151 22.2321C25.4163 22.1744 25.7959 22.1622 29 22.1622ZM29 20C25.741 20 25.3323 20.0138 24.0524 20.0722C22.7752 20.1305 21.9028 20.3333 21.1395 20.63C20.3504 20.9366 19.6812 21.3469 19.0141 22.0141C18.3469 22.6812 17.9366 23.3504 17.63 24.1395C17.3333 24.9028 17.1305 25.7751 17.0722 27.0524C17.0138 28.3323 17 28.741 17 31.9999C17 35.259 17.0138 35.6676 17.0722 36.9475C17.1305 38.2248 17.3333 39.0971 17.63 39.8604C17.9366 40.6495 18.3469 41.3187 19.0141 41.9859C19.6812 42.653 20.3504 43.0633 21.1395 43.3699C21.9028 43.6666 22.7752 43.8694 24.0524 43.9277C25.3323 43.9861 25.741 43.9999 29 43.9999C32.259 43.9999 32.6677 43.9861 33.9476 43.9277C35.2248 43.8694 36.0972 43.6666 36.8605 43.3699C37.6496 43.0633 38.3188 42.653 38.9859 41.9859C39.653 41.3187 40.0634 40.6495 40.37 39.8604C40.6667 39.0971 40.8695 38.2248 40.9278 36.9475C40.9862 35.6676 41 35.259 41 31.9999C41 28.741 40.9862 28.3323 40.9278 27.0524C40.8695 25.7751 40.6667 24.9028 40.37 24.1395C40.0634 23.3504 39.653 22.6812 38.9859 22.0141C38.3188 21.3469 37.6496 20.9366 36.8605 20.63C36.0972 20.3333 35.2248 20.1305 33.9476 20.0722C32.6677 20.0138 32.259 20 29 20Z" fill="white"/>
<path d="M29.0056 25.8435C25.6023 25.8435 22.8434 28.6024 22.8434 32.0056C22.8434 35.4089 25.6023 38.1678 29.0056 38.1678C32.4088 38.1678 35.1677 35.4089 35.1677 32.0056C35.1677 28.6024 32.4088 25.8435 29.0056 25.8435ZM29.0056 36.0056C26.7964 36.0056 25.0055 34.2148 25.0055 32.0056C25.0055 29.7965 26.7964 28.0057 29.0056 28.0057C31.2147 28.0057 33.0055 29.7965 33.0055 32.0056C33.0055 34.2148 31.2147 36.0056 29.0056 36.0056Z" fill="white"/>
<path d="M36.8508 25.5963C36.8508 26.3915 36.206 27.0363 35.4107 27.0363C34.6155 27.0363 33.9708 26.3915 33.9708 25.5963C33.9708 24.801 34.6155 24.1562 35.4107 24.1562C36.206 24.1562 36.8508 24.801 36.8508 25.5963Z" fill="white"/>
<defs>

<linearGradient id="paint0_linear" x1="-2.14371" y1="31.544" x2="57.3966" y2="30.7153" gradientUnits="userSpaceOnUse">
<stop stop-color="#CE09FF"/>
<stop offset="1" stop-color="#FFA34E"/>
</linearGradient>
</defs>
</svg>
