<svg width="227" height="51" viewBox="0 0 227 51" fill="none" xmlns="http://www.w3.org/2000/svg">
<g filter="url(#filter0_b)">
<path d="M0 22.2545C0 9.9637 12.8376 0 28.6737 0H198.326C214.162 0 227 9.9637 227 22.2545V28.7455C227 41.0363 214.162 51 198.326 51H0V22.2545Z" fill="#36297A"/>
</g>
<path d="M21.1738 15.4492H17.5V17.5586H20.3652V18.6543H17.5V22H16.2871V14.3535H21.1738V15.4492ZM23.6641 19.7324C23.7227 20.1074 23.9004 20.4199 24.1973 20.6699C24.498 20.916 24.9004 21.0391 25.4043 21.0391C25.7988 21.0391 26.1406 20.9785 26.4297 20.8574C26.7227 20.7324 26.9746 20.5684 27.1855 20.3652L27.8066 21.2207C27.4551 21.5723 27.082 21.8125 26.6875 21.9414C26.2969 22.0703 25.8691 22.1348 25.4043 22.1348C24.9824 22.1348 24.5898 22.0645 24.2266 21.9238C23.8633 21.7832 23.5488 21.5879 23.2832 21.3379C23.0176 21.084 22.8086 20.7832 22.6562 20.4355C22.5078 20.0879 22.4336 19.7012 22.4336 19.2754C22.4336 18.8613 22.502 18.4805 22.6387 18.1328C22.7793 17.7812 22.9746 17.4785 23.2246 17.2246C23.4785 16.9668 23.7812 16.7676 24.1328 16.627C24.4844 16.4824 24.873 16.4102 25.2988 16.4102C25.7402 16.4102 26.1406 16.4863 26.5 16.6387C26.8594 16.7871 27.166 17.0039 27.4199 17.2891C27.6777 17.5742 27.8789 17.9238 28.0234 18.3379C28.168 18.748 28.2402 19.2129 28.2402 19.7324H23.6641ZM26.8691 18.666C26.8066 18.3145 26.625 18.0332 26.3242 17.8223C26.0234 17.6074 25.6816 17.5 25.2988 17.5C24.916 17.5 24.5723 17.6074 24.2676 17.8223C23.9629 18.0332 23.7793 18.3145 23.7168 18.666H26.8691ZM30.2148 19.7324C30.2734 20.1074 30.4512 20.4199 30.748 20.6699C31.0488 20.916 31.4512 21.0391 31.9551 21.0391C32.3496 21.0391 32.6914 20.9785 32.9805 20.8574C33.2734 20.7324 33.5254 20.5684 33.7363 20.3652L34.3574 21.2207C34.0059 21.5723 33.6328 21.8125 33.2383 21.9414C32.8477 22.0703 32.4199 22.1348 31.9551 22.1348C31.5332 22.1348 31.1406 22.0645 30.7773 21.9238C30.4141 21.7832 30.0996 21.5879 29.834 21.3379C29.5684 21.084 29.3594 20.7832 29.207 20.4355C29.0586 20.0879 28.9844 19.7012 28.9844 19.2754C28.9844 18.8613 29.0527 18.4805 29.1895 18.1328C29.3301 17.7812 29.5254 17.4785 29.7754 17.2246C30.0293 16.9668 30.332 16.7676 30.6836 16.627C31.0352 16.4824 31.4238 16.4102 31.8496 16.4102C32.291 16.4102 32.6914 16.4863 33.0508 16.6387C33.4102 16.7871 33.7168 17.0039 33.9707 17.2891C34.2285 17.5742 34.4297 17.9238 34.5742 18.3379C34.7188 18.748 34.791 19.2129 34.791 19.7324H30.2148ZM33.4199 18.666C33.3574 18.3145 33.1758 18.0332 32.875 17.8223C32.5742 17.6074 32.2324 17.5 31.8496 17.5C31.4668 17.5 31.123 17.6074 30.8184 17.8223C30.5137 18.0332 30.3301 18.3145 30.2676 18.666H33.4199ZM40.2461 22H36.5781V20.9102H37.7734V15.4492H36.5781V14.3535H38.9863V20.9102H40.2461V22ZM45.6719 15.8301H44.1953V14.3535H45.6719V15.8301ZM46.7852 22H43.1172V20.9102H44.3242V17.6348H43.1172V16.5391H45.5371V20.9102H46.7852V22ZM53.9277 22H52.7148V18.6309C52.7148 18.2051 52.6348 17.9102 52.4746 17.7461C52.3145 17.582 52.082 17.5 51.7773 17.5C51.3281 17.5 50.9609 17.6816 50.6758 18.0449C50.3945 18.4082 50.2539 18.9102 50.2539 19.5508V22H49.041V16.5391H50.2539V17.9102C50.375 17.4375 50.5996 17.0703 50.9277 16.8086C51.2559 16.543 51.6602 16.4102 52.1406 16.4102C52.6992 16.4102 53.1367 16.5918 53.4531 16.9551C53.7695 17.3184 53.9277 17.877 53.9277 18.6309V22ZM60.4785 21.9414C60.4785 22.3164 60.4141 22.6504 60.2852 22.9434C60.1562 23.2363 59.9746 23.4844 59.7402 23.6875C59.5098 23.8906 59.2363 24.0449 58.9199 24.1504C58.6074 24.2598 58.2578 24.3145 57.8711 24.3145C56.9219 24.3145 56.1113 24.0273 55.4395 23.4531L56.0137 22.5156C56.5723 22.9961 57.1914 23.2363 57.8711 23.2363C58.2891 23.2363 58.625 23.1328 58.8789 22.9258C59.1367 22.7227 59.2656 22.4023 59.2656 21.9648V21.3789C59.0156 21.5938 58.7754 21.7539 58.5449 21.8594C58.3145 21.9609 58.0469 22.0117 57.7422 22.0117C57.3906 22.0117 57.0645 21.9375 56.7637 21.7891C56.4629 21.6406 56.2031 21.4395 55.9844 21.1855C55.7695 20.9277 55.5996 20.6289 55.4746 20.2891C55.3535 19.9492 55.293 19.5879 55.293 19.2051C55.293 18.8223 55.3535 18.4609 55.4746 18.1211C55.5996 17.7773 55.7695 17.4805 55.9844 17.2305C56.2031 16.9766 56.4629 16.7773 56.7637 16.6328C57.0645 16.4844 57.3906 16.4102 57.7422 16.4102C58.0469 16.4102 58.3184 16.4629 58.5566 16.5684C58.7949 16.6699 59.0312 16.8242 59.2656 17.0312V16.5391H60.4785V21.9414ZM59.2656 17.9922C59.1211 17.832 58.9336 17.7109 58.7031 17.6289C58.4766 17.543 58.2559 17.5 58.041 17.5C57.584 17.5 57.2129 17.6602 56.9277 17.9805C56.6465 18.3008 56.5059 18.709 56.5059 19.2051C56.5059 19.4512 56.543 19.6797 56.6172 19.8906C56.6953 20.0977 56.8008 20.2773 56.9336 20.4297C57.0703 20.582 57.2324 20.7031 57.4199 20.793C57.6113 20.8789 57.8184 20.9219 58.041 20.9219C58.2559 20.9219 58.4766 20.8789 58.7031 20.793C58.9336 20.7031 59.1211 20.5781 59.2656 20.418V17.9922ZM73.7207 20.3652C73.7207 20.7207 73.6406 21.0098 73.4805 21.2324C73.3203 21.4551 73.1133 21.6348 72.8594 21.7715C72.6094 21.9082 72.3281 22.002 72.0156 22.0527C71.707 22.1074 71.4043 22.1348 71.1074 22.1348C70.6113 22.1348 70.1172 22.0625 69.625 21.918C69.1328 21.7734 68.707 21.584 68.3477 21.3496L68.8516 20.3535C69.2812 20.6035 69.6738 20.7812 70.0293 20.8867C70.3887 20.9883 70.748 21.0391 71.1074 21.0391C71.5957 21.0391 71.9512 20.9883 72.1738 20.8867C72.3965 20.7812 72.5078 20.6367 72.5078 20.4531C72.5078 20.3633 72.4766 20.2891 72.4141 20.2305C72.3516 20.1719 72.248 20.1191 72.1035 20.0723C71.959 20.0215 71.7676 19.9727 71.5293 19.9258C71.2949 19.875 71.002 19.8223 70.6504 19.7676C70.3691 19.7207 70.1016 19.6641 69.8477 19.5977C69.5977 19.5273 69.377 19.4297 69.1855 19.3047C68.9941 19.1797 68.8398 19.0215 68.7227 18.8301C68.6094 18.6387 68.5527 18.3984 68.5527 18.1094C68.5527 17.8164 68.627 17.5625 68.7754 17.3477C68.9277 17.1289 69.125 16.9492 69.3672 16.8086C69.6133 16.668 69.8887 16.5664 70.1934 16.5039C70.498 16.4414 70.8027 16.4102 71.1074 16.4102C71.5371 16.4102 71.9531 16.4668 72.3555 16.5801C72.7617 16.6895 73.1172 16.8477 73.4219 17.0547L72.9414 17.9922C72.6367 17.8008 72.3398 17.6719 72.0508 17.6055C71.7656 17.5352 71.4512 17.5 71.1074 17.5C70.9629 17.5 70.8125 17.5078 70.6562 17.5234C70.5 17.5391 70.3555 17.5703 70.2227 17.6172C70.0898 17.6602 69.9785 17.7207 69.8887 17.7988C69.8027 17.873 69.7598 17.9648 69.7598 18.0742C69.7598 18.2188 69.8867 18.3379 70.1406 18.4316C70.3984 18.5215 70.8359 18.6113 71.4531 18.7012C71.7891 18.748 72.0957 18.8086 72.373 18.8828C72.6504 18.9531 72.8887 19.0508 73.0879 19.1758C73.2871 19.2969 73.4414 19.4551 73.5508 19.6504C73.6641 19.8418 73.7207 20.0801 73.7207 20.3652ZM80.5586 19.2754C80.5586 19.7012 80.4902 20.0879 80.3535 20.4355C80.2207 20.7832 80.0273 21.084 79.7734 21.3379C79.5234 21.5879 79.2227 21.7832 78.8711 21.9238C78.5195 22.0645 78.127 22.1348 77.6934 22.1348C77.2676 22.1348 76.8789 22.0645 76.5273 21.9238C76.1758 21.7832 75.873 21.5879 75.6191 21.3379C75.3691 21.084 75.1758 20.7832 75.0391 20.4355C74.9062 20.0879 74.8398 19.7012 74.8398 19.2754C74.8398 18.8613 74.9062 18.4785 75.0391 18.127C75.1758 17.7715 75.3691 17.4668 75.6191 17.2129C75.873 16.9551 76.1758 16.7578 76.5273 16.6211C76.8789 16.4805 77.2676 16.4102 77.6934 16.4102C78.127 16.4102 78.5195 16.4805 78.8711 16.6211C79.2227 16.7578 79.5234 16.9551 79.7734 17.2129C80.0273 17.4668 80.2207 17.7715 80.3535 18.127C80.4902 18.4785 80.5586 18.8613 80.5586 19.2754ZM79.3516 19.2754C79.3516 19.0293 79.3125 18.7969 79.2344 18.5781C79.1602 18.3555 79.0508 18.166 78.9062 18.0098C78.7617 17.8535 78.5859 17.7305 78.3789 17.6406C78.1758 17.5469 77.9473 17.5 77.6934 17.5C77.4355 17.5 77.2051 17.5469 77.002 17.6406C76.7988 17.7305 76.627 17.8535 76.4863 18.0098C76.3457 18.166 76.2363 18.3555 76.1582 18.5781C76.084 18.7969 76.0469 19.0293 76.0469 19.2754C76.0469 19.5332 76.084 19.7676 76.1582 19.9785C76.2363 20.1895 76.3457 20.375 76.4863 20.5352C76.627 20.6953 76.7988 20.8203 77.002 20.9102C77.2051 20.9961 77.4355 21.0391 77.6934 21.0391C77.9473 21.0391 78.1758 20.9961 78.3789 20.9102C78.5859 20.8203 78.7617 20.6953 78.9062 20.5352C79.0508 20.375 79.1602 20.1895 79.2344 19.9785C79.3125 19.7676 79.3516 19.5332 79.3516 19.2754ZM89.1719 19.7324C89.2305 20.1074 89.4082 20.4199 89.7051 20.6699C90.0059 20.916 90.4082 21.0391 90.9121 21.0391C91.3066 21.0391 91.6484 20.9785 91.9375 20.8574C92.2305 20.7324 92.4824 20.5684 92.6934 20.3652L93.3145 21.2207C92.9629 21.5723 92.5898 21.8125 92.1953 21.9414C91.8047 22.0703 91.377 22.1348 90.9121 22.1348C90.4902 22.1348 90.0977 22.0645 89.7344 21.9238C89.3711 21.7832 89.0566 21.5879 88.791 21.3379C88.5254 21.084 88.3164 20.7832 88.1641 20.4355C88.0156 20.0879 87.9414 19.7012 87.9414 19.2754C87.9414 18.8613 88.0098 18.4805 88.1465 18.1328C88.2871 17.7812 88.4824 17.4785 88.7324 17.2246C88.9863 16.9668 89.2891 16.7676 89.6406 16.627C89.9922 16.4824 90.3809 16.4102 90.8066 16.4102C91.248 16.4102 91.6484 16.4863 92.0078 16.6387C92.3672 16.7871 92.6738 17.0039 92.9277 17.2891C93.1855 17.5742 93.3867 17.9238 93.5312 18.3379C93.6758 18.748 93.748 19.2129 93.748 19.7324H89.1719ZM92.377 18.666C92.3145 18.3145 92.1328 18.0332 91.832 17.8223C91.5312 17.6074 91.1895 17.5 90.8066 17.5C90.4238 17.5 90.0801 17.6074 89.7754 17.8223C89.4707 18.0332 89.2871 18.3145 89.2246 18.666H92.377ZM100.199 22H97.6094V20.9102H98.0898L97.3457 19.7676L96.6133 20.9102H97.0586V22H94.4922V20.9102H95.2832L96.5078 19.2285L95.3418 17.6348H94.6094V16.5391H97.0703V17.6348H96.6836L97.3457 18.6895L98.0195 17.6348H97.5859V16.5391H100.07V17.6348H99.3613L98.1953 19.2285L99.4199 20.9102H100.199V22ZM106.416 21.2207C106.064 21.5723 105.693 21.8125 105.303 21.9414C104.916 22.0703 104.496 22.1348 104.043 22.1348C103.586 22.1348 103.17 22.0664 102.795 21.9297C102.424 21.793 102.107 21.6016 101.846 21.3555C101.588 21.1055 101.389 20.8047 101.248 20.4531C101.111 20.1016 101.043 19.709 101.043 19.2754C101.043 18.8613 101.111 18.4785 101.248 18.127C101.389 17.7715 101.576 17.4688 101.811 17.2188C102.049 16.9648 102.328 16.7676 102.648 16.627C102.969 16.4824 103.309 16.4102 103.668 16.4102C104.043 16.4102 104.369 16.4883 104.646 16.6445C104.924 16.8008 105.125 17.0293 105.25 17.3301V16.5391H106.334V19.082H105.25C105.25 18.6016 105.117 18.2188 104.852 17.9336C104.59 17.6445 104.248 17.5 103.826 17.5C103.658 17.5 103.48 17.5352 103.293 17.6055C103.109 17.6719 102.939 17.7773 102.783 17.9219C102.631 18.0664 102.504 18.25 102.402 18.4727C102.301 18.6953 102.25 18.9629 102.25 19.2754C102.25 19.5801 102.299 19.8438 102.396 20.0664C102.494 20.2852 102.621 20.4668 102.777 20.6113C102.938 20.752 103.125 20.8594 103.34 20.9336C103.559 21.0039 103.783 21.0391 104.014 21.0391C104.408 21.0391 104.75 20.9785 105.039 20.8574C105.332 20.7324 105.584 20.5684 105.795 20.3652L106.416 21.2207ZM111.18 15.8301H109.703V14.3535H111.18V15.8301ZM112.293 22H108.625V20.9102H109.832V17.6348H108.625V16.5391H111.045V20.9102H112.293V22ZM119.781 20.2598C119.719 20.834 119.492 21.291 119.102 21.6309C118.715 21.9668 118.23 22.1348 117.648 22.1348C117.328 22.1348 117.035 22.082 116.77 21.9766C116.504 21.8711 116.277 21.7246 116.09 21.5371C115.902 21.3496 115.756 21.125 115.65 20.8633C115.549 20.5977 115.498 20.3086 115.498 19.9961V17.6348H114.262V16.5391H115.498V14.3535H116.711V16.5391H119.002V17.6348H116.711V19.9961C116.711 20.3477 116.797 20.6094 116.969 20.7812C117.141 20.9531 117.367 21.0391 117.648 21.0391C117.992 21.0391 118.248 20.9395 118.416 20.7402C118.584 20.541 118.684 20.3008 118.715 20.0195L119.781 20.2598ZM121.926 19.7324C121.984 20.1074 122.162 20.4199 122.459 20.6699C122.76 20.916 123.162 21.0391 123.666 21.0391C124.061 21.0391 124.402 20.9785 124.691 20.8574C124.984 20.7324 125.236 20.5684 125.447 20.3652L126.068 21.2207C125.717 21.5723 125.344 21.8125 124.949 21.9414C124.559 22.0703 124.131 22.1348 123.666 22.1348C123.244 22.1348 122.852 22.0645 122.488 21.9238C122.125 21.7832 121.811 21.5879 121.545 21.3379C121.279 21.084 121.07 20.7832 120.918 20.4355C120.77 20.0879 120.695 19.7012 120.695 19.2754C120.695 18.8613 120.764 18.4805 120.9 18.1328C121.041 17.7812 121.236 17.4785 121.486 17.2246C121.74 16.9668 122.043 16.7676 122.395 16.627C122.746 16.4824 123.135 16.4102 123.561 16.4102C124.002 16.4102 124.402 16.4863 124.762 16.6387C125.121 16.7871 125.428 17.0039 125.682 17.2891C125.939 17.5742 126.141 17.9238 126.285 18.3379C126.43 18.748 126.502 19.2129 126.502 19.7324H121.926ZM125.131 18.666C125.068 18.3145 124.887 18.0332 124.586 17.8223C124.285 17.6074 123.943 17.5 123.561 17.5C123.178 17.5 122.834 17.6074 122.529 17.8223C122.225 18.0332 122.041 18.3145 121.979 18.666H125.131ZM132.537 22H131.324V21.4961C131.09 21.7031 130.854 21.8613 130.615 21.9707C130.377 22.0801 130.105 22.1348 129.801 22.1348C129.449 22.1348 129.123 22.0645 128.822 21.9238C128.521 21.7832 128.262 21.5879 128.043 21.3379C127.828 21.084 127.658 20.7812 127.533 20.4297C127.412 20.0781 127.352 19.6934 127.352 19.2754C127.352 18.8613 127.412 18.4785 127.533 18.127C127.658 17.7715 127.828 17.4688 128.043 17.2188C128.262 16.9648 128.521 16.7676 128.822 16.627C129.123 16.4824 129.449 16.4102 129.801 16.4102C130.105 16.4102 130.377 16.4629 130.615 16.5684C130.854 16.6699 131.09 16.8242 131.324 17.0312V15.4492H130.27V14.3535H132.537V22ZM131.324 17.9922C131.18 17.832 130.992 17.7109 130.762 17.6289C130.535 17.543 130.318 17.5 130.111 17.5C129.654 17.5 129.281 17.6641 128.992 17.9922C128.707 18.3203 128.564 18.748 128.564 19.2754C128.564 19.8027 128.707 20.2285 128.992 20.5527C129.281 20.877 129.654 21.0391 130.111 21.0391C130.318 21.0391 130.535 20.998 130.762 20.916C130.992 20.8301 131.18 20.707 131.324 20.5469V17.9922ZM145.984 20.2598C145.922 20.834 145.695 21.291 145.305 21.6309C144.918 21.9668 144.434 22.1348 143.852 22.1348C143.531 22.1348 143.238 22.082 142.973 21.9766C142.707 21.8711 142.48 21.7246 142.293 21.5371C142.105 21.3496 141.959 21.125 141.854 20.8633C141.752 20.5977 141.701 20.3086 141.701 19.9961V17.6348H140.465V16.5391H141.701V14.3535H142.914V16.5391H145.205V17.6348H142.914V19.9961C142.914 20.3477 143 20.6094 143.172 20.7812C143.344 20.9531 143.57 21.0391 143.852 21.0391C144.195 21.0391 144.451 20.9395 144.619 20.7402C144.787 20.541 144.887 20.3008 144.918 20.0195L145.984 20.2598ZM152.617 19.2754C152.617 19.7012 152.549 20.0879 152.412 20.4355C152.279 20.7832 152.086 21.084 151.832 21.3379C151.582 21.5879 151.281 21.7832 150.93 21.9238C150.578 22.0645 150.186 22.1348 149.752 22.1348C149.326 22.1348 148.938 22.0645 148.586 21.9238C148.234 21.7832 147.932 21.5879 147.678 21.3379C147.428 21.084 147.234 20.7832 147.098 20.4355C146.965 20.0879 146.898 19.7012 146.898 19.2754C146.898 18.8613 146.965 18.4785 147.098 18.127C147.234 17.7715 147.428 17.4668 147.678 17.2129C147.932 16.9551 148.234 16.7578 148.586 16.6211C148.938 16.4805 149.326 16.4102 149.752 16.4102C150.186 16.4102 150.578 16.4805 150.93 16.6211C151.281 16.7578 151.582 16.9551 151.832 17.2129C152.086 17.4668 152.279 17.7715 152.412 18.127C152.549 18.4785 152.617 18.8613 152.617 19.2754ZM151.41 19.2754C151.41 19.0293 151.371 18.7969 151.293 18.5781C151.219 18.3555 151.109 18.166 150.965 18.0098C150.82 17.8535 150.645 17.7305 150.438 17.6406C150.234 17.5469 150.006 17.5 149.752 17.5C149.494 17.5 149.264 17.5469 149.061 17.6406C148.857 17.7305 148.686 17.8535 148.545 18.0098C148.404 18.166 148.295 18.3555 148.217 18.5781C148.143 18.7969 148.105 19.0293 148.105 19.2754C148.105 19.5332 148.143 19.7676 148.217 19.9785C148.295 20.1895 148.404 20.375 148.545 20.5352C148.686 20.6953 148.857 20.8203 149.061 20.9102C149.264 20.9961 149.494 21.0391 149.752 21.0391C150.006 21.0391 150.234 20.9961 150.438 20.9102C150.645 20.8203 150.82 20.6953 150.965 20.5352C151.109 20.375 151.219 20.1895 151.293 19.9785C151.371 19.7676 151.41 19.5332 151.41 19.2754ZM165.432 20.3652C165.432 20.7207 165.352 21.0098 165.191 21.2324C165.031 21.4551 164.824 21.6348 164.57 21.7715C164.32 21.9082 164.039 22.002 163.727 22.0527C163.418 22.1074 163.115 22.1348 162.818 22.1348C162.322 22.1348 161.828 22.0625 161.336 21.918C160.844 21.7734 160.418 21.584 160.059 21.3496L160.562 20.3535C160.992 20.6035 161.385 20.7812 161.74 20.8867C162.1 20.9883 162.459 21.0391 162.818 21.0391C163.307 21.0391 163.662 20.9883 163.885 20.8867C164.107 20.7812 164.219 20.6367 164.219 20.4531C164.219 20.3633 164.188 20.2891 164.125 20.2305C164.062 20.1719 163.959 20.1191 163.814 20.0723C163.67 20.0215 163.479 19.9727 163.24 19.9258C163.006 19.875 162.713 19.8223 162.361 19.7676C162.08 19.7207 161.812 19.6641 161.559 19.5977C161.309 19.5273 161.088 19.4297 160.896 19.3047C160.705 19.1797 160.551 19.0215 160.434 18.8301C160.32 18.6387 160.264 18.3984 160.264 18.1094C160.264 17.8164 160.338 17.5625 160.486 17.3477C160.639 17.1289 160.836 16.9492 161.078 16.8086C161.324 16.668 161.6 16.5664 161.904 16.5039C162.209 16.4414 162.514 16.4102 162.818 16.4102C163.248 16.4102 163.664 16.4668 164.066 16.5801C164.473 16.6895 164.828 16.8477 165.133 17.0547L164.652 17.9922C164.348 17.8008 164.051 17.6719 163.762 17.6055C163.477 17.5352 163.162 17.5 162.818 17.5C162.674 17.5 162.523 17.5078 162.367 17.5234C162.211 17.5391 162.066 17.5703 161.934 17.6172C161.801 17.6602 161.689 17.7207 161.6 17.7988C161.514 17.873 161.471 17.9648 161.471 18.0742C161.471 18.2188 161.598 18.3379 161.852 18.4316C162.109 18.5215 162.547 18.6113 163.164 18.7012C163.5 18.748 163.807 18.8086 164.084 18.8828C164.361 18.9531 164.6 19.0508 164.799 19.1758C164.998 19.2969 165.152 19.4551 165.262 19.6504C165.375 19.8418 165.432 20.0801 165.432 20.3652ZM171.842 22H170.629V18.6309C170.629 18.2051 170.549 17.9102 170.389 17.7461C170.229 17.582 169.996 17.5 169.691 17.5C169.242 17.5 168.875 17.6816 168.59 18.0449C168.309 18.4082 168.168 18.9102 168.168 19.5508V22H166.955V14.3535H168.168V17.9102C168.289 17.4375 168.514 17.0703 168.842 16.8086C169.17 16.543 169.574 16.4102 170.055 16.4102C170.613 16.4102 171.051 16.5918 171.367 16.9551C171.684 17.3184 171.842 17.877 171.842 18.6309V22ZM178.82 19.2754C178.82 19.7012 178.752 20.0879 178.615 20.4355C178.482 20.7832 178.289 21.084 178.035 21.3379C177.785 21.5879 177.484 21.7832 177.133 21.9238C176.781 22.0645 176.389 22.1348 175.955 22.1348C175.529 22.1348 175.141 22.0645 174.789 21.9238C174.438 21.7832 174.135 21.5879 173.881 21.3379C173.631 21.084 173.438 20.7832 173.301 20.4355C173.168 20.0879 173.102 19.7012 173.102 19.2754C173.102 18.8613 173.168 18.4785 173.301 18.127C173.438 17.7715 173.631 17.4668 173.881 17.2129C174.135 16.9551 174.438 16.7578 174.789 16.6211C175.141 16.4805 175.529 16.4102 175.955 16.4102C176.389 16.4102 176.781 16.4805 177.133 16.6211C177.484 16.7578 177.785 16.9551 178.035 17.2129C178.289 17.4668 178.482 17.7715 178.615 18.127C178.752 18.4785 178.82 18.8613 178.82 19.2754ZM177.613 19.2754C177.613 19.0293 177.574 18.7969 177.496 18.5781C177.422 18.3555 177.312 18.166 177.168 18.0098C177.023 17.8535 176.848 17.7305 176.641 17.6406C176.438 17.5469 176.209 17.5 175.955 17.5C175.697 17.5 175.467 17.5469 175.264 17.6406C175.061 17.7305 174.889 17.8535 174.748 18.0098C174.607 18.166 174.498 18.3555 174.42 18.5781C174.346 18.7969 174.309 19.0293 174.309 19.2754C174.309 19.5332 174.346 19.7676 174.42 19.9785C174.498 20.1895 174.607 20.375 174.748 20.5352C174.889 20.6953 175.061 20.8203 175.264 20.9102C175.467 20.9961 175.697 21.0391 175.955 21.0391C176.209 21.0391 176.438 20.9961 176.641 20.9102C176.848 20.8203 177.023 20.6953 177.168 20.5352C177.312 20.375 177.422 20.1895 177.496 19.9785C177.574 19.7676 177.613 19.5332 177.613 19.2754ZM185.4 16.5391L184.58 22H183.08L182.506 18.7129L181.92 22H180.42L179.6 16.5391H180.789L181.27 20.1895L181.855 16.5391H183.139L183.73 20.1895L184.211 16.5391H185.4ZM21.4141 30.5391L19.0586 37.0664C18.8828 37.5391 18.627 37.8633 18.291 38.0391C17.9551 38.2148 17.5547 38.3027 17.0898 38.3027C16.9297 38.3027 16.7578 38.2871 16.5742 38.2559C16.3906 38.2246 16.1992 38.1719 16 38.0977L16.252 36.9844C16.4199 37.0469 16.5742 37.0898 16.7148 37.1133C16.8555 37.1406 16.9805 37.1543 17.0898 37.1543C17.4531 37.1543 17.7012 36.9941 17.834 36.6738L18.0508 36.1465L15.9648 30.5391H17.2246L18.7246 34.6699L20.1133 30.5391H21.4141ZM28.1523 33.2754C28.1523 33.7012 28.084 34.0879 27.9473 34.4355C27.8145 34.7832 27.6211 35.084 27.3672 35.3379C27.1172 35.5879 26.8164 35.7832 26.4648 35.9238C26.1133 36.0645 25.7207 36.1348 25.2871 36.1348C24.8613 36.1348 24.4727 36.0645 24.1211 35.9238C23.7695 35.7832 23.4668 35.5879 23.2129 35.3379C22.9629 35.084 22.7695 34.7832 22.6328 34.4355C22.5 34.0879 22.4336 33.7012 22.4336 33.2754C22.4336 32.8613 22.5 32.4785 22.6328 32.127C22.7695 31.7715 22.9629 31.4668 23.2129 31.2129C23.4668 30.9551 23.7695 30.7578 24.1211 30.6211C24.4727 30.4805 24.8613 30.4102 25.2871 30.4102C25.7207 30.4102 26.1133 30.4805 26.4648 30.6211C26.8164 30.7578 27.1172 30.9551 27.3672 31.2129C27.6211 31.4668 27.8145 31.7715 27.9473 32.127C28.084 32.4785 28.1523 32.8613 28.1523 33.2754ZM26.9453 33.2754C26.9453 33.0293 26.9062 32.7969 26.8281 32.5781C26.7539 32.3555 26.6445 32.166 26.5 32.0098C26.3555 31.8535 26.1797 31.7305 25.9727 31.6406C25.7695 31.5469 25.541 31.5 25.2871 31.5C25.0293 31.5 24.7988 31.5469 24.5957 31.6406C24.3926 31.7305 24.2207 31.8535 24.0801 32.0098C23.9395 32.166 23.8301 32.3555 23.752 32.5781C23.6777 32.7969 23.6406 33.0293 23.6406 33.2754C23.6406 33.5332 23.6777 33.7676 23.752 33.9785C23.8301 34.1895 23.9395 34.375 24.0801 34.5352C24.2207 34.6953 24.3926 34.8203 24.5957 34.9102C24.7988 34.9961 25.0293 35.0391 25.2871 35.0391C25.541 35.0391 25.7695 34.9961 25.9727 34.9102C26.1797 34.8203 26.3555 34.6953 26.5 34.5352C26.6445 34.375 26.7539 34.1895 26.8281 33.9785C26.9062 33.7676 26.9453 33.5332 26.9453 33.2754ZM29.3887 30.5391H30.6016V33.9141C30.6016 34.3359 30.6816 34.6289 30.8418 34.793C31.002 34.957 31.2344 35.0391 31.5391 35.0391C31.9844 35.0391 32.3496 34.8574 32.6348 34.4941C32.9199 34.1309 33.0625 33.6289 33.0625 32.9883V30.5391H34.2754V36H33.0625V34.6348C32.9414 35.1035 32.7168 35.4707 32.3887 35.7363C32.0605 36.002 31.6562 36.1348 31.1758 36.1348C30.6172 36.1348 30.1797 35.9531 29.8633 35.5898C29.5469 35.2227 29.3887 34.6641 29.3887 33.9141V30.5391ZM47.6641 36H46.4512V32.2559C46.4512 31.998 46.4238 31.8086 46.3691 31.6875C46.3184 31.5625 46.2266 31.5 46.0938 31.5C45.8516 31.5 45.6973 31.6367 45.6309 31.9102C45.5684 32.1797 45.5371 32.5742 45.5371 33.0938V36H44.3242V32.2559C44.3242 31.998 44.2969 31.8086 44.2422 31.6875C44.1875 31.5625 44.0918 31.5 43.9551 31.5C43.7168 31.5 43.5664 31.6367 43.5039 31.9102C43.4453 32.1797 43.416 32.5742 43.416 33.0938V36H42.2031V30.5391H43.4277V31.3301C43.5137 31.0293 43.6406 30.8008 43.8086 30.6445C43.9766 30.4883 44.2012 30.4102 44.4824 30.4102C44.7168 30.4102 44.9121 30.4824 45.0684 30.627C45.2285 30.7676 45.3379 30.9629 45.3965 31.2129C45.5332 30.9395 45.6738 30.7383 45.8184 30.6094C45.9668 30.4766 46.1934 30.4102 46.498 30.4102C46.873 30.4102 47.1602 30.5488 47.3594 30.8262C47.5625 31.0996 47.6641 31.5156 47.6641 32.0742V36ZM54.168 30.5391L51.8125 37.0664C51.6367 37.5391 51.3809 37.8633 51.0449 38.0391C50.709 38.2148 50.3086 38.3027 49.8438 38.3027C49.6836 38.3027 49.5117 38.2871 49.3281 38.2559C49.1445 38.2246 48.9531 38.1719 48.7539 38.0977L49.0059 36.9844C49.1738 37.0469 49.3281 37.0898 49.4688 37.1133C49.6094 37.1406 49.7344 37.1543 49.8438 37.1543C50.207 37.1543 50.4551 36.9941 50.5879 36.6738L50.8047 36.1465L48.7188 30.5391H49.9785L51.4785 34.6699L52.8672 30.5391H54.168ZM67.0293 36H65.8164V32.6309C65.8164 32.2051 65.7363 31.9102 65.5762 31.7461C65.416 31.582 65.1836 31.5 64.8789 31.5C64.4297 31.5 64.0625 31.6816 63.7773 32.0449C63.4961 32.4082 63.3555 32.9102 63.3555 33.5508V36H62.1426V30.5391H63.3555V31.9102C63.4766 31.4375 63.7012 31.0703 64.0293 30.8086C64.3574 30.543 64.7617 30.4102 65.2422 30.4102C65.8008 30.4102 66.2383 30.5918 66.5547 30.9551C66.8711 31.3184 67.0293 31.877 67.0293 32.6309V36ZM69.5195 33.7324C69.5781 34.1074 69.7559 34.4199 70.0527 34.6699C70.3535 34.916 70.7559 35.0391 71.2598 35.0391C71.6543 35.0391 71.9961 34.9785 72.2852 34.8574C72.5781 34.7324 72.8301 34.5684 73.041 34.3652L73.6621 35.2207C73.3105 35.5723 72.9375 35.8125 72.543 35.9414C72.1523 36.0703 71.7246 36.1348 71.2598 36.1348C70.8379 36.1348 70.4453 36.0645 70.082 35.9238C69.7188 35.7832 69.4043 35.5879 69.1387 35.3379C68.873 35.084 68.6641 34.7832 68.5117 34.4355C68.3633 34.0879 68.2891 33.7012 68.2891 33.2754C68.2891 32.8613 68.3574 32.4805 68.4941 32.1328C68.6348 31.7812 68.8301 31.4785 69.0801 31.2246C69.334 30.9668 69.6367 30.7676 69.9883 30.627C70.3398 30.4824 70.7285 30.4102 71.1543 30.4102C71.5957 30.4102 71.9961 30.4863 72.3555 30.6387C72.7148 30.7871 73.0215 31.0039 73.2754 31.2891C73.5332 31.5742 73.7344 31.9238 73.8789 32.3379C74.0234 32.748 74.0957 33.2129 74.0957 33.7324H69.5195ZM72.7246 32.666C72.6621 32.3145 72.4805 32.0332 72.1797 31.8223C71.8789 31.6074 71.5371 31.5 71.1543 31.5C70.7715 31.5 70.4277 31.6074 70.123 31.8223C69.8184 32.0332 69.6348 32.3145 69.5723 32.666H72.7246ZM80.5879 30.5391L79.7676 36H78.2676L77.6934 32.7129L77.1074 36H75.6074L74.7871 30.5391H75.9766L76.457 34.1895L77.043 30.5391H78.3262L78.918 34.1895L79.3984 30.5391H80.5879ZM93.5078 33.9023C93.5078 34.5977 93.2715 35.1211 92.7988 35.4727C92.3262 35.8242 91.6543 36 90.7832 36H88.3457V28.3535H90.6484C90.9688 28.3535 91.2832 28.3809 91.5918 28.4355C91.9004 28.4863 92.1758 28.584 92.418 28.7285C92.6641 28.873 92.8633 29.0762 93.0156 29.3379C93.168 29.5957 93.2441 29.9316 93.2441 30.3457C93.2441 30.7324 93.1445 31.0859 92.9453 31.4062C92.75 31.7266 92.4531 31.957 92.0547 32.0977C92.543 32.25 92.9062 32.4629 93.1445 32.7363C93.3867 33.0098 93.5078 33.3984 93.5078 33.9023ZM92.043 30.5039C92.043 30.2812 92 30.0996 91.9141 29.959C91.832 29.8184 91.7246 29.7109 91.5918 29.6367C91.459 29.5586 91.3105 29.5078 91.1465 29.4844C90.9824 29.4609 90.8164 29.4492 90.6484 29.4492H89.5586V31.5586H90.6484C90.8164 31.5586 90.9824 31.5469 91.1465 31.5234C91.3105 31.5 91.459 31.4512 91.5918 31.377C91.7246 31.2988 91.832 31.1895 91.9141 31.0488C92 30.9082 92.043 30.7266 92.043 30.5039ZM92.3066 33.7793C92.3066 33.3965 92.1719 33.1133 91.9023 32.9297C91.6367 32.7461 91.2637 32.6543 90.7832 32.6543H89.5586V34.9102H90.7832C91.2637 34.9102 91.6367 34.8184 91.9023 34.6348C92.1719 34.4473 92.3066 34.1621 92.3066 33.7793ZM94.8965 30.5391H96.1094V33.9141C96.1094 34.3359 96.1895 34.6289 96.3496 34.793C96.5098 34.957 96.7422 35.0391 97.0469 35.0391C97.4922 35.0391 97.8574 34.8574 98.1426 34.4941C98.4277 34.1309 98.5703 33.6289 98.5703 32.9883V30.5391H99.7832V36H98.5703V34.6348C98.4492 35.1035 98.2246 35.4707 97.8965 35.7363C97.5684 36.002 97.1641 36.1348 96.6836 36.1348C96.125 36.1348 95.6875 35.9531 95.3711 35.5898C95.0547 35.2227 94.8965 34.6641 94.8965 33.9141V30.5391ZM106.486 31.834C106.342 31.7637 106.193 31.7109 106.041 31.6758C105.893 31.6367 105.721 31.6172 105.525 31.6172C105.256 31.6172 105.002 31.6582 104.764 31.7402C104.529 31.8184 104.326 31.9375 104.154 32.0977C103.982 32.2578 103.848 32.459 103.75 32.7012C103.656 32.9395 103.609 33.2227 103.609 33.5508V34.9102H104.834V36H101.16V34.9102H102.396V31.6348H101.16V30.5391H103.609V31.9102C103.809 31.3633 104.102 30.9766 104.488 30.75C104.879 30.5234 105.342 30.4102 105.877 30.4102C106.045 30.4102 106.221 30.4277 106.404 30.4629C106.588 30.498 106.768 30.5605 106.943 30.6504L106.486 31.834ZM112.885 36H111.672V32.6309C111.672 32.2051 111.592 31.9102 111.432 31.7461C111.271 31.582 111.039 31.5 110.734 31.5C110.285 31.5 109.918 31.6816 109.633 32.0449C109.352 32.4082 109.211 32.9102 109.211 33.5508V36H107.998V30.5391H109.211V31.9102C109.332 31.4375 109.557 31.0703 109.885 30.8086C110.213 30.543 110.617 30.4102 111.098 30.4102C111.656 30.4102 112.094 30.5918 112.41 30.9551C112.727 31.3184 112.885 31.877 112.885 32.6309V36ZM117.73 29.8301H116.254V28.3535H117.73V29.8301ZM118.844 36H115.176V34.9102H116.383V31.6348H115.176V30.5391H117.596V34.9102H118.844V36ZM125.986 36H124.773V32.6309C124.773 32.2051 124.693 31.9102 124.533 31.7461C124.373 31.582 124.141 31.5 123.836 31.5C123.387 31.5 123.02 31.6816 122.734 32.0449C122.453 32.4082 122.312 32.9102 122.312 33.5508V36H121.1V30.5391H122.312V31.9102C122.434 31.4375 122.658 31.0703 122.986 30.8086C123.314 30.543 123.719 30.4102 124.199 30.4102C124.758 30.4102 125.195 30.5918 125.512 30.9551C125.828 31.3184 125.986 31.877 125.986 32.6309V36ZM132.537 35.9414C132.537 36.3164 132.473 36.6504 132.344 36.9434C132.215 37.2363 132.033 37.4844 131.799 37.6875C131.568 37.8906 131.295 38.0449 130.979 38.1504C130.666 38.2598 130.316 38.3145 129.93 38.3145C128.98 38.3145 128.17 38.0273 127.498 37.4531L128.072 36.5156C128.631 36.9961 129.25 37.2363 129.93 37.2363C130.348 37.2363 130.684 37.1328 130.938 36.9258C131.195 36.7227 131.324 36.4023 131.324 35.9648V35.3789C131.074 35.5938 130.834 35.7539 130.604 35.8594C130.373 35.9609 130.105 36.0117 129.801 36.0117C129.449 36.0117 129.123 35.9375 128.822 35.7891C128.521 35.6406 128.262 35.4395 128.043 35.1855C127.828 34.9277 127.658 34.6289 127.533 34.2891C127.412 33.9492 127.352 33.5879 127.352 33.2051C127.352 32.8223 127.412 32.4609 127.533 32.1211C127.658 31.7773 127.828 31.4805 128.043 31.2305C128.262 30.9766 128.521 30.7773 128.822 30.6328C129.123 30.4844 129.449 30.4102 129.801 30.4102C130.105 30.4102 130.377 30.4629 130.615 30.5684C130.854 30.6699 131.09 30.8242 131.324 31.0312V30.5391H132.537V35.9414ZM131.324 31.9922C131.18 31.832 130.992 31.7109 130.762 31.6289C130.535 31.543 130.314 31.5 130.1 31.5C129.643 31.5 129.271 31.6602 128.986 31.9805C128.705 32.3008 128.564 32.709 128.564 33.2051C128.564 33.4512 128.602 33.6797 128.676 33.8906C128.754 34.0977 128.859 34.2773 128.992 34.4297C129.129 34.582 129.291 34.7031 129.479 34.793C129.67 34.8789 129.877 34.9219 130.1 34.9219C130.314 34.9219 130.535 34.8789 130.762 34.793C130.992 34.7031 131.18 34.5781 131.324 34.418V31.9922ZM145.639 36H144.426V30.8262L143.658 33.5742H142.721L141.965 30.8262V36H140.752V28.3535H142.193L143.189 31.8105L144.186 28.3535H145.639V36ZM146.992 34.4297C146.992 34.1094 147.078 33.8301 147.25 33.5918C147.422 33.3496 147.646 33.1484 147.924 32.9883C148.205 32.8281 148.525 32.709 148.885 32.6309C149.248 32.5488 149.617 32.5078 149.992 32.5078C150.199 32.5078 150.377 32.5117 150.525 32.5195C150.674 32.5273 150.824 32.5391 150.977 32.5547V32.3379C150.977 32.0527 150.865 31.8398 150.643 31.6992C150.424 31.5586 150.135 31.4883 149.775 31.4883C149.447 31.4883 149.113 31.5352 148.773 31.6289C148.434 31.7188 148.111 31.8516 147.807 32.0273L147.314 31.0781C147.674 30.8711 148.059 30.709 148.469 30.5918C148.883 30.4707 149.318 30.4102 149.775 30.4102C150.072 30.4102 150.363 30.4434 150.648 30.5098C150.938 30.5762 151.195 30.6855 151.422 30.8379C151.652 30.9902 151.836 31.1895 151.973 31.4355C152.109 31.6777 152.178 31.9785 152.178 32.3379V36H150.977V35.1973C150.785 35.4941 150.502 35.7246 150.127 35.8887C149.756 36.0527 149.355 36.1348 148.926 36.1348C148.66 36.1348 148.408 36.0977 148.17 36.0234C147.936 35.9531 147.732 35.8457 147.561 35.7012C147.389 35.5566 147.25 35.3789 147.145 35.168C147.043 34.9531 146.992 34.707 146.992 34.4297ZM149.236 35.0508C149.475 35.0508 149.697 35.0215 149.904 34.9629C150.115 34.9004 150.301 34.8164 150.461 34.7109C150.621 34.6016 150.746 34.4707 150.836 34.3184C150.93 34.166 150.977 33.998 150.977 33.8145V33.6094C150.785 33.5781 150.605 33.5605 150.438 33.5566C150.27 33.5527 150.121 33.5508 149.992 33.5508C149.398 33.5508 148.949 33.6289 148.645 33.7852C148.344 33.9414 148.193 34.1348 148.193 34.3652C148.193 34.8223 148.541 35.0508 149.236 35.0508ZM158.74 36H157.527V32.6309C157.527 32.2051 157.447 31.9102 157.287 31.7461C157.127 31.582 156.895 31.5 156.59 31.5C156.141 31.5 155.773 31.6816 155.488 32.0449C155.207 32.4082 155.066 32.9102 155.066 33.5508V36H153.854V30.5391H155.066V31.9102C155.188 31.4375 155.412 31.0703 155.74 30.8086C156.068 30.543 156.473 30.4102 156.953 30.4102C157.512 30.4102 157.949 30.5918 158.266 30.9551C158.582 31.3184 158.74 31.877 158.74 32.6309V36ZM172.129 30.5391L170.113 36H168.684L166.668 30.5391H167.963L169.404 34.6699L170.834 30.5391H172.129ZM176.688 29.8301H175.211V28.3535H176.688V29.8301ZM177.801 36H174.133V34.9102H175.34V31.6348H174.133V30.5391H176.553V34.9102H177.801V36ZM184.943 36H183.73V35.4961C183.496 35.7031 183.26 35.8613 183.021 35.9707C182.783 36.0801 182.512 36.1348 182.207 36.1348C181.855 36.1348 181.529 36.0645 181.229 35.9238C180.928 35.7832 180.668 35.5879 180.449 35.3379C180.234 35.084 180.064 34.7812 179.939 34.4297C179.818 34.0781 179.758 33.6934 179.758 33.2754C179.758 32.8613 179.818 32.4785 179.939 32.127C180.064 31.7715 180.234 31.4688 180.449 31.2188C180.668 30.9648 180.928 30.7676 181.229 30.627C181.529 30.4824 181.855 30.4102 182.207 30.4102C182.512 30.4102 182.783 30.4629 183.021 30.5684C183.26 30.6699 183.496 30.8242 183.73 31.0312V29.4492H182.676V28.3535H184.943V36ZM183.73 31.9922C183.586 31.832 183.398 31.7109 183.168 31.6289C182.941 31.543 182.725 31.5 182.518 31.5C182.061 31.5 181.688 31.6641 181.398 31.9922C181.113 32.3203 180.971 32.748 180.971 33.2754C180.971 33.8027 181.113 34.2285 181.398 34.5527C181.688 34.877 182.061 35.0391 182.518 35.0391C182.725 35.0391 182.941 34.998 183.168 34.916C183.398 34.8301 183.586 34.707 183.73 34.5469V31.9922ZM187.434 33.7324C187.492 34.1074 187.67 34.4199 187.967 34.6699C188.268 34.916 188.67 35.0391 189.174 35.0391C189.568 35.0391 189.91 34.9785 190.199 34.8574C190.492 34.7324 190.744 34.5684 190.955 34.3652L191.576 35.2207C191.225 35.5723 190.852 35.8125 190.457 35.9414C190.066 36.0703 189.639 36.1348 189.174 36.1348C188.752 36.1348 188.359 36.0645 187.996 35.9238C187.633 35.7832 187.318 35.5879 187.053 35.3379C186.787 35.084 186.578 34.7832 186.426 34.4355C186.277 34.0879 186.203 33.7012 186.203 33.2754C186.203 32.8613 186.271 32.4805 186.408 32.1328C186.549 31.7812 186.744 31.4785 186.994 31.2246C187.248 30.9668 187.551 30.7676 187.902 30.627C188.254 30.4824 188.643 30.4102 189.068 30.4102C189.51 30.4102 189.91 30.4863 190.27 30.6387C190.629 30.7871 190.936 31.0039 191.189 31.2891C191.447 31.5742 191.648 31.9238 191.793 32.3379C191.938 32.748 192.01 33.2129 192.01 33.7324H187.434ZM190.639 32.666C190.576 32.3145 190.395 32.0332 190.094 31.8223C189.793 31.6074 189.451 31.5 189.068 31.5C188.686 31.5 188.342 31.6074 188.037 31.8223C187.732 32.0332 187.549 32.3145 187.486 32.666H190.639ZM198.473 33.2754C198.473 33.7012 198.404 34.0879 198.268 34.4355C198.135 34.7832 197.941 35.084 197.688 35.3379C197.438 35.5879 197.137 35.7832 196.785 35.9238C196.434 36.0645 196.041 36.1348 195.607 36.1348C195.182 36.1348 194.793 36.0645 194.441 35.9238C194.09 35.7832 193.787 35.5879 193.533 35.3379C193.283 35.084 193.09 34.7832 192.953 34.4355C192.82 34.0879 192.754 33.7012 192.754 33.2754C192.754 32.8613 192.82 32.4785 192.953 32.127C193.09 31.7715 193.283 31.4668 193.533 31.2129C193.787 30.9551 194.09 30.7578 194.441 30.6211C194.793 30.4805 195.182 30.4102 195.607 30.4102C196.041 30.4102 196.434 30.4805 196.785 30.6211C197.137 30.7578 197.438 30.9551 197.688 31.2129C197.941 31.4668 198.135 31.7715 198.268 32.127C198.404 32.4785 198.473 32.8613 198.473 33.2754ZM197.266 33.2754C197.266 33.0293 197.227 32.7969 197.148 32.5781C197.074 32.3555 196.965 32.166 196.82 32.0098C196.676 31.8535 196.5 31.7305 196.293 31.6406C196.09 31.5469 195.861 31.5 195.607 31.5C195.35 31.5 195.119 31.5469 194.916 31.6406C194.713 31.7305 194.541 31.8535 194.4 32.0098C194.26 32.166 194.15 32.3555 194.072 32.5781C193.998 32.7969 193.961 33.0293 193.961 33.2754C193.961 33.5332 193.998 33.7676 194.072 33.9785C194.15 34.1895 194.26 34.375 194.4 34.5352C194.541 34.6953 194.713 34.8203 194.916 34.9102C195.119 34.9961 195.35 35.0391 195.607 35.0391C195.861 35.0391 196.09 34.9961 196.293 34.9102C196.5 34.8203 196.676 34.6953 196.82 34.5352C196.965 34.375 197.074 34.1895 197.148 33.9785C197.227 33.7676 197.266 33.5332 197.266 33.2754Z" fill="white"/>
<defs>
<filter id="filter0_b" x="-34" y="-34" width="295" height="119" filterUnits="userSpaceOnUse" color-interpolation-filters="sRGB">
<feFlood flood-opacity="0" result="BackgroundImageFix"/>
<feGaussianBlur in="BackgroundImage" stdDeviation="17"/>
<feComposite in2="SourceAlpha" operator="in" result="effect1_backgroundBlur"/>
<feBlend mode="normal" in="SourceGraphic" in2="effect1_backgroundBlur" result="shape"/>
</filter>
</defs>
</svg>
