<svg width="126" height="43" viewBox="0 0 126 43" fill="none" xmlns="http://www.w3.org/2000/svg">
<path d="M54.5221 29.3683C54.3771 29.3683 54.2538 29.3191 54.1523 29.2209C54.0508 29.1227 54 29.0034 54 28.863V15.1577C54 15.0034 54.0508 14.877 54.1523 14.7788C54.2538 14.6805 54.3771 14.6314 54.5221 14.6314H60.8307C62.0054 14.6314 62.9625 14.8069 63.7022 15.1577C64.4418 15.4946 64.9856 15.9648 65.3337 16.5683C65.6962 17.1718 65.8775 17.8735 65.8775 18.6735C65.8775 19.2069 65.776 19.677 65.573 20.0841C65.3844 20.477 65.1451 20.7998 64.8551 21.0525C64.5796 21.3051 64.304 21.5016 64.0285 21.642C64.5941 21.8946 65.0944 22.3156 65.5295 22.9051C65.9645 23.4946 66.1821 24.1963 66.1821 25.0104C66.1821 25.8525 65.9863 26.6034 65.5947 27.263C65.2032 27.9227 64.6231 28.442 63.8544 28.8209C63.0858 29.1858 62.1359 29.3683 61.0047 29.3683H54.5221ZM57.0238 27.1367H60.6566C61.4398 27.1367 62.0344 26.9332 62.4404 26.5262C62.8465 26.1051 63.0495 25.5998 63.0495 25.0104C63.0495 24.3928 62.8393 23.8805 62.4187 23.4735C62.0126 23.0665 61.4253 22.863 60.6566 22.863H57.0238V27.1367ZM57.0238 20.6735H60.4391C61.2077 20.6735 61.7806 20.4981 62.1576 20.1472C62.5492 19.7823 62.745 19.3121 62.745 18.7367C62.745 18.1472 62.5492 17.6841 62.1576 17.3472C61.7806 17.0104 61.2077 16.842 60.4391 16.842H57.0238V20.6735Z" fill="white"/>
<path d="M74.7649 29.5788C73.4742 29.5788 72.3648 29.3753 71.4366 28.9683C70.5085 28.5472 69.7833 27.9086 69.2612 27.0525C68.7392 26.1823 68.4564 25.1016 68.4128 23.8104C68.3983 23.2069 68.3911 22.6104 68.3911 22.0209C68.3911 21.4314 68.3983 20.8279 68.4128 20.2104C68.4564 18.9332 68.7464 17.8665 69.283 17.0104C69.8196 16.1542 70.552 15.5086 71.4801 15.0735C72.4228 14.6384 73.5177 14.4209 74.7649 14.4209C76.0121 14.4209 77.1071 14.6384 78.0497 15.0735C78.9924 15.5086 79.732 16.1542 80.2686 17.0104C80.8052 17.8665 81.0953 18.9332 81.1388 20.2104C81.1678 20.8279 81.1823 21.4314 81.1823 22.0209C81.1823 22.6104 81.1678 23.2069 81.1388 23.8104C81.0953 25.1016 80.8125 26.1823 80.2904 27.0525C79.7683 27.9086 79.0359 28.5472 78.0932 28.9683C77.1651 29.3753 76.0556 29.5788 74.7649 29.5788ZM74.7649 27.1577C75.7076 27.1577 76.4762 26.8911 77.0708 26.3577C77.6654 25.8104 77.9845 24.9262 78.028 23.7051C78.057 23.0876 78.0715 22.5191 78.0715 21.9998C78.0715 21.4665 78.057 20.8981 78.028 20.2946C77.999 19.4805 77.8395 18.8209 77.5494 18.3156C77.2739 17.7963 76.8968 17.4244 76.4182 17.1998C75.9396 16.9612 75.3885 16.842 74.7649 16.842C74.1558 16.842 73.612 16.9612 73.1334 17.1998C72.6548 17.4244 72.2705 17.7963 71.9805 18.3156C71.7049 18.8209 71.5526 19.4805 71.5236 20.2946C71.5091 20.8981 71.5019 21.4665 71.5019 21.9998C71.5019 22.5191 71.5091 23.0876 71.5236 23.7051C71.5671 24.9262 71.8862 25.8104 72.4808 26.3577C73.0754 26.8911 73.8368 27.1577 74.7649 27.1577Z" fill="white"/>
<path d="M84.5609 29.3683C84.4159 29.3683 84.2926 29.3191 84.1911 29.2209C84.0896 29.1227 84.0388 29.0034 84.0388 28.863V15.1577C84.0388 15.0034 84.0896 14.877 84.1911 14.7788C84.2926 14.6805 84.4159 14.6314 84.5609 14.6314H86.2359C86.439 14.6314 86.584 14.6805 86.671 14.7788C86.7725 14.863 86.8378 14.9262 86.8668 14.9683L93.1318 24.3998V15.1577C93.1318 15.0034 93.1754 14.877 93.2624 14.7788C93.3639 14.6805 93.4944 14.6314 93.6539 14.6314H95.4813C95.6408 14.6314 95.7713 14.6805 95.8728 14.7788C95.9743 14.877 96.0251 15.0034 96.0251 15.1577V28.842C96.0251 28.9963 95.9743 29.1227 95.8728 29.2209C95.7713 29.3191 95.648 29.3683 95.503 29.3683H93.8062C93.6032 29.3683 93.4582 29.3191 93.3711 29.2209C93.2841 29.1227 93.2189 29.0595 93.1754 29.0314L86.932 19.8104V28.863C86.932 29.0034 86.8813 29.1227 86.7798 29.2209C86.6782 29.3191 86.5477 29.3683 86.3882 29.3683H84.5609Z" fill="white"/>
<path d="M105.489 29.5788C104.227 29.5788 103.132 29.3753 102.204 28.9683C101.276 28.5472 100.558 27.9086 100.05 27.0525C99.5426 26.1823 99.2888 25.0735 99.2888 23.7262V15.1577C99.2888 15.0034 99.3396 14.877 99.4411 14.7788C99.5426 14.6805 99.6659 14.6314 99.8109 14.6314H101.791C101.95 14.6314 102.073 14.6805 102.16 14.7788C102.262 14.877 102.313 15.0034 102.313 15.1577V23.7262C102.313 24.877 102.595 25.7332 103.161 26.2946C103.727 26.842 104.502 27.1156 105.489 27.1156C106.475 27.1156 107.243 26.842 107.795 26.2946C108.36 25.7332 108.643 24.877 108.643 23.7262V15.1577C108.643 15.0034 108.694 14.877 108.795 14.7788C108.897 14.6805 109.027 14.6314 109.187 14.6314H111.145C111.304 14.6314 111.427 14.6805 111.514 14.7788C111.616 14.877 111.667 15.0034 111.667 15.1577V23.7262C111.667 25.0735 111.413 26.1823 110.905 27.0525C110.412 27.9086 109.702 28.5472 108.773 28.9683C107.86 29.3753 106.765 29.5788 105.489 29.5788Z" fill="white"/>
<path d="M114.601 29.3683C114.456 29.3683 114.333 29.3191 114.231 29.2209C114.13 29.1227 114.079 28.9963 114.079 28.842V27.3683C114.079 27.1577 114.122 26.9893 114.209 26.863C114.297 26.7367 114.362 26.6455 114.405 26.5893L121.976 17.1156H114.819C114.659 17.1156 114.529 17.0665 114.427 16.9683C114.34 16.87 114.297 16.7507 114.297 16.6104V15.1577C114.297 15.0034 114.34 14.877 114.427 14.7788C114.529 14.6805 114.659 14.6314 114.819 14.6314H125.217C125.376 14.6314 125.507 14.6805 125.608 14.7788C125.71 14.877 125.761 15.0034 125.761 15.1577V16.6104C125.761 16.7788 125.732 16.9191 125.674 17.0314C125.616 17.1437 125.55 17.249 125.478 17.3472L118.06 26.863H125.456C125.616 26.863 125.746 26.9121 125.848 27.0104C125.949 27.1086 126 27.2349 126 27.3893V28.863C126 29.0034 125.949 29.1227 125.848 29.2209C125.746 29.3191 125.616 29.3683 125.456 29.3683H114.601Z" fill="white"/>
<path fill-rule="evenodd" clip-rule="evenodd" d="M0 10.75L19.0007 0L38 10.75V32.25L19.0007 43L0 32.25V10.75ZM19.0007 40.3125L35.6247 30.9055V12.093L19.0007 2.6875L2.37527 12.093V30.9055L19.0007 40.3125ZM19.2143 20.693C18.6723 19.7289 17.8762 18.9251 16.9092 18.3653C15.9223 17.7961 14.7955 17.5022 13.6505 17.5153C12.6694 17.5041 11.6998 17.7238 10.8233 18.156C9.98265 18.567 9.25488 19.1696 8.70104 19.9133V13.092C8.70555 12.9715 8.68465 12.8514 8.63964 12.7391C8.59463 12.6269 8.52649 12.5249 8.43947 12.4396C8.35245 12.3544 8.24841 12.2876 8.13387 12.2435C8.01933 12.1994 7.89673 12.1789 7.77375 12.1833C7.65296 12.1788 7.53256 12.1994 7.42041 12.2436C7.30826 12.2878 7.20688 12.3547 7.12289 12.4399C7.03921 12.5269 6.97401 12.6294 6.93107 12.7414C6.88814 12.8533 6.86832 12.9725 6.87278 13.092V18.3065C6.85428 18.3747 6.84639 18.4453 6.84938 18.5158V23.9882C6.8349 25.1458 7.1342 26.2864 7.71671 27.2935C8.27657 28.2709 9.09778 29.0801 10.092 29.6341C11.1163 30.2054 12.2775 30.4988 13.456 30.4841C14.6345 30.4988 15.7957 30.2054 16.82 29.6341C17.8118 29.0792 18.6313 28.2707 19.1909 27.2949C19.7727 26.2876 20.072 25.1472 20.0582 23.9897C20.0733 22.8377 19.7824 21.7016 19.2143 20.693ZM17.6463 26.4679C17.2393 27.1925 16.64 27.7957 15.9117 28.2137H15.9146C15.3629 28.5276 14.7533 28.7314 14.1209 28.8135C13.4885 28.8956 12.8458 28.8544 12.2298 28.6921C11.6137 28.5298 11.0365 28.2498 10.5313 27.8681C10.0261 27.4864 9.6029 27.0105 9.28609 26.4679C8.86037 25.7088 8.64315 24.8543 8.6557 23.9882C8.65263 23.794 8.66093 23.5997 8.68056 23.4063C8.69672 23.3692 8.7047 23.3291 8.70397 23.2888C8.82952 22.1413 9.38383 21.0798 10.2602 20.3089C11.1344 19.5347 12.278 19.1182 13.456 19.145C14.3179 19.1368 15.1661 19.3561 15.9117 19.78C16.6403 20.1899 17.2403 20.7878 17.6463 21.5086C18.0587 22.2726 18.2743 23.1239 18.2743 23.9882C18.2743 24.8526 18.0587 25.7039 17.6463 26.4679ZM31.1536 29.5525C31.1536 30.0962 30.8766 30.3681 30.3228 30.3681H21.5004C20.9465 30.3681 20.6696 30.0962 20.6696 29.5525C20.6525 29.3454 20.7111 29.1392 20.8349 28.9706L28.6291 19.2612H21.4111C20.8563 19.2612 20.5794 18.9898 20.5804 18.447C20.5814 17.9043 20.8583 17.6324 21.4111 17.6315H30.2263C30.7801 17.6315 31.057 17.9033 31.057 18.447C31.0674 18.6642 31.0001 18.8781 30.8669 19.0519L23.1458 28.7384H30.3213C30.8762 28.7384 31.1536 29.0097 31.1536 29.5525Z" fill="url(#paint0_linear)"/>
<defs>
<linearGradient id="paint0_linear" x1="10" y1="36" x2="30.5" y2="9" gradientUnits="userSpaceOnUse">
<stop stop-color="#C81CFB"/>
<stop offset="1" stop-color="#48F573"/>
</linearGradient>
</defs>
</svg>
