<svg width="118" height="43" viewBox="0 0 118 43" fill="none" xmlns="http://www.w3.org/2000/svg">
    <path d="M55.488 31C54.2616 31 53.1604 30.7095 52.185 30.1287C51.2102 29.5316 50.4391 28.7248 49.8729 27.7083C49.3068 26.6917 49.0156 25.5461 49 24.2713V13.2344C49 12.8633 49.1102 12.5648 49.3301 12.3389C49.5662 12.113 49.8573 12 50.2031 12C50.565 12 50.8561 12.113 51.0765 12.3389C51.2965 12.5648 51.4067 12.8633 51.4067 13.2344V19.7694C51.9573 19.0917 52.6176 18.5592 53.3886 18.172C54.1747 17.7686 55.0321 17.5669 55.9601 17.5669C57.1081 17.5669 58.1386 17.8654 59.051 18.4624C59.963 19.0433 60.6789 19.842 61.1978 20.8586C61.7328 21.859 62 22.9966 62 24.2713C62 25.5461 61.7088 26.6917 61.1271 27.7083C60.5609 28.7248 59.7898 29.5316 58.815 30.1287C57.8396 30.7095 56.7306 31 55.488 31ZM55.488 28.8216C56.2903 28.8216 57.0062 28.628 57.6353 28.2407C58.2644 27.8373 58.7599 27.2887 59.1217 26.5949C59.4992 25.901 59.6879 25.1265 59.6879 24.2713C59.6879 23.4 59.4992 22.6255 59.1217 21.9478C58.7599 21.2701 58.2644 20.7376 57.6353 20.3503C57.0062 19.9469 56.2903 19.7452 55.488 19.7452C54.7019 19.7452 53.986 19.9469 53.3413 20.3503C52.7122 20.7376 52.2167 21.2701 51.8549 21.9478C51.493 22.6255 51.3121 23.4 51.3121 24.2713C51.3121 25.1265 51.493 25.901 51.8549 26.5949C52.2167 27.2887 52.7122 27.8373 53.3413 28.2407C53.986 28.628 54.7019 28.8216 55.488 28.8216Z" fill="white" />
    <path d="M70.512 31C69.2376 31 68.1131 30.7057 67.1377 30.1171C66.1629 29.5117 65.3918 28.6877 64.8256 27.645C64.275 26.5856 64 25.3748 64 24.0126C64 22.6336 64.275 21.4228 64.8256 20.3801C65.3918 19.3207 66.1629 18.4967 67.1377 17.9081C68.1131 17.3027 69.2376 17 70.512 17C71.7702 17 72.8869 17.3027 73.8618 17.9081C74.8371 18.4967 75.5999 19.3207 76.1505 20.3801C76.7166 21.4228 77 22.6336 77 24.0126C77 25.3748 76.7244 26.5856 76.1739 27.645C75.6238 28.6877 74.8605 29.5117 73.8857 30.1171C72.9103 30.7057 71.7858 31 70.512 31ZM70.512 28.7297C71.3298 28.7297 72.053 28.5279 72.6821 28.1243C73.3117 27.7207 73.7989 27.1658 74.1451 26.4594C74.507 25.7532 74.6879 24.9375 74.6879 24.0126C74.6879 23.0877 74.507 22.272 74.1451 21.5658C73.7989 20.8426 73.3117 20.2792 72.6821 19.8756C72.053 19.472 71.3298 19.2702 70.512 19.2702C69.6936 19.2702 68.9704 19.472 68.3413 19.8756C67.7122 20.2792 67.2167 20.8426 66.8549 21.5658C66.493 22.272 66.3121 23.0877 66.3121 24.0126C66.3121 24.9375 66.493 25.7532 66.8549 26.4594C67.2167 27.1658 67.7122 27.7207 68.3413 28.1243C68.9704 28.5279 69.6936 28.7297 70.512 28.7297Z" fill="white" />
    <path d="M89.8072 31C89.4639 31 89.1757 30.8819 88.9417 30.6456C88.7231 30.3924 88.6143 30.0802 88.6143 29.7089V23.481C88.6143 22.519 88.4504 21.7342 88.1231 21.1266C87.7952 20.519 87.3509 20.0718 86.7895 19.7848C86.2436 19.481 85.6121 19.3292 84.8946 19.3292C84.2399 19.3292 83.6471 19.4726 83.1172 19.7595C82.5868 20.0465 82.1656 20.4346 81.8537 20.9241C81.5419 21.3967 81.3862 21.9452 81.3862 22.5696H79.9124C79.9124 21.5064 80.1459 20.5612 80.614 19.7342C81.0975 18.8903 81.7522 18.2236 82.579 17.7342C83.4053 17.2448 84.3332 17 85.3626 17C86.4385 17 87.3978 17.2532 88.2401 17.7595C89.0973 18.249 89.768 18.9747 90.2515 19.9367C90.7505 20.8988 91 22.0802 91 23.481V29.7089C91 30.0802 90.883 30.3924 90.6495 30.6456C90.4309 30.8819 90.15 31 89.8072 31ZM80.1928 31C79.85 31 79.5614 30.8819 79.3273 30.6456C79.1093 30.3924 79 30.0802 79 29.7089V18.4178C79 18.0295 79.1093 17.7173 79.3273 17.481C79.5614 17.2447 79.85 17.1266 80.1928 17.1266C80.5516 17.1266 80.8403 17.2447 81.0583 17.481C81.2769 17.7173 81.3862 18.0295 81.3862 18.4178V29.7089C81.3862 30.0802 81.2769 30.3924 81.0583 30.6456C80.8403 30.8819 80.5516 31 80.1928 31Z" fill="white" />
    <path d="M98.6371 31C97.5613 31 96.5943 30.7553 95.7371 30.2658C94.8948 29.7595 94.2242 29.0253 93.7253 28.0633C93.2418 27.1012 93 25.9198 93 24.519V18.2911C93 17.9199 93.1093 17.616 93.3273 17.3797C93.5613 17.1266 93.85 17 94.1928 17C94.5361 17 94.817 17.1266 95.0351 17.3797C95.2691 17.616 95.3861 17.9199 95.3861 18.2911V24.519C95.3861 25.4641 95.5495 26.2489 95.8773 26.8734C96.2046 27.481 96.649 27.9367 97.2103 28.2405C97.7717 28.5274 98.4036 28.6709 99.1052 28.6709C99.7758 28.6709 100.369 28.5274 100.883 28.2405C101.413 27.9536 101.834 27.5654 102.146 27.0759C102.458 26.5865 102.614 26.038 102.614 25.4304H104.088C104.088 26.4768 103.846 27.422 103.362 28.2659C102.894 29.1097 102.247 29.7764 101.421 30.2658C100.61 30.7553 99.682 31 98.6371 31ZM103.807 30.8734C103.464 30.8734 103.175 30.7553 102.941 30.519C102.723 30.2658 102.614 29.9536 102.614 29.5823V18.2911C102.614 17.903 102.723 17.5907 102.941 17.3544C103.175 17.1182 103.464 17 103.807 17C104.165 17 104.454 17.1182 104.672 17.3544C104.891 17.5907 105 17.903 105 18.2911V29.5823C105 29.9536 104.891 30.2658 104.672 30.519C104.454 30.7553 104.165 30.8734 103.807 30.8734Z" fill="white" />
    <path d="M109.151 30.5137L107.47 28.978L115.874 17.4863L117.53 19.022L109.151 30.5137ZM108.409 31C107.634 31 107.247 30.599 107.247 29.7971C107.247 28.9951 107.634 28.5941 108.409 28.5941H116.838C117.613 28.5941 118 28.9951 118 29.7971C118 30.599 117.613 31 116.838 31H108.409ZM108.161 19.4059C107.387 19.4059 107 19.0049 107 18.203C107 17.401 107.387 17 108.161 17H116.591C117.365 17 117.753 17.401 117.753 18.203C117.753 19.0049 117.365 19.4059 116.591 19.4059H108.161Z" fill="white" />
    <path fillRule="evenodd" clipRule="evenodd" d="M0 10.748L18.902 0L37.8025 10.748V32.244L18.902 42.992L0 32.244V10.748ZM18.902 40.305L35.4396 30.8998V12.0908L18.902 2.687L2.36293 12.0908V30.8998L18.902 40.305ZM19.1151 20.6891C18.576 19.7252 17.7841 18.9215 16.822 18.3618C15.8403 17.7927 14.7193 17.4989 13.5803 17.512C12.6043 17.5007 11.6397 17.7205 10.7678 18.1525C9.9315 18.5635 9.20751 19.166 8.65657 19.9095V13.0895C8.66104 12.969 8.64024 12.8489 8.59549 12.7367C8.5507 12.6244 8.48293 12.5225 8.39636 12.4372C8.30979 12.352 8.20629 12.2852 8.09235 12.2411C7.97837 12.197 7.85645 12.1765 7.73408 12.181C7.61391 12.1765 7.49417 12.1971 7.38257 12.2412C7.27101 12.2854 7.17019 12.3523 7.08663 12.4375C7.00336 12.5245 6.93851 12.627 6.89581 12.7389C6.85307 12.8508 6.83339 12.97 6.83782 13.0895V18.303C6.81939 18.3712 6.81154 18.4418 6.81455 18.5123V23.9837C6.80013 25.1411 7.09787 26.2814 7.67734 27.2884C8.23429 28.2655 9.05124 29.0746 10.0403 29.6286C11.0593 30.1997 12.2144 30.493 13.3868 30.4783C14.5592 30.4931 15.7143 30.1998 16.7333 29.6286C17.72 29.0737 18.5352 28.2653 19.0919 27.2898C19.6707 26.2826 19.9684 25.1424 19.9547 23.9851C19.9697 22.8333 19.6804 21.6975 19.1151 20.6891ZM17.5554 26.4629C17.1504 27.1873 16.5542 27.7904 15.8297 28.2084H15.8327C15.2838 28.5222 14.6774 28.726 14.0483 28.8081C13.4192 28.8902 12.7798 28.8489 12.1669 28.6867C11.5541 28.5245 10.9798 28.2444 10.4773 27.8628C9.9747 27.4812 9.55375 27.0054 9.23855 26.4629C8.81505 25.7039 8.59896 24.8496 8.61145 23.9837C8.6084 23.7895 8.61667 23.5952 8.63618 23.4019C8.65227 23.3647 8.66021 23.3247 8.65946 23.2844C8.78438 22.1371 9.33582 21.0758 10.2076 20.305C11.0773 19.531 12.2149 19.1146 13.3868 19.1414C14.2442 19.1331 15.0881 19.3524 15.8297 19.7762C16.5546 20.1861 17.1515 20.7838 17.5554 21.5045C17.9656 22.2684 18.1801 23.1195 18.1801 23.9837C18.1801 24.8479 17.9656 25.699 17.5554 26.4629ZM30.9913 29.5469C30.9913 30.0905 30.7159 30.3623 30.1649 30.3623H21.3883C20.8373 30.3623 20.5619 30.0905 20.5619 29.5469C20.5449 29.3399 20.6032 29.1337 20.7263 28.9651L28.48 19.2575H21.2995C20.7476 19.2575 20.4721 18.9862 20.4731 18.4435C20.4741 17.9009 20.7496 17.629 21.2995 17.6281H30.0689C30.6198 17.6281 30.8953 17.8999 30.8953 18.4435C30.9056 18.6606 30.8387 18.8745 30.7061 19.0482L23.0252 28.7329H30.1634C30.7154 28.7329 30.9913 29.0043 30.9913 29.5469Z" fill="white" />
</svg>