<svg width="375" height="304" viewBox="0 0 375 304" fill="none" xmlns="http://www.w3.org/2000/svg">
<path d="M377.914 22.1555L316.925 38.1424L255.76 52.8715L232.202 105.897L207.28 158.615L244.711 195.653L280.954 233.642L341.943 217.655L403.107 202.926L426.666 149.9L451.587 97.1826L414.157 60.1437L377.914 22.1555Z" fill="url(#paint0_linear)"/>
<path d="M411.19 221.829L350.201 237.816L289.037 252.545L265.478 305.571L240.557 358.288L277.987 395.327L314.23 433.315L375.22 417.328L436.384 402.599L459.943 349.573L484.864 296.856L447.433 259.817L411.19 221.829Z" fill="url(#paint1_linear)"/>
<path d="M194.873 173.638L133.884 189.625L72.7199 204.354L49.1612 257.38L24.2399 310.097L61.6702 347.136L97.9133 385.124L158.902 369.137L220.067 354.408L243.625 301.382L268.547 248.665L231.116 211.626L194.873 173.638Z" fill="url(#paint2_linear)"/>
<defs>
<linearGradient id="paint0_linear" x1="437.161" y1="-75.7273" x2="345.807" y2="179.672" gradientUnits="userSpaceOnUse">
<stop stop-color="#1E0B6D"/>
<stop offset="1" stop-color="#250B71" stop-opacity="0.41"/>
</linearGradient>
<linearGradient id="paint1_linear" x1="409.714" y1="211.582" x2="320.845" y2="346.446" gradientUnits="userSpaceOnUse">
<stop stop-color="#1E0B6D"/>
<stop offset="1" stop-color="#250B71" stop-opacity="0"/>
</linearGradient>
<linearGradient id="paint2_linear" x1="207.738" y1="151.482" x2="107.535" y2="300.639" gradientUnits="userSpaceOnUse">
<stop stop-color="#1E0B6D"/>
<stop offset="1" stop-color="#250B71" stop-opacity="0"/>
</linearGradient>
</defs>
</svg>
