<svg width="57" height="64" viewBox="0 0 57 64" fill="none" xmlns="http://www.w3.org/2000/svg">

<path d="M14.849 9.03308L14.8387 9.03902L14.8283 9.04472L1.00738 16.5894L1.19822 31.9876L1.19837 32L1.19822 32.0124L1.00738 47.4106L14.8283 54.9553L14.8387 54.961L14.849 54.9669L28.5 62.8454L42.151 54.9669L42.1613 54.961L42.1717 54.9553L55.9926 47.4106L55.8018 32.0124L55.8016 32L55.8018 31.9876L55.9926 16.5894L42.1717 9.04472L42.1613 9.03902L42.151 9.03308L28.5 1.15459L14.849 9.03308Z" stroke="url(#paint0_linear)" stroke-width="2"/>

<path fill-rule="evenodd" clip-rule="evenodd" d="M20.517 37.0122L20.8478 32.5451L29.3705 25.1987C29.7414 24.8835 29.2905 24.7091 28.7947 25.0243L18.2586 31.3531L13.7227 29.9987C12.736 29.7051 12.7176 29.0571 13.9285 28.6059L31.6706 22.0851C32.4923 21.7915 33.2106 22.2595 32.9431 23.4563L32.9423 23.4571L31.2654 31.0002C28.356 31.0249 26.0047 33.3389 26 36.1914L23.6604 34.5467L21.4412 36.5827C21.1953 36.817 20.9903 37.0122 20.517 37.0122Z" fill="white"/>
<path d="M31.3125 31C28.3785 31 26 33.3281 26 36.2C26 38.1247 27.0683 39.8052 28.6562 40.7043V44.8398L33.1875 41.4H37.6875C40.6215 41.4 43 39.0719 43 36.2C43 33.3281 40.6215 31 37.6875 31H31.3125Z" fill="#030C5D" stroke="white" stroke-width="2" stroke-linejoin="round"/>
<defs>

<linearGradient id="paint0_linear" x1="-2.14371" y1="31.544" x2="57.3966" y2="30.7153" gradientUnits="userSpaceOnUse">
<stop stop-color="#CE09FF"/>
<stop offset="1" stop-color="#FFA34E"/>
</linearGradient>
</defs>
</svg>
