<svg width="57" height="64" viewBox="0 0 57 64" fill="none" xmlns="http://www.w3.org/2000/svg">

<path d="M14.849 9.03308L14.8387 9.03902L14.8283 9.04472L1.00738 16.5894L1.19822 31.9876L1.19837 32L1.19822 32.0124L1.00738 47.4106L14.8283 54.9553L14.8387 54.961L14.849 54.9669L28.5 62.8454L42.151 54.9669L42.1613 54.961L42.1717 54.9553L55.9926 47.4106L55.8018 32.0124L55.8016 32L55.8018 31.9876L55.9926 16.5894L42.1717 9.04472L42.1613 9.03902L42.151 9.03308L28.5 1.15459L14.849 9.03308Z" stroke="url(#paint0_linear)" stroke-width="2"/>

<path d="M24.8478 34.5451L24.517 39.0122C24.9903 39.0122 25.1953 38.817 25.4412 38.5827L27.6604 36.5467L32.2588 39.7794C33.1022 40.2306 33.6964 39.993 33.9239 39.0346L36.9423 25.4571L36.9431 25.4563C37.2106 24.2595 36.4923 23.7915 35.6706 24.0851L17.9285 30.6059C16.7176 31.0571 16.736 31.7051 17.7227 31.9987L22.2586 33.3531L32.7947 27.0243C33.2905 26.7091 33.7414 26.8835 33.3705 27.1987L24.8478 34.5451Z" fill="white"/>
<defs>

<linearGradient id="paint0_linear" x1="-2.14371" y1="31.544" x2="57.3966" y2="30.7153" gradientUnits="userSpaceOnUse">
<stop stop-color="#CE09FF"/>
<stop offset="1" stop-color="#FFA34E"/>
</linearGradient>
</defs>
</svg>
