<svg width="16" height="16" viewBox="0 0 16 16" fill="none" xmlns="http://www.w3.org/2000/svg">
  <path d="M12.6667 2.66669H3.33336C2.80293 2.66669 2.29422 2.8774 1.91915 3.25247C1.54407 3.62755 1.33336 4.13625 1.33336 4.66669V11.3334C1.33336 11.8638 1.54407 12.3725 1.91915 12.7476C2.29422 13.1226 2.80293 13.3334 3.33336 13.3334H12.6667C13.1971 13.3334 13.7058 13.1226 14.0809 12.7476C14.456 12.3725 14.6667 11.8638 14.6667 11.3334V4.66669C14.6667 4.13625 14.456 3.62755 14.0809 3.25247C13.7058 2.8774 13.1971 2.66669 12.6667 2.66669ZM3.33336 12C3.15655 12 2.98698 11.9298 2.86195 11.8048C2.73693 11.6797 2.66669 11.5102 2.66669 11.3334V9.72002L4.86669 7.52669C4.99131 7.40454 5.15886 7.33612 5.33336 7.33612C5.50786 7.33612 5.67541 7.40454 5.80003 7.52669L10.2734 12H3.33336ZM13.3334 11.3334C13.3334 11.5102 13.2631 11.6797 13.1381 11.8048C13.0131 11.9298 12.8435 12 12.6667 12H12.1534L9.61336 9.44669L10.2 8.86002C10.3246 8.73787 10.4922 8.66945 10.6667 8.66945C10.8412 8.66945 11.0087 8.73787 11.1334 8.86002L13.3334 11.0534V11.3334ZM13.3334 9.17335L12.08 7.92669C11.7001 7.56164 11.1936 7.35777 10.6667 7.35777C10.1398 7.35777 9.63332 7.56164 9.25336 7.92669L8.66669 8.51335L6.74669 6.59335C6.36673 6.22831 5.86026 6.02444 5.33336 6.02444C4.80645 6.02444 4.29999 6.22831 3.92003 6.59335L2.66669 7.84002V4.66669C2.66669 4.48988 2.73693 4.32031 2.86195 4.19528C2.98698 4.07026 3.15655 4.00002 3.33336 4.00002H12.6667C12.8435 4.00002 13.0131 4.07026 13.1381 4.19528C13.2631 4.32031 13.3334 4.48988 13.3334 4.66669V9.17335Z" fill="white"/>
</svg>
