<svg width="16" height="16" viewBox="0 0 16 16" fill="none" xmlns="http://www.w3.org/2000/svg">
  <path d="M8.20001 8.14668C8.55572 7.83877 8.84104 7.45793 9.03659 7.03003C9.23214 6.60212 9.33334 6.13715 9.33334 5.66668C9.33334 4.78262 8.98215 3.93478 8.35703 3.30965C7.73191 2.68453 6.88406 2.33334 6.00001 2.33334C5.11595 2.33334 4.2681 2.68453 3.64298 3.30965C3.01786 3.93478 2.66667 4.78262 2.66667 5.66668C2.66667 6.13715 2.76787 6.60212 2.96342 7.03003C3.15897 7.45793 3.44429 7.83877 3.8 8.14668C2.86677 8.56927 2.07498 9.2517 1.51933 10.1124C0.963669 10.9731 0.667653 11.9756 0.666672 13C0.666672 13.1768 0.73691 13.3464 0.861934 13.4714C0.986958 13.5964 1.15653 13.6667 1.33334 13.6667C1.51015 13.6667 1.67972 13.5964 1.80474 13.4714C1.92977 13.3464 2.00001 13.1768 2.00001 13C2.00001 11.9391 2.42143 10.9217 3.17158 10.1716C3.92172 9.42144 4.93914 9.00001 6.00001 9.00001C7.06087 9.00001 8.07829 9.42144 8.82843 10.1716C9.57858 10.9217 10 11.9391 10 13C10 13.1768 10.0702 13.3464 10.1953 13.4714C10.3203 13.5964 10.4899 13.6667 10.6667 13.6667C10.8435 13.6667 11.0131 13.5964 11.1381 13.4714C11.2631 13.3464 11.3333 13.1768 11.3333 13C11.3324 11.9756 11.0363 10.9731 10.4807 10.1124C9.92503 9.2517 9.13325 8.56927 8.20001 8.14668ZM6.00001 7.66668C5.60444 7.66668 5.21776 7.54938 4.88886 7.32962C4.55997 7.10985 4.30362 6.7975 4.15225 6.43204C4.00087 6.06659 3.96126 5.66446 4.03843 5.2765C4.11561 4.88853 4.30609 4.53217 4.58579 4.25246C4.8655 3.97276 5.22186 3.78228 5.60982 3.70511C5.99779 3.62794 6.39992 3.66754 6.76537 3.81892C7.13082 3.97029 7.44318 4.22664 7.66294 4.55554C7.88271 4.88443 8.00001 5.27111 8.00001 5.66668C8.00001 6.19711 7.78929 6.70582 7.41422 7.08089C7.03915 7.45596 6.53044 7.66668 6.00001 7.66668ZM12.4933 7.88001C12.92 7.39956 13.1987 6.80605 13.2959 6.1709C13.3931 5.53576 13.3046 4.88606 13.0412 4.30001C12.7777 3.71396 12.3505 3.21654 11.811 2.86763C11.2714 2.51871 10.6425 2.33317 10 2.33334C9.82319 2.33334 9.65363 2.40358 9.5286 2.52861C9.40358 2.65363 9.33334 2.8232 9.33334 3.00001C9.33334 3.17682 9.40358 3.34639 9.5286 3.47141C9.65363 3.59644 9.82319 3.66668 10 3.66668C10.5304 3.66668 11.0391 3.87739 11.4142 4.25246C11.7893 4.62754 12 5.13624 12 5.66668C11.9991 6.01684 11.9062 6.36061 11.7307 6.66362C11.5552 6.96664 11.3033 7.21826 11 7.39334C10.9012 7.45036 10.8186 7.53179 10.7602 7.62984C10.7019 7.72789 10.6697 7.83928 10.6667 7.95334C10.6639 8.06652 10.69 8.17854 10.7424 8.27885C10.7949 8.37916 10.8721 8.46445 10.9667 8.52668L11.2267 8.70001L11.3133 8.74668C12.1169 9.12782 12.7949 9.73067 13.2673 10.4842C13.7398 11.2378 13.987 12.1106 13.98 13C13.98 13.1768 14.0502 13.3464 14.1753 13.4714C14.3003 13.5964 14.4699 13.6667 14.6467 13.6667C14.8235 13.6667 14.9931 13.5964 15.1181 13.4714C15.2431 13.3464 15.3133 13.1768 15.3133 13C15.3188 11.977 15.0626 10.9695 14.569 10.0734C14.0754 9.17726 13.3609 8.42222 12.4933 7.88001Z" fill="white"/>
</svg>
