<svg width="8" height="6" viewBox="0 0 8 6" fill="none" xmlns="http://www.w3.org/2000/svg">
    <path
        d="M7.33248 1.1133C7.20758 0.989128 7.03861 0.919434 6.86248 0.919434C6.68636 0.919434 6.51739 0.989128 6.39248 1.1133L3.99915 3.47329L1.63915 1.1133C1.51424 0.989128 1.34528 0.919434 1.16915 0.919434C0.993028 0.919434 0.82406 0.989128 0.699152 1.1133C0.636666 1.17527 0.58707 1.249 0.553224 1.33024C0.519378 1.41148 0.501953 1.49862 0.501953 1.58663C0.501953 1.67464 0.519378 1.76177 0.553224 1.84301C0.58707 1.92425 0.636666 1.99799 0.699152 2.05996L3.52582 4.88663C3.58779 4.94911 3.66153 4.99871 3.74277 5.03256C3.82401 5.0664 3.91114 5.08383 3.99915 5.08383C4.08716 5.08383 4.1743 5.0664 4.25554 5.03256C4.33678 4.99871 4.41051 4.94911 4.47248 4.88663L7.33248 2.05996C7.39497 1.99799 7.44457 1.92425 7.47841 1.84301C7.51226 1.76177 7.52968 1.67464 7.52968 1.58663C7.52968 1.49862 7.51226 1.41148 7.47841 1.33024C7.44457 1.249 7.39497 1.17527 7.33248 1.1133Z"
        fill="#FFFBFF" />
</svg>