<svg width="57" height="64" viewBox="0 0 57 64" fill="none" xmlns="http://www.w3.org/2000/svg">

<path d="M14.849 9.03308L14.8387 9.03902L14.8283 9.04472L1.00738 16.5894L1.19822 31.9876L1.19837 32L1.19822 32.0124L1.00738 47.4106L14.8283 54.9553L14.8387 54.961L14.849 54.9669L28.5 62.8454L42.151 54.9669L42.1613 54.961L42.1717 54.9553L55.9926 47.4106L55.8018 32.0124L55.8016 32L55.8018 31.9876L55.9926 16.5894L42.1717 9.04472L42.1613 9.03902L42.151 9.03308L28.5 1.15459L14.849 9.03308Z" stroke="url(#paint0_linear)" stroke-width="2"/>

<path fill-rule="evenodd" clip-rule="evenodd" d="M34.315 24.9578C33.6917 24.8331 32.8498 24.74 32.3204 24.74C30.8867 24.74 30.7936 25.3633 30.7936 26.3607V28.1361H34.3774L34.065 31.8137H30.7936V43H26.3063V31.8137H24V28.1361H26.3063V25.8613C26.3063 22.7453 27.7708 21 31.4477 21C32.7252 21 33.6602 21.187 34.8753 21.4363L34.315 24.9578Z" fill="white"/>
<defs>

<linearGradient id="paint0_linear" x1="-2.14371" y1="31.544" x2="57.3966" y2="30.7153" gradientUnits="userSpaceOnUse">
<stop stop-color="#CE09FF"/>
<stop offset="1" stop-color="#FFA34E"/>
</linearGradient>
</defs>
</svg>
