<svg width="197" height="73" viewBox="0 0 197 73" fill="none" xmlns="http://www.w3.org/2000/svg">
<path d="M20.2246 26L30.155 31.9976L40.2246 37.75L40.0855 49.5L40.2246 61.25L30.155 67.0024L20.2246 73L10.2942 67.0024L0.224609 61.25L0.36376 49.5L0.224609 37.75L10.2942 31.9976L20.2246 26Z" fill="url(#paint0_linear)"/>
<path d="M72.2246 26L82.155 31.9976L92.2246 37.75L92.0855 49.5L92.2246 61.25L82.155 67.0024L72.2246 73L62.2942 67.0024L52.2246 61.25L52.3638 49.5L52.2246 37.75L62.2942 31.9976L72.2246 26Z" fill="#2E2289"/>
<path d="M124.225 26L134.155 31.9976L144.225 37.75L144.085 49.5L144.225 61.25L134.155 67.0024L124.225 73L114.294 67.0024L104.225 61.25L104.364 49.5L104.225 37.75L114.294 31.9976L124.225 26Z" fill="#2E2289"/>
<path d="M176.225 26L186.155 31.9976L196.225 37.75L196.085 49.5L196.225 61.25L186.155 67.0024L176.225 73L166.294 67.0024L156.225 61.25L156.364 49.5L156.225 37.75L166.294 31.9976L176.225 26Z" fill="#2E2289"/>
<path d="M6.26074 11H4.8457V4.96387L3.9502 8.16992H2.85645L1.97461 4.96387V11H0.55957V2.0791H2.24121L3.40332 6.1123L4.56543 2.0791H6.26074V11ZM14.1836 4.62891L11.4355 12.2441C11.2305 12.7956 10.932 13.1738 10.54 13.3789C10.1481 13.584 9.68099 13.6865 9.13867 13.6865C8.95182 13.6865 8.7513 13.6683 8.53711 13.6318C8.32292 13.5954 8.09961 13.5339 7.86719 13.4473L8.16113 12.1484C8.3571 12.2214 8.53711 12.2715 8.70117 12.2988C8.86523 12.3307 9.01107 12.3467 9.13867 12.3467C9.5625 12.3467 9.85189 12.1598 10.0068 11.7861L10.2598 11.1709L7.82617 4.62891H9.2959L11.0459 9.44824L12.666 4.62891H14.1836ZM29.6465 11H27.8555L25.5449 7.39062H24.9023V11H23.4873V2.0791H26.4268C27.4066 2.0791 28.1676 2.30469 28.71 2.75586C29.2523 3.20247 29.5234 3.86556 29.5234 4.74512C29.5234 5.13704 29.4619 5.4834 29.3389 5.78418C29.2204 6.0804 29.0495 6.33561 28.8262 6.5498C28.6074 6.764 28.3499 6.9349 28.0537 7.0625C27.762 7.18555 27.4453 7.26986 27.1035 7.31543L29.6465 11ZM28.1084 4.72461C28.1084 4.26888 27.958 3.92708 27.6572 3.69922C27.361 3.47135 26.9508 3.35742 26.4268 3.35742H24.9023V6.1123H26.4268C26.9508 6.1123 27.361 5.99837 27.6572 5.77051C27.958 5.54264 28.1084 5.19401 28.1084 4.72461ZM32.0938 8.35449C32.1621 8.79199 32.3695 9.15658 32.7158 9.44824C33.0667 9.73535 33.5361 9.87891 34.124 9.87891C34.5843 9.87891 34.9831 9.80827 35.3203 9.66699C35.6621 9.52116 35.9561 9.32975 36.2021 9.09277L36.9268 10.0908C36.5166 10.501 36.0814 10.7812 35.6211 10.9316C35.1654 11.082 34.6663 11.1572 34.124 11.1572C33.6318 11.1572 33.1738 11.0752 32.75 10.9111C32.3262 10.7471 31.9593 10.5192 31.6494 10.2275C31.3395 9.93132 31.0957 9.5804 30.918 9.1748C30.7448 8.76921 30.6582 8.31803 30.6582 7.82129C30.6582 7.33822 30.738 6.89388 30.8975 6.48828C31.0615 6.07812 31.2894 5.72493 31.5811 5.42871C31.8773 5.12793 32.2305 4.89551 32.6406 4.73145C33.0508 4.56283 33.5042 4.47852 34.001 4.47852C34.516 4.47852 34.9831 4.56738 35.4023 4.74512C35.8216 4.91829 36.1794 5.17122 36.4756 5.50391C36.7764 5.83659 37.0111 6.24447 37.1797 6.72754C37.3483 7.20605 37.4326 7.74837 37.4326 8.35449H32.0938ZM35.833 7.11035C35.7601 6.7002 35.5482 6.37207 35.1973 6.12598C34.8464 5.87533 34.4476 5.75 34.001 5.75C33.5544 5.75 33.1533 5.87533 32.7979 6.12598C32.4424 6.37207 32.2282 6.7002 32.1553 7.11035H35.833ZM45.0068 4.62891L44.0498 11H42.2998L41.6299 7.16504L40.9463 11H39.1963L38.2393 4.62891H39.627L40.1875 8.8877L40.8711 4.62891H42.3682L43.0586 8.8877L43.6191 4.62891H45.0068ZM46.0527 9.16797C46.0527 8.79427 46.153 8.46842 46.3535 8.19043C46.554 7.90788 46.8161 7.67318 47.1396 7.48633C47.4678 7.29948 47.8415 7.16048 48.2607 7.06934C48.6846 6.97363 49.1152 6.92578 49.5527 6.92578C49.7943 6.92578 50.0016 6.93034 50.1748 6.93945C50.348 6.94857 50.5234 6.96224 50.7012 6.98047V6.72754C50.7012 6.39486 50.5713 6.14648 50.3115 5.98242C50.0563 5.81836 49.7191 5.73633 49.2998 5.73633C48.917 5.73633 48.5273 5.79102 48.1309 5.90039C47.7344 6.00521 47.3584 6.16016 47.0029 6.36523L46.4287 5.25781C46.848 5.01628 47.2969 4.82715 47.7754 4.69043C48.2585 4.54915 48.7666 4.47852 49.2998 4.47852C49.6462 4.47852 49.9857 4.51725 50.3184 4.59473C50.6556 4.6722 50.9564 4.7998 51.2207 4.97754C51.4896 5.15527 51.7038 5.3877 51.8633 5.6748C52.0228 5.95736 52.1025 6.30827 52.1025 6.72754V11H50.7012V10.0635C50.4779 10.4098 50.1475 10.6787 49.71 10.8701C49.277 11.0615 48.8099 11.1572 48.3086 11.1572C47.9987 11.1572 47.7048 11.1139 47.4268 11.0273C47.1533 10.9453 46.9163 10.82 46.7158 10.6514C46.5153 10.4827 46.3535 10.2754 46.2305 10.0293C46.112 9.77865 46.0527 9.49154 46.0527 9.16797ZM48.6709 9.89258C48.9489 9.89258 49.2087 9.8584 49.4502 9.79004C49.6963 9.71712 49.9128 9.61914 50.0996 9.49609C50.2865 9.36849 50.4323 9.21582 50.5371 9.03809C50.6465 8.86035 50.7012 8.66439 50.7012 8.4502V8.21094C50.4779 8.17448 50.2682 8.15397 50.0723 8.14941C49.8763 8.14486 49.7031 8.14258 49.5527 8.14258C48.86 8.14258 48.3359 8.23372 47.9805 8.41602C47.6296 8.59831 47.4541 8.82389 47.4541 9.09277C47.4541 9.62598 47.8597 9.89258 48.6709 9.89258ZM59.9365 6.13965C59.7679 6.05762 59.5947 5.99609 59.417 5.95508C59.2438 5.90951 59.0433 5.88672 58.8154 5.88672C58.501 5.88672 58.2048 5.93457 57.9268 6.03027C57.6533 6.12142 57.4163 6.26042 57.2158 6.44727C57.0153 6.63411 56.8581 6.86882 56.7441 7.15137C56.6348 7.42936 56.5801 7.75977 56.5801 8.14258V9.72852H58.0088V11H53.7227V9.72852H55.165V5.90723H53.7227V4.62891H56.5801V6.22852C56.8125 5.59049 57.1543 5.13932 57.6055 4.875C58.0612 4.61068 58.6012 4.47852 59.2256 4.47852C59.4215 4.47852 59.6266 4.49902 59.8408 4.54004C60.055 4.58105 60.2646 4.65397 60.4697 4.75879L59.9365 6.13965ZM67.4014 11H65.9863V10.4121C65.7129 10.6536 65.4372 10.8382 65.1592 10.9658C64.8812 11.0934 64.5645 11.1572 64.209 11.1572C63.7988 11.1572 63.4183 11.0752 63.0674 10.9111C62.7165 10.7471 62.4134 10.5192 62.1582 10.2275C61.9076 9.93132 61.7093 9.57812 61.5635 9.16797C61.4222 8.75781 61.3516 8.30892 61.3516 7.82129C61.3516 7.33822 61.4222 6.8916 61.5635 6.48145C61.7093 6.06673 61.9076 5.71354 62.1582 5.42188C62.4134 5.12565 62.7165 4.89551 63.0674 4.73145C63.4183 4.56283 63.7988 4.47852 64.209 4.47852C64.5645 4.47852 64.8812 4.54004 65.1592 4.66309C65.4372 4.78158 65.7129 4.96159 65.9863 5.20312V3.35742H64.7559V2.0791H67.4014V11ZM65.9863 6.32422C65.8177 6.13737 65.599 5.99609 65.3301 5.90039C65.0658 5.80013 64.8128 5.75 64.5713 5.75C64.0381 5.75 63.6029 5.94141 63.2656 6.32422C62.9329 6.70703 62.7666 7.20605 62.7666 7.82129C62.7666 8.43652 62.9329 8.93327 63.2656 9.31152C63.6029 9.68978 64.0381 9.87891 64.5713 9.87891C64.8128 9.87891 65.0658 9.83105 65.3301 9.73535C65.599 9.63509 65.8177 9.49154 65.9863 9.30469V6.32422ZM75.208 9.09277C75.208 9.50749 75.1146 9.84473 74.9277 10.1045C74.7409 10.3643 74.4993 10.5739 74.2031 10.7334C73.9115 10.8929 73.5833 11.0023 73.2188 11.0615C72.8587 11.1253 72.5055 11.1572 72.1592 11.1572C71.5804 11.1572 71.0039 11.0729 70.4297 10.9043C69.8555 10.7357 69.3587 10.5146 68.9395 10.2412L69.5273 9.0791C70.0286 9.37077 70.4867 9.57812 70.9014 9.70117C71.3206 9.81966 71.7399 9.87891 72.1592 9.87891C72.7288 9.87891 73.1436 9.81966 73.4033 9.70117C73.6631 9.57812 73.793 9.40951 73.793 9.19531C73.793 9.09049 73.7565 9.00391 73.6836 8.93555C73.6107 8.86719 73.4899 8.80566 73.3213 8.75098C73.1527 8.69173 72.9294 8.63477 72.6514 8.58008C72.3779 8.52083 72.0361 8.45931 71.626 8.39551C71.2979 8.34082 70.9857 8.27474 70.6895 8.19727C70.3978 8.11523 70.1403 8.0013 69.917 7.85547C69.6937 7.70964 69.5137 7.52507 69.377 7.30176C69.2448 7.07845 69.1787 6.79818 69.1787 6.46094C69.1787 6.11914 69.2653 5.82292 69.4385 5.57227C69.6162 5.31706 69.8464 5.10742 70.1289 4.94336C70.416 4.7793 70.7373 4.66081 71.0928 4.58789C71.4482 4.51497 71.8037 4.47852 72.1592 4.47852C72.6605 4.47852 73.1458 4.5446 73.6152 4.67676C74.0892 4.80436 74.5039 4.98893 74.8594 5.23047L74.2988 6.32422C73.9434 6.10091 73.597 5.95052 73.2598 5.87305C72.9271 5.79102 72.5602 5.75 72.1592 5.75C71.9906 5.75 71.8151 5.75911 71.6328 5.77734C71.4505 5.79557 71.2819 5.83203 71.127 5.88672C70.972 5.93685 70.8421 6.00749 70.7373 6.09863C70.637 6.18522 70.5869 6.29232 70.5869 6.41992C70.5869 6.58854 70.735 6.72754 71.0312 6.83691C71.332 6.94173 71.8424 7.04655 72.5625 7.15137C72.9544 7.20605 73.3122 7.27669 73.6357 7.36328C73.9593 7.44531 74.2373 7.55924 74.4697 7.70508C74.7021 7.84635 74.8822 8.03092 75.0098 8.25879C75.1419 8.4821 75.208 8.76009 75.208 9.09277ZM80.6973 6.35156H78.9746V4.62891H80.6973V6.35156ZM80.6973 11H78.9746V9.27734H80.6973V11Z" fill="white"/>
<defs>
<linearGradient id="paint0_linear" x1="41.729" y1="49.1651" x2="-0.0544216" y2="48.6094" gradientUnits="userSpaceOnUse">
<stop stop-color="#CE09FF"/>
<stop offset="1" stop-color="#FFA34E"/>
</linearGradient>
</defs>
</svg>
