<svg width="1224" height="132" viewBox="0 0 1224 132" fill="none" xmlns="http://www.w3.org/2000/svg">
<mask id="mask0" style="mask-type:alpha" maskUnits="userSpaceOnUse" x="0" y="0" width="1224" height="132">
<rect width="1224" height="132" fill="#2F1385"/>
</mask>
<g mask="url(#mask0)">
<path d="M1287.48 177.784L1277.85 167.7L1274.43 170.372L1271.1 166.89L1265.51 168.355L1264.95 164.78L1248.76 169.024L1249.32 172.599L1233.13 176.843L1232.57 173.267L1216.38 177.511L1216.94 181.087L1200.75 185.331L1200.19 181.755L1184 185.999L1184.56 189.575L1176.47 191.697L1176.41 191.71L1176.36 191.723L1168.24 193.678L1167.78 190.076L1151.55 193.986L1152.01 197.588L1135.77 201.498L1135.31 197.897L1119.07 201.807L1119.53 205.408L1103.3 209.318L1102.83 205.717L1086.6 209.627L1087.06 213.228L1081.44 214.581L1079.27 219.459L1075.35 218.62L1069.1 232.697L1073.02 233.536L1066.76 247.612L1062.84 246.773L1056.59 260.85L1060.51 261.689L1054.26 275.765L1050.34 274.926L1044.08 289.003L1048 289.842L1044.88 296.88L1044.86 296.924L1044.84 296.967L1041.53 303.965L1037.65 303.038L1031.03 317.033L1034.91 317.959L1028.3 331.954L1024.42 331.028L1017.8 345.022L1021.68 345.949L1015.06 359.943L1011.18 359.017L1004.57 373.011L1008.45 373.938L1006.16 378.787L1009.6 382.19L1006.23 384.925L1016.16 394.758L1019.53 392.023L1029.47 401.856L1026.1 404.59L1036.04 414.423L1039.41 411.688L1049.34 421.521L1045.97 424.255L1055.91 434.088L1059.28 431.353L1064.25 436.269L1064.28 436.3L1064.31 436.332L1069.12 441.374L1065.69 444.046L1075.31 454.131L1078.74 451.459L1088.36 461.543L1084.93 464.215L1094.55 474.3L1097.98 471.628L1107.6 481.712L1104.17 484.385L1113.8 494.469L1117.22 491.797L1120.55 495.279L1126.14 493.814L1126.7 497.39L1142.89 493.146L1142.33 489.57L1158.52 485.326L1159.08 488.902L1175.27 484.658L1174.71 481.082L1190.9 476.838L1191.46 480.414L1207.65 476.17L1207.09 472.594L1215.19 470.472L1215.24 470.459L1215.29 470.446L1223.41 468.491L1223.87 472.093L1240.11 468.183L1239.64 464.581L1255.88 460.671L1256.34 464.273L1272.58 460.362L1272.12 456.761L1288.35 452.851L1288.82 456.452L1305.05 452.542L1304.59 448.941L1310.21 447.588L1312.38 442.71L1316.3 443.549L1322.55 429.472L1318.63 428.633L1324.89 414.557L1328.81 415.396L1335.06 401.319L1331.14 400.48L1337.39 386.404L1341.31 387.243L1347.57 373.166L1343.65 372.327L1346.77 365.289L1346.79 365.245L1346.81 365.202L1350.12 358.205L1354 359.131L1360.62 345.136L1356.74 344.21L1363.35 330.215L1367.24 331.142L1373.85 317.147L1369.97 316.221L1376.59 302.226L1380.47 303.152L1387.08 289.158L1383.2 288.231L1385.49 283.382L1382.05 279.979L1385.42 277.244L1375.49 267.411L1372.12 270.146L1362.18 260.314L1365.55 257.579L1355.61 247.746L1352.25 250.481L1342.31 240.648L1345.68 237.914L1335.74 228.081L1332.37 230.816L1327.4 225.9L1327.37 225.869L1327.34 225.837L1322.53 220.795L1325.96 218.123L1316.34 208.038L1312.91 210.71L1303.29 200.626L1306.72 197.954L1297.1 187.869L1293.67 190.541L1284.05 180.457L1287.48 177.784Z" fill="url(#paint0_linear)" stroke="url(#paint1_linear)" stroke-width="8" stroke-dasharray="16 16"/>
<path opacity="0.1" d="M1278.25 168.118C1275.04 164.753 1269.68 163.54 1264.28 164.955L1175.9 188.121L1087.22 209.476C1081.83 210.774 1077.19 214.481 1075.12 219.143L1040.95 296.041L1004.81 372.491C1002.62 377.127 1003.31 382.039 1006.61 385.305L1060.88 439.004L1113.4 494.052C1116.61 497.416 1121.97 498.63 1127.37 497.214L1215.75 474.048L1304.43 452.693C1309.82 451.395 1314.46 447.688 1316.53 443.026L1350.7 366.128L1386.84 289.678C1389.03 285.042 1388.34 280.13 1385.04 276.864L1330.77 223.165L1278.25 168.118Z" stroke="white" stroke-width="60" stroke-linejoin="round"/>
<path d="M873.938 -231.711L776.795 -206.247L679.373 -182.786L641.849 -98.3273L602.155 -14.3593L661.773 44.6359L719.501 105.143L816.644 79.6796L914.066 56.2191L951.591 -28.2399L991.285 -112.208L931.666 -171.203L873.938 -231.711Z" fill="url(#paint2_linear)"/>
<path d="M1218.05 -155.475L1120.9 -130.011L1023.48 -106.55L985.958 -22.0915L946.264 61.8765L1005.88 120.872L1063.61 181.379L1160.75 155.915L1258.18 132.455L1295.7 47.9959L1335.39 -35.9721L1275.78 -94.9673L1218.05 -155.475Z" fill="url(#paint3_linear)"/>
<path d="M926.94 86.3246L829.797 111.788L732.375 135.249L694.851 219.708L655.157 303.676L714.775 362.671L772.503 423.179L869.646 397.715L967.068 374.254L1004.59 289.795L1044.29 205.827L984.668 146.832L926.94 86.3246Z" fill="url(#paint4_linear)"/>
<path d="M582.392 9.56773L485.249 35.0315L387.827 58.492L350.303 142.951L310.609 226.919L370.227 285.914L427.955 346.422L525.098 320.958L622.52 297.497L660.045 213.038L699.739 129.07L640.12 70.0752L582.392 9.56773Z" fill="url(#paint5_linear)"/>
<g filter="url(#filter0_f)">
<path d="M1100.05 276.919C1097.16 323.433 1226.44 381.594 1333.4 291.314C1439.24 201.978 1413.83 58.917 1178.24 165.709C1173.35 167.926 1168.69 170.979 1164.85 174.728C1148.33 190.826 1102.41 238.81 1100.05 276.919Z" fill="#FF00F5"/>
</g>
</g>
<defs>
<filter id="filter0_f" x="587" y="-385.284" width="1319" height="1237" filterUnits="userSpaceOnUse" color-interpolation-filters="sRGB">
<feFlood flood-opacity="0" result="BackgroundImageFix"/>
<feBlend mode="normal" in="SourceGraphic" in2="BackgroundImageFix" result="shape"/>
<feGaussianBlur stdDeviation="256.5" result="effect1_foregroundBlur"/>
</filter>
<linearGradient id="paint0_linear" x1="1273.04" y1="162.658" x2="1193.01" y2="516.348" gradientUnits="userSpaceOnUse">
<stop stop-color="#1E0B6D"/>
<stop offset="1" stop-color="#250B71" stop-opacity="0.41"/>
</linearGradient>
<linearGradient id="paint1_linear" x1="1029.24" y1="290.741" x2="1329.03" y2="423.415" gradientUnits="userSpaceOnUse">
<stop stop-color="#CE09FF"/>
<stop offset="1" stop-color="#FFA34E"/>
</linearGradient>
<linearGradient id="paint2_linear" x1="873.938" y1="-231.711" x2="793.906" y2="121.98" gradientUnits="userSpaceOnUse">
<stop stop-color="#1E0B6D"/>
<stop offset="1" stop-color="#250B71" stop-opacity="0.41"/>
</linearGradient>
<linearGradient id="paint3_linear" x1="974.243" y1="-27.3913" x2="1274.04" y2="105.282" gradientUnits="userSpaceOnUse">
<stop stop-color="#CE09FF"/>
<stop offset="1" stop-color="#FFA34E"/>
</linearGradient>
<linearGradient id="paint4_linear" x1="924.589" y1="70.0033" x2="783.039" y2="284.814" gradientUnits="userSpaceOnUse">
<stop stop-color="#1E0B6D"/>
<stop offset="1" stop-color="#250B71" stop-opacity="0"/>
</linearGradient>
<linearGradient id="paint5_linear" x1="602.884" y1="-25.7215" x2="443.28" y2="211.855" gradientUnits="userSpaceOnUse">
<stop stop-color="#1E0B6D"/>
<stop offset="1" stop-color="#250B71" stop-opacity="0"/>
</linearGradient>
</defs>
</svg>
