<svg width="125" height="131" viewBox="0 0 125 131" fill="none" xmlns="http://www.w3.org/2000/svg">
<path opacity="0.06" d="M62.5 8.5C54.6207 8.5 46.8185 10.0519 39.539 13.0672C32.2595 16.0825 25.6451 20.5021 20.0736 26.0736C14.5021 31.6451 10.0825 38.2595 7.06722 45.539C4.05194 52.8185 2.5 60.6207 2.5 68.5C2.5 76.3793 4.05195 84.1815 7.06723 91.461C10.0825 98.7406 14.5021 105.355 20.0736 110.926C25.6451 116.498 32.2595 120.917 39.539 123.933C46.8185 126.948 54.6207 128.5 62.5 128.5C70.3793 128.5 78.1815 126.948 85.461 123.933C92.7406 120.917 99.3549 116.498 104.926 110.926C110.498 105.355 114.918 98.7405 117.933 91.461C120.948 84.1814 122.5 76.3793 122.5 68.5C122.5 60.6207 120.948 52.8185 117.933 45.539C114.917 38.2594 110.498 31.6451 104.926 26.0736C99.3549 20.5021 92.7405 16.0825 85.461 13.0672C78.1814 10.0519 70.3793 8.49999 62.5 8.5L62.5 8.5Z" stroke="white" stroke-width="5"/>
<path d="M118.149 48.0293C114.945 35.7084 107.743 24.7992 97.6723 17.012C87.6012 9.2248 75.2306 5 62.5 5" stroke="url(#paint0_linear)" stroke-width="10" stroke-linecap="round" stroke-linejoin="round"/>
<path d="M88.2812 54V84L62.5 99L36.7188 84V54L62.5 39L88.2812 54Z" fill="url(#paint1_linear)"/>
<path d="M74.9536 74.7107C75.055 74.8863 75.2032 75.0296 75.3794 75.1225C75.5556 75.2154 75.752 75.2537 75.9437 75.2326C76.1354 75.2115 76.3138 75.132 76.4563 75.004C76.5989 74.8761 76.6992 74.7054 76.7445 74.5137C76.7899 74.322 76.7782 74.1178 76.7111 73.9269C76.644 73.7361 76.5243 73.5672 76.3674 73.4415C76.2104 73.3159 76.0231 73.2392 75.8291 73.2211C75.6352 73.203 75.4434 73.2443 75.2779 73.3398C75.056 73.468 74.8971 73.6844 74.8363 73.9415C74.7755 74.1986 74.8177 74.4753 74.9536 74.7107ZM80.2045 70.8387L73.4579 68.8156C73.3322 68.7784 73.2019 68.7669 73.0745 68.7816C72.947 68.7962 72.8249 68.8369 72.7152 68.9011L63.5107 74.2154C62.8449 74.5997 62.3684 75.249 62.186 76.0202C62.0036 76.7915 62.1302 77.6216 62.538 78.3279L65.6132 83.6544C66.021 84.3607 66.6766 84.8854 67.4357 85.113C68.1949 85.3407 68.9954 85.2526 69.6611 84.8683L78.8656 79.554C78.9762 79.4911 79.0724 79.4057 79.1488 79.3027C79.2253 79.1996 79.2804 79.081 79.3111 78.9536L80.9323 72.0993C80.9631 71.9715 80.9686 71.8374 80.9487 71.7047C80.9287 71.572 80.8836 71.4433 80.8159 71.3261C80.7482 71.2089 80.6594 71.1055 80.5544 71.0219C80.4495 70.9382 80.3306 70.876 80.2045 70.8387ZM77.4975 77.9766L68.6361 83.0928C68.4141 83.2209 68.1473 83.2503 67.8943 83.1744C67.6412 83.0985 67.4227 82.9236 67.2868 82.6881L64.2115 77.3617C64.0756 77.1263 64.0334 76.8496 64.0942 76.5925C64.155 76.3354 64.3138 76.119 64.5358 75.9908L73.3972 70.8747L78.7944 72.4932L77.4975 77.9766Z" fill="white"/>
<g filter="url(#filter0_b)">
<rect x="46" y="55" width="22" height="23" rx="1" fill="white" fill-opacity="0.2"/>
</g>
<path d="M61 70.1383C61 71.0574 60.7159 71.8133 60.1477 72.4059C59.5795 72.9985 58.8111 73.3613 57.8426 73.4943C57.791 73.5064 57.7651 73.5367 57.7651 73.585L57.7845 74.8186C57.7845 74.9395 57.7199 75 57.5908 75H56.4479C56.3188 75 56.2542 74.9395 56.2542 74.8186L56.2736 73.5669C56.2736 73.5185 56.2478 73.4883 56.1961 73.4762C55.2018 73.3432 54.4205 72.9803 53.8523 72.3878C53.2841 71.7952 53 71.0514 53 70.1565V69.6667C53 69.5457 53.0646 69.4853 53.1937 69.4853H54.5884C54.7175 69.4853 54.7821 69.5457 54.7821 69.6667V70.0658C54.7821 70.6584 54.9887 71.1361 55.4019 71.4989C55.8281 71.8617 56.3963 72.0431 57.1065 72.0431C57.7651 72.0431 58.2752 71.8798 58.6368 71.5533C59.0113 71.2147 59.1985 70.7732 59.1985 70.229C59.1985 69.8662 59.1017 69.5518 58.908 69.2857C58.7272 69.0197 58.456 68.7717 58.0944 68.542C57.7328 68.3122 57.2098 68.0219 56.5254 67.6712C55.7506 67.2842 55.1372 66.9395 54.6852 66.6372C54.2333 66.3348 53.8523 65.9539 53.5424 65.4943C53.2454 65.0348 53.0969 64.4785 53.0969 63.8254C53.0969 62.9305 53.368 62.2048 53.9104 61.6485C54.4528 61.0801 55.1953 60.7294 56.138 60.5964C56.1897 60.5964 56.2155 60.5722 56.2155 60.5238L56.1961 59.1814C56.1961 59.0605 56.2607 59 56.3898 59H57.5327C57.6618 59 57.7264 59.0605 57.7264 59.1814L57.6877 60.5419C57.6877 60.5903 57.7135 60.6206 57.7651 60.6327C58.7337 60.7778 59.4956 61.1527 60.0508 61.7574C60.619 62.3621 60.9031 63.124 60.9031 64.0431V64.4603C60.9031 64.5813 60.8386 64.6417 60.7094 64.6417H59.2954C59.1663 64.6417 59.1017 64.5813 59.1017 64.4603V64.0794C59.1017 63.4868 58.9015 63.003 58.5012 62.6281C58.1009 62.2532 57.5521 62.0658 56.8547 62.0658C56.2478 62.0658 55.7635 62.2169 55.4019 62.5193C55.0533 62.8216 54.8789 63.2509 54.8789 63.8073C54.8789 64.1701 54.9629 64.4785 55.1308 64.7324C55.3115 64.9864 55.5763 65.2222 55.9249 65.4399C56.2736 65.6576 56.7966 65.9418 57.4939 66.2925C58.3592 66.7642 59.0178 67.1512 59.4697 67.4535C59.9217 67.7559 60.2897 68.1247 60.5738 68.5601C60.8579 68.9955 61 69.5215 61 70.1383Z" fill="white"/>
<defs>
<filter id="filter0_b" x="35" y="44" width="44" height="45" filterUnits="userSpaceOnUse" color-interpolation-filters="sRGB">
<feFlood flood-opacity="0" result="BackgroundImageFix"/>
<feGaussianBlur in="BackgroundImage" stdDeviation="5.5"/>
<feComposite in2="SourceAlpha" operator="in" result="effect1_backgroundBlur"/>
<feBlend mode="normal" in="SourceGraphic" in2="effect1_backgroundBlur" result="shape"/>
</filter>
<linearGradient id="paint0_linear" x1="101.562" y1="96.875" x2="21.3015" y2="21.9345" gradientUnits="userSpaceOnUse">
<stop stop-color="#CC16FF"/>
<stop offset="1" stop-color="#48F573"/>
</linearGradient>
<linearGradient id="paint1_linear" x1="36.7371" y1="-0.612041" x2="116.862" y2="70.7665" gradientUnits="userSpaceOnUse">
<stop stop-color="#CE09FF"/>
<stop offset="1" stop-color="#FFA34E"/>
</linearGradient>
</defs>
</svg>
