<svg width="125" height="125" viewBox="0 0 125 125" fill="none" xmlns="http://www.w3.org/2000/svg">
<path opacity="0.06" d="M62.5 2.5C54.6207 2.5 46.8185 4.05195 39.539 7.06723C32.2595 10.0825 25.6451 14.5021 20.0736 20.0736C14.5021 25.6451 10.0825 32.2595 7.06722 39.539C4.05194 46.8185 2.5 54.6207 2.5 62.5C2.5 70.3793 4.05195 78.1815 7.06723 85.461C10.0825 92.7406 14.5021 99.3549 20.0736 104.926C25.6451 110.498 32.2595 114.917 39.539 117.933C46.8185 120.948 54.6207 122.5 62.5 122.5C70.3793 122.5 78.1815 120.948 85.461 117.933C92.7406 114.917 99.3549 110.498 104.926 104.926C110.498 99.3549 114.918 92.7405 117.933 85.461C120.948 78.1814 122.5 70.3793 122.5 62.5C122.5 54.6207 120.948 46.8185 117.933 39.539C114.917 32.2594 110.498 25.6451 104.926 20.0736C99.3549 14.5021 92.7405 10.0825 85.461 7.06721C78.1814 4.05194 70.3793 2.49999 62.5 2.5L62.5 2.5Z" stroke="white" stroke-width="5"/>
<path d="M88.5625 48V78L62.7813 93L37 78V48L62.7813 33L88.5625 48Z" fill="url(#paint0_linear)"/>
<path d="M69.5767 58.2199C69.9183 57.3986 71.0817 57.3986 71.4233 58.2199L73.5717 63.3853C73.7157 63.7316 74.0413 63.9681 74.4151 63.9981L79.9916 64.4452C80.8783 64.5162 81.2378 65.6227 80.5623 66.2014L76.3136 69.8409C76.0288 70.0848 75.9044 70.4676 75.9914 70.8323L77.2895 76.274C77.4958 77.1393 76.5546 77.8231 75.7955 77.3595L71.0213 74.4434C70.7012 74.2479 70.2988 74.2479 69.9787 74.4434L65.2045 77.3595C64.4454 77.8231 63.5042 77.1393 63.7105 76.274L65.0086 70.8323C65.0956 70.4676 64.9712 70.0848 64.6864 69.8409L60.4377 66.2014C59.7622 65.6227 60.1217 64.5162 61.0084 64.4452L66.5849 63.9981C66.9587 63.9681 67.2843 63.7316 67.4283 63.3853L69.5767 58.2199Z" fill="white"/>
<g filter="url(#filter0_b)">
<rect x="46" y="48" width="19" height="19" rx="1" fill="white" fill-opacity="0.2"/>
</g>
<path d="M54.5 76.5C56.7091 76.5 58.5 74.7091 58.5 72.5C58.5 70.2909 56.7091 68.5 54.5 68.5C52.2909 68.5 50.5 70.2909 50.5 72.5C50.5 74.7091 52.2909 76.5 54.5 76.5Z" stroke="white" stroke-width="3"/>
<g opacity="0.5">
<path d="M57.0163 65H57.1339C57.6067 65 58.0148 64.669 58.1124 64.2065L60.6444 52.2065C60.7755 51.5848 60.3013 51 59.6659 51H59.5661C59.0939 51 58.6861 51.3303 58.5879 51.7922L56.0382 63.7922C55.906 64.4142 56.3804 65 57.0163 65Z" fill="white"/>
<path d="M51.6891 65H51.7889C52.2611 65 52.6689 64.6697 52.7671 64.2078L55.3169 52.2078C55.449 51.5858 54.9746 51 54.3387 51H54.2211C53.7484 51 53.3402 51.331 53.2426 51.7936L50.7107 63.7935C50.5795 64.4152 51.0538 65 51.6891 65Z" fill="white"/>
</g>
<path d="M61.3774 54.37H50.8722C50.3207 54.37 49.8737 54.817 49.8737 55.3685C49.8737 55.92 50.3207 56.367 50.8722 56.367H61.3774C61.9289 56.367 62.3759 55.92 62.3759 55.3685C62.3759 54.817 61.9289 54.37 61.3774 54.37Z" fill="white"/>
<path d="M60.5557 61.6716H49.9673C49.4331 61.6716 49 61.2385 49 60.7043C49 60.1701 49.4331 59.737 49.9673 59.737H60.5557C61.09 59.737 61.523 60.1701 61.523 60.7043C61.523 61.2385 61.09 61.6716 60.5557 61.6716Z" fill="white"/>
<path d="M12.7524 91.3344C17.8118 100.063 25.0789 107.307 33.8239 112.339C42.5689 117.371 52.4839 120.013 62.5731 120C72.6623 119.987 82.5706 117.32 91.3028 112.266C100.035 107.212 107.284 99.9496 112.321 91.2078C117.358 82.466 120.006 72.5527 120 62.4634C119.994 52.3742 117.333 42.4643 112.284 33.7289C107.236 24.9935 99.978 17.7402 91.2394 12.6974C82.5009 7.65469 72.5892 5 62.5 5" stroke="url(#paint1_linear)" stroke-width="10" stroke-linecap="round" stroke-linejoin="round"/>
<defs>
<filter id="filter0_b" x="42" y="44" width="27" height="27" filterUnits="userSpaceOnUse" color-interpolation-filters="sRGB">
<feFlood flood-opacity="0" result="BackgroundImageFix"/>
<feGaussianBlur in="BackgroundImage" stdDeviation="2"/>
<feComposite in2="SourceAlpha" operator="in" result="effect1_backgroundBlur"/>
<feBlend mode="normal" in="SourceGraphic" in2="effect1_backgroundBlur" result="shape"/>
</filter>
<linearGradient id="paint0_linear" x1="37.0183" y1="-6.61204" x2="117.143" y2="64.7665" gradientUnits="userSpaceOnUse">
<stop stop-color="#CE09FF"/>
<stop offset="1" stop-color="#FFA34E"/>
</linearGradient>
<linearGradient id="paint1_linear" x1="166.805" y1="-56.1984" x2="41.7343" y2="-98.7337" gradientUnits="userSpaceOnUse">
<stop stop-color="#CC16FF"/>
<stop offset="1" stop-color="#48F573"/>
</linearGradient>
</defs>
</svg>
