<svg width="52" height="60" viewBox="0 0 52 60" fill="none" xmlns="http://www.w3.org/2000/svg">
    <path d="M51.5625 15V45L25.7813 60L0 45V15L25.7813 0L51.5625 15Z" fill="url(#paint0_linear_903:469)"/>
    <path fill-rule="evenodd" clip-rule="evenodd" d="M28.5743 20.1486C29.996 20.1486 31.1486 18.996 31.1486 17.5743C31.1486 16.1525 29.996 15 28.5743 15C27.1525 15 26 16.1525 26 17.5743C26 18.996 27.1525 20.1486 28.5743 20.1486Z" fill="white"/>
    <path d="M6.42225 24.8363L14.6835 13.1545C15.082 12.591 15.918 12.591 16.3165 13.1545L24.5777 24.8363C24.8292 25.1918 24.8216 25.6693 24.559 26.0167L16.2977 36.9448C15.8976 37.4741 15.1024 37.4741 14.7023 36.9448L6.441 26.0167C6.17837 25.6693 6.17078 25.1918 6.42225 24.8363Z" fill="white"/>
    <g filter="url(#filter0_b_903:469)">
        <rect x="20" y="24" width="22" height="23" rx="1" fill="white" fill-opacity="0.2"/>
    </g>
    <g opacity="0.4">
        <rect x="23" y="28.5" width="3.2" height="9.75" rx="1" fill="white"/>
        <rect x="24.0664" y="27" width="1" height="12.75" rx="0.5" fill="white"/>
        <rect x="36.8662" y="28.5" width="1" height="12.75" rx="0.5" fill="white"/>
        <rect x="35.7998" y="30" width="3.2" height="9.75" rx="1" fill="white"/>
    </g>
    <rect x="30.4668" y="32.25" width="1" height="12.75" rx="0.5" fill="white"/>
    <rect x="29.4004" y="33.75" width="3.2" height="9.75" rx="1" fill="white"/>
    <defs>
        <filter id="filter0_b_903:469" x="9" y="13" width="44" height="45" filterUnits="userSpaceOnUse" color-interpolation-filters="sRGB">
            <feFlood flood-opacity="0" result="BackgroundImageFix"/>
            <feGaussianBlur in="BackgroundImage" stdDeviation="5.5"/>
            <feComposite in2="SourceAlpha" operator="in" result="effect1_backgroundBlur_903:469"/>
            <feBlend mode="normal" in="SourceGraphic" in2="effect1_backgroundBlur_903:469" result="shape"/>
        </filter>
        <linearGradient id="paint0_linear_903:469" x1="0.0183392" y1="-39.612" x2="80.1429" y2="31.7665" gradientUnits="userSpaceOnUse">
            <stop stop-color="#CE09FF"/>
            <stop offset="1" stop-color="#FFA34E"/>
        </linearGradient>
    </defs>
</svg>
