<svg width="52" height="60" viewBox="0 0 52 60" fill="none" xmlns="http://www.w3.org/2000/svg">
    <path d="M51.5625 15V45L25.7813 60L0 45V15L25.7813 0L51.5625 15Z" fill="url(#paint0_linear_903:491)"/>
    <path fill-rule="evenodd" clip-rule="evenodd" d="M15.1758 41.2706C16.5976 41.2706 17.7501 40.1181 17.7501 38.6964C17.7501 37.2746 16.5976 36.1221 15.1758 36.1221C13.7541 36.1221 12.6016 37.2746 12.6016 38.6964C12.6016 40.1181 13.7541 41.2706 15.1758 41.2706Z" fill="white"/>
    <path opacity="0.9" d="M36.5 36C36.5 39.5899 33.5899 42.5 30 42.5C26.4101 42.5 23.5 39.5899 23.5 36C23.5 32.4101 26.4101 29.5 30 29.5C33.5899 29.5 36.5 32.4101 36.5 36Z" stroke="white" stroke-width="3"/>
    <g filter="url(#filter0_b_903:491)">
        <rect x="12" y="18.1772" width="16.7292" height="15.0376" rx="2" fill="white" fill-opacity="0.2"/>
    </g>
    <g opacity="0.6" filter="url(#filter1_b_903:491)">
        <rect x="19.6016" y="16" width="3.7" height="10.2" rx="1.85" fill="white"/>
    </g>
    <g opacity="0.6" filter="url(#filter2_b_903:491)">
        <path fill-rule="evenodd" clip-rule="evenodd" d="M14.6016 23.85C14.6016 22.8283 15.4298 22 16.4516 22C17.4733 22 18.3016 22.8283 18.3016 23.85V24.35C18.3016 25.3717 17.4733 26.2 16.4516 26.2C15.4298 26.2 14.6016 25.3717 14.6016 24.35V23.85Z" fill="white"/>
    </g>
    <path d="M33.252 26.2439L38.7328 20.763M34.3318 19.813H39.6829V25.1641" stroke="white" stroke-width="2" stroke-linecap="round" stroke-linejoin="round"/>
    <defs>
        <filter id="filter0_b_903:491" x="8" y="14.1772" width="24.7285" height="23.0376" filterUnits="userSpaceOnUse" color-interpolation-filters="sRGB">
            <feFlood flood-opacity="0" result="BackgroundImageFix"/>
            <feGaussianBlur in="BackgroundImage" stdDeviation="2"/>
            <feComposite in2="SourceAlpha" operator="in" result="effect1_backgroundBlur_903:491"/>
            <feBlend mode="normal" in="SourceGraphic" in2="effect1_backgroundBlur_903:491" result="shape"/>
        </filter>
        <filter id="filter1_b_903:491" x="-30.3984" y="-34" width="103.699" height="110.2" filterUnits="userSpaceOnUse" color-interpolation-filters="sRGB">
            <feFlood flood-opacity="0" result="BackgroundImageFix"/>
            <feGaussianBlur in="BackgroundImage" stdDeviation="25"/>
            <feComposite in2="SourceAlpha" operator="in" result="effect1_backgroundBlur_903:491"/>
            <feBlend mode="normal" in="SourceGraphic" in2="effect1_backgroundBlur_903:491" result="shape"/>
        </filter>
        <filter id="filter2_b_903:491" x="-35.3984" y="-28" width="103.699" height="104.2" filterUnits="userSpaceOnUse" color-interpolation-filters="sRGB">
            <feFlood flood-opacity="0" result="BackgroundImageFix"/>
            <feGaussianBlur in="BackgroundImage" stdDeviation="25"/>
            <feComposite in2="SourceAlpha" operator="in" result="effect1_backgroundBlur_903:491"/>
            <feBlend mode="normal" in="SourceGraphic" in2="effect1_backgroundBlur_903:491" result="shape"/>
        </filter>
        <linearGradient id="paint0_linear_903:491" x1="0.0183392" y1="-39.612" x2="80.1429" y2="31.7665" gradientUnits="userSpaceOnUse">
            <stop stop-color="#CE09FF"/>
            <stop offset="1" stop-color="#FFA34E"/>
        </linearGradient>
    </defs>
</svg>
