<svg width="52" height="60" viewBox="0 0 52 60" fill="none" xmlns="http://www.w3.org/2000/svg">
    <path d="M51.5625 15V45L25.7813 60L0 45V15L25.7813 0L51.5625 15Z" fill="url(#paint0_linear_903:508)"/>
    <path fill-rule="evenodd" clip-rule="evenodd" d="M33 25C34.6569 25 36 23.6569 36 22C36 20.3431 34.6569 19 33 19C31.3431 19 30 20.3431 30 22C30 23.6569 31.3431 25 33 25Z" fill="white"/>
    <path fill-rule="evenodd" clip-rule="evenodd" d="M15 16H23C23.7956 16 24.5587 16.3161 25.1213 16.8787C25.6839 17.4413 26 18.2044 26 19V33C26 33.7956 25.6839 34.5587 25.1213 35.1213C24.5587 35.6839 23.7956 36 23 36H15C14.2044 36 13.4413 35.6839 12.8787 35.1213C12.3161 34.5587 12 33.7956 12 33V19C12 18.2044 12.3161 17.4413 12.8787 16.8787C13.4413 16.3161 14.2044 16 15 16ZM19.711 32.3104L19.5606 32.1907C19.5048 32.153 19.4441 32.1228 19.3802 32.1009L19.1997 32.0211C19.0371 31.9873 18.8686 31.9942 18.7093 32.0412C18.55 32.0882 18.405 32.1739 18.2873 32.2905C18.1987 32.3874 18.1275 32.4988 18.0767 32.6197C18.0008 32.8015 17.9807 33.0015 18.0188 33.1946C18.0569 33.3878 18.1516 33.5654 18.291 33.7051C18.4303 33.8448 18.6081 33.9404 18.8019 33.9798C18.9957 34.0192 19.1969 34.0007 19.3802 33.9266C19.5 33.8687 19.6113 33.7949 19.711 33.7071C19.8502 33.5668 19.9444 33.3887 19.9819 33.1951C20.0194 33.0016 19.9984 32.8014 19.9216 32.6197C19.8716 32.5043 19.8002 32.3994 19.711 32.3104Z" fill="white"/>
    <g filter="url(#filter0_b_903:508)">
        <rect x="21" y="29" width="19" height="18" rx="2" fill="white" fill-opacity="0.2"/>
    </g>
    <g opacity="0.7" filter="url(#filter1_b_903:508)">
        <path d="M30 36.7273V35.4545C29.999 35.0607 29.8831 34.6768 29.6682 34.3555C29.4534 34.0342 29.1501 33.7913 28.8 33.66V32.9091C28.8 32.4028 28.6104 31.9172 28.2728 31.5592C27.9352 31.2011 27.4774 31 27 31C26.5226 31 26.0648 31.2011 25.7272 31.5592C25.3896 31.9172 25.2 32.4028 25.2 32.9091V33.66C24.8499 33.7913 24.5466 34.0342 24.3318 34.3555C24.1169 34.6768 24.001 35.0607 24 35.4545V36.7273C24 37.2336 24.1896 37.7192 24.5272 38.0772C24.8648 38.4352 25.3226 38.6364 25.8 38.6364H28.2C28.6774 38.6364 29.1352 38.4352 29.4728 38.0772C29.8104 37.7192 30 37.2336 30 36.7273ZM26.4 32.9091C26.4 32.7403 26.4632 32.5785 26.5757 32.4591C26.6883 32.3398 26.8409 32.2727 27 32.2727C27.1591 32.2727 27.3117 32.3398 27.4243 32.4591C27.5368 32.5785 27.6 32.7403 27.6 32.9091V33.5455H26.4V32.9091ZM25.2 36.7273V35.4545C25.2 35.2858 25.2632 35.1239 25.3757 35.0046C25.4883 34.8852 25.6409 34.8182 25.8 34.8182H28.2C28.3591 34.8182 28.5117 34.8852 28.6243 35.0046C28.7368 35.1239 28.8 35.2858 28.8 35.4545V36.7273C28.8 36.896 28.7368 37.0579 28.6243 37.1772C28.5117 37.2966 28.3591 37.3636 28.2 37.3636H25.8C25.6409 37.3636 25.4883 37.2966 25.3757 37.1772C25.2632 37.0579 25.2 36.896 25.2 36.7273ZM34.2 34.8182H31.8C31.6409 34.8182 31.4883 34.8852 31.3757 35.0046C31.2632 35.1239 31.2 35.2858 31.2 35.4545C31.2 35.6233 31.2632 35.7852 31.3757 35.9045C31.4883 36.0239 31.6409 36.0909 31.8 36.0909H34.2C34.3591 36.0909 34.5117 36.158 34.6243 36.2773C34.7368 36.3966 34.8 36.5585 34.8 36.7273V42.9127L33.858 41.99C33.7473 41.8801 33.6016 41.8187 33.45 41.8182H28.2C28.0409 41.8182 27.8883 41.7511 27.7757 41.6318C27.6632 41.5125 27.6 41.3506 27.6 41.1818V40.5455C27.6 40.3767 27.5368 40.2148 27.4243 40.0955C27.3117 39.9761 27.1591 39.9091 27 39.9091C26.8409 39.9091 26.6883 39.9761 26.5757 40.0955C26.4632 40.2148 26.4 40.3767 26.4 40.5455V41.1818C26.4 41.6881 26.5896 42.1737 26.9272 42.5317C27.2648 42.8898 27.7226 43.0909 28.2 43.0909H33.216L35.016 44.8282C35.1205 44.9323 35.2568 44.9932 35.4 45C35.4823 44.999 35.5637 44.9818 35.64 44.9491C35.7473 44.8994 35.8386 44.8175 35.9026 44.7135C35.9665 44.6094 36.0004 44.4878 36 44.3636V36.7273C36 36.221 35.8104 35.7354 35.4728 35.3773C35.1352 35.0193 34.6774 34.8182 34.2 34.8182Z" fill="white"/>
    </g>
    <defs>
        <filter id="filter0_b_903:508" x="17" y="25" width="27" height="26" filterUnits="userSpaceOnUse" color-interpolation-filters="sRGB">
            <feFlood flood-opacity="0" result="BackgroundImageFix"/>
            <feGaussianBlur in="BackgroundImage" stdDeviation="2"/>
            <feComposite in2="SourceAlpha" operator="in" result="effect1_backgroundBlur_903:508"/>
            <feBlend mode="normal" in="SourceGraphic" in2="effect1_backgroundBlur_903:508" result="shape"/>
        </filter>
        <filter id="filter1_b_903:508" x="13" y="20" width="34" height="36" filterUnits="userSpaceOnUse" color-interpolation-filters="sRGB">
            <feFlood flood-opacity="0" result="BackgroundImageFix"/>
            <feGaussianBlur in="BackgroundImage" stdDeviation="5.5"/>
            <feComposite in2="SourceAlpha" operator="in" result="effect1_backgroundBlur_903:508"/>
            <feBlend mode="normal" in="SourceGraphic" in2="effect1_backgroundBlur_903:508" result="shape"/>
        </filter>
        <linearGradient id="paint0_linear_903:508" x1="0.0183392" y1="-39.612" x2="80.1429" y2="31.7665" gradientUnits="userSpaceOnUse">
            <stop stop-color="#CE09FF"/>
            <stop offset="1" stop-color="#FFA34E"/>
        </linearGradient>
    </defs>
</svg>
