<svg width="147" height="50" viewBox="0 0 147 50" fill="none" xmlns="http://www.w3.org/2000/svg">
<path d="M0 22C0 9.84974 9.84974 0 22 0H125C137.15 0 147 9.84974 147 22V50H22C9.84974 50 0 40.1503 0 28V22Z" fill="white"/>
<path d="M24.0518 16.7451C24.0518 17.6383 23.7806 18.3037 23.2383 18.7412C22.696 19.1742 21.9395 19.3906 20.9688 19.3906H19.4307V23H18.0156V14.0791H20.9551C21.9349 14.0791 22.696 14.3047 23.2383 14.7559C23.7806 15.2025 24.0518 15.8656 24.0518 16.7451ZM22.6367 16.7246C22.6367 16.2689 22.4863 15.9271 22.1855 15.6992C21.8893 15.4714 21.4837 15.3574 20.9688 15.3574H19.4307V18.1123H20.9688C21.4837 18.1123 21.8893 17.9984 22.1855 17.7705C22.4863 17.5426 22.6367 17.194 22.6367 16.7246ZM31.5371 18.1396C31.3685 18.0576 31.1953 17.9961 31.0176 17.9551C30.8444 17.9095 30.6439 17.8867 30.416 17.8867C30.1016 17.8867 29.8053 17.9346 29.5273 18.0303C29.2539 18.1214 29.0169 18.2604 28.8164 18.4473C28.6159 18.6341 28.4587 18.8688 28.3447 19.1514C28.2354 19.4294 28.1807 19.7598 28.1807 20.1426V21.7285H29.6094V23H25.3232V21.7285H26.7656V17.9072H25.3232V16.6289H28.1807V18.2285C28.4131 17.5905 28.7549 17.1393 29.2061 16.875C29.6618 16.6107 30.2018 16.4785 30.8262 16.4785C31.0221 16.4785 31.2272 16.499 31.4414 16.54C31.6556 16.5811 31.8652 16.654 32.0703 16.7588L31.5371 18.1396ZM37.0127 15.8018H35.29V14.0791H37.0127V15.8018ZM38.3115 23H34.0322V21.7285H35.4404V17.9072H34.0322V16.6289H36.8555V21.7285H38.3115V23ZM46.9795 16.6289L44.6279 23H42.96L40.6084 16.6289H42.1191L43.8008 21.4482L45.4688 16.6289H46.9795ZM48.2236 21.168C48.2236 20.7943 48.3239 20.4684 48.5244 20.1904C48.7249 19.9079 48.987 19.6732 49.3105 19.4863C49.6387 19.2995 50.0124 19.1605 50.4316 19.0693C50.8555 18.9736 51.2861 18.9258 51.7236 18.9258C51.9652 18.9258 52.1725 18.9303 52.3457 18.9395C52.5189 18.9486 52.6943 18.9622 52.8721 18.9805V18.7275C52.8721 18.3949 52.7422 18.1465 52.4824 17.9824C52.2272 17.8184 51.89 17.7363 51.4707 17.7363C51.0879 17.7363 50.6982 17.791 50.3018 17.9004C49.9053 18.0052 49.5293 18.1602 49.1738 18.3652L48.5996 17.2578C49.0189 17.0163 49.4678 16.8271 49.9463 16.6904C50.4294 16.5492 50.9375 16.4785 51.4707 16.4785C51.8171 16.4785 52.1566 16.5173 52.4893 16.5947C52.8265 16.6722 53.1273 16.7998 53.3916 16.9775C53.6605 17.1553 53.8747 17.3877 54.0342 17.6748C54.1937 17.9574 54.2734 18.3083 54.2734 18.7275V23H52.8721V22.0635C52.6488 22.4098 52.3184 22.6787 51.8809 22.8701C51.4479 23.0615 50.9808 23.1572 50.4795 23.1572C50.1696 23.1572 49.8757 23.1139 49.5977 23.0273C49.3242 22.9453 49.0872 22.82 48.8867 22.6514C48.6862 22.4827 48.5244 22.2754 48.4014 22.0293C48.2829 21.7786 48.2236 21.4915 48.2236 21.168ZM50.8418 21.8926C51.1198 21.8926 51.3796 21.8584 51.6211 21.79C51.8672 21.7171 52.0837 21.6191 52.2705 21.4961C52.4574 21.3685 52.6032 21.2158 52.708 21.0381C52.8174 20.8604 52.8721 20.6644 52.8721 20.4502V20.2109C52.6488 20.1745 52.4391 20.154 52.2432 20.1494C52.0472 20.1449 51.874 20.1426 51.7236 20.1426C51.0309 20.1426 50.5068 20.2337 50.1514 20.416C49.8005 20.5983 49.625 20.8239 49.625 21.0928C49.625 21.626 50.0306 21.8926 50.8418 21.8926ZM62.333 20.9697C62.2601 21.6396 61.9958 22.1729 61.54 22.5693C61.0889 22.9613 60.5238 23.1572 59.8447 23.1572C59.471 23.1572 59.1292 23.0957 58.8193 22.9727C58.5094 22.8496 58.2451 22.6787 58.0264 22.46C57.8076 22.2412 57.6367 21.9792 57.5137 21.6738C57.3952 21.3639 57.3359 21.0267 57.3359 20.6621V17.9072H55.8936V16.6289H57.3359V14.0791H58.751V16.6289H61.4238V17.9072H58.751V20.6621C58.751 21.0723 58.8512 21.3776 59.0518 21.5781C59.2523 21.7786 59.5166 21.8789 59.8447 21.8789C60.2458 21.8789 60.5443 21.7627 60.7402 21.5303C60.9362 21.2979 61.0524 21.0176 61.0889 20.6895L62.333 20.9697ZM64.835 20.3545C64.9033 20.792 65.1107 21.1566 65.457 21.4482C65.8079 21.7354 66.2773 21.8789 66.8652 21.8789C67.3255 21.8789 67.7243 21.8083 68.0615 21.667C68.4033 21.5212 68.6973 21.3298 68.9434 21.0928L69.668 22.0908C69.2578 22.501 68.8226 22.7812 68.3623 22.9316C67.9066 23.082 67.4076 23.1572 66.8652 23.1572C66.373 23.1572 65.915 23.0752 65.4912 22.9111C65.0674 22.7471 64.7005 22.5192 64.3906 22.2275C64.0807 21.9313 63.8369 21.5804 63.6592 21.1748C63.486 20.7692 63.3994 20.318 63.3994 19.8213C63.3994 19.3382 63.4792 18.8939 63.6387 18.4883C63.8027 18.0781 64.0306 17.7249 64.3223 17.4287C64.6185 17.1279 64.9717 16.8955 65.3818 16.7314C65.792 16.5628 66.2454 16.4785 66.7422 16.4785C67.2572 16.4785 67.7243 16.5674 68.1436 16.7451C68.5628 16.9183 68.9206 17.1712 69.2168 17.5039C69.5176 17.8366 69.7523 18.2445 69.9209 18.7275C70.0895 19.2061 70.1738 19.7484 70.1738 20.3545H64.835ZM68.5742 19.1104C68.5013 18.7002 68.2894 18.3721 67.9385 18.126C67.5876 17.8753 67.1888 17.75 66.7422 17.75C66.2956 17.75 65.8945 17.8753 65.5391 18.126C65.1836 18.3721 64.9694 18.7002 64.8965 19.1104H68.5742ZM85.3291 20.2725C85.2197 20.71 85.0739 21.1064 84.8916 21.4619C84.7093 21.8174 84.486 22.1204 84.2217 22.3711C83.9619 22.6217 83.6566 22.8154 83.3057 22.9521C82.9593 23.0889 82.5605 23.1572 82.1094 23.1572C81.485 23.1572 80.9564 23.0296 80.5234 22.7744C80.0905 22.5146 79.735 22.1706 79.457 21.7422C79.1836 21.3092 78.9854 20.8171 78.8623 20.2656C78.7438 19.7096 78.6846 19.1331 78.6846 18.5361C78.6846 17.9391 78.7438 17.3626 78.8623 16.8066C78.9854 16.2507 79.1813 15.7607 79.4502 15.3369C79.7236 14.9131 80.07 14.5736 80.4893 14.3184C80.9085 14.0586 81.4212 13.9287 82.0273 13.9287C82.2233 13.9287 82.4215 13.9538 82.6221 14.0039C82.8226 14.054 83.0094 14.1315 83.1826 14.2363C83.3558 14.3366 83.5062 14.4619 83.6338 14.6123C83.766 14.7627 83.8594 14.9359 83.9141 15.1318V14.0791H85.1924V17.4561H83.9141C83.9141 17.1781 83.8799 16.9046 83.8115 16.6357C83.7432 16.3623 83.6338 16.1208 83.4834 15.9111C83.333 15.7015 83.1439 15.5306 82.916 15.3984C82.6882 15.2663 82.4193 15.2002 82.1094 15.2002C81.7083 15.2002 81.3802 15.2982 81.125 15.4941C80.8698 15.6901 80.6647 15.9476 80.5098 16.2666C80.3548 16.5856 80.2454 16.9434 80.1816 17.3398C80.1224 17.7363 80.0928 18.1351 80.0928 18.5361C80.0928 18.9372 80.1224 19.3382 80.1816 19.7393C80.2454 20.1403 80.3525 20.5003 80.5029 20.8193C80.6533 21.1338 80.8584 21.389 81.1182 21.585C81.3779 21.7809 81.7083 21.8789 82.1094 21.8789C82.6882 21.8789 83.1325 21.6943 83.4424 21.3252C83.7568 20.9561 84.0075 20.4593 84.1943 19.835L85.3291 20.2725ZM92.5 23H91.085V19.0693C91.085 18.5726 90.9915 18.2285 90.8047 18.0371C90.6178 17.8457 90.3467 17.75 89.9912 17.75C89.4671 17.75 89.0387 17.9619 88.7061 18.3857C88.3779 18.8096 88.2139 19.3952 88.2139 20.1426V23H86.7988V14.0791H88.2139V18.2285C88.3551 17.6771 88.6172 17.2487 89 16.9434C89.3828 16.6335 89.8545 16.4785 90.415 16.4785C91.0667 16.4785 91.5771 16.6904 91.9463 17.1143C92.3154 17.5381 92.5 18.1898 92.5 19.0693V23ZM94.0791 21.168C94.0791 20.7943 94.1794 20.4684 94.3799 20.1904C94.5804 19.9079 94.8424 19.6732 95.166 19.4863C95.4941 19.2995 95.8678 19.1605 96.2871 19.0693C96.7109 18.9736 97.1416 18.9258 97.5791 18.9258C97.8206 18.9258 98.028 18.9303 98.2012 18.9395C98.3743 18.9486 98.5498 18.9622 98.7275 18.9805V18.7275C98.7275 18.3949 98.5977 18.1465 98.3379 17.9824C98.0827 17.8184 97.7454 17.7363 97.3262 17.7363C96.9434 17.7363 96.5537 17.791 96.1572 17.9004C95.7607 18.0052 95.3848 18.1602 95.0293 18.3652L94.4551 17.2578C94.8743 17.0163 95.3232 16.8271 95.8018 16.6904C96.2848 16.5492 96.793 16.4785 97.3262 16.4785C97.6725 16.4785 98.012 16.5173 98.3447 16.5947C98.682 16.6722 98.9827 16.7998 99.2471 16.9775C99.516 17.1553 99.7301 17.3877 99.8896 17.6748C100.049 17.9574 100.129 18.3083 100.129 18.7275V23H98.7275V22.0635C98.5042 22.4098 98.1738 22.6787 97.7363 22.8701C97.3034 23.0615 96.8363 23.1572 96.335 23.1572C96.0251 23.1572 95.7311 23.1139 95.4531 23.0273C95.1797 22.9453 94.9427 22.82 94.7422 22.6514C94.5417 22.4827 94.3799 22.2754 94.2568 22.0293C94.1383 21.7786 94.0791 21.4915 94.0791 21.168ZM96.6973 21.8926C96.9753 21.8926 97.235 21.8584 97.4766 21.79C97.7227 21.7171 97.9391 21.6191 98.126 21.4961C98.3128 21.3685 98.4587 21.2158 98.5635 21.0381C98.6729 20.8604 98.7275 20.6644 98.7275 20.4502V20.2109C98.5042 20.1745 98.2946 20.154 98.0986 20.1494C97.9027 20.1449 97.7295 20.1426 97.5791 20.1426C96.8864 20.1426 96.3623 20.2337 96.0068 20.416C95.6559 20.5983 95.4805 20.8239 95.4805 21.0928C95.4805 21.626 95.8861 21.8926 96.6973 21.8926ZM107.785 23H106.37V19.0693C106.37 18.5726 106.277 18.2285 106.09 18.0371C105.903 17.8457 105.632 17.75 105.276 17.75C104.752 17.75 104.324 17.9619 103.991 18.3857C103.663 18.8096 103.499 19.3952 103.499 20.1426V23H102.084V16.6289H103.499V18.2285C103.64 17.6771 103.902 17.2487 104.285 16.9434C104.668 16.6335 105.14 16.4785 105.7 16.4785C106.352 16.4785 106.862 16.6904 107.231 17.1143C107.601 17.5381 107.785 18.1898 107.785 19.0693V23ZM115.428 23H114.013V19.0693C114.013 18.5726 113.919 18.2285 113.732 18.0371C113.546 17.8457 113.274 17.75 112.919 17.75C112.395 17.75 111.966 17.9619 111.634 18.3857C111.306 18.8096 111.142 19.3952 111.142 20.1426V23H109.727V16.6289H111.142V18.2285C111.283 17.6771 111.545 17.2487 111.928 16.9434C112.311 16.6335 112.782 16.4785 113.343 16.4785C113.994 16.4785 114.505 16.6904 114.874 17.1143C115.243 17.5381 115.428 18.1898 115.428 19.0693V23ZM118.333 20.3545C118.401 20.792 118.609 21.1566 118.955 21.4482C119.306 21.7354 119.775 21.8789 120.363 21.8789C120.824 21.8789 121.222 21.8083 121.56 21.667C121.901 21.5212 122.195 21.3298 122.441 21.0928L123.166 22.0908C122.756 22.501 122.321 22.7812 121.86 22.9316C121.405 23.082 120.906 23.1572 120.363 23.1572C119.871 23.1572 119.413 23.0752 118.989 22.9111C118.565 22.7471 118.199 22.5192 117.889 22.2275C117.579 21.9313 117.335 21.5804 117.157 21.1748C116.984 20.7692 116.897 20.318 116.897 19.8213C116.897 19.3382 116.977 18.8939 117.137 18.4883C117.301 18.0781 117.529 17.7249 117.82 17.4287C118.117 17.1279 118.47 16.8955 118.88 16.7314C119.29 16.5628 119.743 16.4785 120.24 16.4785C120.755 16.4785 121.222 16.5674 121.642 16.7451C122.061 16.9183 122.419 17.1712 122.715 17.5039C123.016 17.8366 123.25 18.2445 123.419 18.7275C123.588 19.2061 123.672 19.7484 123.672 20.3545H118.333ZM122.072 19.1104C121.999 18.7002 121.787 18.3721 121.437 18.126C121.086 17.8753 120.687 17.75 120.24 17.75C119.794 17.75 119.393 17.8753 119.037 18.126C118.682 18.3721 118.467 18.7002 118.395 19.1104H122.072ZM130.036 23H125.757V21.7285H127.151V15.3574H125.757V14.0791H128.566V21.7285H130.036V23ZM24.0518 31.9072H21.5703V35.7285H23.0264V37H18.7471V35.7285H20.1553V31.9072H18.7471V30.6289H20.1553C20.1553 29.7539 20.4242 29.0863 20.9619 28.626C21.4997 28.1611 22.2266 27.9287 23.1426 27.9287C23.2793 27.9287 23.4251 27.9355 23.5801 27.9492C23.735 27.9629 23.8923 27.9788 24.0518 27.9971V29.2412C23.7783 29.2139 23.5299 29.2002 23.3066 29.2002C22.9421 29.2002 22.6481 29.2275 22.4248 29.2822C22.2015 29.3324 22.026 29.4167 21.8984 29.5352C21.7754 29.6491 21.6888 29.7972 21.6387 29.9795C21.5931 30.1618 21.5703 30.3783 21.5703 30.6289H24.0518V31.9072ZM31.8584 33.8213C31.8584 34.318 31.7786 34.7692 31.6191 35.1748C31.4642 35.5804 31.2386 35.9313 30.9424 36.2275C30.6507 36.5192 30.2998 36.7471 29.8896 36.9111C29.4795 37.0752 29.0215 37.1572 28.5156 37.1572C28.0189 37.1572 27.5654 37.0752 27.1553 36.9111C26.7451 36.7471 26.3919 36.5192 26.0957 36.2275C25.804 35.9313 25.5785 35.5804 25.4189 35.1748C25.264 34.7692 25.1865 34.318 25.1865 33.8213C25.1865 33.3382 25.264 32.8916 25.4189 32.4814C25.5785 32.0667 25.804 31.7113 26.0957 31.415C26.3919 31.1143 26.7451 30.8841 27.1553 30.7246C27.5654 30.5605 28.0189 30.4785 28.5156 30.4785C29.0215 30.4785 29.4795 30.5605 29.8896 30.7246C30.2998 30.8841 30.6507 31.1143 30.9424 31.415C31.2386 31.7113 31.4642 32.0667 31.6191 32.4814C31.7786 32.8916 31.8584 33.3382 31.8584 33.8213ZM30.4502 33.8213C30.4502 33.5342 30.4046 33.263 30.3135 33.0078C30.2269 32.748 30.0993 32.527 29.9307 32.3447C29.762 32.1624 29.557 32.0189 29.3154 31.9141C29.0785 31.8047 28.8118 31.75 28.5156 31.75C28.2148 31.75 27.946 31.8047 27.709 31.9141C27.472 32.0189 27.2715 32.1624 27.1074 32.3447C26.9434 32.527 26.8158 32.748 26.7246 33.0078C26.638 33.263 26.5947 33.5342 26.5947 33.8213C26.5947 34.1221 26.638 34.3955 26.7246 34.6416C26.8158 34.8877 26.9434 35.1042 27.1074 35.291C27.2715 35.4779 27.472 35.6237 27.709 35.7285C27.946 35.8288 28.2148 35.8789 28.5156 35.8789C28.8118 35.8789 29.0785 35.8288 29.3154 35.7285C29.557 35.6237 29.762 35.4779 29.9307 35.291C30.0993 35.1042 30.2269 34.8877 30.3135 34.6416C30.4046 34.3955 30.4502 34.1221 30.4502 33.8213ZM39.1797 32.1396C39.0111 32.0576 38.8379 31.9961 38.6602 31.9551C38.487 31.9095 38.2865 31.8867 38.0586 31.8867C37.7441 31.8867 37.4479 31.9346 37.1699 32.0303C36.8965 32.1214 36.6595 32.2604 36.459 32.4473C36.2585 32.6341 36.1012 32.8688 35.9873 33.1514C35.8779 33.4294 35.8232 33.7598 35.8232 34.1426V35.7285H37.252V37H32.9658V35.7285H34.4082V31.9072H32.9658V30.6289H35.8232V32.2285C36.0557 31.5905 36.3975 31.1393 36.8486 30.875C37.3044 30.6107 37.8444 30.4785 38.4688 30.4785C38.6647 30.4785 38.8698 30.499 39.084 30.54C39.2982 30.5811 39.5078 30.654 39.7129 30.7588L39.1797 32.1396ZM54.6084 31.333H53.3438V29.3574H52.1406V35.7285H53.5557V37H49.3174V35.7285H50.7256V29.3574H49.5088V31.333H48.251V28.0791H54.6084V31.333ZM62.4287 33.8213C62.4287 34.318 62.349 34.7692 62.1895 35.1748C62.0345 35.5804 61.8089 35.9313 61.5127 36.2275C61.221 36.5192 60.8701 36.7471 60.46 36.9111C60.0498 37.0752 59.5918 37.1572 59.0859 37.1572C58.5892 37.1572 58.1357 37.0752 57.7256 36.9111C57.3154 36.7471 56.9622 36.5192 56.666 36.2275C56.3743 35.9313 56.1488 35.5804 55.9893 35.1748C55.8343 34.7692 55.7568 34.318 55.7568 33.8213C55.7568 33.3382 55.8343 32.8916 55.9893 32.4814C56.1488 32.0667 56.3743 31.7113 56.666 31.415C56.9622 31.1143 57.3154 30.8841 57.7256 30.7246C58.1357 30.5605 58.5892 30.4785 59.0859 30.4785C59.5918 30.4785 60.0498 30.5605 60.46 30.7246C60.8701 30.8841 61.221 31.1143 61.5127 31.415C61.8089 31.7113 62.0345 32.0667 62.1895 32.4814C62.349 32.8916 62.4287 33.3382 62.4287 33.8213ZM61.0205 33.8213C61.0205 33.5342 60.9749 33.263 60.8838 33.0078C60.7972 32.748 60.6696 32.527 60.501 32.3447C60.3324 32.1624 60.1273 32.0189 59.8857 31.9141C59.6488 31.8047 59.3822 31.75 59.0859 31.75C58.7852 31.75 58.5163 31.8047 58.2793 31.9141C58.0423 32.0189 57.8418 32.1624 57.6777 32.3447C57.5137 32.527 57.3861 32.748 57.2949 33.0078C57.2083 33.263 57.165 33.5342 57.165 33.8213C57.165 34.1221 57.2083 34.3955 57.2949 34.6416C57.3861 34.8877 57.5137 35.1042 57.6777 35.291C57.8418 35.4779 58.0423 35.6237 58.2793 35.7285C58.5163 35.8288 58.7852 35.8789 59.0859 35.8789C59.3822 35.8789 59.6488 35.8288 59.8857 35.7285C60.1273 35.6237 60.3324 35.4779 60.501 35.291C60.6696 35.1042 60.7972 34.8877 60.8838 34.6416C60.9749 34.3955 61.0205 34.1221 61.0205 33.8213ZM69.8936 37H68.0615L65.9287 34.4229L65.2861 35.0791V37H63.8711V28.0791H65.2861V33.3291L67.8359 30.6289H69.7773L66.8379 33.5547L69.8936 37ZM72.4775 34.3545C72.5459 34.792 72.7533 35.1566 73.0996 35.4482C73.4505 35.7354 73.9199 35.8789 74.5078 35.8789C74.9681 35.8789 75.3669 35.8083 75.7041 35.667C76.0459 35.5212 76.3398 35.3298 76.5859 35.0928L77.3105 36.0908C76.9004 36.501 76.4652 36.7812 76.0049 36.9316C75.5492 37.082 75.0501 37.1572 74.5078 37.1572C74.0156 37.1572 73.5576 37.0752 73.1338 36.9111C72.71 36.7471 72.3431 36.5192 72.0332 36.2275C71.7233 35.9313 71.4795 35.5804 71.3018 35.1748C71.1286 34.7692 71.042 34.318 71.042 33.8213C71.042 33.3382 71.1217 32.8939 71.2812 32.4883C71.4453 32.0781 71.6732 31.7249 71.9648 31.4287C72.2611 31.1279 72.6143 30.8955 73.0244 30.7314C73.4346 30.5628 73.888 30.4785 74.3848 30.4785C74.8997 30.4785 75.3669 30.5674 75.7861 30.7451C76.2054 30.9183 76.5632 31.1712 76.8594 31.5039C77.1602 31.8366 77.3949 32.2445 77.5635 32.7275C77.7321 33.2061 77.8164 33.7484 77.8164 34.3545H72.4775ZM76.2168 33.1104C76.1439 32.7002 75.932 32.3721 75.5811 32.126C75.2301 31.8753 74.8314 31.75 74.3848 31.75C73.9382 31.75 73.5371 31.8753 73.1816 32.126C72.8262 32.3721 72.612 32.7002 72.5391 33.1104H76.2168ZM84.8574 37H83.4424V33.0693C83.4424 32.5726 83.349 32.2285 83.1621 32.0371C82.9753 31.8457 82.7041 31.75 82.3486 31.75C81.8245 31.75 81.3962 31.9619 81.0635 32.3857C80.7354 32.8096 80.5713 33.3952 80.5713 34.1426V37H79.1562V30.6289H80.5713V32.2285C80.7126 31.6771 80.9746 31.2487 81.3574 30.9434C81.7402 30.6335 82.2119 30.4785 82.7725 30.4785C83.4242 30.4785 83.9346 30.6904 84.3037 31.1143C84.6729 31.5381 84.8574 32.1898 84.8574 33.0693V37ZM92.5 37H91.085V33.0693C91.085 32.5726 90.9915 32.2285 90.8047 32.0371C90.6178 31.8457 90.3467 31.75 89.9912 31.75C89.4671 31.75 89.0387 31.9619 88.7061 32.3857C88.3779 32.8096 88.2139 33.3952 88.2139 34.1426V37H86.7988V28.0791H88.2139V32.2285C88.3551 31.6771 88.6172 31.2487 89 30.9434C89.3828 30.6335 89.8545 30.4785 90.415 30.4785C91.0667 30.4785 91.5771 30.6904 91.9463 31.1143C92.3154 31.5381 92.5 32.1898 92.5 33.0693V37ZM100.642 33.8213C100.642 34.318 100.562 34.7692 100.402 35.1748C100.247 35.5804 100.022 35.9313 99.7256 36.2275C99.4339 36.5192 99.083 36.7471 98.6729 36.9111C98.2627 37.0752 97.8047 37.1572 97.2988 37.1572C96.8021 37.1572 96.3486 37.0752 95.9385 36.9111C95.5283 36.7471 95.1751 36.5192 94.8789 36.2275C94.5872 35.9313 94.3617 35.5804 94.2021 35.1748C94.0472 34.7692 93.9697 34.318 93.9697 33.8213C93.9697 33.3382 94.0472 32.8916 94.2021 32.4814C94.3617 32.0667 94.5872 31.7113 94.8789 31.415C95.1751 31.1143 95.5283 30.8841 95.9385 30.7246C96.3486 30.5605 96.8021 30.4785 97.2988 30.4785C97.8047 30.4785 98.2627 30.5605 98.6729 30.7246C99.083 30.8841 99.4339 31.1143 99.7256 31.415C100.022 31.7113 100.247 32.0667 100.402 32.4814C100.562 32.8916 100.642 33.3382 100.642 33.8213ZM99.2334 33.8213C99.2334 33.5342 99.1878 33.263 99.0967 33.0078C99.0101 32.748 98.8825 32.527 98.7139 32.3447C98.5452 32.1624 98.3402 32.0189 98.0986 31.9141C97.8617 31.8047 97.5951 31.75 97.2988 31.75C96.998 31.75 96.7292 31.8047 96.4922 31.9141C96.2552 32.0189 96.0547 32.1624 95.8906 32.3447C95.7266 32.527 95.599 32.748 95.5078 33.0078C95.4212 33.263 95.3779 33.5342 95.3779 33.8213C95.3779 34.1221 95.4212 34.3955 95.5078 34.6416C95.599 34.8877 95.7266 35.1042 95.8906 35.291C96.0547 35.4779 96.2552 35.6237 96.4922 35.7285C96.7292 35.8288 96.998 35.8789 97.2988 35.8789C97.5951 35.8789 97.8617 35.8288 98.0986 35.7285C98.3402 35.6237 98.5452 35.4779 98.7139 35.291C98.8825 35.1042 99.0101 34.8877 99.0967 34.6416C99.1878 34.3955 99.2334 34.1221 99.2334 33.8213ZM107.108 37H102.829V35.7285H104.224V29.3574H102.829V28.0791H105.639V35.7285H107.108V37ZM115.428 37H114.013V36.4121C113.739 36.6536 113.464 36.8382 113.186 36.9658C112.908 37.0934 112.591 37.1572 112.235 37.1572C111.825 37.1572 111.445 37.0752 111.094 36.9111C110.743 36.7471 110.44 36.5192 110.185 36.2275C109.934 35.9313 109.736 35.5781 109.59 35.168C109.449 34.7578 109.378 34.3089 109.378 33.8213C109.378 33.3382 109.449 32.8916 109.59 32.4814C109.736 32.0667 109.934 31.7135 110.185 31.4219C110.44 31.1257 110.743 30.8955 111.094 30.7314C111.445 30.5628 111.825 30.4785 112.235 30.4785C112.591 30.4785 112.908 30.54 113.186 30.6631C113.464 30.7816 113.739 30.9616 114.013 31.2031V29.3574H112.782V28.0791H115.428V37ZM114.013 32.3242C113.844 32.1374 113.625 31.9961 113.356 31.9004C113.092 31.8001 112.839 31.75 112.598 31.75C112.064 31.75 111.629 31.9414 111.292 32.3242C110.959 32.707 110.793 33.2061 110.793 33.8213C110.793 34.4365 110.959 34.9333 111.292 35.3115C111.629 35.6898 112.064 35.8789 112.598 35.8789C112.839 35.8789 113.092 35.8311 113.356 35.7354C113.625 35.6351 113.844 35.4915 114.013 35.3047V32.3242ZM118.333 34.3545C118.401 34.792 118.609 35.1566 118.955 35.4482C119.306 35.7354 119.775 35.8789 120.363 35.8789C120.824 35.8789 121.222 35.8083 121.56 35.667C121.901 35.5212 122.195 35.3298 122.441 35.0928L123.166 36.0908C122.756 36.501 122.321 36.7812 121.86 36.9316C121.405 37.082 120.906 37.1572 120.363 37.1572C119.871 37.1572 119.413 37.0752 118.989 36.9111C118.565 36.7471 118.199 36.5192 117.889 36.2275C117.579 35.9313 117.335 35.5804 117.157 35.1748C116.984 34.7692 116.897 34.318 116.897 33.8213C116.897 33.3382 116.977 32.8939 117.137 32.4883C117.301 32.0781 117.529 31.7249 117.82 31.4287C118.117 31.1279 118.47 30.8955 118.88 30.7314C119.29 30.5628 119.743 30.4785 120.24 30.4785C120.755 30.4785 121.222 30.5674 121.642 30.7451C122.061 30.9183 122.419 31.1712 122.715 31.5039C123.016 31.8366 123.25 32.2445 123.419 32.7275C123.588 33.2061 123.672 33.7484 123.672 34.3545H118.333ZM122.072 33.1104C121.999 32.7002 121.787 32.3721 121.437 32.126C121.086 31.8753 120.687 31.75 120.24 31.75C119.794 31.75 119.393 31.8753 119.037 32.126C118.682 32.3721 118.467 32.7002 118.395 33.1104H122.072ZM130.891 32.1396C130.722 32.0576 130.549 31.9961 130.371 31.9551C130.198 31.9095 129.997 31.8867 129.77 31.8867C129.455 31.8867 129.159 31.9346 128.881 32.0303C128.607 32.1214 128.37 32.2604 128.17 32.4473C127.969 32.6341 127.812 32.8688 127.698 33.1514C127.589 33.4294 127.534 33.7598 127.534 34.1426V35.7285H128.963V37H124.677V35.7285H126.119V31.9072H124.677V30.6289H127.534V32.2285C127.767 31.5905 128.108 31.1393 128.56 30.875C129.015 30.6107 129.555 30.4785 130.18 30.4785C130.376 30.4785 130.581 30.499 130.795 30.54C131.009 30.5811 131.219 30.654 131.424 30.7588L130.891 32.1396Z" fill="black"/>
</svg>
