<svg width="57" height="64" viewBox="0 0 57 64" fill="none" xmlns="http://www.w3.org/2000/svg">

<path d="M14.849 9.03308L14.8387 9.03902L14.8283 9.04472L1.00738 16.5894L1.19822 31.9876L1.19837 32L1.19822 32.0124L1.00738 47.4106L14.8283 54.9553L14.8387 54.961L14.849 54.9669L28.5 62.8454L42.151 54.9669L42.1613 54.961L42.1717 54.9553L55.9926 47.4106L55.8018 32.0124L55.8016 32L55.8018 31.9876L55.9926 16.5894L42.1717 9.04472L42.1613 9.03902L42.151 9.03308L28.5 1.15459L14.849 9.03308Z" stroke="url(#paint0_linear)" stroke-width="2"/>

<path d="M37.3244 25.8804L39 24.3377V24H33.1952L29.0582 33.9099L24.3516 24H18.2651V24.3377L20.2225 26.6055C20.4132 26.7731 20.513 27.0181 20.4876 27.2648V36.1768C20.548 36.4977 20.4395 36.8278 20.205 37.0611L18 39.6328V39.9663H24.2519V39.6286L22.0469 37.0611C21.808 36.8269 21.6951 36.5027 21.7432 36.1768V28.4682L27.2312 39.9705H27.8691L32.588 28.4682V37.6312C32.588 37.8728 32.588 37.9225 32.4235 38.0808L30.726 39.6615V40H38.9615V39.6623L37.3253 38.1204C37.1818 38.016 37.1074 37.8408 37.138 37.6707V26.3301C37.1074 26.1592 37.1809 25.984 37.3244 25.8804Z" fill="white"/>
<defs>
<linearGradient id="paint0_linear" x1="-2.14371" y1="31.544" x2="57.3966" y2="30.7153" gradientUnits="userSpaceOnUse">
<stop stop-color="#CE09FF"/>
<stop offset="1" stop-color="#FFA34E"/>
</linearGradient>
</defs>
</svg>
