<svg width="225" height="46" viewBox="0 0 225 46" fill="none" xmlns="http://www.w3.org/2000/svg">
<g filter="url(#filter0_b)">
<path d="M0 8C0 3.58172 4.02944 0 9 0H216C220.971 0 225 3.58172 225 8V38C225 42.4183 220.971 46 216 46H9C4.02944 46 0 42.4183 0 38V8Z" fill="url(#paint0_linear)"/>
</g>
<path d="M55.9414 26H51.0547V18.3535H55.9414V19.4492H52.2676V21.5586H55.1328V22.6543H52.2676V24.9102H55.9414V26ZM62.4922 26H61.2793V22.6309C61.2793 22.2051 61.1992 21.9102 61.0391 21.7461C60.8789 21.582 60.6465 21.5 60.3418 21.5C59.8926 21.5 59.5254 21.6816 59.2402 22.0449C58.959 22.4082 58.8184 22.9102 58.8184 23.5508V26H57.6055V20.5391H58.8184V21.9102C58.9395 21.4375 59.1641 21.0703 59.4922 20.8086C59.8203 20.543 60.2246 20.4102 60.7051 20.4102C61.2637 20.4102 61.7012 20.5918 62.0176 20.9551C62.334 21.3184 62.4922 21.877 62.4922 22.6309V26ZM69.3887 24.2598C69.3262 24.834 69.0996 25.291 68.709 25.6309C68.3223 25.9668 67.8379 26.1348 67.2559 26.1348C66.9355 26.1348 66.6426 26.082 66.377 25.9766C66.1113 25.8711 65.8848 25.7246 65.6973 25.5371C65.5098 25.3496 65.3633 25.125 65.2578 24.8633C65.1562 24.5977 65.1055 24.3086 65.1055 23.9961V21.6348H63.8691V20.5391H65.1055V18.3535H66.3184V20.5391H68.6094V21.6348H66.3184V23.9961C66.3184 24.3477 66.4043 24.6094 66.5762 24.7812C66.748 24.9531 66.9746 25.0391 67.2559 25.0391C67.5996 25.0391 67.8555 24.9395 68.0234 24.7402C68.1914 24.541 68.291 24.3008 68.3223 24.0195L69.3887 24.2598ZM71.5332 23.7324C71.5918 24.1074 71.7695 24.4199 72.0664 24.6699C72.3672 24.916 72.7695 25.0391 73.2734 25.0391C73.668 25.0391 74.0098 24.9785 74.2988 24.8574C74.5918 24.7324 74.8438 24.5684 75.0547 24.3652L75.6758 25.2207C75.3242 25.5723 74.9512 25.8125 74.5566 25.9414C74.166 26.0703 73.7383 26.1348 73.2734 26.1348C72.8516 26.1348 72.459 26.0645 72.0957 25.9238C71.7324 25.7832 71.418 25.5879 71.1523 25.3379C70.8867 25.084 70.6777 24.7832 70.5254 24.4355C70.377 24.0879 70.3027 23.7012 70.3027 23.2754C70.3027 22.8613 70.3711 22.4805 70.5078 22.1328C70.6484 21.7812 70.8438 21.4785 71.0938 21.2246C71.3477 20.9668 71.6504 20.7676 72.002 20.627C72.3535 20.4824 72.7422 20.4102 73.168 20.4102C73.6094 20.4102 74.0098 20.4863 74.3691 20.6387C74.7285 20.7871 75.0352 21.0039 75.2891 21.2891C75.5469 21.5742 75.748 21.9238 75.8926 22.3379C76.0371 22.748 76.1094 23.2129 76.1094 23.7324H71.5332ZM74.7383 22.666C74.6758 22.3145 74.4941 22.0332 74.1934 21.8223C73.8926 21.6074 73.5508 21.5 73.168 21.5C72.7852 21.5 72.4414 21.6074 72.1367 21.8223C71.832 22.0332 71.6484 22.3145 71.5859 22.666H74.7383ZM82.2969 21.834C82.1523 21.7637 82.0039 21.7109 81.8516 21.6758C81.7031 21.6367 81.5312 21.6172 81.3359 21.6172C81.0664 21.6172 80.8125 21.6582 80.5742 21.7402C80.3398 21.8184 80.1367 21.9375 79.9648 22.0977C79.793 22.2578 79.6582 22.459 79.5605 22.7012C79.4668 22.9395 79.4199 23.2227 79.4199 23.5508V24.9102H80.6445V26H76.9707V24.9102H78.207V21.6348H76.9707V20.5391H79.4199V21.9102C79.6191 21.3633 79.9121 20.9766 80.2988 20.75C80.6895 20.5234 81.1523 20.4102 81.6875 20.4102C81.8555 20.4102 82.0312 20.4277 82.2148 20.4629C82.3984 20.498 82.5781 20.5605 82.7539 20.6504L82.2969 21.834ZM95.5918 24.2598C95.5293 24.834 95.3027 25.291 94.9121 25.6309C94.5254 25.9668 94.041 26.1348 93.459 26.1348C93.1387 26.1348 92.8457 26.082 92.5801 25.9766C92.3145 25.8711 92.0879 25.7246 91.9004 25.5371C91.7129 25.3496 91.5664 25.125 91.4609 24.8633C91.3594 24.5977 91.3086 24.3086 91.3086 23.9961V21.6348H90.0723V20.5391H91.3086V18.3535H92.5215V20.5391H94.8125V21.6348H92.5215V23.9961C92.5215 24.3477 92.6074 24.6094 92.7793 24.7812C92.9512 24.9531 93.1777 25.0391 93.459 25.0391C93.8027 25.0391 94.0586 24.9395 94.2266 24.7402C94.3945 24.541 94.4941 24.3008 94.5254 24.0195L95.5918 24.2598ZM101.797 26H100.584V22.6309C100.584 22.2051 100.504 21.9102 100.344 21.7461C100.184 21.582 99.9512 21.5 99.6465 21.5C99.1973 21.5 98.8301 21.6816 98.5449 22.0449C98.2637 22.4082 98.123 22.9102 98.123 23.5508V26H96.9102V18.3535H98.123V21.9102C98.2441 21.4375 98.4688 21.0703 98.7969 20.8086C99.125 20.543 99.5293 20.4102 100.01 20.4102C100.568 20.4102 101.006 20.5918 101.322 20.9551C101.639 21.3184 101.797 21.877 101.797 22.6309V26ZM104.287 23.7324C104.346 24.1074 104.523 24.4199 104.82 24.6699C105.121 24.916 105.523 25.0391 106.027 25.0391C106.422 25.0391 106.764 24.9785 107.053 24.8574C107.346 24.7324 107.598 24.5684 107.809 24.3652L108.43 25.2207C108.078 25.5723 107.705 25.8125 107.311 25.9414C106.92 26.0703 106.492 26.1348 106.027 26.1348C105.605 26.1348 105.213 26.0645 104.85 25.9238C104.486 25.7832 104.172 25.5879 103.906 25.3379C103.641 25.084 103.432 24.7832 103.279 24.4355C103.131 24.0879 103.057 23.7012 103.057 23.2754C103.057 22.8613 103.125 22.4805 103.262 22.1328C103.402 21.7812 103.598 21.4785 103.848 21.2246C104.102 20.9668 104.404 20.7676 104.756 20.627C105.107 20.4824 105.496 20.4102 105.922 20.4102C106.363 20.4102 106.764 20.4863 107.123 20.6387C107.482 20.7871 107.789 21.0039 108.043 21.2891C108.301 21.5742 108.502 21.9238 108.646 22.3379C108.791 22.748 108.863 23.2129 108.863 23.7324H104.287ZM107.492 22.666C107.43 22.3145 107.248 22.0332 106.947 21.8223C106.646 21.6074 106.305 21.5 105.922 21.5C105.539 21.5 105.195 21.6074 104.891 21.8223C104.586 22.0332 104.402 22.3145 104.34 22.666H107.492ZM121.449 26H120.236V20.8262L119.469 23.5742H118.531L117.775 20.8262V26H116.562V18.3535H118.004L119 21.8105L119.996 18.3535H121.449V26ZM123.939 23.7324C123.998 24.1074 124.176 24.4199 124.473 24.6699C124.773 24.916 125.176 25.0391 125.68 25.0391C126.074 25.0391 126.416 24.9785 126.705 24.8574C126.998 24.7324 127.25 24.5684 127.461 24.3652L128.082 25.2207C127.73 25.5723 127.357 25.8125 126.963 25.9414C126.572 26.0703 126.145 26.1348 125.68 26.1348C125.258 26.1348 124.865 26.0645 124.502 25.9238C124.139 25.7832 123.824 25.5879 123.559 25.3379C123.293 25.084 123.084 24.7832 122.932 24.4355C122.783 24.0879 122.709 23.7012 122.709 23.2754C122.709 22.8613 122.777 22.4805 122.914 22.1328C123.055 21.7812 123.25 21.4785 123.5 21.2246C123.754 20.9668 124.057 20.7676 124.408 20.627C124.76 20.4824 125.148 20.4102 125.574 20.4102C126.016 20.4102 126.416 20.4863 126.775 20.6387C127.135 20.7871 127.441 21.0039 127.695 21.2891C127.953 21.5742 128.154 21.9238 128.299 22.3379C128.443 22.748 128.516 23.2129 128.516 23.7324H123.939ZM127.145 22.666C127.082 22.3145 126.9 22.0332 126.6 21.8223C126.299 21.6074 125.957 21.5 125.574 21.5C125.191 21.5 124.848 21.6074 124.543 21.8223C124.238 22.0332 124.055 22.3145 123.992 22.666H127.145ZM134.896 24.2598C134.834 24.834 134.607 25.291 134.217 25.6309C133.83 25.9668 133.346 26.1348 132.764 26.1348C132.443 26.1348 132.15 26.082 131.885 25.9766C131.619 25.8711 131.393 25.7246 131.205 25.5371C131.018 25.3496 130.871 25.125 130.766 24.8633C130.664 24.5977 130.613 24.3086 130.613 23.9961V21.6348H129.377V20.5391H130.613V18.3535H131.826V20.5391H134.117V21.6348H131.826V23.9961C131.826 24.3477 131.912 24.6094 132.084 24.7812C132.256 24.9531 132.482 25.0391 132.764 25.0391C133.107 25.0391 133.363 24.9395 133.531 24.7402C133.699 24.541 133.799 24.3008 133.83 24.0195L134.896 24.2598ZM135.904 24.4297C135.904 24.1094 135.99 23.8301 136.162 23.5918C136.334 23.3496 136.559 23.1484 136.836 22.9883C137.117 22.8281 137.438 22.709 137.797 22.6309C138.16 22.5488 138.529 22.5078 138.904 22.5078C139.111 22.5078 139.289 22.5117 139.438 22.5195C139.586 22.5273 139.736 22.5391 139.889 22.5547V22.3379C139.889 22.0527 139.777 21.8398 139.555 21.6992C139.336 21.5586 139.047 21.4883 138.688 21.4883C138.359 21.4883 138.025 21.5352 137.686 21.6289C137.346 21.7188 137.023 21.8516 136.719 22.0273L136.227 21.0781C136.586 20.8711 136.971 20.709 137.381 20.5918C137.795 20.4707 138.23 20.4102 138.688 20.4102C138.984 20.4102 139.275 20.4434 139.561 20.5098C139.85 20.5762 140.107 20.6855 140.334 20.8379C140.564 20.9902 140.748 21.1895 140.885 21.4355C141.021 21.6777 141.09 21.9785 141.09 22.3379V26H139.889V25.1973C139.697 25.4941 139.414 25.7246 139.039 25.8887C138.668 26.0527 138.268 26.1348 137.838 26.1348C137.572 26.1348 137.32 26.0977 137.082 26.0234C136.848 25.9531 136.645 25.8457 136.473 25.7012C136.301 25.5566 136.162 25.3789 136.057 25.168C135.955 24.9531 135.904 24.707 135.904 24.4297ZM138.148 25.0508C138.387 25.0508 138.609 25.0215 138.816 24.9629C139.027 24.9004 139.213 24.8164 139.373 24.7109C139.533 24.6016 139.658 24.4707 139.748 24.3184C139.842 24.166 139.889 23.998 139.889 23.8145V23.6094C139.697 23.5781 139.518 23.5605 139.35 23.5566C139.182 23.5527 139.033 23.5508 138.904 23.5508C138.311 23.5508 137.861 23.6289 137.557 23.7852C137.256 23.9414 137.105 24.1348 137.105 24.3652C137.105 24.8223 137.453 25.0508 138.148 25.0508ZM147.939 20.5391L145.924 26H144.494L142.479 20.5391H143.773L145.215 24.6699L146.645 20.5391H147.939ZM150.143 23.7324C150.201 24.1074 150.379 24.4199 150.676 24.6699C150.977 24.916 151.379 25.0391 151.883 25.0391C152.277 25.0391 152.619 24.9785 152.908 24.8574C153.201 24.7324 153.453 24.5684 153.664 24.3652L154.285 25.2207C153.934 25.5723 153.561 25.8125 153.166 25.9414C152.775 26.0703 152.348 26.1348 151.883 26.1348C151.461 26.1348 151.068 26.0645 150.705 25.9238C150.342 25.7832 150.027 25.5879 149.762 25.3379C149.496 25.084 149.287 24.7832 149.135 24.4355C148.986 24.0879 148.912 23.7012 148.912 23.2754C148.912 22.8613 148.98 22.4805 149.117 22.1328C149.258 21.7812 149.453 21.4785 149.703 21.2246C149.957 20.9668 150.26 20.7676 150.611 20.627C150.963 20.4824 151.352 20.4102 151.777 20.4102C152.219 20.4102 152.619 20.4863 152.979 20.6387C153.338 20.7871 153.645 21.0039 153.898 21.2891C154.156 21.5742 154.357 21.9238 154.502 22.3379C154.646 22.748 154.719 23.2129 154.719 23.7324H150.143ZM153.348 22.666C153.285 22.3145 153.104 22.0332 152.803 21.8223C152.502 21.6074 152.16 21.5 151.777 21.5C151.395 21.5 151.051 21.6074 150.746 21.8223C150.441 22.0332 150.258 22.3145 150.195 22.666H153.348ZM160.906 21.834C160.762 21.7637 160.613 21.7109 160.461 21.6758C160.312 21.6367 160.141 21.6172 159.945 21.6172C159.676 21.6172 159.422 21.6582 159.184 21.7402C158.949 21.8184 158.746 21.9375 158.574 22.0977C158.402 22.2578 158.268 22.459 158.17 22.7012C158.076 22.9395 158.029 23.2227 158.029 23.5508V24.9102H159.254V26H155.58V24.9102H156.816V21.6348H155.58V20.5391H158.029V21.9102C158.229 21.3633 158.521 20.9766 158.908 20.75C159.299 20.5234 159.762 20.4102 160.297 20.4102C160.465 20.4102 160.641 20.4277 160.824 20.4629C161.008 20.498 161.188 20.5605 161.363 20.6504L160.906 21.834ZM167.445 24.3652C167.445 24.7207 167.365 25.0098 167.205 25.2324C167.045 25.4551 166.838 25.6348 166.584 25.7715C166.334 25.9082 166.053 26.002 165.74 26.0527C165.432 26.1074 165.129 26.1348 164.832 26.1348C164.336 26.1348 163.842 26.0625 163.35 25.918C162.857 25.7734 162.432 25.584 162.072 25.3496L162.576 24.3535C163.006 24.6035 163.398 24.7812 163.754 24.8867C164.113 24.9883 164.473 25.0391 164.832 25.0391C165.32 25.0391 165.676 24.9883 165.898 24.8867C166.121 24.7812 166.232 24.6367 166.232 24.4531C166.232 24.3633 166.201 24.2891 166.139 24.2305C166.076 24.1719 165.973 24.1191 165.828 24.0723C165.684 24.0215 165.492 23.9727 165.254 23.9258C165.02 23.875 164.727 23.8223 164.375 23.7676C164.094 23.7207 163.826 23.6641 163.572 23.5977C163.322 23.5273 163.102 23.4297 162.91 23.3047C162.719 23.1797 162.564 23.0215 162.447 22.8301C162.334 22.6387 162.277 22.3984 162.277 22.1094C162.277 21.8164 162.352 21.5625 162.5 21.3477C162.652 21.1289 162.85 20.9492 163.092 20.8086C163.338 20.668 163.613 20.5664 163.918 20.5039C164.223 20.4414 164.527 20.4102 164.832 20.4102C165.262 20.4102 165.678 20.4668 166.08 20.5801C166.486 20.6895 166.842 20.8477 167.146 21.0547L166.666 21.9922C166.361 21.8008 166.064 21.6719 165.775 21.6055C165.49 21.5352 165.176 21.5 164.832 21.5C164.688 21.5 164.537 21.5078 164.381 21.5234C164.225 21.5391 164.08 21.5703 163.947 21.6172C163.814 21.6602 163.703 21.7207 163.613 21.7988C163.527 21.873 163.484 21.9648 163.484 22.0742C163.484 22.2188 163.611 22.3379 163.865 22.4316C164.123 22.5215 164.561 22.6113 165.178 22.7012C165.514 22.748 165.82 22.8086 166.098 22.8828C166.375 22.9531 166.613 23.0508 166.812 23.1758C167.012 23.2969 167.166 23.4551 167.275 23.6504C167.389 23.8418 167.445 24.0801 167.445 24.3652ZM169.795 23.7324C169.854 24.1074 170.031 24.4199 170.328 24.6699C170.629 24.916 171.031 25.0391 171.535 25.0391C171.93 25.0391 172.271 24.9785 172.561 24.8574C172.854 24.7324 173.105 24.5684 173.316 24.3652L173.938 25.2207C173.586 25.5723 173.213 25.8125 172.818 25.9414C172.428 26.0703 172 26.1348 171.535 26.1348C171.113 26.1348 170.721 26.0645 170.357 25.9238C169.994 25.7832 169.68 25.5879 169.414 25.3379C169.148 25.084 168.939 24.7832 168.787 24.4355C168.639 24.0879 168.564 23.7012 168.564 23.2754C168.564 22.8613 168.633 22.4805 168.77 22.1328C168.91 21.7812 169.105 21.4785 169.355 21.2246C169.609 20.9668 169.912 20.7676 170.264 20.627C170.615 20.4824 171.004 20.4102 171.43 20.4102C171.871 20.4102 172.271 20.4863 172.631 20.6387C172.99 20.7871 173.297 21.0039 173.551 21.2891C173.809 21.5742 174.01 21.9238 174.154 22.3379C174.299 22.748 174.371 23.2129 174.371 23.7324H169.795ZM173 22.666C172.938 22.3145 172.756 22.0332 172.455 21.8223C172.154 21.6074 171.812 21.5 171.43 21.5C171.047 21.5 170.703 21.6074 170.398 21.8223C170.094 22.0332 169.91 22.3145 169.848 22.666H173Z" fill="white"/>
<defs>
<filter id="filter0_b" x="-44" y="-44" width="313" height="134" filterUnits="userSpaceOnUse" color-interpolation-filters="sRGB">
<feFlood flood-opacity="0" result="BackgroundImageFix"/>
<feGaussianBlur in="BackgroundImage" stdDeviation="22"/>
<feComposite in2="SourceAlpha" operator="in" result="effect1_backgroundBlur"/>
<feBlend mode="normal" in="SourceGraphic" in2="effect1_backgroundBlur" result="shape"/>
</filter>
<linearGradient id="paint0_linear" x1="-75.2488" y1="-20.681" x2="-8.57678" y2="-131.589" gradientUnits="userSpaceOnUse">
<stop stop-color="#CC16FF"/>
<stop offset="1" stop-color="#FFA34E"/>
</linearGradient>
</defs>
</svg>
