<svg width="75" height="86" viewBox="0 0 75 86" fill="none" xmlns="http://www.w3.org/2000/svg">
<g filter="url(#filter0_b)">
<path d="M37.5 0L18.8805 10.9744L0 21.5L0.26091 43L0 64.5L18.8805 75.0256L37.5 86L56.1195 75.0256L75 64.5L74.7391 43L75 21.5L56.1195 10.9744L37.5 0Z" fill="url(#paint0_linear)"/>
</g>
<path d="M31.9991 42.0002H39.5891L36.2891 38.7102C36.1008 38.5219 35.995 38.2665 35.995 38.0002C35.995 37.7339 36.1008 37.4785 36.2891 37.2902C36.4774 37.1019 36.7328 36.9961 36.9991 36.9961C37.2654 36.9961 37.5208 37.1019 37.7091 37.2902L42.7091 42.2902C42.8002 42.3853 42.8715 42.4974 42.9191 42.6202C43.0191 42.8636 43.0191 43.1367 42.9191 43.3802C42.8715 43.5029 42.8002 43.6151 42.7091 43.7102L37.7091 48.7102C37.6162 48.8039 37.5056 48.8783 37.3837 48.9291C37.2618 48.9798 37.1311 49.006 36.9991 49.006C36.8671 49.006 36.7364 48.9798 36.6146 48.9291C36.4927 48.8783 36.3821 48.8039 36.2891 48.7102C36.1954 48.6172 36.121 48.5066 36.0702 48.3848C36.0195 48.2629 35.9933 48.1322 35.9933 48.0002C35.9933 47.8682 36.0195 47.7375 36.0702 47.6156C36.121 47.4937 36.1954 47.3831 36.2891 47.2902L39.5891 44.0002H31.9991C31.7339 44.0002 31.4796 43.8948 31.292 43.7073C31.1045 43.5198 30.9991 43.2654 30.9991 43.0002C30.9991 42.735 31.1045 42.4806 31.292 42.2931C31.4796 42.1055 31.7339 42.0002 31.9991 42.0002Z" fill="white"/>
<defs>
<filter id="filter0_b" x="-14" y="-14" width="103" height="114" filterUnits="userSpaceOnUse" color-interpolation-filters="sRGB">
<feFlood flood-opacity="0" result="BackgroundImageFix"/>
<feGaussianBlur in="BackgroundImage" stdDeviation="7"/>
<feComposite in2="SourceAlpha" operator="in" result="effect1_backgroundBlur"/>
<feBlend mode="normal" in="SourceGraphic" in2="effect1_backgroundBlur" result="shape"/>
</filter>
<linearGradient id="paint0_linear" x1="100.083" y1="-38.6645" x2="23.1303" y2="-61.4879" gradientUnits="userSpaceOnUse">
<stop stop-color="#CC16FF"/>
<stop offset="1" stop-color="#48F573"/>
</linearGradient>
</defs>
</svg>
