<svg width="32" height="32" viewBox="0 0 32 32" fill="none" xmlns="http://www.w3.org/2000/svg">
  <path d="M12.2267 9.33335C11.9783 9.58317 11.8389 9.9211 11.8389 10.2734C11.8389 10.6256 11.9783 10.9635 12.2267 11.2134L16.9467 16L12.2267 20.72C11.9783 20.9698 11.8389 21.3078 11.8389 21.66C11.8389 22.0123 11.9783 22.3502 12.2267 22.6C12.3506 22.725 12.4981 22.8242 12.6605 22.8919C12.823 22.9596 12.9973 22.9944 13.1733 22.9944C13.3493 22.9944 13.5236 22.9596 13.6861 22.8919C13.8486 22.8242 13.996 22.725 14.12 22.6L19.7733 16.9467C19.8983 16.8227 19.9975 16.6753 20.0652 16.5128C20.1329 16.3503 20.1677 16.176 20.1677 16C20.1677 15.824 20.1329 15.6497 20.0652 15.4872C19.9975 15.3248 19.8983 15.1773 19.7733 15.0534L14.12 9.33335C13.996 9.20838 13.8486 9.10919 13.6861 9.0415C13.5236 8.97381 13.3493 8.93895 13.1733 8.93895C12.9973 8.93895 12.823 8.97381 12.6605 9.0415C12.4981 9.10919 12.3506 9.20838 12.2267 9.33335Z" fill="#FFFBFF"/>
</svg>
