<svg width="16" height="16" viewBox="0 0 16 16" fill="none" xmlns="http://www.w3.org/2000/svg">
  <path d="M7.33333 5.99999H10C10.1768 5.99999 10.3464 5.92975 10.4714 5.80473C10.5964 5.6797 10.6667 5.51013 10.6667 5.33332C10.6667 5.15651 10.5964 4.98694 10.4714 4.86192C10.3464 4.73689 10.1768 4.66666 10 4.66666H8.66667V3.99999C8.66667 3.82318 8.59643 3.65361 8.47141 3.52859C8.34638 3.40356 8.17681 3.33332 8 3.33332C7.82319 3.33332 7.65362 3.40356 7.5286 3.52859C7.40357 3.65361 7.33333 3.82318 7.33333 3.99999V4.66666C6.8029 4.66666 6.29419 4.87737 5.91912 5.25244C5.54405 5.62752 5.33333 6.13622 5.33333 6.66666C5.33333 7.19709 5.54405 7.7058 5.91912 8.08087C6.29419 8.45594 6.8029 8.66666 7.33333 8.66666H8.66667C8.84348 8.66666 9.01305 8.73689 9.13807 8.86192C9.2631 8.98694 9.33333 9.15651 9.33333 9.33332C9.33333 9.51013 9.2631 9.6797 9.13807 9.80473C9.01305 9.92975 8.84348 9.99999 8.66667 9.99999H6C5.82319 9.99999 5.65362 10.0702 5.5286 10.1953C5.40357 10.3203 5.33333 10.4898 5.33333 10.6667C5.33333 10.8435 5.40357 11.013 5.5286 11.1381C5.65362 11.2631 5.82319 11.3333 6 11.3333H7.33333V12C7.33333 12.1768 7.40357 12.3464 7.5286 12.4714C7.65362 12.5964 7.82319 12.6667 8 12.6667C8.17681 12.6667 8.34638 12.5964 8.47141 12.4714C8.59643 12.3464 8.66667 12.1768 8.66667 12V11.3333C9.1971 11.3333 9.70581 11.1226 10.0809 10.7475C10.456 10.3725 10.6667 9.86376 10.6667 9.33332C10.6667 8.80289 10.456 8.29418 10.0809 7.91911C9.70581 7.54404 9.1971 7.33332 8.66667 7.33332H7.33333C7.15652 7.33332 6.98695 7.26308 6.86193 7.13806C6.73691 7.01304 6.66667 6.84347 6.66667 6.66666C6.66667 6.48985 6.73691 6.32028 6.86193 6.19525C6.98695 6.07023 7.15652 5.99999 7.33333 5.99999ZM8 0.666656C6.5496 0.666656 5.13178 1.09675 3.92582 1.90255C2.71986 2.70834 1.77993 3.85365 1.22488 5.19364C0.669842 6.53364 0.524617 8.00812 0.807575 9.43065C1.09053 10.8532 1.78897 12.1599 2.81455 13.1854C3.84014 14.211 5.14681 14.9095 6.56934 15.1924C7.99187 15.4754 9.46636 15.3301 10.8063 14.7751C12.1463 14.2201 13.2916 13.2801 14.0974 12.0742C14.9032 10.8682 15.3333 9.45039 15.3333 7.99999C15.3333 6.05507 14.5607 4.18981 13.1855 2.81454C11.8102 1.43927 9.94492 0.666656 8 0.666656ZM8 14C6.81331 14 5.65327 13.6481 4.66658 12.9888C3.67988 12.3295 2.91085 11.3924 2.45672 10.2961C2.0026 9.19973 1.88378 7.99333 2.11529 6.82945C2.3468 5.66556 2.91824 4.59646 3.75736 3.75735C4.59647 2.91823 5.66557 2.34679 6.82946 2.11528C7.99335 1.88377 9.19975 2.00259 10.2961 2.45671C11.3925 2.91084 12.3295 3.67987 12.9888 4.66657C13.6481 5.65326 14 6.8133 14 7.99999C14 9.59129 13.3679 11.1174 12.2426 12.2426C11.1174 13.3678 9.5913 14 8 14Z" fill="url(#paint0_linear_1951_3440)"/>
  <defs>
    <linearGradient id="paint0_linear_1951_3440" x1="15.8849" y1="7.8955" x2="0.565385" y2="7.65609" gradientUnits="userSpaceOnUse">
      <stop stop-color="#CE09FF"/>
      <stop offset="1" stop-color="#FFA34E"/>
    </linearGradient>
  </defs>
</svg>
