<svg width="24" height="24" viewBox="0 0 24 24" fill="none" xmlns="http://www.w3.org/2000/svg">
  <path d="M16.2976 9.58713V13.3137C16.2976 13.9214 16.4048 14.3771 16.6193 14.681C16.8338 14.9669 17.1734 15.1099 17.6381 15.1099C18.2458 15.1099 18.6926 14.7703 18.9786 14.0912C19.2645 13.3941 19.4075 12.3217 19.4075 10.874C19.4075 8.69348 18.8177 7.04022 17.6381 5.91421C16.4584 4.77033 14.7694 4.19839 12.571 4.19839C10.1224 4.19839 8.29937 4.89544 7.10188 6.28955C5.90438 7.66577 5.30563 9.65862 5.30563 12.2681C5.30563 17.2904 7.75425 19.8016 12.6515 19.8016C15.6899 19.8016 17.7632 19.2118 18.8713 18.0322L19.1126 18.1394L18.5496 20.3914C18.1743 20.7668 17.361 21.1242 16.1099 21.4638C14.8767 21.8213 13.706 22 12.5979 22C9.43432 22 7.03932 21.1778 5.41287 19.5335C3.80429 17.8713 3 15.4495 3 12.2681C3 8.99732 3.81323 6.46828 5.43968 4.68097C7.084 2.89366 9.47006 2 12.5979 2C14.4924 2 16.1189 2.3664 17.4772 3.0992C18.8534 3.81412 19.899 4.84182 20.6139 6.18231C21.3467 7.50492 21.7131 9.06881 21.7131 10.874C21.7131 14.9491 20.328 16.9866 17.5576 16.9866C16.0563 16.9866 15.0286 16.5487 14.4745 15.6729C13.7954 16.5487 12.8391 16.9866 11.6059 16.9866C10.4799 16.9866 9.5773 16.5487 8.89812 15.6729C8.23682 14.7793 7.90617 13.5818 7.90617 12.0804C7.90617 10.4719 8.23682 9.22967 8.89812 8.35389C9.55943 7.46023 10.4799 7.01341 11.6595 7.01341C12.6068 7.01341 13.4021 7.21001 14.0456 7.60322V7.20107H16.4316L16.2976 9.58713ZM12.2493 14.9223C13.0179 14.9223 13.6166 14.538 14.0456 13.7694V9.34585C13.5809 9.20286 13.0268 9.13137 12.3834 9.13137C11.8114 9.13137 11.3646 9.22073 11.0429 9.39946C10.7391 9.56032 10.5246 9.85523 10.3995 10.2842C10.2744 10.6953 10.2118 11.294 10.2118 12.0804C10.2118 13.1349 10.3637 13.8767 10.6676 14.3056C10.9893 14.7167 11.5165 14.9223 12.2493 14.9223Z" fill="url(#paint0_linear_1511_5780)"/>
  <defs>
    <linearGradient id="paint0_linear_1511_5780" x1="22.4169" y1="11.8575" x2="2.87018" y2="11.5717" gradientUnits="userSpaceOnUse">
      <stop stop-color="#CE09FF"/>
      <stop offset="1" stop-color="#FFA34E"/>
    </linearGradient>
  </defs>
</svg>
