<svg width="24" height="24" viewBox="0 0 24 24" fill="none" xmlns="http://www.w3.org/2000/svg">
  <path d="M20.46 9.62994C20.3196 8.16886 19.8032 6.76903 18.9612 5.56676C18.1191 4.3645 16.9801 3.40077 15.655 2.76944C14.3299 2.1381 12.8639 1.86066 11.3997 1.96415C9.93555 2.06763 8.52314 2.5485 7.3 3.35994C6.2492 4.06259 5.36706 4.98924 4.71695 6.07333C4.06684 7.15743 3.6649 8.37205 3.54 9.62994C3.41749 10.8796 3.57468 12.1409 4.00017 13.3222C4.42567 14.5036 5.1088 15.5754 6 16.4599L11.3 21.7699C11.393 21.8637 11.5036 21.9381 11.6254 21.9888C11.7473 22.0396 11.878 22.0657 12.01 22.0657C12.142 22.0657 12.2727 22.0396 12.3946 21.9888C12.5164 21.9381 12.627 21.8637 12.72 21.7699L18 16.4599C18.8912 15.5754 19.5743 14.5036 19.9998 13.3222C20.4253 12.1409 20.5825 10.8796 20.46 9.62994ZM16.6 15.0499L12 19.6499L7.4 15.0499C6.72209 14.372 6.20281 13.5523 5.87947 12.6497C5.55614 11.7471 5.43679 10.7841 5.53 9.82994C5.62382 8.86105 5.93177 7.9251 6.43157 7.08979C6.93138 6.25447 7.61056 5.54065 8.42 4.99994C9.48095 4.29518 10.7263 3.91924 12 3.91924C13.2737 3.91924 14.5191 4.29518 15.58 4.99994C16.387 5.53856 17.0647 6.24922 17.5644 7.08088C18.064 7.91254 18.3733 8.84454 18.47 9.80994C18.5663 10.7674 18.4484 11.7342 18.125 12.6405C17.8016 13.5468 17.2807 14.3698 16.6 15.0499ZM12 5.99994C11.11 5.99994 10.24 6.26386 9.49994 6.75833C8.75992 7.2528 8.18314 7.9556 7.84255 8.77787C7.50195 9.60013 7.41284 10.5049 7.58647 11.3778C7.7601 12.2508 8.18869 13.0526 8.81802 13.6819C9.44736 14.3113 10.2492 14.7398 11.1221 14.9135C11.995 15.0871 12.8998 14.998 13.7221 14.6574C14.5443 14.3168 15.2471 13.74 15.7416 13C16.2361 12.26 16.5 11.39 16.5 10.4999C16.4974 9.30728 16.0224 8.16422 15.1791 7.32088C14.3357 6.47754 13.1927 6.00258 12 5.99994ZM12 12.9999C11.5055 12.9999 11.0222 12.8533 10.6111 12.5786C10.2 12.3039 9.87952 11.9135 9.6903 11.4567C9.50109 10.9998 9.45158 10.4972 9.54804 10.0122C9.6445 9.52726 9.88261 9.08181 10.2322 8.73218C10.5819 8.38254 11.0273 8.14444 11.5123 8.04798C11.9972 7.95152 12.4999 8.00102 12.9567 8.19024C13.4135 8.37946 13.804 8.69989 14.0787 9.11102C14.3534 9.52214 14.5 10.0055 14.5 10.4999C14.5 11.163 14.2366 11.7989 13.7678 12.2677C13.2989 12.7366 12.663 12.9999 12 12.9999Z" fill="url(#paint0_linear_1511_5783)"/>
  <defs>
    <linearGradient id="paint0_linear_1511_5783" x1="21.1397" y1="11.861" x2="3.381" y2="11.6265" gradientUnits="userSpaceOnUse">
      <stop stop-color="#CE09FF"/>
      <stop offset="1" stop-color="#FFA34E"/>
    </linearGradient>
  </defs>
</svg>
