<svg width="1072" height="95" viewBox="0 0 1072 95" fill="none" xmlns="http://www.w3.org/2000/svg">
<mask id="mask0" style="mask-type:alpha" maskUnits="userSpaceOnUse" x="0" y="0" width="1072" height="95">
<rect width="1072" height="95" rx="16" fill="#2F1385"/>
</mask>
<g mask="url(#mask0)">
<path d="M803.392 -204.84L723.121 -183.799L642.62 -164.413L611.613 -94.6227L578.812 -25.2384L628.077 23.5105L675.778 73.509L756.049 52.4678L836.551 33.0819L867.558 -36.7082L900.358 -106.092L851.094 -154.841L803.392 -204.84Z" fill="url(#paint0_linear)"/>
<path d="M1087.74 -141.844L1007.47 -120.803L926.963 -101.417L895.956 -31.6271L863.156 37.7572L912.42 86.5061L960.122 136.505L1040.39 115.463L1120.89 96.0775L1151.9 26.2874L1184.7 -43.0969L1135.44 -91.8458L1087.74 -141.844Z" fill="url(#paint1_linear)"/>
<path d="M847.189 57.959L766.918 79.0002L686.416 98.3861L655.41 168.176L622.609 237.56L671.873 286.309L719.575 336.308L799.846 315.267L880.348 295.881L911.355 226.091L944.155 156.706L894.891 107.957L847.189 57.959Z" fill="url(#paint2_linear)"/>
<path d="M562.482 -5.46629L482.211 15.5749L401.709 34.9608L370.702 104.751L337.902 174.135L387.166 222.884L434.868 272.883L515.139 251.841L595.641 232.455L626.648 162.665L659.448 93.281L610.184 44.5322L562.482 -5.46629Z" fill="url(#paint3_linear)"/>
</g>
<defs>
<linearGradient id="paint0_linear" x1="803.392" y1="-204.84" x2="737.261" y2="87.421" gradientUnits="userSpaceOnUse">
<stop stop-color="#1E0B6D"/>
<stop offset="1" stop-color="#250B71" stop-opacity="0.41"/>
</linearGradient>
<linearGradient id="paint1_linear" x1="1087.74" y1="-141.844" x2="1226.1" y2="200.892" gradientUnits="userSpaceOnUse">
<stop stop-color="#1E0B6D"/>
<stop offset="1" stop-color="#250B71" stop-opacity="0"/>
</linearGradient>
<linearGradient id="paint2_linear" x1="845.247" y1="44.4724" x2="728.281" y2="221.974" gradientUnits="userSpaceOnUse">
<stop stop-color="#1E0B6D"/>
<stop offset="1" stop-color="#250B71" stop-opacity="0"/>
</linearGradient>
<linearGradient id="paint3_linear" x1="579.414" y1="-34.6264" x2="447.531" y2="161.687" gradientUnits="userSpaceOnUse">
<stop stop-color="#1E0B6D"/>
<stop offset="1" stop-color="#250B71" stop-opacity="0"/>
</linearGradient>
</defs>
</svg>
