<svg width="53" height="50" viewBox="0 0 53 50" fill="none" xmlns="http://www.w3.org/2000/svg">
<path fill-rule="evenodd" clip-rule="evenodd" d="M19.89 24C26.6101 23.9735 32.0495 18.6111 32.0495 12.0001C32.0495 5.37261 26.5831 0 19.84 0C13.0968 0 7.63043 5.37261 7.63043 12.0001C7.63043 18.6117 13.0707 23.9744 19.7917 24C8.85652 24.0264 0 32.8992 0 43.8405V45.9419C0 47.9071 1.59304 49.5001 3.55816 49.5001H36.1229C38.088 49.5001 39.681 47.9071 39.681 45.9419V43.8405C39.681 32.8994 30.8249 24.0267 19.89 24Z" fill="url(#paint0_linear)"/>
<path d="M46.3404 1.63647C45.4209 1.63647 44.6755 2.36917 44.6755 3.27285V6.54559H41.3456C40.426 6.54559 39.6807 7.27828 39.6807 8.18196C39.6807 9.08564 40.426 9.81833 41.3456 9.81833H44.6755V13.0911C44.6755 13.9948 45.4209 14.7274 46.3404 14.7274C47.26 14.7274 48.0054 13.9948 48.0054 13.0911V9.81833H51.3352C52.2548 9.81833 53.0002 9.08564 53.0002 8.18196C53.0002 7.27828 52.2548 6.54559 51.3352 6.54559H48.0054V3.27285C48.0054 2.36917 47.26 1.63647 46.3404 1.63647Z" fill="url(#paint1_linear)"/>
<defs>
<linearGradient id="paint0_linear" x1="39.681" y1="-3.75001" x2="-5.35027" y2="47.8962" gradientUnits="userSpaceOnUse">
<stop stop-color="#CE09FF"/>
<stop offset="1" stop-color="#FFA34E"/>
</linearGradient>
<linearGradient id="paint1_linear" x1="53.0002" y1="4.90922" x2="21.1366" y2="32.2496" gradientUnits="userSpaceOnUse">
<stop stop-color="#CE09FF"/>
<stop offset="1" stop-color="#FFA34E"/>
</linearGradient>
</defs>
</svg>
