<svg width="231" height="323" viewBox="0 0 231 323" fill="none" xmlns="http://www.w3.org/2000/svg">
<path fill-rule="evenodd" clip-rule="evenodd" d="M165 302L169.094 302L169.094 306L165 306C163.627 306 162.265 305.947 160.918 305.842L161.228 301.854C162.472 301.951 163.73 302 165 302ZM177.281 302L185.469 302L185.469 306L177.281 306L177.281 302ZM193.656 302L201.844 302L201.844 306L193.656 306L193.656 302ZM210.031 302L218.219 302L218.219 306L210.031 306L210.031 302ZM226.406 302L230.5 302L230.5 306L226.406 306L226.406 302ZM146.627 298.359C148.929 299.313 151.321 300.094 153.788 300.684L152.857 304.574C150.183 303.934 147.59 303.088 145.094 302.053L146.627 298.359ZM133.827 290.501C135.734 292.132 137.771 293.615 139.918 294.934L137.825 298.343C135.498 296.914 133.293 295.307 131.228 293.541L133.827 290.501ZM124.066 279.081C125.385 281.229 126.868 283.266 128.499 285.173L125.458 287.772C123.693 285.707 122.086 283.501 120.657 281.175L124.066 279.081ZM118.316 265.212C118.906 267.679 119.687 270.071 120.641 272.373L116.946 273.905C115.912 271.41 115.065 268.816 114.426 266.143L118.316 265.212ZM117 254C117 255.27 117.049 256.528 117.146 257.772L113.158 258.082C113.053 256.735 113 255.373 113 254L113 249.75L117 249.75L117 254ZM117 232.75L117 241.25L113 241.25L113 232.75L117 232.75ZM117 215.75L117 224.25L113 224.25L113 215.75L117 215.75ZM117 198.75L117 207.25L113 207.25L113 198.75L117 198.75ZM117 181.75L117 190.25L113 190.25L113 181.75L117 181.75ZM117 164.75L117 173.25L113 173.25L113 164.75L117 164.75ZM117 147.75L117 156.25L113 156.25L113 147.75L117 147.75ZM117 139.25L113 139.25L113 130.875L117 130.875L117 139.25ZM117 114.375L117 122.625L113 122.625L113 114.375L117 114.375ZM117 97.875L117 106.125L113 106.125L113 97.875L117 97.875ZM117 81.375L117 89.625L113 89.625L113 81.375L117 81.375ZM117 69.0001L117 73.1251L113 73.125L113 69.0001C113 67.7302 112.951 66.4724 112.854 65.2281L116.842 64.9183C116.947 66.2655 117 67.6268 117 69.0001ZM113.053 49.0945C114.088 51.59 114.934 54.1836 115.574 56.8574L111.684 57.7881C111.094 55.3215 110.313 52.929 109.358 50.6267L113.053 49.0945ZM104.541 35.2276C106.307 37.293 107.914 39.4986 109.343 41.8255L105.934 43.9186C104.615 41.7706 103.132 39.7342 101.501 37.8268L104.541 35.2276ZM92.1746 24.6572C94.5015 26.0862 96.707 27.693 98.7724 29.4586L96.1731 32.499C94.2658 30.8684 92.2293 29.3849 90.0814 28.0658L92.1746 24.6572ZM77.1427 18.4258C79.8164 19.0655 82.41 19.9117 84.9055 20.9466L83.3733 24.6415C81.071 23.6868 78.6785 22.9062 76.2119 22.316L77.1427 18.4258ZM65 17C66.3733 17 67.7345 17.0533 69.0817 17.1579L68.7719 21.1459C67.5277 21.0492 66.2698 21 65 21L61.1111 21L61.1111 17L65 17ZM45.5556 17L53.3333 17L53.3333 21L45.5556 21L45.5556 17ZM30 17L37.7778 17L37.7778 21L30 21L30 17ZM14.4445 17L22.2222 17L22.2222 21L14.4445 21L14.4445 17ZM-1.11106 17L6.66671 17L6.66671 21L-1.11106 21L-1.11106 17ZM-16.6666 17L-8.88883 17L-8.88883 21L-16.6666 21L-16.6666 17ZM-32.2221 17L-24.4444 17L-24.4444 21L-32.2221 21L-32.2221 17ZM-47.7777 17L-39.9999 17L-39.9999 21L-47.7777 21L-47.7777 17ZM-63.3332 17L-55.5555 17L-55.5555 21L-63.3332 21L-63.3332 17ZM-74.9999 17L-71.111 17L-71.111 21L-74.9999 21L-74.9999 17Z" fill="url(#paint0_linear)"/>
<path fill-rule="evenodd" clip-rule="evenodd" d="M-74.9999 0L64.9999 1.33514e-05C103.108 1.71661e-05 134 30.8924 134 69.0001L134 254C134 271.121 147.879 285 165 285H230.5V323H165C126.892 323 95.9998 292.108 95.9998 254L95.9999 69.0001C96 51.8792 82.1208 38 64.9999 38L-74.9999 38V0Z" fill="white" fill-opacity="0.06"/>
<defs>
<linearGradient id="paint0_linear" x1="-86.4894" y1="163.559" x2="232.6" y2="168.83" gradientUnits="userSpaceOnUse">
<stop stop-color="#CE09FF"/>
<stop offset="1" stop-color="#FFA34E"/>
</linearGradient>
</defs>
</svg>
