<svg width="497" height="497" viewBox="0 0 497 497" fill="none" xmlns="http://www.w3.org/2000/svg">
<path d="M464 248.5C464 367.517 367.517 464 248.5 464C129.483 464 33 367.517 33 248.5C33 129.483 129.483 33 248.5 33C367.517 33 464 129.483 464 248.5ZM129.975 248.5C129.975 313.96 183.04 367.025 248.5 367.025C313.96 367.025 367.025 313.96 367.025 248.5C367.025 183.04 313.96 129.975 248.5 129.975C183.04 129.975 129.975 183.04 129.975 248.5Z" fill="#1F276F"/>
<path d="M36.5536 287.474C28.8453 245.555 33.7405 202.291 50.6202 163.155C67.5 124.018 95.6061 90.765 131.384 67.6017C167.163 44.4385 209.006 32.4048 251.624 33.0226C294.241 33.6404 335.718 46.8819 370.81 71.0725L315.77 150.915C296.47 137.61 273.658 130.327 250.218 129.987C226.778 129.648 203.764 136.266 184.086 149.006C164.408 161.746 148.95 180.035 139.666 201.56C130.382 223.085 127.69 246.88 131.929 269.936L36.5536 287.474Z" fill="url(#paint0_linear)"/>
<path d="M6.70388 292.963C5.26455 293.228 3.88159 292.275 3.63229 290.833C-4.58345 243.311 1.20395 194.404 20.3185 150.085C39.783 104.955 72.1931 66.6107 113.45 39.9004C154.707 13.1901 202.958 -0.686289 252.102 0.0261058C300.362 0.725689 347.353 15.4631 387.349 42.4099C388.563 43.2276 388.866 44.8794 388.036 46.0843C387.205 47.2892 385.555 47.5909 384.341 46.7735C345.208 20.4215 299.237 6.00958 252.025 5.32519C203.93 4.62798 156.708 18.2084 116.33 44.3491C75.9531 70.4898 44.2342 108.017 25.1848 152.184C6.48537 195.54 0.81846 243.383 8.84484 289.874C9.09381 291.316 8.1432 292.698 6.70388 292.963Z" fill="url(#paint1_linear)"/>
<path d="M160.616 445.265C128.277 430.821 99.9965 408.629 78.2769 380.653C56.5573 352.676 42.0679 319.778 36.0908 284.868L131.675 268.502C134.962 287.703 142.932 305.797 154.877 321.184C166.823 336.571 182.377 348.777 200.164 356.721L160.616 445.265Z" fill="#D517EF"/>
<path d="M400.882 400.882C368.809 432.954 327.435 454.089 282.651 461.277C237.868 468.465 191.958 461.339 151.46 440.915L195.158 354.268C217.419 365.495 242.656 369.412 267.273 365.461C291.89 361.51 314.633 349.892 332.262 332.262L400.882 400.882Z" fill="#E962A2"/>
<path d="M462.968 269.561C457.896 321.218 434.349 369.309 396.655 404.994L329.985 334.571C350.717 314.945 363.668 288.495 366.458 260.084L462.968 269.561Z" fill="#9B5CD2"/>
<defs>
<linearGradient id="paint0_linear" x1="113.813" y1="367.025" x2="390.552" y2="108.63" gradientUnits="userSpaceOnUse">
<stop stop-color="#CC16FF"/>
<stop offset="1" stop-color="#48F573"/>
</linearGradient>
<linearGradient id="paint1_linear" x1="93.1875" y1="385.175" x2="412.305" y2="87.2117" gradientUnits="userSpaceOnUse">
<stop stop-color="#CC16FF"/>
<stop offset="1" stop-color="#48F573"/>
</linearGradient>
</defs>
</svg>
