<svg width="151" height="160" viewBox="0 0 151 160" fill="none" xmlns="http://www.w3.org/2000/svg">
<g filter="url(#filter0_f)">
<path d="M75.3408 44.6396L90.6888 53.6223L106.252 62.2376L106.037 79.8355L106.252 97.4334L90.6888 106.049L75.3408 115.031L59.9928 106.049L44.4297 97.4334L44.6448 79.8355L44.4297 62.2376L59.9928 53.6223L75.3408 44.6396Z" fill="url(#paint0_linear)"/>
</g>
<path d="M117.882 65.4506C117.882 89.1144 98.6984 108.298 75.0346 108.298C51.3708 108.298 32.1875 89.1144 32.1875 65.4506C32.1875 41.7868 51.3708 22.6035 75.0346 22.6035C98.6984 22.6035 117.882 41.7868 117.882 65.4506Z" fill="url(#paint1_linear)"/>
<path fill-rule="evenodd" clip-rule="evenodd" d="M50.5488 51.6785L75.0338 37.9062L99.5169 51.6785V79.2231L75.0338 92.9954L50.5488 79.2231V51.6785ZM75.0338 89.5523L96.4561 77.5006V53.3991L75.0338 41.3493L53.6097 53.3991V77.5006L75.0338 89.5523ZM75.3089 64.4171C74.6104 63.182 73.5846 62.1521 72.3385 61.4349C71.0668 60.7057 69.6147 60.3292 68.1392 60.346C66.8749 60.3316 65.6255 60.6131 64.496 61.1668C63.4127 61.6934 62.4749 62.4654 61.7612 63.4181V54.6791C61.767 54.5247 61.74 54.3708 61.682 54.227C61.624 54.0832 61.5362 53.9526 61.4241 53.8433C61.3119 53.7341 61.1779 53.6485 61.0303 53.592C60.8827 53.5355 60.7247 53.5093 60.5662 53.5149C60.4106 53.5092 60.2554 53.5355 60.1109 53.5922C59.9664 53.6488 59.8357 53.7345 59.7275 53.8436C59.6197 53.9552 59.5356 54.0864 59.4803 54.2299C59.425 54.3733 59.3995 54.526 59.4052 54.6791V61.3596C59.3814 61.447 59.3712 61.5374 59.375 61.6277V68.6387C59.3564 70.1217 59.7421 71.583 60.4927 72.8732C61.2142 74.1254 62.2724 75.1621 63.5536 75.8719C64.8736 76.6038 66.3699 76.9796 67.8885 76.9609C69.4072 76.9797 70.9035 76.6038 72.2235 75.8719C73.5016 75.1609 74.5576 74.1251 75.2787 72.8751C76.0285 71.5845 76.4141 70.1235 76.3964 68.6406C76.4158 67.1647 76.041 65.7092 75.3089 64.4171ZM73.2884 71.8155C72.7639 72.7438 71.9915 73.5166 71.0531 74.0521H71.0568C70.3459 74.4543 69.5604 74.7154 68.7454 74.8206C67.9305 74.9258 67.1023 74.8729 66.3084 74.665C65.5145 74.4572 64.7707 74.0984 64.1197 73.6094C63.4686 73.1203 62.9233 72.5107 62.5151 71.8155C61.9665 70.843 61.6866 69.7483 61.7027 68.6387C61.6988 68.3898 61.7095 68.1409 61.7348 67.8932C61.7556 67.8456 61.7659 67.7943 61.7649 67.7426C61.9267 66.2725 62.641 64.9126 63.7703 63.9249C64.8969 62.9331 66.3706 62.3995 67.8885 62.4339C68.9992 62.4233 70.0923 62.7043 71.0531 63.2473C71.992 63.7725 72.7651 64.5385 73.2884 65.4619C73.8198 66.4408 74.0976 67.5314 74.0976 68.6387C74.0976 69.7461 73.8198 70.8367 73.2884 71.8155ZM90.6945 75.7672C90.6945 76.4638 90.3376 76.8121 89.6239 76.8121H78.255C77.5413 76.8121 77.1845 76.4638 77.1845 75.7672C77.1625 75.5019 77.238 75.2377 77.3975 75.0217L87.4414 62.5825H78.1401C77.4251 62.5825 77.0683 62.2349 77.0695 61.5395C77.0708 60.8442 77.4276 60.4959 78.1401 60.4947H89.4995C90.2132 60.4947 90.5701 60.8429 90.5701 61.5395C90.5834 61.8177 90.4968 62.0918 90.3251 62.3144L80.3754 74.7242H89.622C90.337 74.7242 90.6945 75.0719 90.6945 75.7672Z" fill="white"/>
<defs>
<filter id="filter0_f" x="0.429688" y="0.639648" width="149.822" height="158.392" filterUnits="userSpaceOnUse" color-interpolation-filters="sRGB">
<feFlood flood-opacity="0" result="BackgroundImageFix"/>
<feBlend mode="normal" in="SourceGraphic" in2="BackgroundImageFix" result="shape"/>
<feGaussianBlur stdDeviation="22" result="effect1_foregroundBlur"/>
</filter>
<linearGradient id="paint0_linear" x1="108.577" y1="79.334" x2="43.9992" y2="78.4476" gradientUnits="userSpaceOnUse">
<stop stop-color="#CE09FF"/>
<stop offset="1" stop-color="#FFA34E"/>
</linearGradient>
<linearGradient id="paint1_linear" x1="152.696" y1="108.069" x2="-69.0178" y2="11.6574" gradientUnits="userSpaceOnUse">
<stop stop-color="#CE09FF"/>
<stop offset="1" stop-color="#FFA34E"/>
</linearGradient>
</defs>
</svg>
