<svg width="225" height="135" viewBox="0 0 225 135" fill="none" xmlns="http://www.w3.org/2000/svg">
<g filter="url(#filter0_b)">
<path d="M225 21.8182C225 9.76833 212.275 0 196.579 0H28.4211C12.7245 0 0 9.76833 0 21.8182V28.1818C0 40.2317 12.7245 50 28.4211 50H225V21.8182Z" fill="white" fill-opacity="0.1"/>
</g>
<path d="M29.8447 25.3994H26.3242V28.9268H30.4258V30H25.0732V20.0469H30.3574V21.127H26.3242V24.3262H29.8447V25.3994ZM33.0029 22.6035L33.0371 23.4033C33.5065 22.779 34.1058 22.4668 34.835 22.4668C36.1429 22.4668 36.806 23.3395 36.8242 25.085V30H35.6211V25.1396C35.6211 24.5609 35.5231 24.1507 35.3271 23.9092C35.1357 23.6631 34.8464 23.54 34.459 23.54C34.1582 23.54 33.887 23.6403 33.6455 23.8408C33.4085 24.0413 33.2171 24.3034 33.0713 24.627V30H31.8613V22.6035H33.0029ZM40.2285 20.8125V22.6035H41.3428V23.5811H40.2285V28.168C40.2285 28.4596 40.2764 28.6807 40.3721 28.8311C40.4678 28.9814 40.6318 29.0566 40.8643 29.0566C41.0238 29.0566 41.1855 29.0293 41.3496 28.9746L41.3359 30C41.0625 30.0911 40.7822 30.1367 40.4951 30.1367C40.0166 30.1367 39.652 29.9658 39.4014 29.624C39.1507 29.2822 39.0254 28.7992 39.0254 28.1748V23.5811H37.8975V22.6035H39.0254V20.8125H40.2285ZM45.4307 30.1367C44.5101 30.1367 43.8037 29.8633 43.3115 29.3164C42.8193 28.765 42.5687 27.9583 42.5596 26.8965V26.001C42.5596 24.8981 42.7988 24.0345 43.2773 23.4102C43.7604 22.7812 44.4326 22.4668 45.2939 22.4668C46.1598 22.4668 46.807 22.7425 47.2354 23.2939C47.6637 23.8454 47.8825 24.7044 47.8916 25.8711V26.6641H43.7627V26.835C43.7627 27.6279 43.9108 28.2044 44.207 28.5645C44.5078 28.9245 44.9385 29.1045 45.499 29.1045C45.8545 29.1045 46.1667 29.0384 46.4355 28.9062C46.709 28.7695 46.9642 28.5553 47.2012 28.2637L47.8301 29.0293C47.306 29.7676 46.5062 30.1367 45.4307 30.1367ZM45.2939 23.5059C44.7926 23.5059 44.4212 23.679 44.1797 24.0254C43.9382 24.3672 43.8014 24.9004 43.7695 25.625H46.6816V25.4609C46.6497 24.7591 46.5221 24.2578 46.2988 23.957C46.0801 23.6562 45.7451 23.5059 45.2939 23.5059ZM52.4033 23.7383C52.2347 23.7064 52.0524 23.6904 51.8564 23.6904C51.2367 23.6904 50.8037 24.0299 50.5576 24.709V30H49.3477V22.6035H50.5234L50.5439 23.3555C50.8675 22.763 51.3255 22.4668 51.918 22.4668C52.1094 22.4668 52.2689 22.4987 52.3965 22.5625L52.4033 23.7383ZM58.6104 20.0469L61.208 28.168L63.8057 20.0469H65.4189V30H64.168V26.124L64.2842 22.2412L61.6797 30H60.7227L58.1318 22.2686L58.248 26.124V30H56.9971V20.0469H58.6104ZM71.2158 30C71.1429 29.8405 71.0905 29.5716 71.0586 29.1934C70.6302 29.8223 70.0833 30.1367 69.418 30.1367C68.748 30.1367 68.224 29.9499 67.8457 29.5762C67.472 29.1979 67.2852 28.667 67.2852 27.9834C67.2852 27.2314 67.5404 26.6344 68.0508 26.1924C68.5612 25.7503 69.2607 25.5247 70.1494 25.5156H71.0381V24.7295C71.0381 24.2874 70.9401 23.973 70.7441 23.7861C70.5482 23.5993 70.2497 23.5059 69.8486 23.5059C69.484 23.5059 69.1878 23.6152 68.96 23.834C68.7321 24.0482 68.6182 24.3216 68.6182 24.6543H67.4082C67.4082 24.276 67.5199 23.916 67.7432 23.5742C67.9665 23.2279 68.2673 22.9567 68.6455 22.7607C69.0238 22.5648 69.4453 22.4668 69.9102 22.4668C70.6667 22.4668 71.2409 22.6559 71.6328 23.0342C72.0293 23.4079 72.2321 23.9548 72.2412 24.6748V28.4072C72.2458 28.9769 72.3232 29.4714 72.4736 29.8906V30H71.2158ZM69.6025 29.0361C69.8988 29.0361 70.1813 28.9541 70.4502 28.79C70.7191 28.626 70.915 28.4209 71.0381 28.1748V26.4111H70.3545C69.7803 26.4202 69.3268 26.5501 68.9941 26.8008C68.6615 27.0469 68.4951 27.3932 68.4951 27.8398C68.4951 28.2591 68.5794 28.5645 68.748 28.7559C68.9167 28.9427 69.2015 29.0361 69.6025 29.0361ZM77.1768 23.7383C77.0081 23.7064 76.8258 23.6904 76.6299 23.6904C76.0101 23.6904 75.5771 24.0299 75.3311 24.709V30H74.1211V22.6035H75.2969L75.3174 23.3555C75.641 22.763 76.099 22.4668 76.6914 22.4668C76.8828 22.4668 77.0423 22.4987 77.1699 22.5625L77.1768 23.7383ZM80.2461 26.6162L79.6035 27.3545V30H78.3936V19.5H79.6035V25.7822L81.9072 22.6035H83.3564L81.0049 25.6934L83.6641 30H82.2559L80.2461 26.6162ZM87.2119 30.1367C86.2913 30.1367 85.585 29.8633 85.0928 29.3164C84.6006 28.765 84.3499 27.9583 84.3408 26.8965V26.001C84.3408 24.8981 84.5801 24.0345 85.0586 23.4102C85.5417 22.7812 86.2139 22.4668 87.0752 22.4668C87.9411 22.4668 88.5882 22.7425 89.0166 23.2939C89.445 23.8454 89.6637 24.7044 89.6729 25.8711V26.6641H85.5439V26.835C85.5439 27.6279 85.6921 28.2044 85.9883 28.5645C86.2891 28.9245 86.7197 29.1045 87.2803 29.1045C87.6357 29.1045 87.9479 29.0384 88.2168 28.9062C88.4902 28.7695 88.7454 28.5553 88.9824 28.2637L89.6113 29.0293C89.0872 29.7676 88.2874 30.1367 87.2119 30.1367ZM87.0752 23.5059C86.5739 23.5059 86.2025 23.679 85.9609 24.0254C85.7194 24.3672 85.5827 24.9004 85.5508 25.625H88.4629V25.4609C88.431 24.7591 88.3034 24.2578 88.0801 23.957C87.8613 23.6562 87.5264 23.5059 87.0752 23.5059ZM92.7148 20.8125V22.6035H93.8291V23.5811H92.7148V28.168C92.7148 28.4596 92.7627 28.6807 92.8584 28.8311C92.9541 28.9814 93.1182 29.0566 93.3506 29.0566C93.5101 29.0566 93.6719 29.0293 93.8359 28.9746L93.8223 30C93.5488 30.0911 93.2686 30.1367 92.9814 30.1367C92.5029 30.1367 92.1383 29.9658 91.8877 29.624C91.637 29.2822 91.5117 28.7992 91.5117 28.1748V23.5811H90.3838V22.6035H91.5117V20.8125H92.7148ZM100.617 26.6572C100.617 27.8285 100.405 28.7012 99.9814 29.2754C99.5622 29.8496 98.9674 30.1367 98.1973 30.1367C97.4544 30.1367 96.8825 29.8564 96.4814 29.2959V32.8438H95.2783V22.6035H96.3721L96.4336 23.4238C96.8392 22.7858 97.4202 22.4668 98.1768 22.4668C98.988 22.4668 99.5941 22.7493 99.9951 23.3145C100.396 23.8796 100.604 24.7249 100.617 25.8506V26.6572ZM99.4141 25.9668C99.4141 25.1374 99.2865 24.5267 99.0312 24.1348C98.776 23.7383 98.3659 23.54 97.8008 23.54C97.222 23.54 96.7822 23.8294 96.4814 24.4082V28.2568C96.7777 28.8219 97.222 29.1045 97.8145 29.1045C98.3613 29.1045 98.7624 28.9085 99.0176 28.5166C99.2773 28.1201 99.4095 27.5163 99.4141 26.7051V25.9668ZM103.481 30H102.271V19.5H103.481V30ZM109.196 30C109.123 29.8405 109.071 29.5716 109.039 29.1934C108.611 29.8223 108.064 30.1367 107.398 30.1367C106.729 30.1367 106.204 29.9499 105.826 29.5762C105.452 29.1979 105.266 28.667 105.266 27.9834C105.266 27.2314 105.521 26.6344 106.031 26.1924C106.542 25.7503 107.241 25.5247 108.13 25.5156H109.019V24.7295C109.019 24.2874 108.921 23.973 108.725 23.7861C108.529 23.5993 108.23 23.5059 107.829 23.5059C107.465 23.5059 107.168 23.6152 106.94 23.834C106.713 24.0482 106.599 24.3216 106.599 24.6543H105.389C105.389 24.276 105.5 23.916 105.724 23.5742C105.947 23.2279 106.248 22.9567 106.626 22.7607C107.004 22.5648 107.426 22.4668 107.891 22.4668C108.647 22.4668 109.221 22.6559 109.613 23.0342C110.01 23.4079 110.213 23.9548 110.222 24.6748V28.4072C110.226 28.9769 110.304 29.4714 110.454 29.8906V30H109.196ZM107.583 29.0361C107.879 29.0361 108.162 28.9541 108.431 28.79C108.7 28.626 108.896 28.4209 109.019 28.1748V26.4111H108.335C107.761 26.4202 107.307 26.5501 106.975 26.8008C106.642 27.0469 106.476 27.3932 106.476 27.8398C106.476 28.2591 106.56 28.5645 106.729 28.7559C106.897 28.9427 107.182 29.0361 107.583 29.0361ZM114.672 29.1045C115.073 29.1045 115.394 28.9814 115.636 28.7354C115.877 28.4847 116.009 28.1292 116.032 27.6689H117.174C117.146 28.3799 116.894 28.9701 116.415 29.4395C115.941 29.9043 115.36 30.1367 114.672 30.1367C113.756 30.1367 113.056 29.8496 112.573 29.2754C112.095 28.6966 111.855 27.8376 111.855 26.6982V25.8848C111.855 24.7682 112.095 23.9206 112.573 23.3418C113.052 22.7585 113.749 22.4668 114.665 22.4668C115.422 22.4668 116.021 22.7061 116.463 23.1846C116.91 23.6631 117.146 24.3171 117.174 25.1465H116.032C116.005 24.5996 115.873 24.1895 115.636 23.916C115.403 23.6426 115.08 23.5059 114.665 23.5059C114.127 23.5059 113.729 23.6836 113.469 24.0391C113.209 24.39 113.075 24.9688 113.065 25.7754V26.7188C113.065 27.5892 113.193 28.2044 113.448 28.5645C113.708 28.9245 114.116 29.1045 114.672 29.1045ZM121.214 30.1367C120.293 30.1367 119.587 29.8633 119.095 29.3164C118.603 28.765 118.352 27.9583 118.343 26.8965V26.001C118.343 24.8981 118.582 24.0345 119.061 23.4102C119.544 22.7812 120.216 22.4668 121.077 22.4668C121.943 22.4668 122.59 22.7425 123.019 23.2939C123.447 23.8454 123.666 24.7044 123.675 25.8711V26.6641H119.546V26.835C119.546 27.6279 119.694 28.2044 119.99 28.5645C120.291 28.9245 120.722 29.1045 121.282 29.1045C121.638 29.1045 121.95 29.0384 122.219 28.9062C122.492 28.7695 122.747 28.5553 122.984 28.2637L123.613 29.0293C123.089 29.7676 122.289 30.1367 121.214 30.1367ZM121.077 23.5059C120.576 23.5059 120.204 23.679 119.963 24.0254C119.721 24.3672 119.585 24.9004 119.553 25.625H122.465V25.4609C122.433 24.7591 122.305 24.2578 122.082 23.957C121.863 23.6562 121.528 23.5059 121.077 23.5059Z" fill="white"/>
<rect y="70.5532" width="140.667" height="24.2529" rx="12.1264" fill="white" fill-opacity="0.04"/>
<rect y="109.777" width="140.667" height="24.2529" rx="12.1264" fill="white" fill-opacity="0.02"/>
<defs>
<filter id="filter0_b" x="-34" y="-34" width="293" height="118" filterUnits="userSpaceOnUse" color-interpolation-filters="sRGB">
<feFlood flood-opacity="0" result="BackgroundImageFix"/>
<feGaussianBlur in="BackgroundImage" stdDeviation="17"/>
<feComposite in2="SourceAlpha" operator="in" result="effect1_backgroundBlur"/>
<feBlend mode="normal" in="SourceGraphic" in2="effect1_backgroundBlur" result="shape"/>
</filter>
</defs>
</svg>
