<svg width="228" height="72" viewBox="0 0 228 72" fill="none" xmlns="http://www.w3.org/2000/svg">
<path d="M6.37012 8.55273C6.37012 8.96289 6.29948 9.32975 6.1582 9.65332C6.02148 9.97233 5.83236 10.2435 5.59082 10.4668C5.35384 10.6901 5.06901 10.861 4.73633 10.9795C4.4082 11.098 4.05729 11.1572 3.68359 11.1572C3.26432 11.1572 2.88607 11.082 2.54883 10.9316C2.21159 10.7812 1.9222 10.5329 1.68066 10.1865V11H0.40918V8.08789H1.68066C1.68066 8.37956 1.73079 8.63704 1.83105 8.86035C1.93587 9.08366 2.07259 9.27279 2.24121 9.42773C2.40983 9.57812 2.60579 9.69434 2.8291 9.77637C3.05241 9.85384 3.28939 9.89258 3.54004 9.89258C3.96387 9.89258 4.30566 9.7946 4.56543 9.59863C4.8252 9.40267 4.95508 9.09049 4.95508 8.66211C4.95508 8.4388 4.91406 8.2474 4.83203 8.08789C4.75456 7.92839 4.64062 7.78711 4.49023 7.66406C4.3444 7.53646 4.16439 7.42708 3.9502 7.33594C3.736 7.24023 3.49219 7.13997 3.21875 7.03516C2.89518 6.92578 2.57161 6.80273 2.24805 6.66602C1.92448 6.5293 1.63509 6.36068 1.37988 6.16016C1.12467 5.95964 0.917318 5.71354 0.757812 5.42188C0.598307 5.12565 0.518555 4.75423 0.518555 4.30762C0.518555 3.91569 0.589193 3.57389 0.730469 3.28223C0.876302 2.986 1.06771 2.73763 1.30469 2.53711C1.54622 2.33659 1.82422 2.1862 2.13867 2.08594C2.45768 1.98112 2.79492 1.92871 3.15039 1.92871C3.56055 1.92871 3.91146 2.0153 4.20312 2.18848C4.49935 2.36165 4.72721 2.5918 4.88672 2.87891V2.0791H6.1582V4.85449H4.88672C4.88672 4.3304 4.74772 3.92253 4.46973 3.63086C4.19629 3.33464 3.82715 3.18652 3.3623 3.18652C2.95215 3.18652 2.61035 3.28223 2.33691 3.47363C2.06803 3.66504 1.93359 3.93392 1.93359 4.28027C1.93359 4.45801 1.96777 4.61068 2.03613 4.73828C2.10905 4.86133 2.21159 4.97526 2.34375 5.08008C2.48047 5.18034 2.65137 5.27604 2.85645 5.36719C3.06152 5.45378 3.2985 5.54948 3.56738 5.6543C3.90462 5.77279 4.23958 5.90723 4.57227 6.05762C4.90495 6.20801 5.20345 6.39258 5.46777 6.61133C5.7321 6.83008 5.94857 7.09668 6.11719 7.41113C6.28581 7.72103 6.37012 8.10156 6.37012 8.55273ZM14.3066 8.96973C14.2337 9.63965 13.9694 10.1729 13.5137 10.5693C13.0625 10.9613 12.4974 11.1572 11.8184 11.1572C11.4447 11.1572 11.1029 11.0957 10.793 10.9727C10.4831 10.8496 10.2188 10.6787 10 10.46C9.78125 10.2412 9.61035 9.97917 9.4873 9.67383C9.36882 9.36393 9.30957 9.02669 9.30957 8.66211V5.90723H7.86719V4.62891H9.30957V2.0791H10.7246V4.62891H13.3975V5.90723H10.7246V8.66211C10.7246 9.07227 10.8249 9.3776 11.0254 9.57812C11.2259 9.77865 11.4902 9.87891 11.8184 9.87891C12.2194 9.87891 12.5179 9.7627 12.7139 9.53027C12.9098 9.29785 13.026 9.01758 13.0625 8.68945L14.3066 8.96973ZM15.4824 9.16797C15.4824 8.79427 15.5827 8.46842 15.7832 8.19043C15.9837 7.90788 16.2458 7.67318 16.5693 7.48633C16.8975 7.29948 17.2712 7.16048 17.6904 7.06934C18.1143 6.97363 18.5449 6.92578 18.9824 6.92578C19.224 6.92578 19.4313 6.93034 19.6045 6.93945C19.7777 6.94857 19.9531 6.96224 20.1309 6.98047V6.72754C20.1309 6.39486 20.001 6.14648 19.7412 5.98242C19.486 5.81836 19.1488 5.73633 18.7295 5.73633C18.3467 5.73633 17.957 5.79102 17.5605 5.90039C17.1641 6.00521 16.7881 6.16016 16.4326 6.36523L15.8584 5.25781C16.2777 5.01628 16.7266 4.82715 17.2051 4.69043C17.6882 4.54915 18.1963 4.47852 18.7295 4.47852C19.0758 4.47852 19.4154 4.51725 19.748 4.59473C20.0853 4.6722 20.3861 4.7998 20.6504 4.97754C20.9193 5.15527 21.1335 5.3877 21.293 5.6748C21.4525 5.95736 21.5322 6.30827 21.5322 6.72754V11H20.1309V10.0635C19.9076 10.4098 19.5771 10.6787 19.1396 10.8701C18.7067 11.0615 18.2396 11.1572 17.7383 11.1572C17.4284 11.1572 17.1344 11.1139 16.8564 11.0273C16.583 10.9453 16.346 10.82 16.1455 10.6514C15.945 10.4827 15.7832 10.2754 15.6602 10.0293C15.5417 9.77865 15.4824 9.49154 15.4824 9.16797ZM18.1006 9.89258C18.3786 9.89258 18.6383 9.8584 18.8799 9.79004C19.126 9.71712 19.3424 9.61914 19.5293 9.49609C19.7161 9.36849 19.862 9.21582 19.9668 9.03809C20.0762 8.86035 20.1309 8.66439 20.1309 8.4502V8.21094C19.9076 8.17448 19.6979 8.15397 19.502 8.14941C19.306 8.14486 19.1328 8.14258 18.9824 8.14258C18.2897 8.14258 17.7656 8.23372 17.4102 8.41602C17.0592 8.59831 16.8838 8.82389 16.8838 9.09277C16.8838 9.62598 17.2894 9.89258 18.1006 9.89258ZM29.5098 11H27.6777L25.5449 8.42285L24.9023 9.0791V11H23.4873V2.0791H24.9023V7.3291L27.4521 4.62891H29.3936L26.4541 7.55469L29.5098 11ZM34.8418 3.80176H33.1191V2.0791H34.8418V3.80176ZM36.1406 11H31.8613V9.72852H33.2695V5.90723H31.8613V4.62891H34.6846V9.72852H36.1406V11ZM44.4736 11H43.0586V7.06934C43.0586 6.57259 42.9652 6.22852 42.7783 6.03711C42.5915 5.8457 42.3203 5.75 41.9648 5.75C41.4408 5.75 41.0124 5.96191 40.6797 6.38574C40.3516 6.80957 40.1875 7.39518 40.1875 8.14258V11H38.7725V4.62891H40.1875V6.22852C40.3288 5.67708 40.5908 5.2487 40.9736 4.94336C41.3564 4.63346 41.8281 4.47852 42.3887 4.47852C43.0404 4.47852 43.5508 4.69043 43.9199 5.11426C44.2891 5.53809 44.4736 6.18978 44.4736 7.06934V11ZM52.1162 10.9316C52.1162 11.3691 52.041 11.7588 51.8906 12.1006C51.7402 12.4424 51.5283 12.7318 51.2549 12.9688C50.986 13.2057 50.667 13.3857 50.2979 13.5088C49.9333 13.6364 49.5254 13.7002 49.0742 13.7002C47.9668 13.7002 47.0212 13.3652 46.2373 12.6953L46.9072 11.6016C47.5589 12.1621 48.2812 12.4424 49.0742 12.4424C49.5618 12.4424 49.9538 12.3216 50.25 12.0801C50.5508 11.8431 50.7012 11.4694 50.7012 10.959V10.2754C50.4095 10.526 50.1292 10.7129 49.8604 10.8359C49.5915 10.9544 49.2793 11.0137 48.9238 11.0137C48.5137 11.0137 48.1331 10.9271 47.7822 10.7539C47.4313 10.5807 47.1283 10.346 46.873 10.0498C46.6224 9.74902 46.4242 9.40039 46.2783 9.00391C46.137 8.60742 46.0664 8.18587 46.0664 7.73926C46.0664 7.29264 46.137 6.87109 46.2783 6.47461C46.4242 6.07357 46.6224 5.72721 46.873 5.43555C47.1283 5.13932 47.4313 4.9069 47.7822 4.73828C48.1331 4.5651 48.5137 4.47852 48.9238 4.47852C49.2793 4.47852 49.596 4.54004 49.874 4.66309C50.152 4.78158 50.4277 4.96159 50.7012 5.20312V4.62891H52.1162V10.9316ZM50.7012 6.32422C50.5326 6.13737 50.3138 5.99609 50.0449 5.90039C49.7806 5.80013 49.5231 5.75 49.2725 5.75C48.7393 5.75 48.3063 5.93685 47.9736 6.31055C47.6455 6.68424 47.4814 7.16048 47.4814 7.73926C47.4814 8.02637 47.5247 8.29297 47.6113 8.53906C47.7025 8.7806 47.8255 8.99023 47.9805 9.16797C48.14 9.3457 48.3291 9.48698 48.5479 9.5918C48.7712 9.69206 49.0127 9.74219 49.2725 9.74219C49.5231 9.74219 49.7806 9.69206 50.0449 9.5918C50.3138 9.48698 50.5326 9.34115 50.7012 9.1543V6.32422ZM67.7363 4.74512C67.7363 5.63835 67.4652 6.30371 66.9229 6.74121C66.3805 7.17415 65.624 7.39062 64.6533 7.39062H63.1152V11H61.7002V2.0791H64.6396C65.6195 2.0791 66.3805 2.30469 66.9229 2.75586C67.4652 3.20247 67.7363 3.86556 67.7363 4.74512ZM66.3213 4.72461C66.3213 4.26888 66.1709 3.92708 65.8701 3.69922C65.5739 3.47135 65.1683 3.35742 64.6533 3.35742H63.1152V6.1123H64.6533C65.1683 6.1123 65.5739 5.99837 65.8701 5.77051C66.1709 5.54264 66.3213 5.19401 66.3213 4.72461ZM75.543 7.82129C75.543 8.31803 75.4632 8.76921 75.3037 9.1748C75.1488 9.5804 74.9232 9.93132 74.627 10.2275C74.3353 10.5192 73.9844 10.7471 73.5742 10.9111C73.1641 11.0752 72.7061 11.1572 72.2002 11.1572C71.7035 11.1572 71.25 11.0752 70.8398 10.9111C70.4297 10.7471 70.0765 10.5192 69.7803 10.2275C69.4886 9.93132 69.263 9.5804 69.1035 9.1748C68.9486 8.76921 68.8711 8.31803 68.8711 7.82129C68.8711 7.33822 68.9486 6.8916 69.1035 6.48145C69.263 6.06673 69.4886 5.71126 69.7803 5.41504C70.0765 5.11426 70.4297 4.88411 70.8398 4.72461C71.25 4.56055 71.7035 4.47852 72.2002 4.47852C72.7061 4.47852 73.1641 4.56055 73.5742 4.72461C73.9844 4.88411 74.3353 5.11426 74.627 5.41504C74.9232 5.71126 75.1488 6.06673 75.3037 6.48145C75.4632 6.8916 75.543 7.33822 75.543 7.82129ZM74.1348 7.82129C74.1348 7.53418 74.0892 7.26302 73.998 7.00781C73.9115 6.74805 73.7839 6.52702 73.6152 6.34473C73.4466 6.16243 73.2415 6.01888 73 5.91406C72.763 5.80469 72.4964 5.75 72.2002 5.75C71.8994 5.75 71.6305 5.80469 71.3936 5.91406C71.1566 6.01888 70.9561 6.16243 70.792 6.34473C70.6279 6.52702 70.5003 6.74805 70.4092 7.00781C70.3226 7.26302 70.2793 7.53418 70.2793 7.82129C70.2793 8.12207 70.3226 8.39551 70.4092 8.6416C70.5003 8.8877 70.6279 9.10417 70.792 9.29102C70.9561 9.47786 71.1566 9.6237 71.3936 9.72852C71.6305 9.82878 71.8994 9.87891 72.2002 9.87891C72.4964 9.87891 72.763 9.82878 73 9.72852C73.2415 9.6237 73.4466 9.47786 73.6152 9.29102C73.7839 9.10417 73.9115 8.8877 73.998 8.6416C74.0892 8.39551 74.1348 8.12207 74.1348 7.82129ZM83.1855 7.82129C83.1855 8.31803 83.1058 8.76921 82.9463 9.1748C82.7913 9.5804 82.5658 9.93132 82.2695 10.2275C81.9779 10.5192 81.627 10.7471 81.2168 10.9111C80.8066 11.0752 80.3486 11.1572 79.8428 11.1572C79.346 11.1572 78.8926 11.0752 78.4824 10.9111C78.0723 10.7471 77.7191 10.5192 77.4229 10.2275C77.1312 9.93132 76.9056 9.5804 76.7461 9.1748C76.5911 8.76921 76.5137 8.31803 76.5137 7.82129C76.5137 7.33822 76.5911 6.8916 76.7461 6.48145C76.9056 6.06673 77.1312 5.71126 77.4229 5.41504C77.7191 5.11426 78.0723 4.88411 78.4824 4.72461C78.8926 4.56055 79.346 4.47852 79.8428 4.47852C80.3486 4.47852 80.8066 4.56055 81.2168 4.72461C81.627 4.88411 81.9779 5.11426 82.2695 5.41504C82.5658 5.71126 82.7913 6.06673 82.9463 6.48145C83.1058 6.8916 83.1855 7.33822 83.1855 7.82129ZM81.7773 7.82129C81.7773 7.53418 81.7318 7.26302 81.6406 7.00781C81.554 6.74805 81.4264 6.52702 81.2578 6.34473C81.0892 6.16243 80.8841 6.01888 80.6426 5.91406C80.4056 5.80469 80.139 5.75 79.8428 5.75C79.542 5.75 79.2731 5.80469 79.0361 5.91406C78.7992 6.01888 78.5986 6.16243 78.4346 6.34473C78.2705 6.52702 78.1429 6.74805 78.0518 7.00781C77.9652 7.26302 77.9219 7.53418 77.9219 7.82129C77.9219 8.12207 77.9652 8.39551 78.0518 8.6416C78.1429 8.8877 78.2705 9.10417 78.4346 9.29102C78.5986 9.47786 78.7992 9.6237 79.0361 9.72852C79.2731 9.82878 79.542 9.87891 79.8428 9.87891C80.139 9.87891 80.4056 9.82878 80.6426 9.72852C80.8841 9.6237 81.0892 9.47786 81.2578 9.29102C81.4264 9.10417 81.554 8.8877 81.6406 8.6416C81.7318 8.39551 81.7773 8.12207 81.7773 7.82129ZM89.6523 11H85.373V9.72852H86.7676V3.35742H85.373V2.0791H88.1826V9.72852H89.6523V11ZM98.1357 9.09277C98.1357 9.50749 98.0423 9.84473 97.8555 10.1045C97.6686 10.3643 97.4271 10.5739 97.1309 10.7334C96.8392 10.8929 96.5111 11.0023 96.1465 11.0615C95.7865 11.1253 95.4333 11.1572 95.0869 11.1572C94.5081 11.1572 93.9316 11.0729 93.3574 10.9043C92.7832 10.7357 92.2865 10.5146 91.8672 10.2412L92.4551 9.0791C92.9564 9.37077 93.4144 9.57812 93.8291 9.70117C94.2484 9.81966 94.6676 9.87891 95.0869 9.87891C95.6566 9.87891 96.0713 9.81966 96.3311 9.70117C96.5908 9.57812 96.7207 9.40951 96.7207 9.19531C96.7207 9.09049 96.6842 9.00391 96.6113 8.93555C96.5384 8.86719 96.4176 8.80566 96.249 8.75098C96.0804 8.69173 95.8571 8.63477 95.5791 8.58008C95.3057 8.52083 94.9639 8.45931 94.5537 8.39551C94.2256 8.34082 93.9134 8.27474 93.6172 8.19727C93.3255 8.11523 93.068 8.0013 92.8447 7.85547C92.6214 7.70964 92.4414 7.52507 92.3047 7.30176C92.1725 7.07845 92.1064 6.79818 92.1064 6.46094C92.1064 6.11914 92.193 5.82292 92.3662 5.57227C92.5439 5.31706 92.7741 5.10742 93.0566 4.94336C93.3438 4.7793 93.665 4.66081 94.0205 4.58789C94.376 4.51497 94.7314 4.47852 95.0869 4.47852C95.5882 4.47852 96.0736 4.5446 96.543 4.67676C97.0169 4.80436 97.4316 4.98893 97.7871 5.23047L97.2266 6.32422C96.8711 6.10091 96.5247 5.95052 96.1875 5.87305C95.8548 5.79102 95.488 5.75 95.0869 5.75C94.9183 5.75 94.7428 5.75911 94.5605 5.77734C94.3783 5.79557 94.2096 5.83203 94.0547 5.88672C93.8997 5.93685 93.7699 6.00749 93.665 6.09863C93.5648 6.18522 93.5146 6.29232 93.5146 6.41992C93.5146 6.58854 93.6628 6.72754 93.959 6.83691C94.2598 6.94173 94.7702 7.04655 95.4902 7.15137C95.8822 7.20605 96.2399 7.27669 96.5635 7.36328C96.887 7.44531 97.165 7.55924 97.3975 7.70508C97.6299 7.84635 97.8099 8.03092 97.9375 8.25879C98.0697 8.4821 98.1357 8.76009 98.1357 9.09277ZM103.625 6.35156H101.902V4.62891H103.625V6.35156ZM103.625 11H101.902V9.27734H103.625V11Z" fill="white"/>
<g filter="url(#filter0_b)">
<path d="M119.225 34C119.225 29.5817 123.254 26 128.225 26H218.225C223.195 26 227.225 29.5817 227.225 34V64C227.225 68.4183 223.195 72 218.225 72H128.225C123.254 72 119.225 68.4183 119.225 64V34Z" fill="white" fill-opacity="0.1"/>
</g>
<g filter="url(#filter1_b)">
<path d="M2.22461 34C2.22461 29.5817 6.25405 26 11.2246 26H101.225C106.195 26 110.225 29.5817 110.225 34V64C110.225 68.4183 106.195 72 101.225 72H11.2246C6.25404 72 2.22461 68.4183 2.22461 64V34Z" fill="white" fill-opacity="0.1"/>
</g>
<path d="M37.7676 51.4365C37.7676 51.0218 37.6536 50.6732 37.4258 50.3906C37.1979 50.1035 36.806 49.8392 36.25 49.5977C35.4342 49.3014 34.8395 48.9163 34.4658 48.4424C34.0921 47.9639 33.9053 47.3577 33.9053 46.624C33.9053 45.8766 34.0853 45.2682 34.4453 44.7988C34.8099 44.3249 35.3044 44.0378 35.9287 43.9375V42.4336H36.8926V43.9443C37.5306 44.0583 38.0228 44.3841 38.3691 44.9219C38.7201 45.4551 38.8955 46.1842 38.8955 47.1094H37.6992C37.6992 46.4759 37.583 45.9678 37.3506 45.585C37.1182 45.2021 36.7992 45.0107 36.3936 45.0107C35.988 45.0107 35.6712 45.1497 35.4434 45.4277C35.2201 45.7057 35.1084 46.0977 35.1084 46.6035C35.1084 47.0638 35.2292 47.4329 35.4707 47.7109C35.7168 47.9844 36.1156 48.2373 36.667 48.4697C37.4919 48.7796 38.082 49.167 38.4375 49.6318C38.7975 50.0921 38.9775 50.6891 38.9775 51.4229C38.9775 52.1702 38.7861 52.7809 38.4033 53.2549C38.0205 53.7288 37.4714 54.0137 36.7559 54.1094V55.4219H35.8057V54.1094C35.0856 54.0046 34.5342 53.6901 34.1514 53.166C33.7686 52.6419 33.5771 51.9424 33.5771 51.0674H34.7803C34.7803 51.7008 34.9079 52.1885 35.1631 52.5303C35.4183 52.8721 35.7783 53.043 36.2432 53.043C36.7171 53.043 37.0885 52.9017 37.3574 52.6191C37.6309 52.332 37.7676 51.9378 37.7676 51.4365ZM40.8096 54V44.0469H43.6465C44.5534 44.0469 45.2347 44.2679 45.6904 44.71C46.1507 45.152 46.3809 45.8151 46.3809 46.6992C46.3809 47.1641 46.2646 47.5742 46.0322 47.9297C45.7998 48.2852 45.4854 48.5609 45.0889 48.7568C45.5446 48.8936 45.9046 49.1738 46.1689 49.5977C46.4378 50.0215 46.5723 50.5319 46.5723 51.1289C46.5723 52.0221 46.3262 52.724 45.834 53.2344C45.3464 53.7448 44.6491 54 43.7422 54H40.8096ZM42.0605 49.3447V52.9268H43.7695C44.2435 52.9268 44.6195 52.7718 44.8975 52.4619C45.1755 52.1475 45.3145 51.7077 45.3145 51.1426C45.3145 49.944 44.8086 49.3447 43.7969 49.3447H42.0605ZM42.0605 48.292H43.667C44.0999 48.292 44.4486 48.1462 44.7129 47.8545C44.9818 47.5628 45.1162 47.1755 45.1162 46.6924C45.1162 46.1455 44.9954 45.749 44.7539 45.5029C44.5124 45.2523 44.1432 45.127 43.6465 45.127H42.0605V48.292ZM54.9258 49.8984C54.9258 51.2565 54.6364 52.3024 54.0576 53.0361C53.4788 53.7699 52.6562 54.1367 51.5898 54.1367C50.5645 54.1367 49.7533 53.7812 49.1562 53.0703C48.5638 52.3548 48.2562 51.3454 48.2334 50.042V48.1689C48.2334 46.8382 48.5273 45.7969 49.1152 45.0449C49.7031 44.2884 50.5234 43.9102 51.5762 43.9102C52.6243 43.9102 53.4401 44.2725 54.0234 44.9971C54.6113 45.7171 54.9121 46.7471 54.9258 48.0869V49.8984ZM53.6748 48.1553C53.6748 47.1025 53.5016 46.321 53.1553 45.8105C52.8135 45.2956 52.2871 45.0381 51.5762 45.0381C50.888 45.0381 50.3662 45.2979 50.0107 45.8174C49.6598 46.3369 49.4821 47.1025 49.4775 48.1143V49.8984C49.4775 50.9147 49.653 51.6895 50.0039 52.2227C50.3594 52.7559 50.888 53.0225 51.5898 53.0225C52.2917 53.0225 52.8112 52.7764 53.1484 52.2842C53.4857 51.792 53.6611 51.0378 53.6748 50.0215V48.1553ZM63.3613 54H62.1035L58.1182 46.3301V54H56.8604V44.0469H58.1182L62.1172 51.751V44.0469H63.3613V54ZM71.4619 44.0469V51.1221C71.4528 52.0654 71.1794 52.8037 70.6416 53.3369C70.1038 53.8701 69.3542 54.1367 68.3926 54.1367C67.4082 54.1367 66.6562 53.877 66.1367 53.3574C65.6172 52.8333 65.3529 52.0882 65.3438 51.1221V44.0469H66.5879V51.0742C66.5879 51.7441 66.7292 52.2454 67.0117 52.5781C67.2988 52.9062 67.7591 53.0703 68.3926 53.0703C69.0306 53.0703 69.4909 52.9062 69.7734 52.5781C70.0605 52.2454 70.2041 51.7441 70.2041 51.0742V44.0469H71.4619ZM74.3262 52.9268H79.0498V54H72.9385V53.0156L77.4707 45.127H72.9863V44.0469H78.8652V45.0107L74.3262 52.9268Z" fill="white"/>
<path d="M134.171 51.4365C134.171 51.0218 134.057 50.6732 133.829 50.3906C133.601 50.1035 133.209 49.8392 132.653 49.5977C131.838 49.3014 131.243 48.9163 130.869 48.4424C130.495 47.9639 130.309 47.3577 130.309 46.624C130.309 45.8766 130.489 45.2682 130.849 44.7988C131.213 44.3249 131.708 44.0378 132.332 43.9375V42.4336H133.296V43.9443C133.934 44.0583 134.426 44.3841 134.772 44.9219C135.123 45.4551 135.299 46.1842 135.299 47.1094H134.103C134.103 46.4759 133.986 45.9678 133.754 45.585C133.521 45.2021 133.202 45.0107 132.797 45.0107C132.391 45.0107 132.075 45.1497 131.847 45.4277C131.623 45.7057 131.512 46.0977 131.512 46.6035C131.512 47.0638 131.632 47.4329 131.874 47.7109C132.12 47.9844 132.519 48.2373 133.07 48.4697C133.895 48.7796 134.485 49.167 134.841 49.6318C135.201 50.0921 135.381 50.6891 135.381 51.4229C135.381 52.1702 135.189 52.7809 134.807 53.2549C134.424 53.7288 133.875 54.0137 133.159 54.1094V55.4219H132.209V54.1094C131.489 54.0046 130.938 53.6901 130.555 53.166C130.172 52.6419 129.98 51.9424 129.98 51.0674H131.184C131.184 51.7008 131.311 52.1885 131.566 52.5303C131.822 52.8721 132.182 53.043 132.646 53.043C133.12 53.043 133.492 52.9017 133.761 52.6191C134.034 52.332 134.171 51.9378 134.171 51.4365ZM137.213 54V44.0469H140.05C140.957 44.0469 141.638 44.2679 142.094 44.71C142.554 45.152 142.784 45.8151 142.784 46.6992C142.784 47.1641 142.668 47.5742 142.436 47.9297C142.203 48.2852 141.889 48.5609 141.492 48.7568C141.948 48.8936 142.308 49.1738 142.572 49.5977C142.841 50.0215 142.976 50.5319 142.976 51.1289C142.976 52.0221 142.729 52.724 142.237 53.2344C141.75 53.7448 141.052 54 140.146 54H137.213ZM138.464 49.3447V52.9268H140.173C140.647 52.9268 141.023 52.7718 141.301 52.4619C141.579 52.1475 141.718 51.7077 141.718 51.1426C141.718 49.944 141.212 49.3447 140.2 49.3447H138.464ZM138.464 48.292H140.07C140.503 48.292 140.852 48.1462 141.116 47.8545C141.385 47.5628 141.52 47.1755 141.52 46.6924C141.52 46.1455 141.399 45.749 141.157 45.5029C140.916 45.2523 140.547 45.127 140.05 45.127H138.464V48.292ZM151.329 49.8984C151.329 51.2565 151.04 52.3024 150.461 53.0361C149.882 53.7699 149.06 54.1367 147.993 54.1367C146.968 54.1367 146.157 53.7812 145.56 53.0703C144.967 52.3548 144.66 51.3454 144.637 50.042V48.1689C144.637 46.8382 144.931 45.7969 145.519 45.0449C146.106 44.2884 146.927 43.9102 147.979 43.9102C149.028 43.9102 149.843 44.2725 150.427 44.9971C151.015 45.7171 151.315 46.7471 151.329 48.0869V49.8984ZM150.078 48.1553C150.078 47.1025 149.905 46.321 149.559 45.8105C149.217 45.2956 148.69 45.0381 147.979 45.0381C147.291 45.0381 146.77 45.2979 146.414 45.8174C146.063 46.3369 145.885 47.1025 145.881 48.1143V49.8984C145.881 50.9147 146.056 51.6895 146.407 52.2227C146.763 52.7559 147.291 53.0225 147.993 53.0225C148.695 53.0225 149.215 52.7764 149.552 52.2842C149.889 51.792 150.064 51.0378 150.078 50.0215V48.1553ZM159.765 54H158.507L154.521 46.3301V54H153.264V44.0469H154.521L158.521 51.751V44.0469H159.765V54ZM167.865 44.0469V51.1221C167.856 52.0654 167.583 52.8037 167.045 53.3369C166.507 53.8701 165.757 54.1367 164.796 54.1367C163.812 54.1367 163.06 53.877 162.54 53.3574C162.021 52.8333 161.756 52.0882 161.747 51.1221V44.0469H162.991V51.0742C162.991 51.7441 163.132 52.2454 163.415 52.5781C163.702 52.9062 164.162 53.0703 164.796 53.0703C165.434 53.0703 165.894 52.9062 166.177 52.5781C166.464 52.2454 166.607 51.7441 166.607 51.0742V44.0469H167.865ZM170.729 52.9268H175.453V54H169.342V53.0156L173.874 45.127H169.39V44.0469H175.269V45.0107L170.729 52.9268ZM184.196 51.4365C184.196 51.0218 184.082 50.6732 183.854 50.3906C183.627 50.1035 183.235 49.8392 182.679 49.5977C181.863 49.3014 181.268 48.9163 180.895 48.4424C180.521 47.9639 180.334 47.3577 180.334 46.624C180.334 45.8766 180.514 45.2682 180.874 44.7988C181.239 44.3249 181.733 44.0378 182.357 43.9375V42.4336H183.321V43.9443C183.959 44.0583 184.451 44.3841 184.798 44.9219C185.149 45.4551 185.324 46.1842 185.324 47.1094H184.128C184.128 46.4759 184.012 45.9678 183.779 45.585C183.547 45.2021 183.228 45.0107 182.822 45.0107C182.417 45.0107 182.1 45.1497 181.872 45.4277C181.649 45.7057 181.537 46.0977 181.537 46.6035C181.537 47.0638 181.658 47.4329 181.899 47.7109C182.146 47.9844 182.544 48.2373 183.096 48.4697C183.921 48.7796 184.511 49.167 184.866 49.6318C185.226 50.0921 185.406 50.6891 185.406 51.4229C185.406 52.1702 185.215 52.7809 184.832 53.2549C184.449 53.7288 183.9 54.0137 183.185 54.1094V55.4219H182.234V54.1094C181.514 54.0046 180.963 53.6901 180.58 53.166C180.197 52.6419 180.006 51.9424 180.006 51.0674H181.209C181.209 51.7008 181.337 52.1885 181.592 52.5303C181.847 52.8721 182.207 53.043 182.672 53.043C183.146 53.043 183.517 52.9017 183.786 52.6191C184.06 52.332 184.196 51.9378 184.196 51.4365ZM193.172 44.0469V51.1221C193.163 52.0654 192.889 52.8037 192.352 53.3369C191.814 53.8701 191.064 54.1367 190.103 54.1367C189.118 54.1367 188.366 53.877 187.847 53.3574C187.327 52.8333 187.063 52.0882 187.054 51.1221V44.0469H188.298V51.0742C188.298 51.7441 188.439 52.2454 188.722 52.5781C189.009 52.9062 189.469 53.0703 190.103 53.0703C190.741 53.0703 191.201 52.9062 191.483 52.5781C191.771 52.2454 191.914 51.7441 191.914 51.0742V44.0469H193.172ZM199.447 51.4844C199.447 50.9876 199.313 50.6071 199.044 50.3428C198.775 50.0785 198.29 49.821 197.588 49.5703C196.886 49.3197 196.348 49.0576 195.975 48.7842C195.605 48.5062 195.327 48.1917 195.141 47.8408C194.958 47.4854 194.867 47.0798 194.867 46.624C194.867 45.8356 195.129 45.1862 195.653 44.6758C196.182 44.1654 196.872 43.9102 197.725 43.9102C198.308 43.9102 198.827 44.0423 199.283 44.3066C199.739 44.5664 200.09 44.9287 200.336 45.3936C200.582 45.8584 200.705 46.3688 200.705 46.9248H199.447C199.447 46.3096 199.299 45.8333 199.003 45.4961C198.707 45.1589 198.281 44.9902 197.725 44.9902C197.219 44.9902 196.827 45.1315 196.549 45.4141C196.271 45.6966 196.132 46.0931 196.132 46.6035C196.132 47.0228 196.282 47.3737 196.583 47.6562C196.884 47.9388 197.349 48.1917 197.978 48.415C198.957 48.7386 199.657 49.1374 200.076 49.6113C200.5 50.0853 200.712 50.7051 200.712 51.4707C200.712 52.2773 200.45 52.9245 199.926 53.4121C199.402 53.8952 198.688 54.1367 197.786 54.1367C197.207 54.1367 196.672 54.0114 196.18 53.7607C195.692 53.5055 195.307 53.1501 195.024 52.6943C194.746 52.234 194.607 51.7077 194.607 51.1152H195.865C195.865 51.7305 196.036 52.209 196.378 52.5508C196.724 52.8926 197.194 53.0635 197.786 53.0635C198.338 53.0635 198.752 52.9222 199.03 52.6396C199.308 52.3571 199.447 51.972 199.447 51.4844ZM202.359 54V44.0469H204.731C205.894 44.0469 206.796 44.4115 207.438 45.1406C208.081 45.8652 208.402 46.8861 208.402 48.2031V49.8711C208.402 51.1882 208.076 52.2067 207.425 52.9268C206.773 53.6423 205.827 54 204.588 54H202.359ZM203.61 45.127V52.9268H204.615C205.495 52.9268 206.137 52.6761 206.543 52.1748C206.949 51.6689 207.156 50.9215 207.165 49.9326V48.1689C207.165 47.1208 206.962 46.3529 206.557 45.8652C206.156 45.373 205.547 45.127 204.731 45.127H203.61ZM216.599 50.8418C216.544 51.9082 216.243 52.724 215.696 53.2891C215.154 53.8542 214.386 54.1367 213.393 54.1367C212.395 54.1367 211.602 53.7585 211.014 53.002C210.426 52.2409 210.132 51.2109 210.132 49.9121V48.1074C210.132 46.8132 210.433 45.79 211.034 45.0381C211.64 44.2861 212.465 43.9102 213.509 43.9102C214.47 43.9102 215.213 44.1995 215.737 44.7783C216.266 45.3525 216.553 46.1751 216.599 47.2461H215.334C215.279 46.4349 215.108 45.8561 214.821 45.5098C214.534 45.1634 214.097 44.9902 213.509 44.9902C212.83 44.9902 212.308 45.2568 211.943 45.79C211.579 46.3187 211.396 47.0957 211.396 48.1211V49.9463C211.396 50.9535 211.565 51.7259 211.902 52.2637C212.244 52.8014 212.741 53.0703 213.393 53.0703C214.044 53.0703 214.514 52.9085 214.801 52.585C215.088 52.2614 215.266 51.6803 215.334 50.8418H216.599Z" fill="white"/>
<defs>
<filter id="filter0_b" x="75.2246" y="-18" width="196" height="134" filterUnits="userSpaceOnUse" color-interpolation-filters="sRGB">
<feFlood flood-opacity="0" result="BackgroundImageFix"/>
<feGaussianBlur in="BackgroundImage" stdDeviation="22"/>
<feComposite in2="SourceAlpha" operator="in" result="effect1_backgroundBlur"/>
<feBlend mode="normal" in="SourceGraphic" in2="effect1_backgroundBlur" result="shape"/>
</filter>
<filter id="filter1_b" x="-41.7754" y="-18" width="196" height="134" filterUnits="userSpaceOnUse" color-interpolation-filters="sRGB">
<feFlood flood-opacity="0" result="BackgroundImageFix"/>
<feGaussianBlur in="BackgroundImage" stdDeviation="22"/>
<feComposite in2="SourceAlpha" operator="in" result="effect1_backgroundBlur"/>
<feBlend mode="normal" in="SourceGraphic" in2="effect1_backgroundBlur" result="shape"/>
</filter>
</defs>
</svg>
