<svg width="125" height="125" viewBox="0 0 125 125" fill="none" xmlns="http://www.w3.org/2000/svg">
<path opacity="0.5" d="M62.5 3.5C54.752 3.5 47.0799 5.02608 39.9217 7.99111C32.7635 10.9561 26.2594 15.302 20.7807 20.7807C15.302 26.2594 10.9561 32.7635 7.9911 39.9217C5.02608 47.0799 3.5 54.752 3.5 62.5C3.5 70.248 5.02608 77.9201 7.99111 85.0783C10.9561 92.2365 15.3021 98.7407 20.7807 104.219C26.2594 109.698 32.7635 114.044 39.9217 117.009C47.0799 119.974 54.752 121.5 62.5 121.5C70.248 121.5 77.9201 119.974 85.0783 117.009C92.2366 114.044 98.7407 109.698 104.219 104.219C109.698 98.7406 114.044 92.2365 117.009 85.0783C119.974 77.9201 121.5 70.248 121.5 62.5C121.5 54.752 119.974 47.0799 117.009 39.9216C114.044 32.7634 109.698 26.2593 104.219 20.7807C98.7406 15.302 92.2365 10.9561 85.0783 7.99109C77.9201 5.02607 70.248 3.49999 62.5 3.5L62.5 3.5Z" stroke="#1F276F" stroke-width="7"/>
<path d="M88.5625 48V78L62.7813 93L37 78V48L62.7813 33L88.5625 48Z" fill="url(#paint0_linear)"/>
<path fill-rule="evenodd" clip-rule="evenodd" d="M70 58C71.6569 58 73 56.6569 73 55C73 53.3431 71.6569 52 70 52C68.3431 52 67 53.3431 67 55C67 56.6569 68.3431 58 70 58Z" fill="white"/>
<path fill-rule="evenodd" clip-rule="evenodd" d="M52 49H60C60.7956 49 61.5587 49.3161 62.1213 49.8787C62.6839 50.4413 63 51.2044 63 52V66C63 66.7956 62.6839 67.5587 62.1213 68.1213C61.5587 68.6839 60.7956 69 60 69H52C51.2044 69 50.4413 68.6839 49.8787 68.1213C49.3161 67.5587 49 66.7956 49 66V52C49 51.2044 49.3161 50.4413 49.8787 49.8787C50.4413 49.3161 51.2044 49 52 49ZM56.711 65.3104L56.5606 65.1907C56.5048 65.153 56.4441 65.1228 56.3802 65.1009L56.1997 65.0211C56.0371 64.9873 55.8686 64.9942 55.7093 65.0412C55.55 65.0882 55.405 65.1739 55.2873 65.2905C55.1987 65.3874 55.1275 65.4988 55.0767 65.6197C55.0008 65.8015 54.9807 66.0015 55.0188 66.1946C55.0569 66.3878 55.1516 66.5654 55.291 66.7051C55.4303 66.8448 55.6081 66.9404 55.8019 66.9798C55.9957 67.0192 56.1969 67.0007 56.3802 66.9266C56.5 66.8687 56.6113 66.7949 56.711 66.7071C56.8502 66.5668 56.9444 66.3887 56.9819 66.1951C57.0194 66.0016 56.9984 65.8014 56.9216 65.6197C56.8716 65.5043 56.8002 65.3994 56.711 65.3104Z" fill="white"/>
<g filter="url(#filter0_b)">
<rect x="58" y="62" width="19" height="18" rx="2" fill="white" fill-opacity="0.2"/>
</g>
<g opacity="0.7" filter="url(#filter1_b)">
<path d="M67 69.7273V68.4545C66.999 68.0607 66.8831 67.6768 66.6682 67.3555C66.4534 67.0342 66.1501 66.7913 65.8 66.66V65.9091C65.8 65.4028 65.6104 64.9172 65.2728 64.5592C64.9352 64.2011 64.4774 64 64 64C63.5226 64 63.0648 64.2011 62.7272 64.5592C62.3896 64.9172 62.2 65.4028 62.2 65.9091V66.66C61.8499 66.7913 61.5466 67.0342 61.3318 67.3555C61.1169 67.6768 61.001 68.0607 61 68.4545V69.7273C61 70.2336 61.1896 70.7192 61.5272 71.0772C61.8648 71.4352 62.3226 71.6364 62.8 71.6364H65.2C65.6774 71.6364 66.1352 71.4352 66.4728 71.0772C66.8104 70.7192 67 70.2336 67 69.7273ZM63.4 65.9091C63.4 65.7403 63.4632 65.5785 63.5757 65.4591C63.6883 65.3398 63.8409 65.2727 64 65.2727C64.1591 65.2727 64.3117 65.3398 64.4243 65.4591C64.5368 65.5785 64.6 65.7403 64.6 65.9091V66.5455H63.4V65.9091ZM62.2 69.7273V68.4545C62.2 68.2858 62.2632 68.1239 62.3757 68.0046C62.4883 67.8852 62.6409 67.8182 62.8 67.8182H65.2C65.3591 67.8182 65.5117 67.8852 65.6243 68.0046C65.7368 68.1239 65.8 68.2858 65.8 68.4545V69.7273C65.8 69.896 65.7368 70.0579 65.6243 70.1772C65.5117 70.2966 65.3591 70.3636 65.2 70.3636H62.8C62.6409 70.3636 62.4883 70.2966 62.3757 70.1772C62.2632 70.0579 62.2 69.896 62.2 69.7273ZM71.2 67.8182H68.8C68.6409 67.8182 68.4883 67.8852 68.3757 68.0046C68.2632 68.1239 68.2 68.2858 68.2 68.4545C68.2 68.6233 68.2632 68.7852 68.3757 68.9045C68.4883 69.0239 68.6409 69.0909 68.8 69.0909H71.2C71.3591 69.0909 71.5117 69.158 71.6243 69.2773C71.7368 69.3966 71.8 69.5585 71.8 69.7273V75.9127L70.858 74.99C70.7473 74.8801 70.6016 74.8187 70.45 74.8182H65.2C65.0409 74.8182 64.8883 74.7511 64.7757 74.6318C64.6632 74.5125 64.6 74.3506 64.6 74.1818V73.5455C64.6 73.3767 64.5368 73.2148 64.4243 73.0955C64.3117 72.9761 64.1591 72.9091 64 72.9091C63.8409 72.9091 63.6883 72.9761 63.5757 73.0955C63.4632 73.2148 63.4 73.3767 63.4 73.5455V74.1818C63.4 74.6881 63.5896 75.1737 63.9272 75.5317C64.2648 75.8898 64.7226 76.0909 65.2 76.0909H70.216L72.016 77.8282C72.1205 77.9323 72.2568 77.9932 72.4 78C72.4823 77.999 72.5637 77.9818 72.64 77.9491C72.7473 77.8994 72.8386 77.8175 72.9026 77.7135C72.9665 77.6094 73.0004 77.4878 73 77.3636V69.7273C73 69.221 72.8104 68.7354 72.4728 68.3773C72.1352 68.0193 71.6774 67.8182 71.2 67.8182Z" fill="white"/>
</g>
<path d="M62.5 5C54.949 5 47.4719 6.48728 40.4957 9.37693C33.5195 12.2666 27.1807 16.502 21.8414 21.8414C16.502 27.1807 12.2666 33.5195 9.37692 40.4957C6.48728 47.4719 5 54.949 5 62.5C5 70.051 6.48728 77.5281 9.37693 84.5043C12.2666 91.4805 16.502 97.8193 21.8414 103.159C27.1807 108.498 33.5195 112.733 40.4957 115.623C47.4719 118.513 54.949 120 62.5 120C70.051 120 77.5281 118.513 84.5043 115.623C91.4805 112.733 97.8193 108.498 103.159 103.159C108.498 97.8193 112.733 91.4805 115.623 84.5043C118.513 77.528 120 70.051 120 62.5C120 54.949 118.513 47.4719 115.623 40.4957C112.733 33.5195 108.498 27.1807 103.159 21.8413C97.8192 16.502 91.4805 12.2666 84.5043 9.37691C77.528 6.48727 70.051 4.99999 62.5 5L62.5 5Z" stroke="url(#paint1_linear)" stroke-width="10" stroke-linecap="round" stroke-linejoin="round"/>
<defs>
<filter id="filter0_b" x="54" y="58" width="27" height="26" filterUnits="userSpaceOnUse" color-interpolation-filters="sRGB">
<feFlood flood-opacity="0" result="BackgroundImageFix"/>
<feGaussianBlur in="BackgroundImage" stdDeviation="2"/>
<feComposite in2="SourceAlpha" operator="in" result="effect1_backgroundBlur"/>
<feBlend mode="normal" in="SourceGraphic" in2="effect1_backgroundBlur" result="shape"/>
</filter>
<filter id="filter1_b" x="50" y="53" width="34" height="36" filterUnits="userSpaceOnUse" color-interpolation-filters="sRGB">
<feFlood flood-opacity="0" result="BackgroundImageFix"/>
<feGaussianBlur in="BackgroundImage" stdDeviation="5.5"/>
<feComposite in2="SourceAlpha" operator="in" result="effect1_backgroundBlur"/>
<feBlend mode="normal" in="SourceGraphic" in2="effect1_backgroundBlur" result="shape"/>
</filter>
<linearGradient id="paint0_linear" x1="37.0183" y1="-6.61204" x2="117.143" y2="64.7665" gradientUnits="userSpaceOnUse">
<stop stop-color="#CE09FF"/>
<stop offset="1" stop-color="#FFA34E"/>
</linearGradient>
<linearGradient id="paint1_linear" x1="166.805" y1="-56.1984" x2="41.7343" y2="-98.7337" gradientUnits="userSpaceOnUse">
<stop stop-color="#CC16FF"/>
<stop offset="1" stop-color="#48F573"/>
</linearGradient>
</defs>
</svg>
