<svg width="138" height="36" viewBox="0 0 138 36" fill="none" xmlns="http://www.w3.org/2000/svg">
<path d="M32.6084 29.5322C32.6084 30.1702 32.4147 30.6455 32.0273 30.958C31.64 31.2673 31.0996 31.4219 30.4062 31.4219H29.3076V34H28.2969V27.6279H30.3965C31.0964 27.6279 31.64 27.7891 32.0273 28.1113C32.4147 28.4303 32.6084 28.904 32.6084 29.5322ZM31.5977 29.5176C31.5977 29.1921 31.4902 28.9479 31.2754 28.7852C31.0638 28.6224 30.7741 28.541 30.4062 28.541H29.3076V30.5088H30.4062C30.7741 30.5088 31.0638 30.4274 31.2754 30.2646C31.4902 30.1019 31.5977 29.8529 31.5977 29.5176ZM37.9551 30.5283C37.8346 30.4697 37.7109 30.4258 37.584 30.3965C37.4603 30.3639 37.3171 30.3477 37.1543 30.3477C36.9297 30.3477 36.7181 30.3818 36.5195 30.4502C36.3242 30.5153 36.1549 30.6146 36.0117 30.748C35.8685 30.8815 35.7562 31.0492 35.6748 31.251C35.5967 31.4495 35.5576 31.6855 35.5576 31.959V33.0918H36.5781V34H33.5166V33.0918H34.5469V30.3623H33.5166V29.4492H35.5576V30.5918C35.7236 30.1361 35.9678 29.8138 36.29 29.625C36.6156 29.4362 37.0013 29.3418 37.4473 29.3418C37.5872 29.3418 37.7337 29.3564 37.8867 29.3857C38.0397 29.415 38.1895 29.4671 38.3359 29.542L37.9551 30.5283ZM41.8662 28.8584H40.6357V27.6279H41.8662V28.8584ZM42.7939 34H39.7373V33.0918H40.7432V30.3623H39.7373V29.4492H41.7539V33.0918H42.7939V34ZM48.9854 29.4492L47.3057 34H46.1143L44.4346 29.4492H45.5137L46.7148 32.8916L47.9062 29.4492H48.9854ZM49.874 32.6914C49.874 32.4245 49.9456 32.1917 50.0889 31.9932C50.2321 31.7913 50.4193 31.6237 50.6504 31.4902C50.8848 31.3568 51.1517 31.2575 51.4512 31.1924C51.7539 31.124 52.0615 31.0898 52.374 31.0898C52.5465 31.0898 52.6947 31.0931 52.8184 31.0996C52.9421 31.1061 53.0674 31.1159 53.1943 31.1289V30.9482C53.1943 30.7106 53.1016 30.5332 52.916 30.416C52.7337 30.2988 52.4928 30.2402 52.1934 30.2402C51.9199 30.2402 51.6416 30.2793 51.3584 30.3574C51.0752 30.4323 50.8066 30.543 50.5527 30.6895L50.1426 29.8984C50.4421 29.7259 50.7627 29.5908 51.1045 29.4932C51.4495 29.3923 51.8125 29.3418 52.1934 29.3418C52.4408 29.3418 52.6833 29.3695 52.9209 29.4248C53.1618 29.4801 53.3766 29.5713 53.5654 29.6982C53.7575 29.8252 53.9105 29.9912 54.0244 30.1963C54.1383 30.3981 54.1953 30.6488 54.1953 30.9482V34H53.1943V33.3311C53.0348 33.5785 52.7988 33.7705 52.4863 33.9072C52.1771 34.0439 51.8434 34.1123 51.4854 34.1123C51.264 34.1123 51.054 34.0814 50.8555 34.0195C50.6602 33.9609 50.4909 33.8714 50.3477 33.751C50.2044 33.6305 50.0889 33.4824 50.001 33.3066C49.9163 33.1276 49.874 32.9225 49.874 32.6914ZM51.7441 33.209C51.9427 33.209 52.1283 33.1846 52.3008 33.1357C52.4766 33.0837 52.6312 33.0137 52.7646 32.9258C52.8981 32.8346 53.0023 32.7256 53.0771 32.5986C53.1553 32.4717 53.1943 32.3317 53.1943 32.1787V32.0078C53.0348 31.9818 52.8851 31.9671 52.7451 31.9639C52.6051 31.9606 52.4814 31.959 52.374 31.959C51.8792 31.959 51.5049 32.0241 51.251 32.1543C51.0003 32.2845 50.875 32.4456 50.875 32.6377C50.875 33.0186 51.1647 33.209 51.7441 33.209ZM59.9521 32.5498C59.9001 33.0283 59.7113 33.4092 59.3857 33.6924C59.0635 33.9723 58.6598 34.1123 58.1748 34.1123C57.9079 34.1123 57.6637 34.0684 57.4424 33.9805C57.221 33.8926 57.0322 33.7705 56.876 33.6143C56.7197 33.458 56.5977 33.2708 56.5098 33.0527C56.4251 32.8314 56.3828 32.5905 56.3828 32.3301V30.3623H55.3525V29.4492H56.3828V27.6279H57.3936V29.4492H59.3027V30.3623H57.3936V32.3301C57.3936 32.623 57.4652 32.8411 57.6084 32.9844C57.7516 33.1276 57.9404 33.1992 58.1748 33.1992C58.4613 33.1992 58.6745 33.1162 58.8145 32.9502C58.9544 32.7842 59.0374 32.584 59.0635 32.3496L59.9521 32.5498ZM61.7393 32.1104C61.7881 32.4229 61.9362 32.6833 62.1836 32.8916C62.4342 33.0967 62.7695 33.1992 63.1895 33.1992C63.5182 33.1992 63.8031 33.1488 64.0439 33.0479C64.2881 32.9437 64.498 32.807 64.6738 32.6377L65.1914 33.3506C64.8984 33.6436 64.5876 33.8438 64.2588 33.9512C63.9333 34.0586 63.5768 34.1123 63.1895 34.1123C62.8379 34.1123 62.5107 34.0537 62.208 33.9365C61.9053 33.8193 61.6432 33.6566 61.4219 33.4482C61.2005 33.2367 61.0264 32.986 60.8994 32.6963C60.7757 32.4066 60.7139 32.0843 60.7139 31.7295C60.7139 31.3844 60.7708 31.0671 60.8848 30.7773C61.002 30.4844 61.1647 30.2321 61.373 30.0205C61.5846 29.8057 61.8369 29.6396 62.1299 29.5225C62.4229 29.402 62.7467 29.3418 63.1016 29.3418C63.4694 29.3418 63.8031 29.4053 64.1025 29.5322C64.402 29.6559 64.6576 29.8366 64.8691 30.0742C65.084 30.3118 65.2516 30.6032 65.3721 30.9482C65.4925 31.29 65.5527 31.6774 65.5527 32.1104H61.7393ZM64.4102 31.2217C64.3581 30.9287 64.2067 30.6943 63.9561 30.5186C63.7054 30.3395 63.4206 30.25 63.1016 30.25C62.7826 30.25 62.4961 30.3395 62.2422 30.5186C61.9883 30.6943 61.8353 30.9287 61.7832 31.2217H64.4102ZM76.3779 32.0518C76.2998 32.3643 76.1956 32.6475 76.0654 32.9014C75.9352 33.1553 75.7757 33.3717 75.5869 33.5508C75.4014 33.7298 75.1833 33.8682 74.9326 33.9658C74.6852 34.0635 74.4004 34.1123 74.0781 34.1123C73.6322 34.1123 73.2546 34.0212 72.9453 33.8389C72.6361 33.6533 72.3822 33.4076 72.1836 33.1016C71.9883 32.7923 71.8467 32.4408 71.7588 32.0469C71.6742 31.6497 71.6318 31.238 71.6318 30.8115C71.6318 30.3851 71.6742 29.9733 71.7588 29.5762C71.8467 29.179 71.9867 28.8291 72.1787 28.5264C72.374 28.2236 72.6214 27.9811 72.9209 27.7988C73.2204 27.6133 73.5866 27.5205 74.0195 27.5205C74.1595 27.5205 74.3011 27.5384 74.4443 27.5742C74.5876 27.61 74.721 27.6654 74.8447 27.7402C74.9684 27.8118 75.0758 27.9014 75.167 28.0088C75.2614 28.1162 75.3281 28.2399 75.3672 28.3799V27.6279H76.2803V30.04H75.3672C75.3672 29.8415 75.3428 29.6462 75.2939 29.4541C75.2451 29.2588 75.167 29.0863 75.0596 28.9365C74.9521 28.7868 74.8171 28.6647 74.6543 28.5703C74.4915 28.4759 74.2995 28.4287 74.0781 28.4287C73.7917 28.4287 73.5573 28.4987 73.375 28.6387C73.1927 28.7786 73.0462 28.9626 72.9355 29.1904C72.8249 29.4183 72.7467 29.6738 72.7012 29.957C72.6589 30.2402 72.6377 30.5251 72.6377 30.8115C72.6377 31.098 72.6589 31.3844 72.7012 31.6709C72.7467 31.9574 72.8232 32.2145 72.9307 32.4424C73.0381 32.667 73.1846 32.8493 73.3701 32.9893C73.5557 33.1292 73.7917 33.1992 74.0781 33.1992C74.4915 33.1992 74.8089 33.0674 75.0303 32.8037C75.2549 32.54 75.4339 32.1852 75.5674 31.7393L76.3779 32.0518ZM81.5 34H80.4893V31.1924C80.4893 30.8376 80.4225 30.5918 80.2891 30.4551C80.1556 30.3184 79.9619 30.25 79.708 30.25C79.3337 30.25 79.0277 30.4014 78.79 30.7041C78.5557 31.0068 78.4385 31.4251 78.4385 31.959V34H77.4277V27.6279H78.4385V30.5918C78.5394 30.1979 78.7266 29.8919 79 29.6738C79.2734 29.4525 79.6104 29.3418 80.0107 29.3418C80.4762 29.3418 80.8408 29.4932 81.1045 29.7959C81.3682 30.0986 81.5 30.5641 81.5 31.1924V34ZM82.6279 32.6914C82.6279 32.4245 82.6995 32.1917 82.8428 31.9932C82.986 31.7913 83.1732 31.6237 83.4043 31.4902C83.6387 31.3568 83.9056 31.2575 84.2051 31.1924C84.5078 31.124 84.8154 31.0898 85.1279 31.0898C85.3005 31.0898 85.4486 31.0931 85.5723 31.0996C85.696 31.1061 85.8213 31.1159 85.9482 31.1289V30.9482C85.9482 30.7106 85.8555 30.5332 85.6699 30.416C85.4876 30.2988 85.2467 30.2402 84.9473 30.2402C84.6738 30.2402 84.3955 30.2793 84.1123 30.3574C83.8291 30.4323 83.5605 30.543 83.3066 30.6895L82.8965 29.8984C83.196 29.7259 83.5166 29.5908 83.8584 29.4932C84.2035 29.3923 84.5664 29.3418 84.9473 29.3418C85.1947 29.3418 85.4372 29.3695 85.6748 29.4248C85.9157 29.4801 86.1305 29.5713 86.3193 29.6982C86.5114 29.8252 86.6644 29.9912 86.7783 30.1963C86.8923 30.3981 86.9492 30.6488 86.9492 30.9482V34H85.9482V33.3311C85.7887 33.5785 85.5527 33.7705 85.2402 33.9072C84.931 34.0439 84.5973 34.1123 84.2393 34.1123C84.0179 34.1123 83.8079 34.0814 83.6094 34.0195C83.4141 33.9609 83.2448 33.8714 83.1016 33.751C82.9583 33.6305 82.8428 33.4824 82.7549 33.3066C82.6702 33.1276 82.6279 32.9225 82.6279 32.6914ZM84.498 33.209C84.6966 33.209 84.8822 33.1846 85.0547 33.1357C85.2305 33.0837 85.3851 33.0137 85.5186 32.9258C85.652 32.8346 85.7562 32.7256 85.8311 32.5986C85.9092 32.4717 85.9482 32.3317 85.9482 32.1787V32.0078C85.7887 31.9818 85.639 31.9671 85.499 31.9639C85.359 31.9606 85.2354 31.959 85.1279 31.959C84.6331 31.959 84.2588 32.0241 84.0049 32.1543C83.7542 32.2845 83.6289 32.4456 83.6289 32.6377C83.6289 33.0186 83.9186 33.209 84.498 33.209ZM92.418 34H91.4072V31.1924C91.4072 30.8376 91.3405 30.5918 91.207 30.4551C91.0736 30.3184 90.8799 30.25 90.626 30.25C90.2516 30.25 89.9456 30.4014 89.708 30.7041C89.4736 31.0068 89.3564 31.4251 89.3564 31.959V34H88.3457V29.4492H89.3564V30.5918C89.4574 30.1979 89.6445 29.8919 89.918 29.6738C90.1914 29.4525 90.5283 29.3418 90.9287 29.3418C91.3942 29.3418 91.7588 29.4932 92.0225 29.7959C92.2861 30.0986 92.418 30.5641 92.418 31.1924V34ZM97.877 34H96.8662V31.1924C96.8662 30.8376 96.7995 30.5918 96.666 30.4551C96.5326 30.3184 96.3389 30.25 96.085 30.25C95.7106 30.25 95.4046 30.4014 95.167 30.7041C94.9326 31.0068 94.8154 31.4251 94.8154 31.959V34H93.8047V29.4492H94.8154V30.5918C94.9163 30.1979 95.1035 29.8919 95.377 29.6738C95.6504 29.4525 95.9873 29.3418 96.3877 29.3418C96.8532 29.3418 97.2178 29.4932 97.4814 29.7959C97.7451 30.0986 97.877 30.5641 97.877 31.1924V34ZM99.9521 32.1104C100.001 32.4229 100.149 32.6833 100.396 32.8916C100.647 33.0967 100.982 33.1992 101.402 33.1992C101.731 33.1992 102.016 33.1488 102.257 33.0479C102.501 32.9437 102.711 32.807 102.887 32.6377L103.404 33.3506C103.111 33.6436 102.8 33.8438 102.472 33.9512C102.146 34.0586 101.79 34.1123 101.402 34.1123C101.051 34.1123 100.724 34.0537 100.421 33.9365C100.118 33.8193 99.8561 33.6566 99.6348 33.4482C99.4134 33.2367 99.2393 32.986 99.1123 32.6963C98.9886 32.4066 98.9268 32.0843 98.9268 31.7295C98.9268 31.3844 98.9837 31.0671 99.0977 30.7773C99.2148 30.4844 99.3776 30.2321 99.5859 30.0205C99.7975 29.8057 100.05 29.6396 100.343 29.5225C100.636 29.402 100.96 29.3418 101.314 29.3418C101.682 29.3418 102.016 29.4053 102.315 29.5322C102.615 29.6559 102.87 29.8366 103.082 30.0742C103.297 30.3118 103.465 30.6032 103.585 30.9482C103.705 31.29 103.766 31.6774 103.766 32.1104H99.9521ZM102.623 31.2217C102.571 30.9287 102.42 30.6943 102.169 30.5186C101.918 30.3395 101.633 30.25 101.314 30.25C100.995 30.25 100.709 30.3395 100.455 30.5186C100.201 30.6943 100.048 30.9287 99.9961 31.2217H102.623ZM108.312 34H105.255V33.0918H106.251V28.541H105.255V27.6279H107.262V33.0918H108.312V34Z" fill="white"/>
<path d="M7.76074 15H5.94141V7.23926L4.79004 11.3613H3.38379L2.25 7.23926V15H0.430664V3.53027H2.59277L4.08691 8.71582L5.58105 3.53027H7.76074V15ZM9.79102 12.6445C9.79102 12.1641 9.91992 11.7451 10.1777 11.3877C10.4355 11.0244 10.7725 10.7227 11.1885 10.4824C11.6104 10.2422 12.0908 10.0635 12.6299 9.94629C13.1748 9.82324 13.7285 9.76172 14.291 9.76172C14.6016 9.76172 14.8682 9.76758 15.0908 9.7793C15.3135 9.79102 15.5391 9.80859 15.7676 9.83203V9.50684C15.7676 9.0791 15.6006 8.75977 15.2666 8.54883C14.9385 8.33789 14.5049 8.23242 13.9658 8.23242C13.4736 8.23242 12.9727 8.30273 12.4629 8.44336C11.9531 8.57812 11.4697 8.77734 11.0127 9.04102L10.2744 7.61719C10.8135 7.30664 11.3906 7.06348 12.0059 6.8877C12.627 6.70605 13.2803 6.61523 13.9658 6.61523C14.4111 6.61523 14.8477 6.66504 15.2754 6.76465C15.709 6.86426 16.0957 7.02832 16.4355 7.25684C16.7812 7.48535 17.0566 7.78418 17.2617 8.15332C17.4668 8.5166 17.5693 8.96777 17.5693 9.50684V15H15.7676V13.7959C15.4805 14.2412 15.0557 14.5869 14.4932 14.833C13.9365 15.0791 13.3359 15.2021 12.6914 15.2021C12.293 15.2021 11.915 15.1465 11.5576 15.0352C11.2061 14.9297 10.9014 14.7686 10.6436 14.5518C10.3857 14.335 10.1777 14.0684 10.0195 13.752C9.86719 13.4297 9.79102 13.0605 9.79102 12.6445ZM13.1572 13.5762C13.5146 13.5762 13.8486 13.5322 14.1592 13.4443C14.4756 13.3506 14.7539 13.2246 14.9941 13.0664C15.2344 12.9023 15.4219 12.7061 15.5566 12.4775C15.6973 12.249 15.7676 11.9971 15.7676 11.7217V11.4141C15.4805 11.3672 15.2109 11.3408 14.959 11.335C14.707 11.3291 14.4844 11.3262 14.291 11.3262C13.4004 11.3262 12.7266 11.4434 12.2695 11.6777C11.8184 11.9121 11.5928 12.2021 11.5928 12.5479C11.5928 13.2334 12.1143 13.5762 13.1572 13.5762ZM27.9316 12.3896C27.8379 13.251 27.498 13.9365 26.9121 14.4463C26.332 14.9502 25.6055 15.2021 24.7324 15.2021C24.252 15.2021 23.8125 15.123 23.4141 14.9648C23.0156 14.8066 22.6758 14.5869 22.3945 14.3057C22.1133 14.0244 21.8936 13.6875 21.7354 13.2949C21.583 12.8965 21.5068 12.4629 21.5068 11.9941V8.45215H19.6523V6.80859H21.5068V3.53027H23.3262V6.80859H26.7627V8.45215H23.3262V11.9941C23.3262 12.5215 23.4551 12.9141 23.7129 13.1719C23.9707 13.4297 24.3105 13.5586 24.7324 13.5586C25.248 13.5586 25.6318 13.4092 25.8838 13.1104C26.1357 12.8115 26.2852 12.4512 26.332 12.0293L27.9316 12.3896ZM37.7578 12.3896C37.6641 13.251 37.3242 13.9365 36.7383 14.4463C36.1582 14.9502 35.4316 15.2021 34.5586 15.2021C34.0781 15.2021 33.6387 15.123 33.2402 14.9648C32.8418 14.8066 32.502 14.5869 32.2207 14.3057C31.9395 14.0244 31.7197 13.6875 31.5615 13.2949C31.4092 12.8965 31.333 12.4629 31.333 11.9941V8.45215H29.4785V6.80859H31.333V3.53027H33.1523V6.80859H36.5889V8.45215H33.1523V11.9941C33.1523 12.5215 33.2812 12.9141 33.5391 13.1719C33.7969 13.4297 34.1367 13.5586 34.5586 13.5586C35.0742 13.5586 35.458 13.4092 35.71 13.1104C35.9619 12.8115 36.1113 12.4512 36.1582 12.0293L37.7578 12.3896ZM47.0654 15H45.2461V9.94629C45.2461 9.30762 45.126 8.86523 44.8857 8.61914C44.6455 8.37305 44.2969 8.25 43.8398 8.25C43.166 8.25 42.6152 8.52246 42.1875 9.06738C41.7656 9.6123 41.5547 10.3652 41.5547 11.3262V15H39.7354V3.53027H41.5547V8.86523C41.7363 8.15625 42.0732 7.60547 42.5654 7.21289C43.0576 6.81445 43.6641 6.61523 44.3848 6.61523C45.2227 6.61523 45.8789 6.8877 46.3535 7.43262C46.8281 7.97754 47.0654 8.81543 47.0654 9.94629V15ZM54.334 5.74512H52.1191V3.53027H54.334V5.74512ZM56.0039 15H50.502V13.3652H52.3125V8.45215H50.502V6.80859H54.1318V13.3652H56.0039V15ZM58.9219 12.6445C58.9219 12.1641 59.0508 11.7451 59.3086 11.3877C59.5664 11.0244 59.9033 10.7227 60.3193 10.4824C60.7412 10.2422 61.2217 10.0635 61.7607 9.94629C62.3057 9.82324 62.8594 9.76172 63.4219 9.76172C63.7324 9.76172 63.999 9.76758 64.2217 9.7793C64.4443 9.79102 64.6699 9.80859 64.8984 9.83203V9.50684C64.8984 9.0791 64.7314 8.75977 64.3975 8.54883C64.0693 8.33789 63.6357 8.23242 63.0967 8.23242C62.6045 8.23242 62.1035 8.30273 61.5938 8.44336C61.084 8.57812 60.6006 8.77734 60.1436 9.04102L59.4053 7.61719C59.9443 7.30664 60.5215 7.06348 61.1367 6.8877C61.7578 6.70605 62.4111 6.61523 63.0967 6.61523C63.542 6.61523 63.9785 6.66504 64.4062 6.76465C64.8398 6.86426 65.2266 7.02832 65.5664 7.25684C65.9121 7.48535 66.1875 7.78418 66.3926 8.15332C66.5977 8.5166 66.7002 8.96777 66.7002 9.50684V15H64.8984V13.7959C64.6113 14.2412 64.1865 14.5869 63.624 14.833C63.0674 15.0791 62.4668 15.2021 61.8223 15.2021C61.4238 15.2021 61.0459 15.1465 60.6885 15.0352C60.3369 14.9297 60.0322 14.7686 59.7744 14.5518C59.5166 14.335 59.3086 14.0684 59.1504 13.752C58.998 13.4297 58.9219 13.0605 58.9219 12.6445ZM62.2881 13.5762C62.6455 13.5762 62.9795 13.5322 63.29 13.4443C63.6064 13.3506 63.8848 13.2246 64.125 13.0664C64.3652 12.9023 64.5527 12.7061 64.6875 12.4775C64.8281 12.249 64.8984 11.9971 64.8984 11.7217V11.4141C64.6113 11.3672 64.3418 11.3408 64.0898 11.335C63.8379 11.3291 63.6152 11.3262 63.4219 11.3262C62.5312 11.3262 61.8574 11.4434 61.4004 11.6777C60.9492 11.9121 60.7236 12.2021 60.7236 12.5479C60.7236 13.2334 61.2451 13.5762 62.2881 13.5762ZM76.7549 12.5479C76.7549 13.0811 76.6348 13.5146 76.3945 13.8486C76.1543 14.1826 75.8438 14.4521 75.4629 14.6572C75.0879 14.8623 74.666 15.0029 74.1973 15.0791C73.7344 15.1611 73.2803 15.2021 72.835 15.2021C72.0908 15.2021 71.3496 15.0938 70.6113 14.877C69.873 14.6602 69.2344 14.376 68.6953 14.0244L69.4512 12.5303C70.0957 12.9053 70.6846 13.1719 71.2178 13.3301C71.7568 13.4824 72.2959 13.5586 72.835 13.5586C73.5674 13.5586 74.1006 13.4824 74.4346 13.3301C74.7686 13.1719 74.9355 12.9551 74.9355 12.6797C74.9355 12.5449 74.8887 12.4336 74.7949 12.3457C74.7012 12.2578 74.5459 12.1787 74.3291 12.1084C74.1123 12.0322 73.8252 11.959 73.4678 11.8887C73.1162 11.8125 72.6768 11.7334 72.1494 11.6514C71.7275 11.5811 71.3262 11.4961 70.9453 11.3965C70.5703 11.291 70.2393 11.1445 69.9521 10.957C69.665 10.7695 69.4336 10.5322 69.2578 10.2451C69.0879 9.95801 69.0029 9.59766 69.0029 9.16406C69.0029 8.72461 69.1143 8.34375 69.3369 8.02148C69.5654 7.69336 69.8613 7.42383 70.2246 7.21289C70.5938 7.00195 71.0068 6.84961 71.4639 6.75586C71.9209 6.66211 72.3779 6.61523 72.835 6.61523C73.4795 6.61523 74.1035 6.7002 74.707 6.87012C75.3164 7.03418 75.8496 7.27148 76.3066 7.58203L75.5859 8.98828C75.1289 8.70117 74.6836 8.50781 74.25 8.4082C73.8223 8.30273 73.3506 8.25 72.835 8.25C72.6182 8.25 72.3926 8.26172 72.1582 8.28516C71.9238 8.30859 71.707 8.35547 71.5078 8.42578C71.3086 8.49023 71.1416 8.58105 71.0068 8.69824C70.8779 8.80957 70.8135 8.94727 70.8135 9.11133C70.8135 9.32812 71.0039 9.50684 71.3848 9.64746C71.7715 9.78223 72.4277 9.91699 73.3535 10.0518C73.8574 10.1221 74.3174 10.2129 74.7334 10.3242C75.1494 10.4297 75.5068 10.5762 75.8057 10.7637C76.1045 10.9453 76.3359 11.1826 76.5 11.4756C76.6699 11.7627 76.7549 12.1201 76.7549 12.5479ZM96.1963 15H94.377V7.23926L93.2256 11.3613H91.8193L90.6855 7.23926V15H88.8662V3.53027H91.0283L92.5225 8.71582L94.0166 3.53027H96.1963V15ZM99.9316 11.5986C100.02 12.1611 100.286 12.6299 100.731 13.0049C101.183 13.374 101.786 13.5586 102.542 13.5586C103.134 13.5586 103.646 13.4678 104.08 13.2861C104.52 13.0986 104.897 12.8525 105.214 12.5479L106.146 13.8311C105.618 14.3584 105.059 14.7188 104.467 14.9121C103.881 15.1055 103.239 15.2021 102.542 15.2021C101.909 15.2021 101.32 15.0967 100.775 14.8857C100.23 14.6748 99.7588 14.3818 99.3604 14.0068C98.9619 13.626 98.6484 13.1748 98.4199 12.6533C98.1973 12.1318 98.0859 11.5518 98.0859 10.9131C98.0859 10.292 98.1885 9.7207 98.3936 9.19922C98.6045 8.67188 98.8975 8.21777 99.2725 7.83691C99.6533 7.4502 100.107 7.15137 100.635 6.94043C101.162 6.72363 101.745 6.61523 102.384 6.61523C103.046 6.61523 103.646 6.72949 104.186 6.95801C104.725 7.18066 105.185 7.50586 105.565 7.93359C105.952 8.36133 106.254 8.88574 106.471 9.50684C106.688 10.1221 106.796 10.8193 106.796 11.5986H99.9316ZM104.739 9.99902C104.646 9.47168 104.373 9.0498 103.922 8.7334C103.471 8.41113 102.958 8.25 102.384 8.25C101.81 8.25 101.294 8.41113 100.837 8.7334C100.38 9.0498 100.104 9.47168 100.011 9.99902H104.739ZM115.849 15H114.029V9.94629C114.029 9.30762 113.909 8.86523 113.669 8.61914C113.429 8.37305 113.08 8.25 112.623 8.25C111.949 8.25 111.398 8.52246 110.971 9.06738C110.549 9.6123 110.338 10.3652 110.338 11.3262V15H108.519V6.80859H110.338V8.86523C110.52 8.15625 110.856 7.60547 111.349 7.21289C111.841 6.81445 112.447 6.61523 113.168 6.61523C114.006 6.61523 114.662 6.8877 115.137 7.43262C115.611 7.97754 115.849 8.81543 115.849 9.94629V15ZM125.675 15H123.855V14.2441C123.504 14.5547 123.149 14.792 122.792 14.9561C122.435 15.1201 122.027 15.2021 121.57 15.2021C121.043 15.2021 120.554 15.0967 120.103 14.8857C119.651 14.6748 119.262 14.3818 118.934 14.0068C118.611 13.626 118.356 13.1719 118.169 12.6445C117.987 12.1172 117.896 11.54 117.896 10.9131C117.896 10.292 117.987 9.71777 118.169 9.19043C118.356 8.65723 118.611 8.20312 118.934 7.82812C119.262 7.44727 119.651 7.15137 120.103 6.94043C120.554 6.72363 121.043 6.61523 121.57 6.61523C122.027 6.61523 122.435 6.69434 122.792 6.85254C123.149 7.00488 123.504 7.23633 123.855 7.54688V5.17383H122.273V3.53027H125.675V15ZM123.855 8.98828C123.639 8.74805 123.357 8.56641 123.012 8.44336C122.672 8.31445 122.347 8.25 122.036 8.25C121.351 8.25 120.791 8.49609 120.357 8.98828C119.93 9.48047 119.716 10.1221 119.716 10.9131C119.716 11.7041 119.93 12.3428 120.357 12.8291C120.791 13.3154 121.351 13.5586 122.036 13.5586C122.347 13.5586 122.672 13.4971 123.012 13.374C123.357 13.2451 123.639 13.0605 123.855 12.8203V8.98828ZM129.41 11.5986C129.498 12.1611 129.765 12.6299 130.21 13.0049C130.661 13.374 131.265 13.5586 132.021 13.5586C132.612 13.5586 133.125 13.4678 133.559 13.2861C133.998 13.0986 134.376 12.8525 134.692 12.5479L135.624 13.8311C135.097 14.3584 134.537 14.7188 133.945 14.9121C133.359 15.1055 132.718 15.2021 132.021 15.2021C131.388 15.2021 130.799 15.0967 130.254 14.8857C129.709 14.6748 129.237 14.3818 128.839 14.0068C128.44 13.626 128.127 13.1748 127.898 12.6533C127.676 12.1318 127.564 11.5518 127.564 10.9131C127.564 10.292 127.667 9.7207 127.872 9.19922C128.083 8.67188 128.376 8.21777 128.751 7.83691C129.132 7.4502 129.586 7.15137 130.113 6.94043C130.641 6.72363 131.224 6.61523 131.862 6.61523C132.524 6.61523 133.125 6.72949 133.664 6.95801C134.203 7.18066 134.663 7.50586 135.044 7.93359C135.431 8.36133 135.732 8.88574 135.949 9.50684C136.166 10.1221 136.274 10.8193 136.274 11.5986H129.41ZM134.218 9.99902C134.124 9.47168 133.852 9.0498 133.4 8.7334C132.949 8.41113 132.437 8.25 131.862 8.25C131.288 8.25 130.772 8.41113 130.315 8.7334C129.858 9.0498 129.583 9.47168 129.489 9.99902H134.218Z" fill="white"/>
</svg>
