<svg width="184" height="51" viewBox="0 0 184 51" fill="none" xmlns="http://www.w3.org/2000/svg">
<g filter="url(#filter0_b)">
<path d="M184 22.2545C184 9.9637 173.594 0 160.758 0H23.2421C10.4059 0 0 9.9637 0 22.2545V28.7455C0 41.0363 10.4059 51 23.2421 51H184V22.2545Z" fill="#36297A"/>
</g>
<path d="M21.1738 23H19.9609V19.6543H17.5V23H16.2871V15.3535H17.5V18.5586H19.9609V15.3535H21.1738V23ZM22.5273 21.4297C22.5273 21.1094 22.6133 20.8301 22.7852 20.5918C22.957 20.3496 23.1816 20.1484 23.459 19.9883C23.7402 19.8281 24.0605 19.709 24.4199 19.6309C24.7832 19.5488 25.1523 19.5078 25.5273 19.5078C25.7344 19.5078 25.9121 19.5117 26.0605 19.5195C26.209 19.5273 26.3594 19.5391 26.5117 19.5547V19.3379C26.5117 19.0527 26.4004 18.8398 26.1777 18.6992C25.959 18.5586 25.6699 18.4883 25.3105 18.4883C24.9824 18.4883 24.6484 18.5352 24.3086 18.6289C23.9688 18.7188 23.6465 18.8516 23.3418 19.0273L22.8496 18.0781C23.209 17.8711 23.5938 17.709 24.0039 17.5918C24.418 17.4707 24.8535 17.4102 25.3105 17.4102C25.6074 17.4102 25.8984 17.4434 26.1836 17.5098C26.4727 17.5762 26.7305 17.6855 26.957 17.8379C27.1875 17.9902 27.3711 18.1895 27.5078 18.4355C27.6445 18.6777 27.7129 18.9785 27.7129 19.3379V23H26.5117V22.1973C26.3203 22.4941 26.0371 22.7246 25.6621 22.8887C25.291 23.0527 24.8906 23.1348 24.4609 23.1348C24.1953 23.1348 23.9434 23.0977 23.7051 23.0234C23.4707 22.9531 23.2676 22.8457 23.0957 22.7012C22.9238 22.5566 22.7852 22.3789 22.6797 22.168C22.5781 21.9531 22.5273 21.707 22.5273 21.4297ZM24.7715 22.0508C25.0098 22.0508 25.2324 22.0215 25.4395 21.9629C25.6504 21.9004 25.8359 21.8164 25.9961 21.7109C26.1562 21.6016 26.2812 21.4707 26.3711 21.3184C26.4648 21.166 26.5117 20.998 26.5117 20.8145V20.6094C26.3203 20.5781 26.1406 20.5605 25.9727 20.5566C25.8047 20.5527 25.6562 20.5508 25.5273 20.5508C24.9336 20.5508 24.4844 20.6289 24.1797 20.7852C23.8789 20.9414 23.7285 21.1348 23.7285 21.3652C23.7285 21.8223 24.0762 22.0508 24.7715 22.0508ZM34.5625 17.5391L32.5469 23H31.1172L29.1016 17.5391H30.3965L31.8379 21.6699L33.2676 17.5391H34.5625ZM36.7656 20.7324C36.8242 21.1074 37.002 21.4199 37.2988 21.6699C37.5996 21.916 38.002 22.0391 38.5059 22.0391C38.9004 22.0391 39.2422 21.9785 39.5312 21.8574C39.8242 21.7324 40.0762 21.5684 40.2871 21.3652L40.9082 22.2207C40.5566 22.5723 40.1836 22.8125 39.7891 22.9414C39.3984 23.0703 38.9707 23.1348 38.5059 23.1348C38.084 23.1348 37.6914 23.0645 37.3281 22.9238C36.9648 22.7832 36.6504 22.5879 36.3848 22.3379C36.1191 22.084 35.9102 21.7832 35.7578 21.4355C35.6094 21.0879 35.5352 20.7012 35.5352 20.2754C35.5352 19.8613 35.6035 19.4805 35.7402 19.1328C35.8809 18.7812 36.0762 18.4785 36.3262 18.2246C36.5801 17.9668 36.8828 17.7676 37.2344 17.627C37.5859 17.4824 37.9746 17.4102 38.4004 17.4102C38.8418 17.4102 39.2422 17.4863 39.6016 17.6387C39.9609 17.7871 40.2676 18.0039 40.5215 18.2891C40.7793 18.5742 40.9805 18.9238 41.125 19.3379C41.2695 19.748 41.3418 20.2129 41.3418 20.7324H36.7656ZM39.9707 19.666C39.9082 19.3145 39.7266 19.0332 39.4258 18.8223C39.125 18.6074 38.7832 18.5 38.4004 18.5C38.0176 18.5 37.6738 18.6074 37.3691 18.8223C37.0645 19.0332 36.8809 19.3145 36.8184 19.666H39.9707ZM54.168 17.5391L51.8125 24.0664C51.6367 24.5391 51.3809 24.8633 51.0449 25.0391C50.709 25.2148 50.3086 25.3027 49.8438 25.3027C49.6836 25.3027 49.5117 25.2871 49.3281 25.2559C49.1445 25.2246 48.9531 25.1719 48.7539 25.0977L49.0059 23.9844C49.1738 24.0469 49.3281 24.0898 49.4688 24.1133C49.6094 24.1406 49.7344 24.1543 49.8438 24.1543C50.207 24.1543 50.4551 23.9941 50.5879 23.6738L50.8047 23.1465L48.7188 17.5391H49.9785L51.4785 21.6699L52.8672 17.5391H54.168ZM60.9062 20.2754C60.9062 20.7012 60.8379 21.0879 60.7012 21.4355C60.5684 21.7832 60.375 22.084 60.1211 22.3379C59.8711 22.5879 59.5703 22.7832 59.2188 22.9238C58.8672 23.0645 58.4746 23.1348 58.041 23.1348C57.6152 23.1348 57.2266 23.0645 56.875 22.9238C56.5234 22.7832 56.2207 22.5879 55.9668 22.3379C55.7168 22.084 55.5234 21.7832 55.3867 21.4355C55.2539 21.0879 55.1875 20.7012 55.1875 20.2754C55.1875 19.8613 55.2539 19.4785 55.3867 19.127C55.5234 18.7715 55.7168 18.4668 55.9668 18.2129C56.2207 17.9551 56.5234 17.7578 56.875 17.6211C57.2266 17.4805 57.6152 17.4102 58.041 17.4102C58.4746 17.4102 58.8672 17.4805 59.2188 17.6211C59.5703 17.7578 59.8711 17.9551 60.1211 18.2129C60.375 18.4668 60.5684 18.7715 60.7012 19.127C60.8379 19.4785 60.9062 19.8613 60.9062 20.2754ZM59.6992 20.2754C59.6992 20.0293 59.6602 19.7969 59.582 19.5781C59.5078 19.3555 59.3984 19.166 59.2539 19.0098C59.1094 18.8535 58.9336 18.7305 58.7266 18.6406C58.5234 18.5469 58.2949 18.5 58.041 18.5C57.7832 18.5 57.5527 18.5469 57.3496 18.6406C57.1465 18.7305 56.9746 18.8535 56.834 19.0098C56.6934 19.166 56.584 19.3555 56.5059 19.5781C56.4316 19.7969 56.3945 20.0293 56.3945 20.2754C56.3945 20.5332 56.4316 20.7676 56.5059 20.9785C56.584 21.1895 56.6934 21.375 56.834 21.5352C56.9746 21.6953 57.1465 21.8203 57.3496 21.9102C57.5527 21.9961 57.7832 22.0391 58.041 22.0391C58.2949 22.0391 58.5234 21.9961 58.7266 21.9102C58.9336 21.8203 59.1094 21.6953 59.2539 21.5352C59.3984 21.375 59.5078 21.1895 59.582 20.9785C59.6602 20.7676 59.6992 20.5332 59.6992 20.2754ZM62.1426 17.5391H63.3555V20.9141C63.3555 21.3359 63.4355 21.6289 63.5957 21.793C63.7559 21.957 63.9883 22.0391 64.293 22.0391C64.7383 22.0391 65.1035 21.8574 65.3887 21.4941C65.6738 21.1309 65.8164 20.6289 65.8164 19.9883V17.5391H67.0293V23H65.8164V21.6348C65.6953 22.1035 65.4707 22.4707 65.1426 22.7363C64.8145 23.002 64.4102 23.1348 63.9297 23.1348C63.3711 23.1348 62.9336 22.9531 62.6172 22.5898C62.3008 22.2227 62.1426 21.6641 62.1426 20.9141V17.5391ZM76.0703 20.7324C76.1289 21.1074 76.3066 21.4199 76.6035 21.6699C76.9043 21.916 77.3066 22.0391 77.8105 22.0391C78.2051 22.0391 78.5469 21.9785 78.8359 21.8574C79.1289 21.7324 79.3809 21.5684 79.5918 21.3652L80.2129 22.2207C79.8613 22.5723 79.4883 22.8125 79.0938 22.9414C78.7031 23.0703 78.2754 23.1348 77.8105 23.1348C77.3887 23.1348 76.9961 23.0645 76.6328 22.9238C76.2695 22.7832 75.9551 22.5879 75.6895 22.3379C75.4238 22.084 75.2148 21.7832 75.0625 21.4355C74.9141 21.0879 74.8398 20.7012 74.8398 20.2754C74.8398 19.8613 74.9082 19.4805 75.0449 19.1328C75.1855 18.7812 75.3809 18.4785 75.6309 18.2246C75.8848 17.9668 76.1875 17.7676 76.5391 17.627C76.8906 17.4824 77.2793 17.4102 77.7051 17.4102C78.1465 17.4102 78.5469 17.4863 78.9062 17.6387C79.2656 17.7871 79.5723 18.0039 79.8262 18.2891C80.084 18.5742 80.2852 18.9238 80.4297 19.3379C80.5742 19.748 80.6465 20.2129 80.6465 20.7324H76.0703ZM79.2754 19.666C79.2129 19.3145 79.0312 19.0332 78.7305 18.8223C78.4297 18.6074 78.0879 18.5 77.7051 18.5C77.3223 18.5 76.9785 18.6074 76.6738 18.8223C76.3691 19.0332 76.1855 19.3145 76.123 19.666H79.2754ZM86.9688 17.5391L84.9531 23H83.5234L81.5078 17.5391H82.8027L84.2441 21.6699L85.6738 17.5391H86.9688ZM89.1719 20.7324C89.2305 21.1074 89.4082 21.4199 89.7051 21.6699C90.0059 21.916 90.4082 22.0391 90.9121 22.0391C91.3066 22.0391 91.6484 21.9785 91.9375 21.8574C92.2305 21.7324 92.4824 21.5684 92.6934 21.3652L93.3145 22.2207C92.9629 22.5723 92.5898 22.8125 92.1953 22.9414C91.8047 23.0703 91.377 23.1348 90.9121 23.1348C90.4902 23.1348 90.0977 23.0645 89.7344 22.9238C89.3711 22.7832 89.0566 22.5879 88.791 22.3379C88.5254 22.084 88.3164 21.7832 88.1641 21.4355C88.0156 21.0879 87.9414 20.7012 87.9414 20.2754C87.9414 19.8613 88.0098 19.4805 88.1465 19.1328C88.2871 18.7812 88.4824 18.4785 88.7324 18.2246C88.9863 17.9668 89.2891 17.7676 89.6406 17.627C89.9922 17.4824 90.3809 17.4102 90.8066 17.4102C91.248 17.4102 91.6484 17.4863 92.0078 17.6387C92.3672 17.7871 92.6738 18.0039 92.9277 18.2891C93.1855 18.5742 93.3867 18.9238 93.5312 19.3379C93.6758 19.748 93.748 20.2129 93.748 20.7324H89.1719ZM92.377 19.666C92.3145 19.3145 92.1328 19.0332 91.832 18.8223C91.5312 18.6074 91.1895 18.5 90.8066 18.5C90.4238 18.5 90.0801 18.6074 89.7754 18.8223C89.4707 19.0332 89.2871 19.3145 89.2246 19.666H92.377ZM99.9355 18.834C99.791 18.7637 99.6426 18.7109 99.4902 18.6758C99.3418 18.6367 99.1699 18.6172 98.9746 18.6172C98.7051 18.6172 98.4512 18.6582 98.2129 18.7402C97.9785 18.8184 97.7754 18.9375 97.6035 19.0977C97.4316 19.2578 97.2969 19.459 97.1992 19.7012C97.1055 19.9395 97.0586 20.2227 97.0586 20.5508V21.9102H98.2832V23H94.6094V21.9102H95.8457V18.6348H94.6094V17.5391H97.0586V18.9102C97.2578 18.3633 97.5508 17.9766 97.9375 17.75C98.3281 17.5234 98.791 17.4102 99.3262 17.4102C99.4941 17.4102 99.6699 17.4277 99.8535 17.4629C100.037 17.498 100.217 17.5605 100.393 17.6504L99.9355 18.834ZM107.998 17.5391H109.211V18.0312C109.441 17.8242 109.674 17.6699 109.908 17.5684C110.146 17.4629 110.418 17.4102 110.723 17.4102C111.074 17.4102 111.4 17.4824 111.701 17.627C112.002 17.7676 112.26 17.9648 112.475 18.2188C112.689 18.4688 112.859 18.7715 112.984 19.127C113.109 19.4785 113.172 19.8613 113.172 20.2754C113.172 20.6934 113.109 21.0781 112.984 21.4297C112.859 21.7812 112.689 22.084 112.475 22.3379C112.26 22.5879 112.002 22.7832 111.701 22.9238C111.4 23.0645 111.074 23.1348 110.723 23.1348C110.418 23.1348 110.146 23.0801 109.908 22.9707C109.674 22.8613 109.441 22.7031 109.211 22.4961V25.1855H107.998V17.5391ZM109.211 21.5352C109.355 21.6953 109.539 21.8203 109.762 21.9102C109.988 21.9961 110.205 22.0391 110.412 22.0391C110.869 22.0391 111.24 21.877 111.525 21.5527C111.814 21.2285 111.959 20.8027 111.959 20.2754C111.959 19.748 111.814 19.3203 111.525 18.9922C111.24 18.6641 110.869 18.5 110.412 18.5C110.205 18.5 109.988 18.543 109.762 18.6289C109.539 18.7109 109.355 18.832 109.211 18.9922V21.5352ZM118.855 23H115.188V21.9102H116.383V16.4492H115.188V15.3535H117.596V21.9102H118.855V23ZM120.789 21.4297C120.789 21.1094 120.875 20.8301 121.047 20.5918C121.219 20.3496 121.443 20.1484 121.721 19.9883C122.002 19.8281 122.322 19.709 122.682 19.6309C123.045 19.5488 123.414 19.5078 123.789 19.5078C123.996 19.5078 124.174 19.5117 124.322 19.5195C124.471 19.5273 124.621 19.5391 124.773 19.5547V19.3379C124.773 19.0527 124.662 18.8398 124.439 18.6992C124.221 18.5586 123.932 18.4883 123.572 18.4883C123.244 18.4883 122.91 18.5352 122.57 18.6289C122.23 18.7188 121.908 18.8516 121.604 19.0273L121.111 18.0781C121.471 17.8711 121.855 17.709 122.266 17.5918C122.68 17.4707 123.115 17.4102 123.572 17.4102C123.869 17.4102 124.16 17.4434 124.445 17.5098C124.734 17.5762 124.992 17.6855 125.219 17.8379C125.449 17.9902 125.633 18.1895 125.77 18.4355C125.906 18.6777 125.975 18.9785 125.975 19.3379V23H124.773V22.1973C124.582 22.4941 124.299 22.7246 123.924 22.8887C123.553 23.0527 123.152 23.1348 122.723 23.1348C122.457 23.1348 122.205 23.0977 121.967 23.0234C121.732 22.9531 121.529 22.8457 121.357 22.7012C121.186 22.5566 121.047 22.3789 120.941 22.168C120.84 21.9531 120.789 21.707 120.789 21.4297ZM123.033 22.0508C123.271 22.0508 123.494 22.0215 123.701 21.9629C123.912 21.9004 124.098 21.8164 124.258 21.7109C124.418 21.6016 124.543 21.4707 124.633 21.3184C124.727 21.166 124.773 20.998 124.773 20.8145V20.6094C124.582 20.5781 124.402 20.5605 124.234 20.5566C124.066 20.5527 123.918 20.5508 123.789 20.5508C123.195 20.5508 122.746 20.6289 122.441 20.7852C122.141 20.9414 121.99 21.1348 121.99 21.3652C121.99 21.8223 122.338 22.0508 123.033 22.0508ZM132.537 23H131.324V19.6309C131.324 19.2051 131.244 18.9102 131.084 18.7461C130.924 18.582 130.691 18.5 130.387 18.5C129.938 18.5 129.57 18.6816 129.285 19.0449C129.004 19.4082 128.863 19.9102 128.863 20.5508V23H127.65V17.5391H128.863V18.9102C128.984 18.4375 129.209 18.0703 129.537 17.8086C129.865 17.543 130.27 17.4102 130.75 17.4102C131.309 17.4102 131.746 17.5918 132.062 17.9551C132.379 18.3184 132.537 18.877 132.537 19.6309V23ZM139.088 23H137.875V19.6309C137.875 19.2051 137.795 18.9102 137.635 18.7461C137.475 18.582 137.242 18.5 136.938 18.5C136.488 18.5 136.121 18.6816 135.836 19.0449C135.555 19.4082 135.414 19.9102 135.414 20.5508V23H134.201V17.5391H135.414V18.9102C135.535 18.4375 135.76 18.0703 136.088 17.8086C136.416 17.543 136.82 17.4102 137.301 17.4102C137.859 17.4102 138.297 17.5918 138.613 17.9551C138.93 18.3184 139.088 18.877 139.088 19.6309V23ZM141.578 20.7324C141.637 21.1074 141.814 21.4199 142.111 21.6699C142.412 21.916 142.814 22.0391 143.318 22.0391C143.713 22.0391 144.055 21.9785 144.344 21.8574C144.637 21.7324 144.889 21.5684 145.1 21.3652L145.721 22.2207C145.369 22.5723 144.996 22.8125 144.602 22.9414C144.211 23.0703 143.783 23.1348 143.318 23.1348C142.896 23.1348 142.504 23.0645 142.141 22.9238C141.777 22.7832 141.463 22.5879 141.197 22.3379C140.932 22.084 140.723 21.7832 140.57 21.4355C140.422 21.0879 140.348 20.7012 140.348 20.2754C140.348 19.8613 140.416 19.4805 140.553 19.1328C140.693 18.7812 140.889 18.4785 141.139 18.2246C141.393 17.9668 141.695 17.7676 142.047 17.627C142.398 17.4824 142.787 17.4102 143.213 17.4102C143.654 17.4102 144.055 17.4863 144.414 17.6387C144.773 17.7871 145.08 18.0039 145.334 18.2891C145.592 18.5742 145.793 18.9238 145.938 19.3379C146.082 19.748 146.154 20.2129 146.154 20.7324H141.578ZM144.783 19.666C144.721 19.3145 144.539 19.0332 144.238 18.8223C143.938 18.6074 143.596 18.5 143.213 18.5C142.83 18.5 142.486 18.6074 142.182 18.8223C141.877 19.0332 141.693 19.3145 141.631 19.666H144.783ZM152.189 23H150.977V22.4961C150.742 22.7031 150.506 22.8613 150.268 22.9707C150.029 23.0801 149.758 23.1348 149.453 23.1348C149.102 23.1348 148.775 23.0645 148.475 22.9238C148.174 22.7832 147.914 22.5879 147.695 22.3379C147.48 22.084 147.311 21.7812 147.186 21.4297C147.064 21.0781 147.004 20.6934 147.004 20.2754C147.004 19.8613 147.064 19.4785 147.186 19.127C147.311 18.7715 147.48 18.4688 147.695 18.2188C147.914 17.9648 148.174 17.7676 148.475 17.627C148.775 17.4824 149.102 17.4102 149.453 17.4102C149.758 17.4102 150.029 17.4629 150.268 17.5684C150.506 17.6699 150.742 17.8242 150.977 18.0312V16.4492H149.922V15.3535H152.189V23ZM150.977 18.9922C150.832 18.832 150.645 18.7109 150.414 18.6289C150.188 18.543 149.971 18.5 149.764 18.5C149.307 18.5 148.934 18.6641 148.645 18.9922C148.359 19.3203 148.217 19.748 148.217 20.2754C148.217 20.8027 148.359 21.2285 148.645 21.5527C148.934 21.877 149.307 22.0391 149.764 22.0391C149.971 22.0391 150.188 21.998 150.414 21.916C150.645 21.8301 150.832 21.707 150.977 21.5469V18.9922ZM21.4609 31.5391L19.4453 37H18.0156L16 31.5391H17.2949L18.7363 35.6699L20.166 31.5391H21.4609ZM26.0195 30.8301H24.543V29.3535H26.0195V30.8301ZM27.1328 37H23.4648V35.9102H24.6719V32.6348H23.4648V31.5391H25.8848V35.9102H27.1328V37ZM34.416 35.3652C34.416 35.7207 34.3359 36.0098 34.1758 36.2324C34.0156 36.4551 33.8086 36.6348 33.5547 36.7715C33.3047 36.9082 33.0234 37.002 32.7109 37.0527C32.4023 37.1074 32.0996 37.1348 31.8027 37.1348C31.3066 37.1348 30.8125 37.0625 30.3203 36.918C29.8281 36.7734 29.4023 36.584 29.043 36.3496L29.5469 35.3535C29.9766 35.6035 30.3691 35.7812 30.7246 35.8867C31.084 35.9883 31.4434 36.0391 31.8027 36.0391C32.291 36.0391 32.6465 35.9883 32.8691 35.8867C33.0918 35.7812 33.2031 35.6367 33.2031 35.4531C33.2031 35.3633 33.1719 35.2891 33.1094 35.2305C33.0469 35.1719 32.9434 35.1191 32.7988 35.0723C32.6543 35.0215 32.4629 34.9727 32.2246 34.9258C31.9902 34.875 31.6973 34.8223 31.3457 34.7676C31.0645 34.7207 30.7969 34.6641 30.543 34.5977C30.293 34.5273 30.0723 34.4297 29.8809 34.3047C29.6895 34.1797 29.5352 34.0215 29.418 33.8301C29.3047 33.6387 29.248 33.3984 29.248 33.1094C29.248 32.8164 29.3223 32.5625 29.4707 32.3477C29.623 32.1289 29.8203 31.9492 30.0625 31.8086C30.3086 31.668 30.584 31.5664 30.8887 31.5039C31.1934 31.4414 31.498 31.4102 31.8027 31.4102C32.2324 31.4102 32.6484 31.4668 33.0508 31.5801C33.457 31.6895 33.8125 31.8477 34.1172 32.0547L33.6367 32.9922C33.332 32.8008 33.0352 32.6719 32.7461 32.6055C32.4609 32.5352 32.1465 32.5 31.8027 32.5C31.6582 32.5 31.5078 32.5078 31.3516 32.5234C31.1953 32.5391 31.0508 32.5703 30.918 32.6172C30.7852 32.6602 30.6738 32.7207 30.584 32.7988C30.498 32.873 30.4551 32.9648 30.4551 33.0742C30.4551 33.2188 30.582 33.3379 30.8359 33.4316C31.0938 33.5215 31.5312 33.6113 32.1484 33.7012C32.4844 33.748 32.791 33.8086 33.0684 33.8828C33.3457 33.9531 33.584 34.0508 33.7832 34.1758C33.9824 34.2969 34.1367 34.4551 34.2461 34.6504C34.3594 34.8418 34.416 35.0801 34.416 35.3652ZM39.1211 30.8301H37.6445V29.3535H39.1211V30.8301ZM40.2344 37H36.5664V35.9102H37.7734V32.6348H36.5664V31.5391H38.9863V35.9102H40.2344V37ZM47.7227 35.2598C47.6602 35.834 47.4336 36.291 47.043 36.6309C46.6562 36.9668 46.1719 37.1348 45.5898 37.1348C45.2695 37.1348 44.9766 37.082 44.7109 36.9766C44.4453 36.8711 44.2188 36.7246 44.0312 36.5371C43.8438 36.3496 43.6973 36.125 43.5918 35.8633C43.4902 35.5977 43.4395 35.3086 43.4395 34.9961V32.6348H42.2031V31.5391H43.4395V29.3535H44.6523V31.5391H46.9434V32.6348H44.6523V34.9961C44.6523 35.3477 44.7383 35.6094 44.9102 35.7812C45.082 35.9531 45.3086 36.0391 45.5898 36.0391C45.9336 36.0391 46.1895 35.9395 46.3574 35.7402C46.5254 35.541 46.625 35.3008 46.6562 35.0195L47.7227 35.2598ZM52.2227 30.8301H50.7461V29.3535H52.2227V30.8301ZM53.3359 37H49.668V35.9102H50.875V32.6348H49.668V31.5391H52.0879V35.9102H53.3359V37ZM60.4785 37H59.2656V33.6309C59.2656 33.2051 59.1855 32.9102 59.0254 32.7461C58.8652 32.582 58.6328 32.5 58.3281 32.5C57.8789 32.5 57.5117 32.6816 57.2266 33.0449C56.9453 33.4082 56.8047 33.9102 56.8047 34.5508V37H55.5918V31.5391H56.8047V32.9102C56.9258 32.4375 57.1504 32.0703 57.4785 31.8086C57.8066 31.543 58.2109 31.4102 58.6914 31.4102C59.25 31.4102 59.6875 31.5918 60.0039 31.9551C60.3203 32.3184 60.4785 32.877 60.4785 33.6309V37ZM67.0293 36.9414C67.0293 37.3164 66.9648 37.6504 66.8359 37.9434C66.707 38.2363 66.5254 38.4844 66.291 38.6875C66.0605 38.8906 65.7871 39.0449 65.4707 39.1504C65.1582 39.2598 64.8086 39.3145 64.4219 39.3145C63.4727 39.3145 62.6621 39.0273 61.9902 38.4531L62.5645 37.5156C63.123 37.9961 63.7422 38.2363 64.4219 38.2363C64.8398 38.2363 65.1758 38.1328 65.4297 37.9258C65.6875 37.7227 65.8164 37.4023 65.8164 36.9648V36.3789C65.5664 36.5938 65.3262 36.7539 65.0957 36.8594C64.8652 36.9609 64.5977 37.0117 64.293 37.0117C63.9414 37.0117 63.6152 36.9375 63.3145 36.7891C63.0137 36.6406 62.7539 36.4395 62.5352 36.1855C62.3203 35.9277 62.1504 35.6289 62.0254 35.2891C61.9043 34.9492 61.8438 34.5879 61.8438 34.2051C61.8438 33.8223 61.9043 33.4609 62.0254 33.1211C62.1504 32.7773 62.3203 32.4805 62.5352 32.2305C62.7539 31.9766 63.0137 31.7773 63.3145 31.6328C63.6152 31.4844 63.9414 31.4102 64.293 31.4102C64.5977 31.4102 64.8691 31.4629 65.1074 31.5684C65.3457 31.6699 65.582 31.8242 65.8164 32.0312V31.5391H67.0293V36.9414ZM65.8164 32.9922C65.6719 32.832 65.4844 32.7109 65.2539 32.6289C65.0273 32.543 64.8066 32.5 64.5918 32.5C64.1348 32.5 63.7637 32.6602 63.4785 32.9805C63.1973 33.3008 63.0566 33.709 63.0566 34.2051C63.0566 34.4512 63.0938 34.6797 63.168 34.8906C63.2461 35.0977 63.3516 35.2773 63.4844 35.4297C63.6211 35.582 63.7832 35.7031 63.9707 35.793C64.1621 35.8789 64.3691 35.9219 64.5918 35.9219C64.8066 35.9219 65.0273 35.8789 65.2539 35.793C65.4844 35.7031 65.6719 35.5781 65.8164 35.418V32.9922ZM78.4258 30.8301H76.9492V29.3535H78.4258V30.8301ZM79.5391 37H75.8711V35.9102H77.0781V32.6348H75.8711V31.5391H78.291V35.9102H79.5391V37ZM87.0273 35.2598C86.9648 35.834 86.7383 36.291 86.3477 36.6309C85.9609 36.9668 85.4766 37.1348 84.8945 37.1348C84.5742 37.1348 84.2812 37.082 84.0156 36.9766C83.75 36.8711 83.5234 36.7246 83.3359 36.5371C83.1484 36.3496 83.002 36.125 82.8965 35.8633C82.7949 35.5977 82.7441 35.3086 82.7441 34.9961V32.6348H81.5078V31.5391H82.7441V29.3535H83.957V31.5391H86.248V32.6348H83.957V34.9961C83.957 35.3477 84.043 35.6094 84.2148 35.7812C84.3867 35.9531 84.6133 36.0391 84.8945 36.0391C85.2383 36.0391 85.4941 35.9395 85.6621 35.7402C85.8301 35.541 85.9297 35.3008 85.9609 35.0195L87.0273 35.2598ZM93.3848 31.1172C93.3848 31.4062 93.332 31.6602 93.2266 31.8789C93.125 32.0938 92.998 32.293 92.8457 32.4766C92.6934 32.6602 92.5254 32.834 92.3418 32.998C92.1582 33.1621 91.9902 33.332 91.8379 33.5078C91.6855 33.6836 91.5566 33.8789 91.4512 34.0938C91.3496 34.3047 91.2988 34.5449 91.2988 34.8145H90.0508C90.0508 34.4941 90.1016 34.209 90.2031 33.959C90.3086 33.7051 90.4414 33.4766 90.6016 33.2734C90.7617 33.0703 90.9316 32.8828 91.1113 32.7109C91.291 32.5391 91.4609 32.3691 91.6211 32.2012C91.7812 32.0332 91.9121 31.8613 92.0137 31.6855C92.1191 31.5098 92.1719 31.3164 92.1719 31.1055C92.1719 30.8516 92.0957 30.6562 91.9434 30.5195C91.7949 30.3828 91.5918 30.3145 91.334 30.3145C90.9512 30.3145 90.6719 30.4219 90.4961 30.6367C90.3203 30.8477 90.2109 31.1406 90.168 31.5156L89.043 31.3457C89.1133 30.6895 89.3379 30.1719 89.7168 29.793C90.0996 29.4141 90.6348 29.2246 91.3223 29.2246C91.9707 29.2246 92.4766 29.3965 92.8398 29.7402C93.2031 30.084 93.3848 30.543 93.3848 31.1172ZM91.5273 37H90.0508V35.5234H91.5273V37Z" fill="white"/>
<defs>
<filter id="filter0_b" x="-34" y="-34" width="252" height="119" filterUnits="userSpaceOnUse" color-interpolation-filters="sRGB">
<feFlood flood-opacity="0" result="BackgroundImageFix"/>
<feGaussianBlur in="BackgroundImage" stdDeviation="17"/>
<feComposite in2="SourceAlpha" operator="in" result="effect1_backgroundBlur"/>
<feBlend mode="normal" in="SourceGraphic" in2="effect1_backgroundBlur" result="shape"/>
</filter>
</defs>
</svg>
