<svg width="37" height="42" viewBox="0 0 37 42" fill="none" xmlns="http://www.w3.org/2000/svg">
<g filter="url(#filter0_b)">
<path d="M18.5 0L9.31436 5.35958L8.55143e-08 10.5L0.128717 21L8.55143e-08 31.5L9.31436 36.6404L18.5 42L27.6856 36.6404L37 31.5L36.8713 21L37 10.5L27.6856 5.35958L18.5 0Z" fill="url(#paint0_linear)"/>
</g>
<path d="M15.5005 20.5001H19.2955L17.6455 18.8551C17.5514 18.7609 17.4985 18.6332 17.4985 18.5001C17.4985 18.3669 17.5514 18.2392 17.6455 18.1451C17.7397 18.0509 17.8674 17.998 18.0005 17.998C18.1337 17.998 18.2614 18.0509 18.3555 18.1451L20.8555 20.6451C20.9011 20.6926 20.9367 20.7487 20.9605 20.8101C21.0105 20.9318 21.0105 21.0684 20.9605 21.1901C20.9367 21.2515 20.9011 21.3075 20.8555 21.3551L18.3555 23.8551C18.3091 23.902 18.2538 23.9392 18.1928 23.9645C18.1319 23.9899 18.0665 24.003 18.0005 24.003C17.9345 24.003 17.8692 23.9899 17.8083 23.9645C17.7473 23.9392 17.692 23.902 17.6455 23.8551C17.5987 23.8086 17.5615 23.7533 17.5361 23.6924C17.5107 23.6315 17.4976 23.5661 17.4976 23.5001C17.4976 23.4341 17.5107 23.3687 17.5361 23.3078C17.5615 23.2469 17.5987 23.1916 17.6455 23.1451L19.2955 21.5001H15.5005C15.3679 21.5001 15.2408 21.4474 15.147 21.3536C15.0532 21.2599 15.0005 21.1327 15.0005 21.0001C15.0005 20.8675 15.0532 20.7403 15.147 20.6465C15.2408 20.5528 15.3679 20.5001 15.5005 20.5001Z" fill="white"/>
<defs>
<filter id="filter0_b" x="-14" y="-14" width="65" height="70" filterUnits="userSpaceOnUse" color-interpolation-filters="sRGB">
<feFlood flood-opacity="0" result="BackgroundImageFix"/>
<feGaussianBlur in="BackgroundImage" stdDeviation="7"/>
<feComposite in2="SourceAlpha" operator="in" result="effect1_backgroundBlur"/>
<feBlend mode="normal" in="SourceGraphic" in2="effect1_backgroundBlur" result="shape"/>
</filter>
<linearGradient id="paint0_linear" x1="8.36905" y1="8.28947" x2="35.7303" y2="36.0973" gradientUnits="userSpaceOnUse">
<stop stop-color="#F04F75"/>
<stop offset="1" stop-color="#E2986B"/>
</linearGradient>
</defs>
</svg>
