<svg width="37" height="42" viewBox="0 0 37 42" fill="none" xmlns="http://www.w3.org/2000/svg">
<path d="M9.56634 5.79144L9.56641 5.79157L9.55595 5.79734L0.503632 10.7931L0.628677 20.9939L0.62883 20.9939L0.628677 21.0061L0.503632 31.2069L9.55595 36.2027L9.55602 36.2025L9.56634 36.2086L18.5 41.4211L27.4337 36.2086L27.4336 36.2084L27.4441 36.2027L36.4964 31.2069L36.3713 21.0061L36.3712 21.0061L36.3713 20.9939L36.4964 10.7931L27.4441 5.79734L27.444 5.79747L27.4337 5.79144L18.5 0.578887L9.56634 5.79144Z" stroke="url(#paint0_linear)"/>

<path d="M15.5 20.5H19.295L17.645 18.855C17.5508 18.7609 17.4979 18.6332 17.4979 18.5C17.4979 18.3669 17.5508 18.2392 17.645 18.145C17.7391 18.0509 17.8668 17.998 18 17.998C18.1331 17.998 18.2608 18.0509 18.355 18.145L20.855 20.645C20.9005 20.6926 20.9362 20.7487 20.96 20.81C21.01 20.9318 21.01 21.0683 20.96 21.19C20.9362 21.2514 20.9005 21.3075 20.855 21.355L18.355 23.855C18.3085 23.9019 18.2532 23.9391 18.1923 23.9645C18.1313 23.9899 18.066 24.0029 18 24.0029C17.934 24.0029 17.8686 23.9899 17.8077 23.9645C17.7468 23.9391 17.6915 23.9019 17.645 23.855C17.5981 23.8085 17.5609 23.7532 17.5355 23.6923C17.5102 23.6314 17.4971 23.566 17.4971 23.5C17.4971 23.434 17.5102 23.3687 17.5355 23.3077C17.5609 23.2468 17.5981 23.1915 17.645 23.145L19.295 21.5H15.5C15.3674 21.5 15.2402 21.4474 15.1464 21.3536C15.0527 21.2598 15 21.1326 15 21C15 20.8674 15.0527 20.7402 15.1464 20.6465C15.2402 20.5527 15.3674 20.5 15.5 20.5Z" fill="white"/>
<defs>
<linearGradient id="paint0_linear" x1="-1.39153" y1="20.7008" x2="37.2576" y2="20.1687" gradientUnits="userSpaceOnUse">
<stop stop-color="#CE09FF"/>
<stop offset="1" stop-color="#FFA34E"/>
</linearGradient>
</defs>
</svg>
