<svg width="225" height="209" viewBox="0 0 225 209" fill="none" xmlns="http://www.w3.org/2000/svg">
<g filter="url(#filter0_b)">
<path d="M117 117C117 112.582 121.029 109 126 109H216C220.971 109 225 112.582 225 117V147C225 151.418 220.971 155 216 155H126C121.029 155 117 151.418 117 147V117Z" fill="#422BA6"/>
</g>
<g filter="url(#filter1_b)">
<path d="M0 117C0 112.582 4.02944 109 9 109H99C103.971 109 108 112.582 108 117V147C108 151.418 103.971 155 99 155H9C4.02944 155 0 151.418 0 147V117Z" fill="#422BA6"/>
</g>
<g filter="url(#filter2_b)">
<path d="M0 171C0 166.582 4.02944 163 9 163H99C103.971 163 108 166.582 108 171V201C108 205.418 103.971 209 99 209H9C4.02944 209 0 205.418 0 201V171Z" fill="#422BA6"/>
</g>
<g filter="url(#filter3_b)">
<path d="M117 8C117 3.58172 121.029 0 126 0H216C220.971 0 225 3.58172 225 8V38C225 42.4183 220.971 46 216 46H126C121.029 46 117 42.4183 117 38V8Z" fill="#422BA6"/>
</g>
<g filter="url(#filter4_b)">
<path d="M0 8C0 3.58172 4.02944 0 9 0H99C103.971 0 108 3.58172 108 8V38C108 42.4183 103.971 46 99 46H9C4.02944 46 0 42.4183 0 38V8Z" fill="#422BA6"/>
</g>
<g filter="url(#filter5_b)">
<path d="M0 62C0 57.5817 4.02944 54 9 54H99C103.971 54 108 57.5817 108 62V92C108 96.4183 103.971 100 99 100H9C4.02944 100 0 96.4183 0 92V62Z" fill="#422BA6"/>
</g>
<g filter="url(#filter6_b)">
<path d="M117 62C117 57.5817 121.029 54 126 54H216C220.971 54 225 57.5817 225 62V92C225 96.4183 220.971 100 216 100H126C121.029 100 117 96.4183 117 92V62Z" fill="#422BA6"/>
</g>
<path d="M36.3398 187.902C36.3398 188.254 36.2793 188.568 36.1582 188.846C36.041 189.119 35.8789 189.352 35.6719 189.543C35.4688 189.734 35.2246 189.881 34.9395 189.982C34.6582 190.084 34.3574 190.135 34.0371 190.135C33.6777 190.135 33.3535 190.07 33.0645 189.941C32.7754 189.812 32.5273 189.6 32.3203 189.303V190H31.2305V187.504H32.3203C32.3203 187.754 32.3633 187.975 32.4492 188.166C32.5391 188.357 32.6562 188.52 32.8008 188.652C32.9453 188.781 33.1133 188.881 33.3047 188.951C33.4961 189.018 33.6992 189.051 33.9141 189.051C34.2773 189.051 34.5703 188.967 34.793 188.799C35.0156 188.631 35.127 188.363 35.127 187.996C35.127 187.805 35.0918 187.641 35.0215 187.504C34.9551 187.367 34.8574 187.246 34.7285 187.141C34.6035 187.031 34.4492 186.938 34.2656 186.859C34.082 186.777 33.873 186.691 33.6387 186.602C33.3613 186.508 33.084 186.402 32.8066 186.285C32.5293 186.168 32.2812 186.023 32.0625 185.852C31.8438 185.68 31.666 185.469 31.5293 185.219C31.3926 184.965 31.3242 184.646 31.3242 184.264C31.3242 183.928 31.3848 183.635 31.5059 183.385C31.6309 183.131 31.7949 182.918 31.998 182.746C32.2051 182.574 32.4434 182.445 32.7129 182.359C32.9863 182.27 33.2754 182.225 33.5801 182.225C33.9316 182.225 34.2324 182.299 34.4824 182.447C34.7363 182.596 34.9316 182.793 35.0684 183.039V182.354H36.1582V184.732H35.0684C35.0684 184.283 34.9492 183.934 34.7109 183.684C34.4766 183.43 34.1602 183.303 33.7617 183.303C33.4102 183.303 33.1172 183.385 32.8828 183.549C32.6523 183.713 32.5371 183.943 32.5371 184.24C32.5371 184.393 32.5664 184.523 32.625 184.633C32.6875 184.738 32.7754 184.836 32.8887 184.926C33.0059 185.012 33.1523 185.094 33.3281 185.172C33.5039 185.246 33.707 185.328 33.9375 185.418C34.2266 185.52 34.5137 185.635 34.7988 185.764C35.084 185.893 35.3398 186.051 35.5664 186.238C35.793 186.426 35.9785 186.654 36.123 186.924C36.2676 187.189 36.3398 187.516 36.3398 187.902ZM37.9102 184.539H39.123V187.914C39.123 188.336 39.2031 188.629 39.3633 188.793C39.5234 188.957 39.7559 189.039 40.0605 189.039C40.5059 189.039 40.8711 188.857 41.1562 188.494C41.4414 188.131 41.584 187.629 41.584 186.988V184.539H42.7969V190H41.584V188.635C41.4629 189.104 41.2383 189.471 40.9102 189.736C40.582 190.002 40.1777 190.135 39.6973 190.135C39.1387 190.135 38.7012 189.953 38.3848 189.59C38.0684 189.223 37.9102 188.664 37.9102 187.914V184.539ZM44.4609 184.539H45.6738V185.031C45.9043 184.824 46.1367 184.67 46.3711 184.568C46.6094 184.463 46.8809 184.41 47.1855 184.41C47.5371 184.41 47.8633 184.482 48.1641 184.627C48.4648 184.768 48.7227 184.965 48.9375 185.219C49.1523 185.469 49.3223 185.771 49.4473 186.127C49.5723 186.479 49.6348 186.861 49.6348 187.275C49.6348 187.693 49.5723 188.078 49.4473 188.43C49.3223 188.781 49.1523 189.084 48.9375 189.338C48.7227 189.588 48.4648 189.783 48.1641 189.924C47.8633 190.064 47.5371 190.135 47.1855 190.135C46.8809 190.135 46.6094 190.08 46.3711 189.971C46.1367 189.861 45.9043 189.703 45.6738 189.496V192.186H44.4609V184.539ZM45.6738 188.535C45.8184 188.695 46.002 188.82 46.2246 188.91C46.4512 188.996 46.668 189.039 46.875 189.039C47.332 189.039 47.7031 188.877 47.9883 188.553C48.2773 188.229 48.4219 187.803 48.4219 187.275C48.4219 186.748 48.2773 186.32 47.9883 185.992C47.7031 185.664 47.332 185.5 46.875 185.5C46.668 185.5 46.4512 185.543 46.2246 185.629C46.002 185.711 45.8184 185.832 45.6738 185.992V188.535ZM51.0117 184.539H52.2246V185.031C52.4551 184.824 52.6875 184.67 52.9219 184.568C53.1602 184.463 53.4316 184.41 53.7363 184.41C54.0879 184.41 54.4141 184.482 54.7148 184.627C55.0156 184.768 55.2734 184.965 55.4883 185.219C55.7031 185.469 55.873 185.771 55.998 186.127C56.123 186.479 56.1855 186.861 56.1855 187.275C56.1855 187.693 56.123 188.078 55.998 188.43C55.873 188.781 55.7031 189.084 55.4883 189.338C55.2734 189.588 55.0156 189.783 54.7148 189.924C54.4141 190.064 54.0879 190.135 53.7363 190.135C53.4316 190.135 53.1602 190.08 52.9219 189.971C52.6875 189.861 52.4551 189.703 52.2246 189.496V192.186H51.0117V184.539ZM52.2246 188.535C52.3691 188.695 52.5527 188.82 52.7754 188.91C53.002 188.996 53.2188 189.039 53.4258 189.039C53.8828 189.039 54.2539 188.877 54.5391 188.553C54.8281 188.229 54.9727 187.803 54.9727 187.275C54.9727 186.748 54.8281 186.32 54.5391 185.992C54.2539 185.664 53.8828 185.5 53.4258 185.5C53.2188 185.5 53.002 185.543 52.7754 185.629C52.5527 185.711 52.3691 185.832 52.2246 185.992V188.535ZM62.877 187.275C62.877 187.701 62.8086 188.088 62.6719 188.436C62.5391 188.783 62.3457 189.084 62.0918 189.338C61.8418 189.588 61.541 189.783 61.1895 189.924C60.8379 190.064 60.4453 190.135 60.0117 190.135C59.5859 190.135 59.1973 190.064 58.8457 189.924C58.4941 189.783 58.1914 189.588 57.9375 189.338C57.6875 189.084 57.4941 188.783 57.3574 188.436C57.2246 188.088 57.1582 187.701 57.1582 187.275C57.1582 186.861 57.2246 186.479 57.3574 186.127C57.4941 185.771 57.6875 185.467 57.9375 185.213C58.1914 184.955 58.4941 184.758 58.8457 184.621C59.1973 184.48 59.5859 184.41 60.0117 184.41C60.4453 184.41 60.8379 184.48 61.1895 184.621C61.541 184.758 61.8418 184.955 62.0918 185.213C62.3457 185.467 62.5391 185.771 62.6719 186.127C62.8086 186.479 62.877 186.861 62.877 187.275ZM61.6699 187.275C61.6699 187.029 61.6309 186.797 61.5527 186.578C61.4785 186.355 61.3691 186.166 61.2246 186.01C61.0801 185.854 60.9043 185.73 60.6973 185.641C60.4941 185.547 60.2656 185.5 60.0117 185.5C59.7539 185.5 59.5234 185.547 59.3203 185.641C59.1172 185.73 58.9453 185.854 58.8047 186.01C58.6641 186.166 58.5547 186.355 58.4766 186.578C58.4023 186.797 58.3652 187.029 58.3652 187.275C58.3652 187.533 58.4023 187.768 58.4766 187.979C58.5547 188.189 58.6641 188.375 58.8047 188.535C58.9453 188.695 59.1172 188.82 59.3203 188.91C59.5234 188.996 59.7539 189.039 60.0117 189.039C60.2656 189.039 60.4941 188.996 60.6973 188.91C60.9043 188.82 61.0801 188.695 61.2246 188.535C61.3691 188.375 61.4785 188.189 61.5527 187.979C61.6309 187.768 61.6699 187.533 61.6699 187.275ZM69.1523 185.834C69.0078 185.764 68.8594 185.711 68.707 185.676C68.5586 185.637 68.3867 185.617 68.1914 185.617C67.9219 185.617 67.668 185.658 67.4297 185.74C67.1953 185.818 66.9922 185.938 66.8203 186.098C66.6484 186.258 66.5137 186.459 66.416 186.701C66.3223 186.939 66.2754 187.223 66.2754 187.551V188.91H67.5V190H63.8262V188.91H65.0625V185.635H63.8262V184.539H66.2754V185.91C66.4746 185.363 66.7676 184.977 67.1543 184.75C67.5449 184.523 68.0078 184.41 68.543 184.41C68.7109 184.41 68.8867 184.428 69.0703 184.463C69.2539 184.498 69.4336 184.561 69.6094 184.65L69.1523 185.834ZM75.8965 188.26C75.834 188.834 75.6074 189.291 75.2168 189.631C74.8301 189.967 74.3457 190.135 73.7637 190.135C73.4434 190.135 73.1504 190.082 72.8848 189.977C72.6191 189.871 72.3926 189.725 72.2051 189.537C72.0176 189.35 71.8711 189.125 71.7656 188.863C71.6641 188.598 71.6133 188.309 71.6133 187.996V185.635H70.377V184.539H71.6133V182.354H72.8262V184.539H75.1172V185.635H72.8262V187.996C72.8262 188.348 72.9121 188.609 73.084 188.781C73.2559 188.953 73.4824 189.039 73.7637 189.039C74.1074 189.039 74.3633 188.939 74.5312 188.74C74.6992 188.541 74.7988 188.301 74.8301 188.02L75.8965 188.26Z" fill="white"/>
<path d="M33.375 24.6621C33.2812 25.0371 33.1562 25.377 33 25.6816C32.8438 25.9863 32.6523 26.2461 32.4258 26.4609C32.2031 26.6758 31.9414 26.8418 31.6406 26.959C31.3438 27.0762 31.002 27.1348 30.6152 27.1348C30.0801 27.1348 29.627 27.0254 29.2559 26.8066C28.8848 26.584 28.5801 26.2891 28.3418 25.9219C28.1074 25.5508 27.9375 25.1289 27.832 24.6562C27.7305 24.1797 27.6797 23.6855 27.6797 23.1738C27.6797 22.6621 27.7305 22.168 27.832 21.6914C27.9375 21.2148 28.1055 20.7949 28.3359 20.4316C28.5703 20.0684 28.8672 19.7773 29.2266 19.5586C29.5859 19.3359 30.0254 19.2246 30.5449 19.2246C30.7129 19.2246 30.8828 19.2461 31.0547 19.2891C31.2266 19.332 31.3867 19.3984 31.5352 19.4883C31.6836 19.5742 31.8125 19.6816 31.9219 19.8105C32.0352 19.9395 32.1152 20.0879 32.1621 20.2559V19.3535H33.2578V22.248H32.1621C32.1621 22.0098 32.1328 21.7754 32.0742 21.5449C32.0156 21.3105 31.9219 21.1035 31.793 20.9238C31.6641 20.7441 31.502 20.5977 31.3066 20.4844C31.1113 20.3711 30.8809 20.3145 30.6152 20.3145C30.2715 20.3145 29.9902 20.3984 29.7715 20.5664C29.5527 20.7344 29.377 20.9551 29.2441 21.2285C29.1113 21.502 29.0176 21.8086 28.9629 22.1484C28.9121 22.4883 28.8867 22.8301 28.8867 23.1738C28.8867 23.5176 28.9121 23.8613 28.9629 24.2051C29.0176 24.5488 29.1094 24.8574 29.2383 25.1309C29.3672 25.4004 29.543 25.6191 29.7656 25.7871C29.9883 25.9551 30.2715 26.0391 30.6152 26.0391C31.1113 26.0391 31.4922 25.8809 31.7578 25.5645C32.0273 25.248 32.2422 24.8223 32.4023 24.2871L33.375 24.6621ZM39.5215 27H38.3086V23.6309C38.3086 23.2051 38.2285 22.9102 38.0684 22.7461C37.9082 22.582 37.6758 22.5 37.3711 22.5C36.9219 22.5 36.5547 22.6816 36.2695 23.0449C35.9883 23.4082 35.8477 23.9102 35.8477 24.5508V27H34.6348V19.3535H35.8477V22.9102C35.9688 22.4375 36.1934 22.0703 36.5215 21.8086C36.8496 21.543 37.2539 21.4102 37.7344 21.4102C38.293 21.4102 38.7305 21.5918 39.0469 21.9551C39.3633 22.3184 39.5215 22.877 39.5215 23.6309V27ZM40.875 25.4297C40.875 25.1094 40.9609 24.8301 41.1328 24.5918C41.3047 24.3496 41.5293 24.1484 41.8066 23.9883C42.0879 23.8281 42.4082 23.709 42.7676 23.6309C43.1309 23.5488 43.5 23.5078 43.875 23.5078C44.082 23.5078 44.2598 23.5117 44.4082 23.5195C44.5566 23.5273 44.707 23.5391 44.8594 23.5547V23.3379C44.8594 23.0527 44.748 22.8398 44.5254 22.6992C44.3066 22.5586 44.0176 22.4883 43.6582 22.4883C43.3301 22.4883 42.9961 22.5352 42.6562 22.6289C42.3164 22.7188 41.9941 22.8516 41.6895 23.0273L41.1973 22.0781C41.5566 21.8711 41.9414 21.709 42.3516 21.5918C42.7656 21.4707 43.2012 21.4102 43.6582 21.4102C43.9551 21.4102 44.2461 21.4434 44.5312 21.5098C44.8203 21.5762 45.0781 21.6855 45.3047 21.8379C45.5352 21.9902 45.7188 22.1895 45.8555 22.4355C45.9922 22.6777 46.0605 22.9785 46.0605 23.3379V27H44.8594V26.1973C44.668 26.4941 44.3848 26.7246 44.0098 26.8887C43.6387 27.0527 43.2383 27.1348 42.8086 27.1348C42.543 27.1348 42.291 27.0977 42.0527 27.0234C41.8184 26.9531 41.6152 26.8457 41.4434 26.7012C41.2715 26.5566 41.1328 26.3789 41.0273 26.168C40.9258 25.9531 40.875 25.707 40.875 25.4297ZM43.1191 26.0508C43.3574 26.0508 43.5801 26.0215 43.7871 25.9629C43.998 25.9004 44.1836 25.8164 44.3438 25.7109C44.5039 25.6016 44.6289 25.4707 44.7188 25.3184C44.8125 25.166 44.8594 24.998 44.8594 24.8145V24.6094C44.668 24.5781 44.4883 24.5605 44.3203 24.5566C44.1523 24.5527 44.0039 24.5508 43.875 24.5508C43.2812 24.5508 42.832 24.6289 42.5273 24.7852C42.2266 24.9414 42.0762 25.1348 42.0762 25.3652C42.0762 25.8223 42.4238 26.0508 43.1191 26.0508ZM52.623 27H51.4102V23.6309C51.4102 23.2051 51.3301 22.9102 51.1699 22.7461C51.0098 22.582 50.7773 22.5 50.4727 22.5C50.0234 22.5 49.6562 22.6816 49.3711 23.0449C49.0898 23.4082 48.9492 23.9102 48.9492 24.5508V27H47.7363V21.5391H48.9492V22.9102C49.0703 22.4375 49.2949 22.0703 49.623 21.8086C49.9512 21.543 50.3555 21.4102 50.8359 21.4102C51.3945 21.4102 51.832 21.5918 52.1484 21.9551C52.4648 22.3184 52.623 22.877 52.623 23.6309V27ZM59.1738 27H57.9609V23.6309C57.9609 23.2051 57.8809 22.9102 57.7207 22.7461C57.5605 22.582 57.3281 22.5 57.0234 22.5C56.5742 22.5 56.207 22.6816 55.9219 23.0449C55.6406 23.4082 55.5 23.9102 55.5 24.5508V27H54.2871V21.5391H55.5V22.9102C55.6211 22.4375 55.8457 22.0703 56.1738 21.8086C56.502 21.543 56.9062 21.4102 57.3867 21.4102C57.9453 21.4102 58.3828 21.5918 58.6992 21.9551C59.0156 22.3184 59.1738 22.877 59.1738 23.6309V27ZM61.6641 24.7324C61.7227 25.1074 61.9004 25.4199 62.1973 25.6699C62.498 25.916 62.9004 26.0391 63.4043 26.0391C63.7988 26.0391 64.1406 25.9785 64.4297 25.8574C64.7227 25.7324 64.9746 25.5684 65.1855 25.3652L65.8066 26.2207C65.4551 26.5723 65.082 26.8125 64.6875 26.9414C64.2969 27.0703 63.8691 27.1348 63.4043 27.1348C62.9824 27.1348 62.5898 27.0645 62.2266 26.9238C61.8633 26.7832 61.5488 26.5879 61.2832 26.3379C61.0176 26.084 60.8086 25.7832 60.6562 25.4355C60.5078 25.0879 60.4336 24.7012 60.4336 24.2754C60.4336 23.8613 60.502 23.4805 60.6387 23.1328C60.7793 22.7812 60.9746 22.4785 61.2246 22.2246C61.4785 21.9668 61.7812 21.7676 62.1328 21.627C62.4844 21.4824 62.873 21.4102 63.2988 21.4102C63.7402 21.4102 64.1406 21.4863 64.5 21.6387C64.8594 21.7871 65.166 22.0039 65.4199 22.2891C65.6777 22.5742 65.8789 22.9238 66.0234 23.3379C66.168 23.748 66.2402 24.2129 66.2402 24.7324H61.6641ZM64.8691 23.666C64.8066 23.3145 64.625 23.0332 64.3242 22.8223C64.0234 22.6074 63.6816 22.5 63.2988 22.5C62.916 22.5 62.5723 22.6074 62.2676 22.8223C61.9629 23.0332 61.7793 23.3145 61.7168 23.666H64.8691ZM71.6953 27H68.0273V25.9102H69.2227V20.4492H68.0273V19.3535H70.4355V25.9102H71.6953V27ZM78.9668 25.3652C78.9668 25.7207 78.8867 26.0098 78.7266 26.2324C78.5664 26.4551 78.3594 26.6348 78.1055 26.7715C77.8555 26.9082 77.5742 27.002 77.2617 27.0527C76.9531 27.1074 76.6504 27.1348 76.3535 27.1348C75.8574 27.1348 75.3633 27.0625 74.8711 26.918C74.3789 26.7734 73.9531 26.584 73.5938 26.3496L74.0977 25.3535C74.5273 25.6035 74.9199 25.7812 75.2754 25.8867C75.6348 25.9883 75.9941 26.0391 76.3535 26.0391C76.8418 26.0391 77.1973 25.9883 77.4199 25.8867C77.6426 25.7812 77.7539 25.6367 77.7539 25.4531C77.7539 25.3633 77.7227 25.2891 77.6602 25.2305C77.5977 25.1719 77.4941 25.1191 77.3496 25.0723C77.2051 25.0215 77.0137 24.9727 76.7754 24.9258C76.541 24.875 76.248 24.8223 75.8965 24.7676C75.6152 24.7207 75.3477 24.6641 75.0938 24.5977C74.8438 24.5273 74.623 24.4297 74.4316 24.3047C74.2402 24.1797 74.0859 24.0215 73.9688 23.8301C73.8555 23.6387 73.7988 23.3984 73.7988 23.1094C73.7988 22.8164 73.873 22.5625 74.0215 22.3477C74.1738 22.1289 74.3711 21.9492 74.6133 21.8086C74.8594 21.668 75.1348 21.5664 75.4395 21.5039C75.7441 21.4414 76.0488 21.4102 76.3535 21.4102C76.7832 21.4102 77.1992 21.4668 77.6016 21.5801C78.0078 21.6895 78.3633 21.8477 78.668 22.0547L78.1875 22.9922C77.8828 22.8008 77.5859 22.6719 77.2969 22.6055C77.0117 22.5352 76.6973 22.5 76.3535 22.5C76.209 22.5 76.0586 22.5078 75.9023 22.5234C75.7461 22.5391 75.6016 22.5703 75.4688 22.6172C75.3359 22.6602 75.2246 22.7207 75.1348 22.7988C75.0488 22.873 75.0059 22.9648 75.0059 23.0742C75.0059 23.2188 75.1328 23.3379 75.3867 23.4316C75.6445 23.5215 76.082 23.6113 76.6992 23.7012C77.0352 23.748 77.3418 23.8086 77.6191 23.8828C77.8965 23.9531 78.1348 24.0508 78.334 24.1758C78.5332 24.2969 78.6875 24.4551 78.7969 24.6504C78.9102 24.8418 78.9668 25.0801 78.9668 25.3652Z" fill="white"/>
<g filter="url(#filter7_b)">
<path d="M116 171C116 166.582 120.029 163 125 163H215C219.971 163 224 166.582 224 171V201C224 205.418 219.971 209 215 209H125C120.029 209 116 205.418 116 201V171Z" fill="#422BA6"/>
</g>
<path d="M20.0986 135H18.9268L17.0371 130.381V135H16.0264V128.628H17.2959L19.0879 133.018V128.628H20.0986V135ZM25.5576 129.541H22.4961V131.299H24.8838V132.212H22.4961V135H21.4854V128.628H25.5576V129.541ZM31.2461 130.952H30.3428V129.541H29.4834V134.092H30.4941V135H27.4668V134.092H28.4727V129.541H27.6035V130.952H26.7051V128.628H31.2461V130.952ZM42.2715 133.052C42.1934 133.364 42.0892 133.647 41.959 133.901C41.8288 134.155 41.6693 134.372 41.4805 134.551C41.2949 134.73 41.0768 134.868 40.8262 134.966C40.5788 135.063 40.2939 135.112 39.9717 135.112C39.5257 135.112 39.1481 135.021 38.8389 134.839C38.5296 134.653 38.2757 134.408 38.0771 134.102C37.8818 133.792 37.7402 133.441 37.6523 133.047C37.5677 132.65 37.5254 132.238 37.5254 131.812C37.5254 131.385 37.5677 130.973 37.6523 130.576C37.7402 130.179 37.8802 129.829 38.0723 129.526C38.2676 129.224 38.515 128.981 38.8145 128.799C39.1139 128.613 39.4801 128.521 39.9131 128.521C40.0531 128.521 40.1947 128.538 40.3379 128.574C40.4811 128.61 40.6146 128.665 40.7383 128.74C40.862 128.812 40.9694 128.901 41.0605 129.009C41.1549 129.116 41.2217 129.24 41.2607 129.38V128.628H42.1738V131.04H41.2607C41.2607 130.841 41.2363 130.646 41.1875 130.454C41.1387 130.259 41.0605 130.086 40.9531 129.937C40.8457 129.787 40.7106 129.665 40.5479 129.57C40.3851 129.476 40.193 129.429 39.9717 129.429C39.6852 129.429 39.4508 129.499 39.2686 129.639C39.0863 129.779 38.9398 129.963 38.8291 130.19C38.7184 130.418 38.6403 130.674 38.5947 130.957C38.5524 131.24 38.5312 131.525 38.5312 131.812C38.5312 132.098 38.5524 132.384 38.5947 132.671C38.6403 132.957 38.7168 133.215 38.8242 133.442C38.9316 133.667 39.0781 133.849 39.2637 133.989C39.4492 134.129 39.6852 134.199 39.9717 134.199C40.3851 134.199 40.7025 134.067 40.9238 133.804C41.1484 133.54 41.3275 133.185 41.4609 132.739L42.2715 133.052ZM47.75 132.729C47.75 133.084 47.693 133.407 47.5791 133.696C47.4684 133.986 47.3073 134.237 47.0957 134.448C46.8874 134.657 46.6367 134.819 46.3438 134.937C46.0508 135.054 45.7236 135.112 45.3623 135.112C45.0075 135.112 44.6836 135.054 44.3906 134.937C44.0977 134.819 43.8454 134.657 43.6338 134.448C43.4255 134.237 43.2643 133.986 43.1504 133.696C43.0397 133.407 42.9844 133.084 42.9844 132.729C42.9844 132.384 43.0397 132.065 43.1504 131.772C43.2643 131.476 43.4255 131.222 43.6338 131.011C43.8454 130.796 44.0977 130.632 44.3906 130.518C44.6836 130.4 45.0075 130.342 45.3623 130.342C45.7236 130.342 46.0508 130.4 46.3438 130.518C46.6367 130.632 46.8874 130.796 47.0957 131.011C47.3073 131.222 47.4684 131.476 47.5791 131.772C47.693 132.065 47.75 132.384 47.75 132.729ZM46.7441 132.729C46.7441 132.524 46.7116 132.331 46.6465 132.148C46.5846 131.963 46.4935 131.805 46.373 131.675C46.2526 131.545 46.1061 131.442 45.9336 131.367C45.7643 131.289 45.5739 131.25 45.3623 131.25C45.1475 131.25 44.9554 131.289 44.7861 131.367C44.6169 131.442 44.4736 131.545 44.3564 131.675C44.2393 131.805 44.1481 131.963 44.083 132.148C44.0212 132.331 43.9902 132.524 43.9902 132.729C43.9902 132.944 44.0212 133.14 44.083 133.315C44.1481 133.491 44.2393 133.646 44.3564 133.779C44.4736 133.913 44.6169 134.017 44.7861 134.092C44.9554 134.163 45.1475 134.199 45.3623 134.199C45.5739 134.199 45.7643 134.163 45.9336 134.092C46.1061 134.017 46.2526 133.913 46.373 133.779C46.4935 133.646 46.5846 133.491 46.6465 133.315C46.7116 133.14 46.7441 132.944 46.7441 132.729ZM52.3691 135H49.3125V134.092H50.3086V129.541H49.3125V128.628H51.3193V134.092H52.3691V135ZM57.8281 135H54.7715V134.092H55.7676V129.541H54.7715V128.628H56.7783V134.092H57.8281V135ZM60.3867 133.11C60.4355 133.423 60.5837 133.683 60.8311 133.892C61.0817 134.097 61.417 134.199 61.8369 134.199C62.1657 134.199 62.4505 134.149 62.6914 134.048C62.9355 133.944 63.1455 133.807 63.3213 133.638L63.8389 134.351C63.5459 134.644 63.235 134.844 62.9062 134.951C62.5807 135.059 62.2243 135.112 61.8369 135.112C61.4854 135.112 61.1582 135.054 60.8555 134.937C60.5527 134.819 60.2907 134.657 60.0693 134.448C59.848 134.237 59.6738 133.986 59.5469 133.696C59.4232 133.407 59.3613 133.084 59.3613 132.729C59.3613 132.384 59.4183 132.067 59.5322 131.777C59.6494 131.484 59.8122 131.232 60.0205 131.021C60.2321 130.806 60.4844 130.64 60.7773 130.522C61.0703 130.402 61.3942 130.342 61.749 130.342C62.1169 130.342 62.4505 130.405 62.75 130.532C63.0495 130.656 63.305 130.837 63.5166 131.074C63.7314 131.312 63.8991 131.603 64.0195 131.948C64.14 132.29 64.2002 132.677 64.2002 133.11H60.3867ZM63.0576 132.222C63.0055 131.929 62.8542 131.694 62.6035 131.519C62.3529 131.34 62.068 131.25 61.749 131.25C61.43 131.25 61.1436 131.34 60.8896 131.519C60.6357 131.694 60.4827 131.929 60.4307 132.222H63.0576ZM69.2979 134.351C69.0049 134.644 68.6956 134.844 68.3701 134.951C68.0479 135.059 67.6979 135.112 67.3203 135.112C66.9395 135.112 66.5928 135.055 66.2803 134.941C65.971 134.827 65.7074 134.668 65.4893 134.463C65.2744 134.255 65.1084 134.004 64.9912 133.711C64.8773 133.418 64.8203 133.091 64.8203 132.729C64.8203 132.384 64.8773 132.065 64.9912 131.772C65.1084 131.476 65.2646 131.224 65.46 131.016C65.6585 130.804 65.8913 130.64 66.1582 130.522C66.4251 130.402 66.7083 130.342 67.0078 130.342C67.3203 130.342 67.5921 130.407 67.8232 130.537C68.0544 130.667 68.222 130.858 68.3262 131.108V130.449H69.2295V132.568H68.3262C68.3262 132.168 68.2155 131.849 67.9941 131.611C67.776 131.37 67.4912 131.25 67.1396 131.25C66.9997 131.25 66.8516 131.279 66.6953 131.338C66.5423 131.393 66.4007 131.481 66.2705 131.602C66.1436 131.722 66.0378 131.875 65.9531 132.061C65.8685 132.246 65.8262 132.469 65.8262 132.729C65.8262 132.983 65.8669 133.203 65.9482 133.389C66.0296 133.571 66.1354 133.722 66.2656 133.843C66.3991 133.96 66.5553 134.049 66.7344 134.111C66.9167 134.17 67.1038 134.199 67.2959 134.199C67.6247 134.199 67.9095 134.149 68.1504 134.048C68.3945 133.944 68.6045 133.807 68.7803 133.638L69.2979 134.351ZM74.9766 133.55C74.9245 134.028 74.7357 134.409 74.4102 134.692C74.0879 134.972 73.6842 135.112 73.1992 135.112C72.9323 135.112 72.6882 135.068 72.4668 134.98C72.2454 134.893 72.0566 134.771 71.9004 134.614C71.7441 134.458 71.6221 134.271 71.5342 134.053C71.4495 133.831 71.4072 133.59 71.4072 133.33V131.362H70.377V130.449H71.4072V128.628H72.418V130.449H74.3271V131.362H72.418V133.33C72.418 133.623 72.4896 133.841 72.6328 133.984C72.776 134.128 72.9648 134.199 73.1992 134.199C73.4857 134.199 73.6989 134.116 73.8389 133.95C73.9788 133.784 74.0618 133.584 74.0879 133.35L74.9766 133.55ZM78.7266 129.858H77.4961V128.628H78.7266V129.858ZM79.6543 135H76.5977V134.092H77.6035V131.362H76.5977V130.449H78.6143V134.092H79.6543V135ZM85.9629 132.729C85.9629 133.084 85.9059 133.407 85.792 133.696C85.6813 133.986 85.5202 134.237 85.3086 134.448C85.1003 134.657 84.8496 134.819 84.5566 134.937C84.2637 135.054 83.9365 135.112 83.5752 135.112C83.2204 135.112 82.8965 135.054 82.6035 134.937C82.3105 134.819 82.0583 134.657 81.8467 134.448C81.6383 134.237 81.4772 133.986 81.3633 133.696C81.2526 133.407 81.1973 133.084 81.1973 132.729C81.1973 132.384 81.2526 132.065 81.3633 131.772C81.4772 131.476 81.6383 131.222 81.8467 131.011C82.0583 130.796 82.3105 130.632 82.6035 130.518C82.8965 130.4 83.2204 130.342 83.5752 130.342C83.9365 130.342 84.2637 130.4 84.5566 130.518C84.8496 130.632 85.1003 130.796 85.3086 131.011C85.5202 131.222 85.6813 131.476 85.792 131.772C85.9059 132.065 85.9629 132.384 85.9629 132.729ZM84.957 132.729C84.957 132.524 84.9245 132.331 84.8594 132.148C84.7975 131.963 84.7064 131.805 84.5859 131.675C84.4655 131.545 84.319 131.442 84.1465 131.367C83.9772 131.289 83.7868 131.25 83.5752 131.25C83.3604 131.25 83.1683 131.289 82.999 131.367C82.8298 131.442 82.6865 131.545 82.5693 131.675C82.4521 131.805 82.361 131.963 82.2959 132.148C82.234 132.331 82.2031 132.524 82.2031 132.729C82.2031 132.944 82.234 133.14 82.2959 133.315C82.361 133.491 82.4521 133.646 82.5693 133.779C82.6865 133.913 82.8298 134.017 82.999 134.092C83.1683 134.163 83.3604 134.199 83.5752 134.199C83.7868 134.199 83.9772 134.163 84.1465 134.092C84.319 134.017 84.4655 133.913 84.5859 133.779C84.7064 133.646 84.7975 133.491 84.8594 133.315C84.9245 133.14 84.957 132.944 84.957 132.729ZM91.0654 135H90.0547V132.192C90.0547 131.838 89.988 131.592 89.8545 131.455C89.721 131.318 89.5273 131.25 89.2734 131.25C88.8991 131.25 88.5931 131.401 88.3555 131.704C88.1211 132.007 88.0039 132.425 88.0039 132.959V135H86.9932V130.449H88.0039V131.592C88.1048 131.198 88.292 130.892 88.5654 130.674C88.8389 130.452 89.1758 130.342 89.5762 130.342C90.0417 130.342 90.4062 130.493 90.6699 130.796C90.9336 131.099 91.0654 131.564 91.0654 132.192V135Z" fill="white"/>
<path d="M149.627 73.3535L148.443 81H147.195L146.521 77.7012L145.859 81H144.611L143.428 73.3535H144.688L145.391 78.5039L145.947 75.5391H147.107L147.646 78.5039L148.367 73.3535H149.627ZM153.816 74.8301H152.34V73.3535H153.816V74.8301ZM154.93 81H151.262V79.9102H152.469V76.6348H151.262V75.5391H153.682V79.9102H154.93V81ZM162.418 79.2598C162.355 79.834 162.129 80.291 161.738 80.6309C161.352 80.9668 160.867 81.1348 160.285 81.1348C159.965 81.1348 159.672 81.082 159.406 80.9766C159.141 80.8711 158.914 80.7246 158.727 80.5371C158.539 80.3496 158.393 80.125 158.287 79.8633C158.186 79.5977 158.135 79.3086 158.135 78.9961V76.6348H156.898V75.5391H158.135V73.3535H159.348V75.5391H161.639V76.6348H159.348V78.9961C159.348 79.3477 159.434 79.6094 159.605 79.7812C159.777 79.9531 160.004 80.0391 160.285 80.0391C160.629 80.0391 160.885 79.9395 161.053 79.7402C161.221 79.541 161.32 79.3008 161.352 79.0195L162.418 79.2598ZM168.623 81H167.41V77.6309C167.41 77.2051 167.33 76.9102 167.17 76.7461C167.01 76.582 166.777 76.5 166.473 76.5C166.023 76.5 165.656 76.6816 165.371 77.0449C165.09 77.4082 164.949 77.9102 164.949 78.5508V81H163.736V73.3535H164.949V76.9102C165.07 76.4375 165.295 76.0703 165.623 75.8086C165.951 75.543 166.355 75.4102 166.836 75.4102C167.395 75.4102 167.832 75.5918 168.148 75.9551C168.465 76.3184 168.623 76.877 168.623 77.6309V81ZM175.174 81H173.961V80.4961C173.727 80.7031 173.49 80.8613 173.252 80.9707C173.014 81.0801 172.742 81.1348 172.438 81.1348C172.086 81.1348 171.76 81.0645 171.459 80.9238C171.158 80.7832 170.898 80.5879 170.68 80.3379C170.465 80.084 170.295 79.7812 170.17 79.4297C170.049 79.0781 169.988 78.6934 169.988 78.2754C169.988 77.8613 170.049 77.4785 170.17 77.127C170.295 76.7715 170.465 76.4688 170.68 76.2188C170.898 75.9648 171.158 75.7676 171.459 75.627C171.76 75.4824 172.086 75.4102 172.438 75.4102C172.742 75.4102 173.014 75.4629 173.252 75.5684C173.49 75.6699 173.727 75.8242 173.961 76.0312V74.4492H172.906V73.3535H175.174V81ZM173.961 76.9922C173.816 76.832 173.629 76.7109 173.398 76.6289C173.172 76.543 172.955 76.5 172.748 76.5C172.291 76.5 171.918 76.6641 171.629 76.9922C171.344 77.3203 171.201 77.748 171.201 78.2754C171.201 78.8027 171.344 79.2285 171.629 79.5527C171.918 79.877 172.291 80.0391 172.748 80.0391C172.955 80.0391 173.172 79.998 173.398 79.916C173.629 79.8301 173.816 79.707 173.961 79.5469V76.9922ZM181.877 76.834C181.732 76.7637 181.584 76.7109 181.432 76.6758C181.283 76.6367 181.111 76.6172 180.916 76.6172C180.646 76.6172 180.393 76.6582 180.154 76.7402C179.92 76.8184 179.717 76.9375 179.545 77.0977C179.373 77.2578 179.238 77.459 179.141 77.7012C179.047 77.9395 179 78.2227 179 78.5508V79.9102H180.225V81H176.551V79.9102H177.787V76.6348H176.551V75.5391H179V76.9102C179.199 76.3633 179.492 75.9766 179.879 75.75C180.27 75.5234 180.732 75.4102 181.268 75.4102C181.436 75.4102 181.611 75.4277 181.795 75.4629C181.979 75.498 182.158 75.5605 182.334 75.6504L181.877 76.834ZM183.078 79.4297C183.078 79.1094 183.164 78.8301 183.336 78.5918C183.508 78.3496 183.732 78.1484 184.01 77.9883C184.291 77.8281 184.611 77.709 184.971 77.6309C185.334 77.5488 185.703 77.5078 186.078 77.5078C186.285 77.5078 186.463 77.5117 186.611 77.5195C186.76 77.5273 186.91 77.5391 187.062 77.5547V77.3379C187.062 77.0527 186.951 76.8398 186.729 76.6992C186.51 76.5586 186.221 76.4883 185.861 76.4883C185.533 76.4883 185.199 76.5352 184.859 76.6289C184.52 76.7188 184.197 76.8516 183.893 77.0273L183.4 76.0781C183.76 75.8711 184.145 75.709 184.555 75.5918C184.969 75.4707 185.404 75.4102 185.861 75.4102C186.158 75.4102 186.449 75.4434 186.734 75.5098C187.023 75.5762 187.281 75.6855 187.508 75.8379C187.738 75.9902 187.922 76.1895 188.059 76.4355C188.195 76.6777 188.264 76.9785 188.264 77.3379V81H187.062V80.1973C186.871 80.4941 186.588 80.7246 186.213 80.8887C185.842 81.0527 185.441 81.1348 185.012 81.1348C184.746 81.1348 184.494 81.0977 184.256 81.0234C184.021 80.9531 183.818 80.8457 183.646 80.7012C183.475 80.5566 183.336 80.3789 183.23 80.168C183.129 79.9531 183.078 79.707 183.078 79.4297ZM185.322 80.0508C185.561 80.0508 185.783 80.0215 185.99 79.9629C186.201 79.9004 186.387 79.8164 186.547 79.7109C186.707 79.6016 186.832 79.4707 186.922 79.3184C187.016 79.166 187.062 78.998 187.062 78.8145V78.6094C186.871 78.5781 186.691 78.5605 186.523 78.5566C186.355 78.5527 186.207 78.5508 186.078 78.5508C185.484 78.5508 185.035 78.6289 184.73 78.7852C184.43 78.9414 184.279 79.1348 184.279 79.3652C184.279 79.8223 184.627 80.0508 185.322 80.0508ZM195.283 75.5391L194.463 81H192.963L192.389 77.7129L191.803 81H190.303L189.482 75.5391H190.672L191.152 79.1895L191.738 75.5391H193.021L193.613 79.1895L194.094 75.5391H195.283Z" fill="white"/>
<path d="M140.145 27H138.932V21.8262L138.164 24.5742H137.227L136.471 21.8262V27H135.258V19.3535H136.699L137.695 22.8105L138.691 19.3535H140.145V27ZM141.498 25.4297C141.498 25.1094 141.584 24.8301 141.756 24.5918C141.928 24.3496 142.152 24.1484 142.43 23.9883C142.711 23.8281 143.031 23.709 143.391 23.6309C143.754 23.5488 144.123 23.5078 144.498 23.5078C144.705 23.5078 144.883 23.5117 145.031 23.5195C145.18 23.5273 145.33 23.5391 145.482 23.5547V23.3379C145.482 23.0527 145.371 22.8398 145.148 22.6992C144.93 22.5586 144.641 22.4883 144.281 22.4883C143.953 22.4883 143.619 22.5352 143.279 22.6289C142.939 22.7188 142.617 22.8516 142.312 23.0273L141.82 22.0781C142.18 21.8711 142.564 21.709 142.975 21.5918C143.389 21.4707 143.824 21.4102 144.281 21.4102C144.578 21.4102 144.869 21.4434 145.154 21.5098C145.443 21.5762 145.701 21.6855 145.928 21.8379C146.158 21.9902 146.342 22.1895 146.479 22.4355C146.615 22.6777 146.684 22.9785 146.684 23.3379V27H145.482V26.1973C145.291 26.4941 145.008 26.7246 144.633 26.8887C144.262 27.0527 143.861 27.1348 143.432 27.1348C143.166 27.1348 142.914 27.0977 142.676 27.0234C142.441 26.9531 142.238 26.8457 142.066 26.7012C141.895 26.5566 141.756 26.3789 141.65 26.168C141.549 25.9531 141.498 25.707 141.498 25.4297ZM143.742 26.0508C143.98 26.0508 144.203 26.0215 144.41 25.9629C144.621 25.9004 144.807 25.8164 144.967 25.7109C145.127 25.6016 145.252 25.4707 145.342 25.3184C145.436 25.166 145.482 24.998 145.482 24.8145V24.6094C145.291 24.5781 145.111 24.5605 144.943 24.5566C144.775 24.5527 144.627 24.5508 144.498 24.5508C143.904 24.5508 143.455 24.6289 143.15 24.7852C142.85 24.9414 142.699 25.1348 142.699 25.3652C142.699 25.8223 143.047 26.0508 143.742 26.0508ZM153.398 22.834C153.254 22.7637 153.105 22.7109 152.953 22.6758C152.805 22.6367 152.633 22.6172 152.438 22.6172C152.168 22.6172 151.914 22.6582 151.676 22.7402C151.441 22.8184 151.238 22.9375 151.066 23.0977C150.895 23.2578 150.76 23.459 150.662 23.7012C150.568 23.9395 150.521 24.2227 150.521 24.5508V25.9102H151.746V27H148.072V25.9102H149.309V22.6348H148.072V21.5391H150.521V22.9102C150.721 22.3633 151.014 21.9766 151.4 21.75C151.791 21.5234 152.254 21.4102 152.789 21.4102C152.957 21.4102 153.133 21.4277 153.316 21.4629C153.5 21.498 153.68 21.5605 153.855 21.6504L153.398 22.834ZM160.072 27H158.502L156.674 24.791L156.123 25.3535V27H154.91V19.3535H156.123V23.8535L158.309 21.5391H159.973L157.453 24.0469L160.072 27ZM162.287 24.7324C162.346 25.1074 162.523 25.4199 162.82 25.6699C163.121 25.916 163.523 26.0391 164.027 26.0391C164.422 26.0391 164.764 25.9785 165.053 25.8574C165.346 25.7324 165.598 25.5684 165.809 25.3652L166.43 26.2207C166.078 26.5723 165.705 26.8125 165.311 26.9414C164.92 27.0703 164.492 27.1348 164.027 27.1348C163.605 27.1348 163.213 27.0645 162.85 26.9238C162.486 26.7832 162.172 26.5879 161.906 26.3379C161.641 26.084 161.432 25.7832 161.279 25.4355C161.131 25.0879 161.057 24.7012 161.057 24.2754C161.057 23.8613 161.125 23.4805 161.262 23.1328C161.402 22.7812 161.598 22.4785 161.848 22.2246C162.102 21.9668 162.404 21.7676 162.756 21.627C163.107 21.4824 163.496 21.4102 163.922 21.4102C164.363 21.4102 164.764 21.4863 165.123 21.6387C165.482 21.7871 165.789 22.0039 166.043 22.2891C166.301 22.5742 166.502 22.9238 166.646 23.3379C166.791 23.748 166.863 24.2129 166.863 24.7324H162.287ZM165.492 23.666C165.43 23.3145 165.248 23.0332 164.947 22.8223C164.646 22.6074 164.305 22.5 163.922 22.5C163.539 22.5 163.195 22.6074 162.891 22.8223C162.586 23.0332 162.402 23.3145 162.34 23.666H165.492ZM173.244 25.2598C173.182 25.834 172.955 26.291 172.564 26.6309C172.178 26.9668 171.693 27.1348 171.111 27.1348C170.791 27.1348 170.498 27.082 170.232 26.9766C169.967 26.8711 169.74 26.7246 169.553 26.5371C169.365 26.3496 169.219 26.125 169.113 25.8633C169.012 25.5977 168.961 25.3086 168.961 24.9961V22.6348H167.725V21.5391H168.961V19.3535H170.174V21.5391H172.465V22.6348H170.174V24.9961C170.174 25.3477 170.26 25.6094 170.432 25.7812C170.604 25.9531 170.83 26.0391 171.111 26.0391C171.455 26.0391 171.711 25.9395 171.879 25.7402C172.047 25.541 172.146 25.3008 172.178 25.0195L173.244 25.2598ZM174.562 21.5391H175.775V22.0312C176.006 21.8242 176.238 21.6699 176.473 21.5684C176.711 21.4629 176.982 21.4102 177.287 21.4102C177.639 21.4102 177.965 21.4824 178.266 21.627C178.566 21.7676 178.824 21.9648 179.039 22.2188C179.254 22.4688 179.424 22.7715 179.549 23.127C179.674 23.4785 179.736 23.8613 179.736 24.2754C179.736 24.6934 179.674 25.0781 179.549 25.4297C179.424 25.7812 179.254 26.084 179.039 26.3379C178.824 26.5879 178.566 26.7832 178.266 26.9238C177.965 27.0645 177.639 27.1348 177.287 27.1348C176.982 27.1348 176.711 27.0801 176.473 26.9707C176.238 26.8613 176.006 26.7031 175.775 26.4961V29.1855H174.562V21.5391ZM175.775 25.5352C175.92 25.6953 176.104 25.8203 176.326 25.9102C176.553 25.9961 176.77 26.0391 176.977 26.0391C177.434 26.0391 177.805 25.877 178.09 25.5527C178.379 25.2285 178.523 24.8027 178.523 24.2754C178.523 23.748 178.379 23.3203 178.09 22.9922C177.805 22.6641 177.434 22.5 176.977 22.5C176.77 22.5 176.553 22.543 176.326 22.6289C176.104 22.7109 175.92 22.832 175.775 22.9922V25.5352ZM185.42 27H181.752V25.9102H182.947V20.4492H181.752V19.3535H184.16V25.9102H185.42V27ZM187.354 25.4297C187.354 25.1094 187.439 24.8301 187.611 24.5918C187.783 24.3496 188.008 24.1484 188.285 23.9883C188.566 23.8281 188.887 23.709 189.246 23.6309C189.609 23.5488 189.979 23.5078 190.354 23.5078C190.561 23.5078 190.738 23.5117 190.887 23.5195C191.035 23.5273 191.186 23.5391 191.338 23.5547V23.3379C191.338 23.0527 191.227 22.8398 191.004 22.6992C190.785 22.5586 190.496 22.4883 190.137 22.4883C189.809 22.4883 189.475 22.5352 189.135 22.6289C188.795 22.7188 188.473 22.8516 188.168 23.0273L187.676 22.0781C188.035 21.8711 188.42 21.709 188.83 21.5918C189.244 21.4707 189.68 21.4102 190.137 21.4102C190.434 21.4102 190.725 21.4434 191.01 21.5098C191.299 21.5762 191.557 21.6855 191.783 21.8379C192.014 21.9902 192.197 22.1895 192.334 22.4355C192.471 22.6777 192.539 22.9785 192.539 23.3379V27H191.338V26.1973C191.146 26.4941 190.863 26.7246 190.488 26.8887C190.117 27.0527 189.717 27.1348 189.287 27.1348C189.021 27.1348 188.77 27.0977 188.531 27.0234C188.297 26.9531 188.094 26.8457 187.922 26.7012C187.75 26.5566 187.611 26.3789 187.506 26.168C187.404 25.9531 187.354 25.707 187.354 25.4297ZM189.598 26.0508C189.836 26.0508 190.059 26.0215 190.266 25.9629C190.477 25.9004 190.662 25.8164 190.822 25.7109C190.982 25.6016 191.107 25.4707 191.197 25.3184C191.291 25.166 191.338 24.998 191.338 24.8145V24.6094C191.146 24.5781 190.967 24.5605 190.799 24.5566C190.631 24.5527 190.482 24.5508 190.354 24.5508C189.76 24.5508 189.311 24.6289 189.006 24.7852C188.705 24.9414 188.555 25.1348 188.555 25.3652C188.555 25.8223 188.902 26.0508 189.598 26.0508ZM199.184 26.2207C198.832 26.5723 198.461 26.8125 198.07 26.9414C197.684 27.0703 197.264 27.1348 196.811 27.1348C196.354 27.1348 195.938 27.0664 195.562 26.9297C195.191 26.793 194.875 26.6016 194.613 26.3555C194.355 26.1055 194.156 25.8047 194.016 25.4531C193.879 25.1016 193.811 24.709 193.811 24.2754C193.811 23.8613 193.879 23.4785 194.016 23.127C194.156 22.7715 194.344 22.4688 194.578 22.2188C194.816 21.9648 195.096 21.7676 195.416 21.627C195.736 21.4824 196.076 21.4102 196.436 21.4102C196.811 21.4102 197.137 21.4883 197.414 21.6445C197.691 21.8008 197.893 22.0293 198.018 22.3301V21.5391H199.102V24.082H198.018C198.018 23.6016 197.885 23.2188 197.619 22.9336C197.357 22.6445 197.016 22.5 196.594 22.5C196.426 22.5 196.248 22.5352 196.061 22.6055C195.877 22.6719 195.707 22.7773 195.551 22.9219C195.398 23.0664 195.271 23.25 195.17 23.4727C195.068 23.6953 195.018 23.9629 195.018 24.2754C195.018 24.5801 195.066 24.8438 195.164 25.0664C195.262 25.2852 195.389 25.4668 195.545 25.6113C195.705 25.752 195.893 25.8594 196.107 25.9336C196.326 26.0039 196.551 26.0391 196.781 26.0391C197.176 26.0391 197.518 25.9785 197.807 25.8574C198.1 25.7324 198.352 25.5684 198.562 25.3652L199.184 26.2207ZM201.592 24.7324C201.65 25.1074 201.828 25.4199 202.125 25.6699C202.426 25.916 202.828 26.0391 203.332 26.0391C203.727 26.0391 204.068 25.9785 204.357 25.8574C204.65 25.7324 204.902 25.5684 205.113 25.3652L205.734 26.2207C205.383 26.5723 205.01 26.8125 204.615 26.9414C204.225 27.0703 203.797 27.1348 203.332 27.1348C202.91 27.1348 202.518 27.0645 202.154 26.9238C201.791 26.7832 201.477 26.5879 201.211 26.3379C200.945 26.084 200.736 25.7832 200.584 25.4355C200.436 25.0879 200.361 24.7012 200.361 24.2754C200.361 23.8613 200.43 23.4805 200.566 23.1328C200.707 22.7812 200.902 22.4785 201.152 22.2246C201.406 21.9668 201.709 21.7676 202.061 21.627C202.412 21.4824 202.801 21.4102 203.227 21.4102C203.668 21.4102 204.068 21.4863 204.428 21.6387C204.787 21.7871 205.094 22.0039 205.348 22.2891C205.605 22.5742 205.807 22.9238 205.951 23.3379C206.096 23.748 206.168 24.2129 206.168 24.7324H201.592ZM204.797 23.666C204.734 23.3145 204.553 23.0332 204.252 22.8223C203.951 22.6074 203.609 22.5 203.227 22.5C202.844 22.5 202.5 22.6074 202.195 22.8223C201.891 23.0332 201.707 23.3145 201.645 23.666H204.797Z" fill="white"/>
<path d="M36.7852 77.1738C36.7852 77.6855 36.7305 78.1738 36.6211 78.6387C36.5156 79.0996 36.3438 79.5059 36.1055 79.8574C35.8711 80.2051 35.5664 80.4824 35.1914 80.6895C34.8203 80.8965 34.3711 81 33.8438 81H31.3594V73.3535H33.8438C34.3633 73.3535 34.8086 73.459 35.1797 73.6699C35.5547 73.877 35.8594 74.1543 36.0938 74.502C36.332 74.8496 36.5059 75.2539 36.6152 75.7148C36.7285 76.1758 36.7852 76.6621 36.7852 77.1738ZM35.5723 77.1738C35.5723 76.291 35.4219 75.6172 35.1211 75.1523C34.8203 74.6836 34.3945 74.4492 33.8438 74.4492H32.5723V79.9102H33.8438C34.3945 79.9102 34.8203 79.6719 35.1211 79.1953C35.4219 78.7188 35.5723 78.0449 35.5723 77.1738ZM38.7363 78.7324C38.7949 79.1074 38.9727 79.4199 39.2695 79.6699C39.5703 79.916 39.9727 80.0391 40.4766 80.0391C40.8711 80.0391 41.2129 79.9785 41.502 79.8574C41.7949 79.7324 42.0469 79.5684 42.2578 79.3652L42.8789 80.2207C42.5273 80.5723 42.1543 80.8125 41.7598 80.9414C41.3691 81.0703 40.9414 81.1348 40.4766 81.1348C40.0547 81.1348 39.6621 81.0645 39.2988 80.9238C38.9355 80.7832 38.6211 80.5879 38.3555 80.3379C38.0898 80.084 37.8809 79.7832 37.7285 79.4355C37.5801 79.0879 37.5059 78.7012 37.5059 78.2754C37.5059 77.8613 37.5742 77.4805 37.7109 77.1328C37.8516 76.7812 38.0469 76.4785 38.2969 76.2246C38.5508 75.9668 38.8535 75.7676 39.2051 75.627C39.5566 75.4824 39.9453 75.4102 40.3711 75.4102C40.8125 75.4102 41.2129 75.4863 41.5723 75.6387C41.9316 75.7871 42.2383 76.0039 42.4922 76.2891C42.75 76.5742 42.9512 76.9238 43.0957 77.3379C43.2402 77.748 43.3125 78.2129 43.3125 78.7324H38.7363ZM41.9414 77.666C41.8789 77.3145 41.6973 77.0332 41.3965 76.8223C41.0957 76.6074 40.7539 76.5 40.3711 76.5C39.9883 76.5 39.6445 76.6074 39.3398 76.8223C39.0352 77.0332 38.8516 77.3145 38.7891 77.666H41.9414ZM44.4609 75.5391H45.6738V76.0312C45.9043 75.8242 46.1367 75.6699 46.3711 75.5684C46.6094 75.4629 46.8809 75.4102 47.1855 75.4102C47.5371 75.4102 47.8633 75.4824 48.1641 75.627C48.4648 75.7676 48.7227 75.9648 48.9375 76.2188C49.1523 76.4688 49.3223 76.7715 49.4473 77.127C49.5723 77.4785 49.6348 77.8613 49.6348 78.2754C49.6348 78.6934 49.5723 79.0781 49.4473 79.4297C49.3223 79.7812 49.1523 80.084 48.9375 80.3379C48.7227 80.5879 48.4648 80.7832 48.1641 80.9238C47.8633 81.0645 47.5371 81.1348 47.1855 81.1348C46.8809 81.1348 46.6094 81.0801 46.3711 80.9707C46.1367 80.8613 45.9043 80.7031 45.6738 80.4961V83.1855H44.4609V75.5391ZM45.6738 79.5352C45.8184 79.6953 46.002 79.8203 46.2246 79.9102C46.4512 79.9961 46.668 80.0391 46.875 80.0391C47.332 80.0391 47.7031 79.877 47.9883 79.5527C48.2773 79.2285 48.4219 78.8027 48.4219 78.2754C48.4219 77.748 48.2773 77.3203 47.9883 76.9922C47.7031 76.6641 47.332 76.5 46.875 76.5C46.668 76.5 46.4512 76.543 46.2246 76.6289C46.002 76.7109 45.8184 76.832 45.6738 76.9922V79.5352ZM56.3262 78.2754C56.3262 78.7012 56.2578 79.0879 56.1211 79.4355C55.9883 79.7832 55.7949 80.084 55.541 80.3379C55.291 80.5879 54.9902 80.7832 54.6387 80.9238C54.2871 81.0645 53.8945 81.1348 53.4609 81.1348C53.0352 81.1348 52.6465 81.0645 52.2949 80.9238C51.9434 80.7832 51.6406 80.5879 51.3867 80.3379C51.1367 80.084 50.9434 79.7832 50.8066 79.4355C50.6738 79.0879 50.6074 78.7012 50.6074 78.2754C50.6074 77.8613 50.6738 77.4785 50.8066 77.127C50.9434 76.7715 51.1367 76.4668 51.3867 76.2129C51.6406 75.9551 51.9434 75.7578 52.2949 75.6211C52.6465 75.4805 53.0352 75.4102 53.4609 75.4102C53.8945 75.4102 54.2871 75.4805 54.6387 75.6211C54.9902 75.7578 55.291 75.9551 55.541 76.2129C55.7949 76.4668 55.9883 76.7715 56.1211 77.127C56.2578 77.4785 56.3262 77.8613 56.3262 78.2754ZM55.1191 78.2754C55.1191 78.0293 55.0801 77.7969 55.002 77.5781C54.9277 77.3555 54.8184 77.166 54.6738 77.0098C54.5293 76.8535 54.3535 76.7305 54.1465 76.6406C53.9434 76.5469 53.7148 76.5 53.4609 76.5C53.2031 76.5 52.9727 76.5469 52.7695 76.6406C52.5664 76.7305 52.3945 76.8535 52.2539 77.0098C52.1133 77.166 52.0039 77.3555 51.9258 77.5781C51.8516 77.7969 51.8145 78.0293 51.8145 78.2754C51.8145 78.5332 51.8516 78.7676 51.9258 78.9785C52.0039 79.1895 52.1133 79.375 52.2539 79.5352C52.3945 79.6953 52.5664 79.8203 52.7695 79.9102C52.9727 79.9961 53.2031 80.0391 53.4609 80.0391C53.7148 80.0391 53.9434 79.9961 54.1465 79.9102C54.3535 79.8203 54.5293 79.6953 54.6738 79.5352C54.8184 79.375 54.9277 79.1895 55.002 78.9785C55.0801 78.7676 55.1191 78.5332 55.1191 78.2754ZM62.5898 79.3652C62.5898 79.7207 62.5098 80.0098 62.3496 80.2324C62.1895 80.4551 61.9824 80.6348 61.7285 80.7715C61.4785 80.9082 61.1973 81.002 60.8848 81.0527C60.5762 81.1074 60.2734 81.1348 59.9766 81.1348C59.4805 81.1348 58.9863 81.0625 58.4941 80.918C58.002 80.7734 57.5762 80.584 57.2168 80.3496L57.7207 79.3535C58.1504 79.6035 58.543 79.7812 58.8984 79.8867C59.2578 79.9883 59.6172 80.0391 59.9766 80.0391C60.4648 80.0391 60.8203 79.9883 61.043 79.8867C61.2656 79.7812 61.377 79.6367 61.377 79.4531C61.377 79.3633 61.3457 79.2891 61.2832 79.2305C61.2207 79.1719 61.1172 79.1191 60.9727 79.0723C60.8281 79.0215 60.6367 78.9727 60.3984 78.9258C60.1641 78.875 59.8711 78.8223 59.5195 78.7676C59.2383 78.7207 58.9707 78.6641 58.7168 78.5977C58.4668 78.5273 58.2461 78.4297 58.0547 78.3047C57.8633 78.1797 57.709 78.0215 57.5918 77.8301C57.4785 77.6387 57.4219 77.3984 57.4219 77.1094C57.4219 76.8164 57.4961 76.5625 57.6445 76.3477C57.7969 76.1289 57.9941 75.9492 58.2363 75.8086C58.4824 75.668 58.7578 75.5664 59.0625 75.5039C59.3672 75.4414 59.6719 75.4102 59.9766 75.4102C60.4062 75.4102 60.8223 75.4668 61.2246 75.5801C61.6309 75.6895 61.9863 75.8477 62.291 76.0547L61.8105 76.9922C61.5059 76.8008 61.209 76.6719 60.9199 76.6055C60.6348 76.5352 60.3203 76.5 59.9766 76.5C59.832 76.5 59.6816 76.5078 59.5254 76.5234C59.3691 76.5391 59.2246 76.5703 59.0918 76.6172C58.959 76.6602 58.8477 76.7207 58.7578 76.7988C58.6719 76.873 58.6289 76.9648 58.6289 77.0742C58.6289 77.2188 58.7559 77.3379 59.0098 77.4316C59.2676 77.5215 59.7051 77.6113 60.3223 77.7012C60.6582 77.748 60.9648 77.8086 61.2422 77.8828C61.5195 77.9531 61.7578 78.0508 61.957 78.1758C62.1562 78.2969 62.3105 78.4551 62.4199 78.6504C62.5332 78.8418 62.5898 79.0801 62.5898 79.3652ZM67.2949 74.8301H65.8184V73.3535H67.2949V74.8301ZM68.4082 81H64.7402V79.9102H65.9473V76.6348H64.7402V75.5391H67.1602V79.9102H68.4082V81ZM75.8965 79.2598C75.834 79.834 75.6074 80.291 75.2168 80.6309C74.8301 80.9668 74.3457 81.1348 73.7637 81.1348C73.4434 81.1348 73.1504 81.082 72.8848 80.9766C72.6191 80.8711 72.3926 80.7246 72.2051 80.5371C72.0176 80.3496 71.8711 80.125 71.7656 79.8633C71.6641 79.5977 71.6133 79.3086 71.6133 78.9961V76.6348H70.377V75.5391H71.6133V73.3535H72.8262V75.5391H75.1172V76.6348H72.8262V78.9961C72.8262 79.3477 72.9121 79.6094 73.084 79.7812C73.2559 79.9531 73.4824 80.0391 73.7637 80.0391C74.1074 80.0391 74.3633 79.9395 74.5312 79.7402C74.6992 79.541 74.7988 79.3008 74.8301 79.0195L75.8965 79.2598Z" fill="white"/>
<path d="M152.34 133.902C152.34 134.254 152.279 134.568 152.158 134.846C152.041 135.119 151.879 135.352 151.672 135.543C151.469 135.734 151.225 135.881 150.939 135.982C150.658 136.084 150.357 136.135 150.037 136.135C149.678 136.135 149.354 136.07 149.064 135.941C148.775 135.812 148.527 135.6 148.32 135.303V136H147.23V133.504H148.32C148.32 133.754 148.363 133.975 148.449 134.166C148.539 134.357 148.656 134.52 148.801 134.652C148.945 134.781 149.113 134.881 149.305 134.951C149.496 135.018 149.699 135.051 149.914 135.051C150.277 135.051 150.57 134.967 150.793 134.799C151.016 134.631 151.127 134.363 151.127 133.996C151.127 133.805 151.092 133.641 151.021 133.504C150.955 133.367 150.857 133.246 150.729 133.141C150.604 133.031 150.449 132.938 150.266 132.859C150.082 132.777 149.873 132.691 149.639 132.602C149.361 132.508 149.084 132.402 148.807 132.285C148.529 132.168 148.281 132.023 148.062 131.852C147.844 131.68 147.666 131.469 147.529 131.219C147.393 130.965 147.324 130.646 147.324 130.264C147.324 129.928 147.385 129.635 147.506 129.385C147.631 129.131 147.795 128.918 147.998 128.746C148.205 128.574 148.443 128.445 148.713 128.359C148.986 128.27 149.275 128.225 149.58 128.225C149.932 128.225 150.232 128.299 150.482 128.447C150.736 128.596 150.932 128.793 151.068 129.039V128.354H152.158V130.732H151.068C151.068 130.283 150.949 129.934 150.711 129.684C150.477 129.43 150.16 129.303 149.762 129.303C149.41 129.303 149.117 129.385 148.883 129.549C148.652 129.713 148.537 129.943 148.537 130.24C148.537 130.393 148.566 130.523 148.625 130.633C148.688 130.738 148.775 130.836 148.889 130.926C149.006 131.012 149.152 131.094 149.328 131.172C149.504 131.246 149.707 131.328 149.938 131.418C150.227 131.52 150.514 131.635 150.799 131.764C151.084 131.893 151.34 132.051 151.566 132.238C151.793 132.426 151.979 132.654 152.123 132.924C152.268 133.189 152.34 133.516 152.34 133.902ZM159.143 134.26C159.08 134.834 158.854 135.291 158.463 135.631C158.076 135.967 157.592 136.135 157.01 136.135C156.689 136.135 156.396 136.082 156.131 135.977C155.865 135.871 155.639 135.725 155.451 135.537C155.264 135.35 155.117 135.125 155.012 134.863C154.91 134.598 154.859 134.309 154.859 133.996V131.635H153.623V130.539H154.859V128.354H156.072V130.539H158.363V131.635H156.072V133.996C156.072 134.348 156.158 134.609 156.33 134.781C156.502 134.953 156.729 135.039 157.01 135.039C157.354 135.039 157.609 134.939 157.777 134.74C157.945 134.541 158.045 134.301 158.076 134.02L159.143 134.26ZM160.15 134.43C160.15 134.109 160.236 133.83 160.408 133.592C160.58 133.35 160.805 133.148 161.082 132.988C161.363 132.828 161.684 132.709 162.043 132.631C162.406 132.549 162.775 132.508 163.15 132.508C163.357 132.508 163.535 132.512 163.684 132.52C163.832 132.527 163.982 132.539 164.135 132.555V132.338C164.135 132.053 164.023 131.84 163.801 131.699C163.582 131.559 163.293 131.488 162.934 131.488C162.605 131.488 162.271 131.535 161.932 131.629C161.592 131.719 161.27 131.852 160.965 132.027L160.473 131.078C160.832 130.871 161.217 130.709 161.627 130.592C162.041 130.471 162.477 130.41 162.934 130.41C163.23 130.41 163.521 130.443 163.807 130.51C164.096 130.576 164.354 130.686 164.58 130.838C164.811 130.99 164.994 131.189 165.131 131.436C165.268 131.678 165.336 131.979 165.336 132.338V136H164.135V135.197C163.943 135.494 163.66 135.725 163.285 135.889C162.914 136.053 162.514 136.135 162.084 136.135C161.818 136.135 161.566 136.098 161.328 136.023C161.094 135.953 160.891 135.846 160.719 135.701C160.547 135.557 160.408 135.379 160.303 135.168C160.201 134.953 160.15 134.707 160.15 134.43ZM162.395 135.051C162.633 135.051 162.855 135.021 163.062 134.963C163.273 134.9 163.459 134.816 163.619 134.711C163.779 134.602 163.904 134.471 163.994 134.318C164.088 134.166 164.135 133.998 164.135 133.814V133.609C163.943 133.578 163.764 133.561 163.596 133.557C163.428 133.553 163.279 133.551 163.15 133.551C162.557 133.551 162.107 133.629 161.803 133.785C161.502 133.941 161.352 134.135 161.352 134.365C161.352 134.822 161.699 135.051 162.395 135.051ZM172.174 136H170.604L168.775 133.791L168.225 134.354V136H167.012V128.354H168.225V132.854L170.41 130.539H172.074L169.555 133.047L172.174 136ZM176.744 129.83H175.268V128.354H176.744V129.83ZM177.857 136H174.189V134.91H175.396V131.635H174.189V130.539H176.609V134.91H177.857V136ZM185 136H183.787V132.631C183.787 132.205 183.707 131.91 183.547 131.746C183.387 131.582 183.154 131.5 182.85 131.5C182.4 131.5 182.033 131.682 181.748 132.045C181.467 132.408 181.326 132.91 181.326 133.551V136H180.113V130.539H181.326V131.91C181.447 131.438 181.672 131.07 182 130.809C182.328 130.543 182.732 130.41 183.213 130.41C183.771 130.41 184.209 130.592 184.525 130.955C184.842 131.318 185 131.877 185 132.631V136ZM191.551 135.941C191.551 136.316 191.486 136.65 191.357 136.943C191.229 137.236 191.047 137.484 190.812 137.688C190.582 137.891 190.309 138.045 189.992 138.15C189.68 138.26 189.33 138.314 188.943 138.314C187.994 138.314 187.184 138.027 186.512 137.453L187.086 136.516C187.645 136.996 188.264 137.236 188.943 137.236C189.361 137.236 189.697 137.133 189.951 136.926C190.209 136.723 190.338 136.402 190.338 135.965V135.379C190.088 135.594 189.848 135.754 189.617 135.859C189.387 135.961 189.119 136.012 188.814 136.012C188.463 136.012 188.137 135.938 187.836 135.789C187.535 135.641 187.275 135.439 187.057 135.186C186.842 134.928 186.672 134.629 186.547 134.289C186.426 133.949 186.365 133.588 186.365 133.205C186.365 132.822 186.426 132.461 186.547 132.121C186.672 131.777 186.842 131.48 187.057 131.23C187.275 130.977 187.535 130.777 187.836 130.633C188.137 130.484 188.463 130.41 188.814 130.41C189.119 130.41 189.391 130.463 189.629 130.568C189.867 130.67 190.104 130.824 190.338 131.031V130.539H191.551V135.941ZM190.338 131.992C190.193 131.832 190.006 131.711 189.775 131.629C189.549 131.543 189.328 131.5 189.113 131.5C188.656 131.5 188.285 131.66 188 131.98C187.719 132.301 187.578 132.709 187.578 133.205C187.578 133.451 187.615 133.68 187.689 133.891C187.768 134.098 187.873 134.277 188.006 134.43C188.143 134.582 188.305 134.703 188.492 134.793C188.684 134.879 188.891 134.922 189.113 134.922C189.328 134.922 189.549 134.879 189.775 134.793C190.006 134.703 190.193 134.578 190.338 134.418V131.992Z" fill="white"/>
<path d="M150.064 187.902C150.064 188.254 150.004 188.568 149.883 188.846C149.766 189.119 149.604 189.352 149.396 189.543C149.193 189.734 148.949 189.881 148.664 189.982C148.383 190.084 148.082 190.135 147.762 190.135C147.402 190.135 147.078 190.07 146.789 189.941C146.5 189.812 146.252 189.6 146.045 189.303V190H144.955V187.504H146.045C146.045 187.754 146.088 187.975 146.174 188.166C146.264 188.357 146.381 188.52 146.525 188.652C146.67 188.781 146.838 188.881 147.029 188.951C147.221 189.018 147.424 189.051 147.639 189.051C148.002 189.051 148.295 188.967 148.518 188.799C148.74 188.631 148.852 188.363 148.852 187.996C148.852 187.805 148.816 187.641 148.746 187.504C148.68 187.367 148.582 187.246 148.453 187.141C148.328 187.031 148.174 186.938 147.99 186.859C147.807 186.777 147.598 186.691 147.363 186.602C147.086 186.508 146.809 186.402 146.531 186.285C146.254 186.168 146.006 186.023 145.787 185.852C145.568 185.68 145.391 185.469 145.254 185.219C145.117 184.965 145.049 184.646 145.049 184.264C145.049 183.928 145.109 183.635 145.23 183.385C145.355 183.131 145.52 182.918 145.723 182.746C145.93 182.574 146.168 182.445 146.438 182.359C146.711 182.27 147 182.225 147.305 182.225C147.656 182.225 147.957 182.299 148.207 182.447C148.461 182.596 148.656 182.793 148.793 183.039V182.354H149.883V184.732H148.793C148.793 184.283 148.674 183.934 148.436 183.684C148.201 183.43 147.885 183.303 147.486 183.303C147.135 183.303 146.842 183.385 146.607 183.549C146.377 183.713 146.262 183.943 146.262 184.24C146.262 184.393 146.291 184.523 146.35 184.633C146.412 184.738 146.5 184.836 146.613 184.926C146.73 185.012 146.877 185.094 147.053 185.172C147.229 185.246 147.432 185.328 147.662 185.418C147.951 185.52 148.238 185.635 148.523 185.764C148.809 185.893 149.064 186.051 149.291 186.238C149.518 186.426 149.703 186.654 149.848 186.924C149.992 187.189 150.064 187.516 150.064 187.902ZM152.461 187.732C152.52 188.107 152.697 188.42 152.994 188.67C153.295 188.916 153.697 189.039 154.201 189.039C154.596 189.039 154.938 188.979 155.227 188.857C155.52 188.732 155.771 188.568 155.982 188.365L156.604 189.221C156.252 189.572 155.879 189.812 155.484 189.941C155.094 190.07 154.666 190.135 154.201 190.135C153.779 190.135 153.387 190.064 153.023 189.924C152.66 189.783 152.346 189.588 152.08 189.338C151.814 189.084 151.605 188.783 151.453 188.436C151.305 188.088 151.23 187.701 151.23 187.275C151.23 186.861 151.299 186.48 151.436 186.133C151.576 185.781 151.771 185.479 152.021 185.225C152.275 184.967 152.578 184.768 152.93 184.627C153.281 184.482 153.67 184.41 154.096 184.41C154.537 184.41 154.938 184.486 155.297 184.639C155.656 184.787 155.963 185.004 156.217 185.289C156.475 185.574 156.676 185.924 156.82 186.338C156.965 186.748 157.037 187.213 157.037 187.732H152.461ZM155.666 186.666C155.604 186.314 155.422 186.033 155.121 185.822C154.82 185.607 154.479 185.5 154.096 185.5C153.713 185.5 153.369 185.607 153.064 185.822C152.76 186.033 152.576 186.314 152.514 186.666H155.666ZM163.418 188.26C163.355 188.834 163.129 189.291 162.738 189.631C162.352 189.967 161.867 190.135 161.285 190.135C160.965 190.135 160.672 190.082 160.406 189.977C160.141 189.871 159.914 189.725 159.727 189.537C159.539 189.35 159.393 189.125 159.287 188.863C159.186 188.598 159.135 188.309 159.135 187.996V185.635H157.898V184.539H159.135V182.354H160.348V184.539H162.639V185.635H160.348V187.996C160.348 188.348 160.434 188.609 160.605 188.781C160.777 188.953 161.004 189.039 161.285 189.039C161.629 189.039 161.885 188.939 162.053 188.74C162.221 188.541 162.32 188.301 162.352 188.02L163.418 188.26ZM169.969 188.26C169.906 188.834 169.68 189.291 169.289 189.631C168.902 189.967 168.418 190.135 167.836 190.135C167.516 190.135 167.223 190.082 166.957 189.977C166.691 189.871 166.465 189.725 166.277 189.537C166.09 189.35 165.943 189.125 165.838 188.863C165.736 188.598 165.686 188.309 165.686 187.996V185.635H164.449V184.539H165.686V182.354H166.898V184.539H169.189V185.635H166.898V187.996C166.898 188.348 166.984 188.609 167.156 188.781C167.328 188.953 167.555 189.039 167.836 189.039C168.18 189.039 168.436 188.939 168.604 188.74C168.771 188.541 168.871 188.301 168.902 188.02L169.969 188.26ZM174.469 183.83H172.992V182.354H174.469V183.83ZM175.582 190H171.914V188.91H173.121V185.635H171.914V184.539H174.334V188.91H175.582V190ZM182.725 190H181.512V186.631C181.512 186.205 181.432 185.91 181.271 185.746C181.111 185.582 180.879 185.5 180.574 185.5C180.125 185.5 179.758 185.682 179.473 186.045C179.191 186.408 179.051 186.91 179.051 187.551V190H177.838V184.539H179.051V185.91C179.172 185.438 179.396 185.07 179.725 184.809C180.053 184.543 180.457 184.41 180.938 184.41C181.496 184.41 181.934 184.592 182.25 184.955C182.566 185.318 182.725 185.877 182.725 186.631V190ZM189.275 189.941C189.275 190.316 189.211 190.65 189.082 190.943C188.953 191.236 188.771 191.484 188.537 191.688C188.307 191.891 188.033 192.045 187.717 192.15C187.404 192.26 187.055 192.314 186.668 192.314C185.719 192.314 184.908 192.027 184.236 191.453L184.811 190.516C185.369 190.996 185.988 191.236 186.668 191.236C187.086 191.236 187.422 191.133 187.676 190.926C187.934 190.723 188.062 190.402 188.062 189.965V189.379C187.812 189.594 187.572 189.754 187.342 189.859C187.111 189.961 186.844 190.012 186.539 190.012C186.188 190.012 185.861 189.938 185.561 189.789C185.26 189.641 185 189.439 184.781 189.186C184.566 188.928 184.396 188.629 184.271 188.289C184.15 187.949 184.09 187.588 184.09 187.205C184.09 186.822 184.15 186.461 184.271 186.121C184.396 185.777 184.566 185.48 184.781 185.23C185 184.977 185.26 184.777 185.561 184.633C185.861 184.484 186.188 184.41 186.539 184.41C186.844 184.41 187.115 184.463 187.354 184.568C187.592 184.67 187.828 184.824 188.062 185.031V184.539H189.275V189.941ZM188.062 185.992C187.918 185.832 187.73 185.711 187.5 185.629C187.273 185.543 187.053 185.5 186.838 185.5C186.381 185.5 186.01 185.66 185.725 185.98C185.443 186.301 185.303 186.709 185.303 187.205C185.303 187.451 185.34 187.68 185.414 187.891C185.492 188.098 185.598 188.277 185.73 188.43C185.867 188.582 186.029 188.703 186.217 188.793C186.408 188.879 186.615 188.922 186.838 188.922C187.053 188.922 187.273 188.879 187.5 188.793C187.73 188.703 187.918 188.578 188.062 188.418V185.992ZM195.967 188.365C195.967 188.721 195.887 189.01 195.727 189.232C195.566 189.455 195.359 189.635 195.105 189.771C194.855 189.908 194.574 190.002 194.262 190.053C193.953 190.107 193.65 190.135 193.354 190.135C192.857 190.135 192.363 190.062 191.871 189.918C191.379 189.773 190.953 189.584 190.594 189.35L191.098 188.354C191.527 188.604 191.92 188.781 192.275 188.887C192.635 188.988 192.994 189.039 193.354 189.039C193.842 189.039 194.197 188.988 194.42 188.887C194.643 188.781 194.754 188.637 194.754 188.453C194.754 188.363 194.723 188.289 194.66 188.23C194.598 188.172 194.494 188.119 194.35 188.072C194.205 188.021 194.014 187.973 193.775 187.926C193.541 187.875 193.248 187.822 192.896 187.768C192.615 187.721 192.348 187.664 192.094 187.598C191.844 187.527 191.623 187.43 191.432 187.305C191.24 187.18 191.086 187.021 190.969 186.83C190.855 186.639 190.799 186.398 190.799 186.109C190.799 185.816 190.873 185.562 191.021 185.348C191.174 185.129 191.371 184.949 191.613 184.809C191.859 184.668 192.135 184.566 192.439 184.504C192.744 184.441 193.049 184.41 193.354 184.41C193.783 184.41 194.199 184.467 194.602 184.58C195.008 184.689 195.363 184.848 195.668 185.055L195.188 185.992C194.883 185.801 194.586 185.672 194.297 185.605C194.012 185.535 193.697 185.5 193.354 185.5C193.209 185.5 193.059 185.508 192.902 185.523C192.746 185.539 192.602 185.57 192.469 185.617C192.336 185.66 192.225 185.721 192.135 185.799C192.049 185.873 192.006 185.965 192.006 186.074C192.006 186.219 192.133 186.338 192.387 186.432C192.645 186.521 193.082 186.611 193.699 186.701C194.035 186.748 194.342 186.809 194.619 186.883C194.896 186.953 195.135 187.051 195.334 187.176C195.533 187.297 195.688 187.455 195.797 187.65C195.91 187.842 195.967 188.08 195.967 188.365Z" fill="white"/>
<defs>
<filter id="filter0_b" x="73" y="65" width="196" height="134" filterUnits="userSpaceOnUse" color-interpolation-filters="sRGB">
<feFlood flood-opacity="0" result="BackgroundImageFix"/>
<feGaussianBlur in="BackgroundImage" stdDeviation="22"/>
<feComposite in2="SourceAlpha" operator="in" result="effect1_backgroundBlur"/>
<feBlend mode="normal" in="SourceGraphic" in2="effect1_backgroundBlur" result="shape"/>
</filter>
<filter id="filter1_b" x="-44" y="65" width="196" height="134" filterUnits="userSpaceOnUse" color-interpolation-filters="sRGB">
<feFlood flood-opacity="0" result="BackgroundImageFix"/>
<feGaussianBlur in="BackgroundImage" stdDeviation="22"/>
<feComposite in2="SourceAlpha" operator="in" result="effect1_backgroundBlur"/>
<feBlend mode="normal" in="SourceGraphic" in2="effect1_backgroundBlur" result="shape"/>
</filter>
<filter id="filter2_b" x="-44" y="119" width="196" height="134" filterUnits="userSpaceOnUse" color-interpolation-filters="sRGB">
<feFlood flood-opacity="0" result="BackgroundImageFix"/>
<feGaussianBlur in="BackgroundImage" stdDeviation="22"/>
<feComposite in2="SourceAlpha" operator="in" result="effect1_backgroundBlur"/>
<feBlend mode="normal" in="SourceGraphic" in2="effect1_backgroundBlur" result="shape"/>
</filter>
<filter id="filter3_b" x="73" y="-44" width="196" height="134" filterUnits="userSpaceOnUse" color-interpolation-filters="sRGB">
<feFlood flood-opacity="0" result="BackgroundImageFix"/>
<feGaussianBlur in="BackgroundImage" stdDeviation="22"/>
<feComposite in2="SourceAlpha" operator="in" result="effect1_backgroundBlur"/>
<feBlend mode="normal" in="SourceGraphic" in2="effect1_backgroundBlur" result="shape"/>
</filter>
<filter id="filter4_b" x="-44" y="-44" width="196" height="134" filterUnits="userSpaceOnUse" color-interpolation-filters="sRGB">
<feFlood flood-opacity="0" result="BackgroundImageFix"/>
<feGaussianBlur in="BackgroundImage" stdDeviation="22"/>
<feComposite in2="SourceAlpha" operator="in" result="effect1_backgroundBlur"/>
<feBlend mode="normal" in="SourceGraphic" in2="effect1_backgroundBlur" result="shape"/>
</filter>
<filter id="filter5_b" x="-44" y="10" width="196" height="134" filterUnits="userSpaceOnUse" color-interpolation-filters="sRGB">
<feFlood flood-opacity="0" result="BackgroundImageFix"/>
<feGaussianBlur in="BackgroundImage" stdDeviation="22"/>
<feComposite in2="SourceAlpha" operator="in" result="effect1_backgroundBlur"/>
<feBlend mode="normal" in="SourceGraphic" in2="effect1_backgroundBlur" result="shape"/>
</filter>
<filter id="filter6_b" x="73" y="10" width="196" height="134" filterUnits="userSpaceOnUse" color-interpolation-filters="sRGB">
<feFlood flood-opacity="0" result="BackgroundImageFix"/>
<feGaussianBlur in="BackgroundImage" stdDeviation="22"/>
<feComposite in2="SourceAlpha" operator="in" result="effect1_backgroundBlur"/>
<feBlend mode="normal" in="SourceGraphic" in2="effect1_backgroundBlur" result="shape"/>
</filter>
<filter id="filter7_b" x="72" y="119" width="196" height="134" filterUnits="userSpaceOnUse" color-interpolation-filters="sRGB">
<feFlood flood-opacity="0" result="BackgroundImageFix"/>
<feGaussianBlur in="BackgroundImage" stdDeviation="22"/>
<feComposite in2="SourceAlpha" operator="in" result="effect1_backgroundBlur"/>
<feBlend mode="normal" in="SourceGraphic" in2="effect1_backgroundBlur" result="shape"/>
</filter>
</defs>
</svg>
