<svg width="155" height="40" viewBox="0 0 155 40" fill="none" xmlns="http://www.w3.org/2000/svg">
<g clip-path="url(#clip0)">
<g filter="url(#filter0_d)">
<path d="M155 17.1429C155 7.67512 146.755 0 136.584 0H18.4158C8.24506 0 0 7.67512 0 17.1429V22.8571C0 32.3249 8.24506 40 18.4158 40H155V17.1429Z" fill="white"/>
</g>
<path d="M26.3574 21.5527C26.3574 22.3639 26.0817 22.9746 25.5303 23.3848C24.9788 23.7949 24.195 24 23.1787 24H20.335V15.0791H23.0215C23.3952 15.0791 23.762 15.111 24.1221 15.1748C24.4821 15.234 24.8034 15.348 25.0859 15.5166C25.373 15.6852 25.6055 15.9222 25.7832 16.2275C25.9609 16.5283 26.0498 16.9202 26.0498 17.4033C26.0498 17.8545 25.9336 18.2669 25.7012 18.6406C25.4733 19.0143 25.127 19.2832 24.6621 19.4473C25.2318 19.625 25.6556 19.8734 25.9336 20.1924C26.2161 20.5114 26.3574 20.9648 26.3574 21.5527ZM24.6484 17.5879C24.6484 17.3281 24.5983 17.1162 24.498 16.9521C24.4023 16.7881 24.277 16.6628 24.1221 16.5762C23.9671 16.485 23.7939 16.4258 23.6025 16.3984C23.4111 16.3711 23.2174 16.3574 23.0215 16.3574H21.75V18.8184H23.0215C23.2174 18.8184 23.4111 18.8047 23.6025 18.7773C23.7939 18.75 23.9671 18.693 24.1221 18.6064C24.277 18.5153 24.4023 18.3877 24.498 18.2236C24.5983 18.0596 24.6484 17.8477 24.6484 17.5879ZM24.9561 21.4092C24.9561 20.9626 24.7988 20.6322 24.4844 20.418C24.1745 20.2038 23.7393 20.0967 23.1787 20.0967H21.75V22.7285H23.1787C23.7393 22.7285 24.1745 22.6214 24.4844 22.4072C24.7988 22.1885 24.9561 21.8558 24.9561 21.4092ZM34.1777 20.8213C34.1777 21.318 34.098 21.7692 33.9385 22.1748C33.7835 22.5804 33.5579 22.9313 33.2617 23.2275C32.9701 23.5192 32.6191 23.7471 32.209 23.9111C31.7988 24.0752 31.3408 24.1572 30.835 24.1572C30.3382 24.1572 29.8848 24.0752 29.4746 23.9111C29.0645 23.7471 28.7113 23.5192 28.415 23.2275C28.1234 22.9313 27.8978 22.5804 27.7383 22.1748C27.5833 21.7692 27.5059 21.318 27.5059 20.8213C27.5059 20.3382 27.5833 19.8916 27.7383 19.4814C27.8978 19.0667 28.1234 18.7113 28.415 18.415C28.7113 18.1143 29.0645 17.8841 29.4746 17.7246C29.8848 17.5605 30.3382 17.4785 30.835 17.4785C31.3408 17.4785 31.7988 17.5605 32.209 17.7246C32.6191 17.8841 32.9701 18.1143 33.2617 18.415C33.5579 18.7113 33.7835 19.0667 33.9385 19.4814C34.098 19.8916 34.1777 20.3382 34.1777 20.8213ZM32.7695 20.8213C32.7695 20.5342 32.724 20.263 32.6328 20.0078C32.5462 19.748 32.4186 19.527 32.25 19.3447C32.0814 19.1624 31.8763 19.0189 31.6348 18.9141C31.3978 18.8047 31.1312 18.75 30.835 18.75C30.5342 18.75 30.2653 18.8047 30.0283 18.9141C29.7913 19.0189 29.5908 19.1624 29.4268 19.3447C29.2627 19.527 29.1351 19.748 29.0439 20.0078C28.9574 20.263 28.9141 20.5342 28.9141 20.8213C28.9141 21.1221 28.9574 21.3955 29.0439 21.6416C29.1351 21.8877 29.2627 22.1042 29.4268 22.291C29.5908 22.4779 29.7913 22.6237 30.0283 22.7285C30.2653 22.8288 30.5342 22.8789 30.835 22.8789C31.1312 22.8789 31.3978 22.8288 31.6348 22.7285C31.8763 22.6237 32.0814 22.4779 32.25 22.291C32.4186 22.1042 32.5462 21.8877 32.6328 21.6416C32.724 21.3955 32.7695 21.1221 32.7695 20.8213ZM41.3213 24H39.9062V20.0693C39.9062 19.5726 39.8128 19.2285 39.626 19.0371C39.4391 18.8457 39.168 18.75 38.8125 18.75C38.2884 18.75 37.86 18.9619 37.5273 19.3857C37.1992 19.8096 37.0352 20.3952 37.0352 21.1426V24H35.6201V17.6289H37.0352V19.2285C37.1764 18.6771 37.4385 18.2487 37.8213 17.9434C38.2041 17.6335 38.6758 17.4785 39.2363 17.4785C39.888 17.4785 40.3984 17.6904 40.7676 18.1143C41.1367 18.5381 41.3213 19.1898 41.3213 20.0693V24ZM43.2627 17.6289H44.6777V21.5664C44.6777 22.0586 44.7712 22.4004 44.958 22.5918C45.1449 22.7832 45.416 22.8789 45.7715 22.8789C46.291 22.8789 46.7171 22.667 47.0498 22.2432C47.3825 21.8193 47.5488 21.2337 47.5488 20.4863V17.6289H48.9639V24H47.5488V22.4072C47.4076 22.9541 47.1455 23.3825 46.7627 23.6924C46.3799 24.0023 45.9082 24.1572 45.3477 24.1572C44.696 24.1572 44.1855 23.9453 43.8164 23.5215C43.4473 23.0931 43.2627 22.4414 43.2627 21.5664V17.6289ZM56.6064 24H50.9053V22.7422L54.5352 18.9072H52.1494V20.1924H50.9053V17.6289H56.4766V18.9072L52.8398 22.7285H55.3555V21.4639H56.6064V24ZM72.5205 19.5361C72.5205 20.1331 72.4567 20.7028 72.3291 21.2451C72.2061 21.7829 72.0055 22.2568 71.7275 22.667C71.4541 23.0726 71.0986 23.3962 70.6611 23.6377C70.2282 23.8792 69.7041 24 69.0889 24H66.1904V15.0791H69.0889C69.695 15.0791 70.2145 15.2021 70.6475 15.4482C71.085 15.6898 71.4404 16.0133 71.7139 16.4189C71.9919 16.8245 72.1947 17.2962 72.3223 17.834C72.4544 18.3717 72.5205 18.9391 72.5205 19.5361ZM71.1055 19.5361C71.1055 18.5062 70.93 17.7201 70.5791 17.1777C70.2282 16.6309 69.7314 16.3574 69.0889 16.3574H67.6055V22.7285H69.0889C69.7314 22.7285 70.2282 22.4505 70.5791 21.8945C70.93 21.3385 71.1055 20.5524 71.1055 19.5361ZM73.4707 22.168C73.4707 21.7943 73.571 21.4684 73.7715 21.1904C73.972 20.9079 74.234 20.6732 74.5576 20.4863C74.8857 20.2995 75.2594 20.1605 75.6787 20.0693C76.1025 19.9736 76.5332 19.9258 76.9707 19.9258C77.2122 19.9258 77.4196 19.9303 77.5928 19.9395C77.766 19.9486 77.9414 19.9622 78.1191 19.9805V19.7275C78.1191 19.3949 77.9893 19.1465 77.7295 18.9824C77.4743 18.8184 77.137 18.7363 76.7178 18.7363C76.335 18.7363 75.9453 18.791 75.5488 18.9004C75.1523 19.0052 74.7764 19.1602 74.4209 19.3652L73.8467 18.2578C74.266 18.0163 74.7148 17.8271 75.1934 17.6904C75.6764 17.5492 76.1846 17.4785 76.7178 17.4785C77.0641 17.4785 77.4036 17.5173 77.7363 17.5947C78.0736 17.6722 78.3743 17.7998 78.6387 17.9775C78.9076 18.1553 79.1217 18.3877 79.2812 18.6748C79.4408 18.9574 79.5205 19.3083 79.5205 19.7275V24H78.1191V23.0635C77.8958 23.4098 77.5654 23.6787 77.1279 23.8701C76.695 24.0615 76.2279 24.1572 75.7266 24.1572C75.4167 24.1572 75.1227 24.1139 74.8447 24.0273C74.5713 23.9453 74.3343 23.82 74.1338 23.6514C73.9333 23.4827 73.7715 23.2754 73.6484 23.0293C73.5299 22.7786 73.4707 22.4915 73.4707 22.168ZM76.0889 22.8926C76.3669 22.8926 76.6266 22.8584 76.8682 22.79C77.1143 22.7171 77.3307 22.6191 77.5176 22.4961C77.7044 22.3685 77.8503 22.2158 77.9551 22.0381C78.0645 21.8604 78.1191 21.6644 78.1191 21.4502V21.2109C77.8958 21.1745 77.6862 21.154 77.4902 21.1494C77.2943 21.1449 77.1211 21.1426 76.9707 21.1426C76.278 21.1426 75.7539 21.2337 75.3984 21.416C75.0475 21.5983 74.8721 21.8239 74.8721 22.0928C74.8721 22.626 75.2777 22.8926 76.0889 22.8926ZM87.3408 22.0928C87.3408 22.5075 87.2474 22.8447 87.0605 23.1045C86.8737 23.3643 86.6322 23.5739 86.3359 23.7334C86.0443 23.8929 85.7161 24.0023 85.3516 24.0615C84.9915 24.1253 84.6383 24.1572 84.292 24.1572C83.7132 24.1572 83.1367 24.0729 82.5625 23.9043C81.9883 23.7357 81.4915 23.5146 81.0723 23.2412L81.6602 22.0791C82.1615 22.3708 82.6195 22.5781 83.0342 22.7012C83.4535 22.8197 83.8727 22.8789 84.292 22.8789C84.8617 22.8789 85.2764 22.8197 85.5361 22.7012C85.7959 22.5781 85.9258 22.4095 85.9258 22.1953C85.9258 22.0905 85.8893 22.0039 85.8164 21.9355C85.7435 21.8672 85.6227 21.8057 85.4541 21.751C85.2855 21.6917 85.0622 21.6348 84.7842 21.5801C84.5107 21.5208 84.1689 21.4593 83.7588 21.3955C83.4307 21.3408 83.1185 21.2747 82.8223 21.1973C82.5306 21.1152 82.2731 21.0013 82.0498 20.8555C81.8265 20.7096 81.6465 20.5251 81.5098 20.3018C81.3776 20.0785 81.3115 19.7982 81.3115 19.4609C81.3115 19.1191 81.3981 18.8229 81.5713 18.5723C81.749 18.3171 81.9792 18.1074 82.2617 17.9434C82.5488 17.7793 82.8701 17.6608 83.2256 17.5879C83.5811 17.515 83.9365 17.4785 84.292 17.4785C84.7933 17.4785 85.2786 17.5446 85.748 17.6768C86.222 17.8044 86.6367 17.9889 86.9922 18.2305L86.4316 19.3242C86.0762 19.1009 85.7298 18.9505 85.3926 18.873C85.0599 18.791 84.693 18.75 84.292 18.75C84.1234 18.75 83.9479 18.7591 83.7656 18.7773C83.5833 18.7956 83.4147 18.832 83.2598 18.8867C83.1048 18.9368 82.9749 19.0075 82.8701 19.0986C82.7699 19.1852 82.7197 19.2923 82.7197 19.4199C82.7197 19.5885 82.8678 19.7275 83.1641 19.8369C83.4648 19.9417 83.9753 20.0465 84.6953 20.1514C85.0872 20.2061 85.445 20.2767 85.7686 20.3633C86.0921 20.4453 86.3701 20.5592 86.6025 20.7051C86.835 20.8464 87.015 21.0309 87.1426 21.2588C87.2747 21.4821 87.3408 21.7601 87.3408 22.0928ZM94.8193 24H93.4043V20.0693C93.4043 19.5726 93.3109 19.2285 93.124 19.0371C92.9372 18.8457 92.666 18.75 92.3105 18.75C91.7865 18.75 91.3581 18.9619 91.0254 19.3857C90.6973 19.8096 90.5332 20.3952 90.5332 21.1426V24H89.1182V15.0791H90.5332V19.2285C90.6745 18.6771 90.9365 18.2487 91.3193 17.9434C91.7021 17.6335 92.1738 17.4785 92.7344 17.4785C93.3861 17.4785 93.8965 17.6904 94.2656 18.1143C94.6348 18.5381 94.8193 19.1898 94.8193 20.0693V24ZM96.7607 15.0791H98.1758V18.2031C98.4447 17.9616 98.7158 17.7816 98.9893 17.6631C99.2673 17.54 99.584 17.4785 99.9395 17.4785C100.35 17.4785 100.73 17.5628 101.081 17.7314C101.432 17.8955 101.733 18.1257 101.983 18.4219C102.234 18.7135 102.432 19.0667 102.578 19.4814C102.724 19.8916 102.797 20.3382 102.797 20.8213C102.797 21.3089 102.724 21.7578 102.578 22.168C102.432 22.5781 102.234 22.9313 101.983 23.2275C101.733 23.5192 101.432 23.7471 101.081 23.9111C100.73 24.0752 100.35 24.1572 99.9395 24.1572C99.584 24.1572 99.2673 24.0934 98.9893 23.9658C98.7158 23.8382 98.4447 23.6536 98.1758 23.4121V24H96.7607V15.0791ZM98.1758 22.3047C98.3444 22.4915 98.5586 22.6351 98.8184 22.7354C99.0827 22.8311 99.3356 22.8789 99.5771 22.8789C100.11 22.8789 100.543 22.6898 100.876 22.3115C101.213 21.9333 101.382 21.4365 101.382 20.8213C101.382 20.2061 101.213 19.707 100.876 19.3242C100.543 18.9414 100.11 18.75 99.5771 18.75C99.3356 18.75 99.0827 18.8001 98.8184 18.9004C98.5586 18.9961 98.3444 19.1374 98.1758 19.3242V22.3047ZM110.604 20.8213C110.604 21.318 110.524 21.7692 110.364 22.1748C110.209 22.5804 109.984 22.9313 109.688 23.2275C109.396 23.5192 109.045 23.7471 108.635 23.9111C108.225 24.0752 107.767 24.1572 107.261 24.1572C106.764 24.1572 106.311 24.0752 105.9 23.9111C105.49 23.7471 105.137 23.5192 104.841 23.2275C104.549 22.9313 104.324 22.5804 104.164 22.1748C104.009 21.7692 103.932 21.318 103.932 20.8213C103.932 20.3382 104.009 19.8916 104.164 19.4814C104.324 19.0667 104.549 18.7113 104.841 18.415C105.137 18.1143 105.49 17.8841 105.9 17.7246C106.311 17.5605 106.764 17.4785 107.261 17.4785C107.767 17.4785 108.225 17.5605 108.635 17.7246C109.045 17.8841 109.396 18.1143 109.688 18.415C109.984 18.7113 110.209 19.0667 110.364 19.4814C110.524 19.8916 110.604 20.3382 110.604 20.8213ZM109.195 20.8213C109.195 20.5342 109.15 20.263 109.059 20.0078C108.972 19.748 108.844 19.527 108.676 19.3447C108.507 19.1624 108.302 19.0189 108.061 18.9141C107.824 18.8047 107.557 18.75 107.261 18.75C106.96 18.75 106.691 18.8047 106.454 18.9141C106.217 19.0189 106.017 19.1624 105.853 19.3447C105.688 19.527 105.561 19.748 105.47 20.0078C105.383 20.263 105.34 20.5342 105.34 20.8213C105.34 21.1221 105.383 21.3955 105.47 21.6416C105.561 21.8877 105.688 22.1042 105.853 22.291C106.017 22.4779 106.217 22.6237 106.454 22.7285C106.691 22.8288 106.96 22.8789 107.261 22.8789C107.557 22.8789 107.824 22.8288 108.061 22.7285C108.302 22.6237 108.507 22.4779 108.676 22.291C108.844 22.1042 108.972 21.8877 109.059 21.6416C109.15 21.3955 109.195 21.1221 109.195 20.8213ZM111.684 22.168C111.684 21.7943 111.784 21.4684 111.984 21.1904C112.185 20.9079 112.447 20.6732 112.771 20.4863C113.099 20.2995 113.472 20.1605 113.892 20.0693C114.315 19.9736 114.746 19.9258 115.184 19.9258C115.425 19.9258 115.632 19.9303 115.806 19.9395C115.979 19.9486 116.154 19.9622 116.332 19.9805V19.7275C116.332 19.3949 116.202 19.1465 115.942 18.9824C115.687 18.8184 115.35 18.7363 114.931 18.7363C114.548 18.7363 114.158 18.791 113.762 18.9004C113.365 19.0052 112.989 19.1602 112.634 19.3652L112.06 18.2578C112.479 18.0163 112.928 17.8271 113.406 17.6904C113.889 17.5492 114.397 17.4785 114.931 17.4785C115.277 17.4785 115.617 17.5173 115.949 17.5947C116.286 17.6722 116.587 17.7998 116.852 17.9775C117.12 18.1553 117.335 18.3877 117.494 18.6748C117.654 18.9574 117.733 19.3083 117.733 19.7275V24H116.332V23.0635C116.109 23.4098 115.778 23.6787 115.341 23.8701C114.908 24.0615 114.441 24.1572 113.939 24.1572C113.63 24.1572 113.336 24.1139 113.058 24.0273C112.784 23.9453 112.547 23.82 112.347 23.6514C112.146 23.4827 111.984 23.2754 111.861 23.0293C111.743 22.7786 111.684 22.4915 111.684 22.168ZM114.302 22.8926C114.58 22.8926 114.84 22.8584 115.081 22.79C115.327 22.7171 115.544 22.6191 115.73 22.4961C115.917 22.3685 116.063 22.2158 116.168 22.0381C116.277 21.8604 116.332 21.6644 116.332 21.4502V21.2109C116.109 21.1745 115.899 21.154 115.703 21.1494C115.507 21.1449 115.334 21.1426 115.184 21.1426C114.491 21.1426 113.967 21.2337 113.611 21.416C113.26 21.5983 113.085 21.8239 113.085 22.0928C113.085 22.626 113.491 22.8926 114.302 22.8926ZM125.567 19.1396C125.399 19.0576 125.226 18.9961 125.048 18.9551C124.875 18.9095 124.674 18.8867 124.446 18.8867C124.132 18.8867 123.836 18.9346 123.558 19.0303C123.284 19.1214 123.047 19.2604 122.847 19.4473C122.646 19.6341 122.489 19.8688 122.375 20.1514C122.266 20.4294 122.211 20.7598 122.211 21.1426V22.7285H123.64V24H119.354V22.7285H120.796V18.9072H119.354V17.6289H122.211V19.2285C122.443 18.5905 122.785 18.1393 123.236 17.875C123.692 17.6107 124.232 17.4785 124.856 17.4785C125.052 17.4785 125.257 17.499 125.472 17.54C125.686 17.5811 125.896 17.654 126.101 17.7588L125.567 19.1396ZM133.032 24H131.617V23.4121C131.344 23.6536 131.068 23.8382 130.79 23.9658C130.512 24.0934 130.195 24.1572 129.84 24.1572C129.43 24.1572 129.049 24.0752 128.698 23.9111C128.347 23.7471 128.044 23.5192 127.789 23.2275C127.538 22.9313 127.34 22.5781 127.194 22.168C127.053 21.7578 126.982 21.3089 126.982 20.8213C126.982 20.3382 127.053 19.8916 127.194 19.4814C127.34 19.0667 127.538 18.7135 127.789 18.4219C128.044 18.1257 128.347 17.8955 128.698 17.7314C129.049 17.5628 129.43 17.4785 129.84 17.4785C130.195 17.4785 130.512 17.54 130.79 17.6631C131.068 17.7816 131.344 17.9616 131.617 18.2031V16.3574H130.387V15.0791H133.032V24ZM131.617 19.3242C131.449 19.1374 131.23 18.9961 130.961 18.9004C130.697 18.8001 130.444 18.75 130.202 18.75C129.669 18.75 129.234 18.9414 128.896 19.3242C128.564 19.707 128.397 20.2061 128.397 20.8213C128.397 21.4365 128.564 21.9333 128.896 22.3115C129.234 22.6898 129.669 22.8789 130.202 22.8789C130.444 22.8789 130.697 22.8311 130.961 22.7354C131.23 22.6351 131.449 22.4915 131.617 22.3047V19.3242Z" fill="black"/>
</g>
<defs>
<filter id="filter0_d" x="-114" y="-89" width="383" height="268" filterUnits="userSpaceOnUse" color-interpolation-filters="sRGB">
<feFlood flood-opacity="0" result="BackgroundImageFix"/>
<feColorMatrix in="SourceAlpha" type="matrix" values="0 0 0 0 0 0 0 0 0 0 0 0 0 0 0 0 0 0 127 0" result="hardAlpha"/>
<feOffset dy="25"/>
<feGaussianBlur stdDeviation="57"/>
<feComposite in2="hardAlpha" operator="out"/>
<feColorMatrix type="matrix" values="0 0 0 0 0 0 0 0 0 0 0 0 0 0 0 0 0 0 0.08 0"/>
<feBlend mode="normal" in2="BackgroundImageFix" result="effect1_dropShadow"/>
<feBlend mode="normal" in="SourceGraphic" in2="effect1_dropShadow" result="shape"/>
</filter>
<clipPath id="clip0">
<rect width="155" height="40" fill="white"/>
</clipPath>
</defs>
</svg>
