<svg width="161" height="172" viewBox="0 0 161 172" fill="none" xmlns="http://www.w3.org/2000/svg">
<g filter="url(#filter0_f)">
<path d="M80.6277 44.8535L98.6347 55.3923L116.894 65.5002L116.642 86.1469L116.894 106.794L98.6347 116.901L80.6277 127.44L62.6207 116.901L44.3613 106.794L44.6137 86.1469L44.3613 65.5002L62.6207 55.3923L80.6277 44.8535Z" fill="url(#paint0_linear)"/>
</g>
<path d="M130.54 69.2702C130.54 97.0336 108.034 119.54 80.2702 119.54C52.5067 119.54 30 97.0336 30 69.2702C30 41.5067 52.5067 19 80.2702 19C108.034 19 130.54 41.5067 130.54 69.2702Z" fill="url(#paint1_linear)"/>
<path fill-rule="evenodd" clip-rule="evenodd" d="M51.543 53.1124L80.2699 36.9541L108.995 53.1124V85.4289L80.2699 101.587L51.543 85.4289V53.1124ZM80.2699 97.5476L105.403 83.4081V55.1311L80.2699 40.9937L55.1341 55.1311V83.4081L80.2699 97.5476ZM80.5926 68.0578C79.7732 66.6087 78.5697 65.4004 77.1076 64.559C75.6156 63.7035 73.9119 63.2617 72.1808 63.2814C70.6974 63.2646 69.2316 63.5948 67.9064 64.2445C66.6354 64.8622 65.5351 65.768 64.6978 66.8858V56.6328C64.7046 56.4517 64.673 56.2711 64.605 56.1024C64.5369 55.9336 64.4339 55.7804 64.3023 55.6522C64.1708 55.524 64.0135 55.4237 63.8403 55.3574C63.6671 55.2911 63.4818 55.2603 63.2958 55.2669C63.1132 55.2602 62.9312 55.2911 62.7616 55.3575C62.5921 55.424 62.4388 55.5245 62.3118 55.6526C62.1853 55.7834 62.0867 55.9375 62.0218 56.1057C61.9569 56.274 61.9269 56.4532 61.9337 56.6328V64.4707C61.9057 64.5732 61.8938 64.6792 61.8983 64.7852V73.0109C61.8764 74.7508 62.3289 76.4652 63.2096 77.979C64.056 79.448 65.2976 80.6644 66.8007 81.4972C68.3494 82.3558 70.105 82.7968 71.8867 82.7748C73.6684 82.7969 75.424 82.3559 76.9727 81.4972C78.4722 80.663 79.7112 79.4478 80.5572 77.9811C81.4369 76.467 81.8893 74.7528 81.8685 73.013C81.8913 71.2814 81.4516 69.5738 80.5926 68.0578ZM78.2221 76.738C77.6067 77.8271 76.7005 78.7338 75.5995 79.3621H75.6039C74.7698 79.8339 73.8482 80.1403 72.8921 80.2637C71.9359 80.3871 70.9642 80.3251 70.0328 80.0812C69.1014 79.8373 68.2287 79.4164 67.4649 78.8426C66.7011 78.2689 66.0613 77.5536 65.5823 76.738C64.9387 75.597 64.6103 74.3127 64.6292 73.0109C64.6246 72.7188 64.6371 72.4268 64.6668 72.1362C64.6913 72.0804 64.7033 72.0201 64.7022 71.9595C64.892 70.2347 65.7301 68.6392 67.055 67.4804C68.3767 66.3168 70.1058 65.6908 71.8867 65.731C73.1898 65.7186 74.4723 66.0483 75.5995 66.6854C76.7011 67.3016 77.6082 68.2002 78.2221 69.2837C78.8456 70.4321 79.1715 71.7116 79.1715 73.0109C79.1715 74.3101 78.8456 75.5896 78.2221 76.738ZM98.6437 81.3743C98.6437 82.1916 98.225 82.6002 97.3877 82.6002H84.0492C83.2118 82.6002 82.7931 82.1916 82.7931 81.3743C82.7673 81.0631 82.8559 80.7531 83.043 80.4996L94.827 65.9055H83.9143C83.0754 65.9055 82.6568 65.4976 82.6583 64.6817C82.6597 63.8659 83.0784 63.4573 83.9143 63.4559H97.2417C98.0791 63.4559 98.4977 63.8645 98.4977 64.6817C98.5134 65.0082 98.4117 65.3297 98.2103 65.5909L86.5369 80.1506H97.3855C98.2243 80.1506 98.6437 80.5585 98.6437 81.3743Z" fill="white"/>
<defs>
<filter id="filter0_f" x="0.361328" y="0.853516" width="160.532" height="170.587" filterUnits="userSpaceOnUse" color-interpolation-filters="sRGB">
<feFlood flood-opacity="0" result="BackgroundImageFix"/>
<feBlend mode="normal" in="SourceGraphic" in2="BackgroundImageFix" result="shape"/>
<feGaussianBlur stdDeviation="22" result="effect1_foregroundBlur"/>
</filter>
<linearGradient id="paint0_linear" x1="119.622" y1="85.5585" x2="43.8562" y2="84.5186" gradientUnits="userSpaceOnUse">
<stop stop-color="#CE09FF"/>
<stop offset="1" stop-color="#FFA34E"/>
</linearGradient>
<linearGradient id="paint1_linear" x1="171.386" y1="119.272" x2="-88.7387" y2="6.15755" gradientUnits="userSpaceOnUse">
<stop stop-color="#CE09FF"/>
<stop offset="1" stop-color="#FFA34E"/>
</linearGradient>
</defs>
</svg>
