<svg width="125" height="33" viewBox="0 0 125 33" fill="none" xmlns="http://www.w3.org/2000/svg">
<path d="M8.3464 8.97167C8.3464 10.0959 7.96429 10.9422 7.20007 11.5106C6.43586 12.0791 5.34953 12.3633 3.94109 12.3633H0V0H3.7232C4.2411 0 4.74952 0.044211 5.24847 0.132633C5.74743 0.214739 6.1927 0.372635 6.58428 0.606322C6.98218 0.840009 7.30429 1.16843 7.5506 1.5916C7.79692 2.00844 7.92008 2.5516 7.92008 3.22109C7.92008 3.84636 7.75903 4.41794 7.43692 4.93584C7.12113 5.45374 6.64112 5.82638 5.9969 6.05375C6.78639 6.30006 7.37376 6.64428 7.75903 7.08639C8.15061 7.5285 8.3464 8.15693 8.3464 8.97167ZM5.97796 3.47688C5.97796 3.11687 5.90848 2.82319 5.76953 2.59582C5.6369 2.36845 5.46321 2.19476 5.24847 2.07476C5.03374 1.94844 4.79373 1.86633 4.52847 1.82844C4.2632 1.79054 3.99478 1.7716 3.7232 1.7716H1.96107V5.18216H3.7232C3.99478 5.18216 4.2632 5.16321 4.52847 5.12532C4.79373 5.08742 5.03374 5.00847 5.24847 4.88847C5.46321 4.76215 5.6369 4.58531 5.76953 4.35794C5.90848 4.13057 5.97796 3.83688 5.97796 3.47688ZM6.40428 8.77272C6.40428 8.15377 6.18638 7.69587 5.75059 7.39902C5.32111 7.10218 4.71794 6.95376 3.94109 6.95376H1.96107V10.6012H3.94109C4.71794 10.6012 5.32111 10.4527 5.75059 10.1559C6.18638 9.85273 6.40428 9.39167 6.40428 8.77272Z" fill="white"/>
<path d="M19.1844 7.95798C19.1844 8.6464 19.0739 9.27167 18.8528 9.83379C18.6381 10.3959 18.3255 10.8822 17.9149 11.2927C17.5107 11.697 17.0244 12.0128 16.456 12.2401C15.8875 12.4675 15.2528 12.5812 14.5517 12.5812C13.8633 12.5812 13.2349 12.4675 12.6664 12.2401C12.098 12.0128 11.6085 11.697 11.198 11.2927C10.7938 10.8822 10.4812 10.3959 10.2601 9.83379C10.0454 9.27167 9.938 8.6464 9.938 7.95798C9.938 7.2885 10.0454 6.66954 10.2601 6.10112C10.4812 5.52637 10.7938 5.03374 11.198 4.62321C11.6085 4.20636 12.098 3.88741 12.6664 3.66635C13.2349 3.43898 13.8633 3.3253 14.5517 3.3253C15.2528 3.3253 15.8875 3.43898 16.456 3.66635C17.0244 3.88741 17.5107 4.20636 17.9149 4.62321C18.3255 5.03374 18.6381 5.52637 18.8528 6.10112C19.0739 6.66954 19.1844 7.2885 19.1844 7.95798ZM17.2328 7.95798C17.2328 7.56008 17.1696 7.18428 17.0433 6.8306C16.9233 6.47059 16.7465 6.16427 16.5128 5.91164C16.2791 5.65901 15.9949 5.46006 15.6602 5.31479C15.3317 5.16321 14.9623 5.08742 14.5517 5.08742C14.1349 5.08742 13.7622 5.16321 13.4338 5.31479C13.1054 5.46006 12.8275 5.65901 12.6001 5.91164C12.3728 6.16427 12.1959 6.47059 12.0696 6.8306C11.9496 7.18428 11.8896 7.56008 11.8896 7.95798C11.8896 8.37482 11.9496 8.75377 12.0696 9.09483C12.1959 9.43589 12.3728 9.73589 12.6001 9.99484C12.8275 10.2538 13.1054 10.4559 13.4338 10.6012C13.7622 10.7401 14.1349 10.8096 14.5517 10.8096C14.9623 10.8096 15.3317 10.7401 15.6602 10.6012C15.9949 10.4559 16.2791 10.2538 16.5128 9.99484C16.7465 9.73589 16.9233 9.43589 17.0433 9.09483C17.1696 8.75377 17.2328 8.37482 17.2328 7.95798Z" fill="white"/>
<path d="M29.0845 12.3633H27.1234V6.91586C27.1234 6.22743 26.994 5.75059 26.735 5.48532C26.4761 5.22005 26.1003 5.08742 25.6076 5.08742C24.8813 5.08742 24.2876 5.38111 23.8266 5.96848C23.3718 6.55586 23.1444 7.36744 23.1444 8.40324V12.3633H21.1834V3.53372H23.1444V5.75059C23.3402 4.98637 23.7034 4.39268 24.2339 3.96951C24.7645 3.54004 25.4182 3.3253 26.195 3.3253C27.0982 3.3253 27.8055 3.61898 28.3171 4.20636C28.8287 4.79373 29.0845 5.6969 29.0845 6.91586V12.3633Z" fill="white"/>
<path d="M31.7751 3.53372H33.7361V8.99062C33.7361 9.67273 33.8656 10.1464 34.1246 10.4117C34.3835 10.677 34.7593 10.8096 35.2519 10.8096C35.9719 10.8096 36.5625 10.5159 37.0235 9.92852C37.4846 9.34115 37.7151 8.52956 37.7151 7.49376V3.53372H39.6762V12.3633H37.7151V10.1559C37.5193 10.9138 37.1562 11.5075 36.6256 11.937C36.0951 12.3664 35.4414 12.5812 34.6646 12.5812C33.7614 12.5812 33.054 12.2875 32.5424 11.7001C32.0309 11.1064 31.7751 10.2033 31.7751 8.99062V3.53372Z" fill="white"/>
<path d="M50.2679 12.3633H42.3667V10.6201L47.3973 5.30532H44.091V7.08639H42.3667V3.53372H50.0879V5.30532L45.0478 10.6012H48.5342V8.84851H50.2679V12.3633Z" fill="white"/>
<path d="M71.4513 12.3633H69.4902V3.99794L68.2491 8.44114H66.7333L65.5112 3.99794V12.3633H63.5501V0H65.8807L67.4912 5.58953L69.1018 0H71.4513V12.3633Z" fill="white"/>
<path d="M73.6397 9.82431C73.6397 9.30641 73.7786 8.85483 74.0565 8.46956C74.3344 8.07798 74.6976 7.75271 75.146 7.49376C75.6008 7.23481 76.1187 7.04218 76.6997 6.91586C77.2871 6.78323 77.884 6.71691 78.4903 6.71691C78.825 6.71691 79.1124 6.72323 79.3524 6.73586C79.5924 6.74849 79.8356 6.76744 80.0819 6.7927V6.44217C80.0819 5.98111 79.9019 5.6369 79.5419 5.40953C79.1882 5.18216 78.7208 5.06847 78.1397 5.06847C77.6092 5.06847 77.0692 5.14426 76.5197 5.29584C75.9703 5.44111 75.4492 5.65585 74.9566 5.94006L74.1608 4.40531C74.7418 4.07057 75.3639 3.80846 76.0271 3.61898C76.6966 3.42319 77.4008 3.3253 78.1397 3.3253C78.6198 3.3253 79.0903 3.37898 79.5513 3.48635C80.0187 3.59372 80.4356 3.77056 80.8019 4.01688C81.1745 4.2632 81.4714 4.58531 81.6924 4.98321C81.9135 5.37479 82.024 5.86111 82.024 6.44217V12.3633H80.0819V11.0654C79.7724 11.5454 79.3145 11.918 78.7082 12.1833C78.1082 12.4485 77.4608 12.5812 76.766 12.5812C76.3366 12.5812 75.9292 12.5212 75.5439 12.4012C75.165 12.2875 74.8366 12.1138 74.5587 11.8801C74.2808 11.6464 74.0565 11.3591 73.886 11.018C73.7218 10.6706 73.6397 10.2727 73.6397 9.82431ZM77.2682 10.8285C77.6534 10.8285 78.0134 10.7812 78.3482 10.6864C78.6892 10.5854 78.9892 10.4496 79.2482 10.2791C79.5071 10.1022 79.7092 9.89063 79.8545 9.64431C80.0061 9.39799 80.0819 9.12641 80.0819 8.82956V8.49798C79.7724 8.44745 79.4819 8.41903 79.2103 8.41272C78.9387 8.4064 78.6987 8.40324 78.4903 8.40324C77.5303 8.40324 76.8039 8.52956 76.3113 8.7822C75.825 9.03483 75.5818 9.34746 75.5818 9.7201C75.5818 10.4591 76.1439 10.8285 77.2682 10.8285Z" fill="white"/>
<path d="M92.881 5.62743C92.6473 5.51374 92.4073 5.42848 92.1609 5.37163C91.9209 5.30848 91.643 5.2769 91.3272 5.2769C90.8915 5.2769 90.4809 5.34321 90.0957 5.47585C89.7167 5.60216 89.3883 5.7948 89.1104 6.05375C88.8325 6.3127 88.6146 6.63796 88.4567 7.02955C88.3051 7.41481 88.2293 7.87271 88.2293 8.40324V10.6012H90.2093V12.3633H84.2693V10.6012H86.2682V5.30532H84.2693V3.53372H88.2293V5.75059C88.5514 4.86637 89.0251 4.2411 89.6504 3.87478C90.282 3.50846 91.0304 3.3253 91.8957 3.3253C92.1673 3.3253 92.4515 3.35372 92.7483 3.41056C93.0452 3.4674 93.3357 3.56846 93.6199 3.71372L92.881 5.62743Z" fill="white"/>
<path d="M103.672 12.3633H101.133L98.1768 8.79167L97.2863 9.70115V12.3633H95.3252V0H97.2863V7.27586L100.82 3.53372H103.511L99.4368 7.5885L103.672 12.3633Z" fill="white"/>
<path d="M107.253 8.69693C107.347 9.30325 107.635 9.80852 108.115 10.2127C108.601 10.6106 109.252 10.8096 110.066 10.8096C110.704 10.8096 111.257 10.7117 111.724 10.5159C112.198 10.3138 112.605 10.0485 112.946 9.7201L113.951 11.1033C113.382 11.6717 112.779 12.0601 112.141 12.2685C111.51 12.477 110.818 12.5812 110.066 12.5812C109.384 12.5812 108.75 12.4675 108.162 12.2401C107.575 12.0128 107.066 11.697 106.637 11.2927C106.207 10.8822 105.87 10.3959 105.623 9.83379C105.383 9.27167 105.263 8.6464 105.263 7.95798C105.263 7.2885 105.374 6.6727 105.595 6.11059C105.822 5.54216 106.138 5.05268 106.542 4.64215C106.953 4.22531 107.442 3.9032 108.011 3.67583C108.579 3.44214 109.207 3.3253 109.896 3.3253C110.61 3.3253 111.257 3.44846 111.838 3.69477C112.419 3.93478 112.915 4.28531 113.325 4.74636C113.742 5.20742 114.067 5.77269 114.301 6.44217C114.535 7.10534 114.652 7.85692 114.652 8.69693H107.253ZM112.435 6.9727C112.334 6.40428 112.04 5.94953 111.554 5.60848C111.067 5.26111 110.515 5.08742 109.896 5.08742C109.277 5.08742 108.721 5.26111 108.228 5.60848C107.736 5.94953 107.439 6.40428 107.338 6.9727H112.435Z" fill="white"/>
<path d="M124.969 9.54957C124.868 10.478 124.501 11.217 123.87 11.7664C123.244 12.3096 122.461 12.5812 121.52 12.5812C121.002 12.5812 120.529 12.4959 120.099 12.3254C119.67 12.1549 119.303 11.918 119 11.6149C118.697 11.3117 118.46 10.9485 118.29 10.5254C118.125 10.0959 118.043 9.62852 118.043 9.12325V5.30532H116.044V3.53372H118.043V0H120.004V3.53372H123.709V5.30532H120.004V9.12325C120.004 9.69168 120.143 10.1148 120.421 10.3927C120.699 10.6706 121.065 10.8096 121.52 10.8096C122.076 10.8096 122.49 10.6485 122.761 10.3264C123.033 10.0043 123.194 9.61589 123.244 9.16115L124.969 9.54957Z" fill="white"/>
<path d="M38.8032 28.1089C38.8032 27.6398 38.8534 27.1868 38.9536 26.75C39.0539 26.3132 39.2096 25.9282 39.4209 25.5952C39.6322 25.2622 39.9079 24.9954 40.248 24.7949C40.5918 24.5908 41.0054 24.4888 41.4888 24.4888C41.9722 24.4888 42.384 24.5908 42.7241 24.7949C43.0679 24.9954 43.3472 25.2622 43.562 25.5952C43.7769 25.9282 43.9326 26.3132 44.0293 26.75C44.126 27.1868 44.1743 27.6398 44.1743 28.1089C44.1743 28.578 44.126 29.0309 44.0293 29.4678C43.9326 29.901 43.7786 30.2878 43.5674 30.6279C43.3561 30.9645 43.0786 31.2349 42.7349 31.439C42.3947 31.6395 41.9793 31.7397 41.4888 31.7397C40.9982 31.7397 40.5811 31.6395 40.2373 31.439C39.8971 31.2349 39.6196 30.9645 39.4048 30.6279C39.1935 30.2878 39.0413 29.901 38.9482 29.4678C38.8516 29.0309 38.8032 28.578 38.8032 28.1089ZM39.915 28.1089C39.915 28.424 39.9383 28.7391 39.9849 29.0542C40.035 29.3693 40.1174 29.6522 40.2319 29.9028C40.3501 30.1499 40.5094 30.3504 40.71 30.5044C40.9141 30.6584 41.1737 30.7354 41.4888 30.7354C41.8039 30.7354 42.0617 30.6584 42.2622 30.5044C42.4663 30.3504 42.6257 30.1499 42.7402 29.9028C42.8584 29.6522 42.9408 29.3693 42.9873 29.0542C43.0374 28.7391 43.0625 28.424 43.0625 28.1089C43.0625 27.7938 43.0374 27.4805 42.9873 27.1689C42.9408 26.8574 42.8584 26.5763 42.7402 26.3257C42.6257 26.075 42.4645 25.8727 42.2568 25.7188C42.0527 25.5648 41.7967 25.4878 41.4888 25.4878C40.9767 25.4878 40.5864 25.7188 40.3179 26.1807C40.0493 26.6426 39.915 27.2853 39.915 28.1089ZM49.9912 26.6104L48.1436 31.6162H46.833L44.9854 26.6104H46.1724L47.4937 30.397L48.8042 26.6104H49.9912ZM52.0107 29.5376C52.0645 29.8813 52.2274 30.1678 52.4995 30.397C52.7752 30.6226 53.144 30.7354 53.606 30.7354C53.9676 30.7354 54.2809 30.6799 54.5459 30.5688C54.8145 30.4543 55.0454 30.3039 55.2388 30.1177L55.8081 30.9019C55.4858 31.2241 55.1439 31.4443 54.7822 31.5625C54.4242 31.6807 54.0321 31.7397 53.606 31.7397C53.2192 31.7397 52.8594 31.6753 52.5264 31.5464C52.1934 31.4175 51.9051 31.2384 51.6616 31.0093C51.4181 30.7765 51.2266 30.5008 51.0869 30.1821C50.9508 29.8634 50.8828 29.509 50.8828 29.1187C50.8828 28.7391 50.9455 28.39 51.0708 28.0713C51.1997 27.749 51.3787 27.4715 51.6079 27.2388C51.8407 27.0024 52.1182 26.8198 52.4404 26.6909C52.7627 26.5584 53.119 26.4922 53.5093 26.4922C53.9139 26.4922 54.2809 26.562 54.6104 26.7017C54.9398 26.8377 55.2209 27.0365 55.4536 27.2979C55.6899 27.5592 55.8743 27.8797 56.0068 28.2593C56.1393 28.6353 56.2056 29.0614 56.2056 29.5376H52.0107ZM54.9487 28.5601C54.8914 28.2378 54.7249 27.98 54.4492 27.7866C54.1735 27.5897 53.8602 27.4912 53.5093 27.4912C53.1584 27.4912 52.8433 27.5897 52.564 27.7866C52.2847 27.98 52.1164 28.2378 52.0591 28.5601H54.9487ZM61.8774 27.7974C61.745 27.7329 61.6089 27.6846 61.4692 27.6523C61.3332 27.6165 61.1756 27.5986 60.9966 27.5986C60.7495 27.5986 60.5168 27.6362 60.2983 27.7114C60.0835 27.783 59.8973 27.8923 59.7397 28.0391C59.5822 28.1859 59.4587 28.3703 59.3691 28.5923C59.2832 28.8107 59.2402 29.0703 59.2402 29.3711V30.6172H60.3628V31.6162H56.9951V30.6172H58.1284V27.6147H56.9951V26.6104H59.2402V27.8672C59.4229 27.3659 59.6914 27.0114 60.0459 26.8037C60.404 26.596 60.8283 26.4922 61.3188 26.4922C61.4728 26.4922 61.634 26.5083 61.8022 26.5405C61.9705 26.5728 62.1353 26.63 62.2964 26.7124L61.8774 27.7974ZM68.0059 26.6104L66.1582 31.6162H64.8477L63 26.6104H64.187L65.5083 30.397L66.8188 26.6104H68.0059ZM72.1846 25.9604H70.8311V24.6069H72.1846V25.9604ZM73.2051 31.6162H69.8428V30.6172H70.9492V27.6147H69.8428V26.6104H72.061V30.6172H73.2051V31.6162ZM76.0303 29.5376C76.084 29.8813 76.2469 30.1678 76.519 30.397C76.7948 30.6226 77.1636 30.7354 77.6255 30.7354C77.9871 30.7354 78.3005 30.6799 78.5654 30.5688C78.834 30.4543 79.0649 30.3039 79.2583 30.1177L79.8276 30.9019C79.5054 31.2241 79.1634 31.4443 78.8018 31.5625C78.4437 31.6807 78.0516 31.7397 77.6255 31.7397C77.2388 31.7397 76.8789 31.6753 76.5459 31.5464C76.2129 31.4175 75.9246 31.2384 75.6812 31.0093C75.4377 30.7765 75.2461 30.5008 75.1064 30.1821C74.9704 29.8634 74.9023 29.509 74.9023 29.1187C74.9023 28.7391 74.965 28.39 75.0903 28.0713C75.2192 27.749 75.3983 27.4715 75.6274 27.2388C75.8602 27.0024 76.1377 26.8198 76.46 26.6909C76.7822 26.5584 77.1385 26.4922 77.5288 26.4922C77.9334 26.4922 78.3005 26.562 78.6299 26.7017C78.9593 26.8377 79.2404 27.0365 79.4731 27.2979C79.7095 27.5592 79.8939 27.8797 80.0264 28.2593C80.1589 28.6353 80.2251 29.0614 80.2251 29.5376H76.0303ZM78.9683 28.5601C78.911 28.2378 78.7445 27.98 78.4688 27.7866C78.193 27.5897 77.8797 27.4912 77.5288 27.4912C77.1779 27.4912 76.8628 27.5897 76.5835 27.7866C76.3042 27.98 76.1359 28.2378 76.0786 28.5601H78.9683ZM86.1763 26.6104L85.4243 31.6162H84.0493L83.5229 28.603L82.9858 31.6162H81.6108L80.8589 26.6104H81.9492L82.3896 29.9565L82.9268 26.6104H84.103L84.6455 29.9565L85.0859 26.6104H86.1763Z" fill="white"/>
</svg>
