<svg width="315" height="456" viewBox="0 0 315 456" fill="none" xmlns="http://www.w3.org/2000/svg">
<path d="M182.864 22.1555L121.875 38.1424L60.7107 52.8715L37.1519 105.897L12.2307 158.615L49.661 195.653L85.9041 233.642L146.893 217.655L208.057 202.926L231.616 149.9L256.537 97.1826L219.107 60.1437L182.864 22.1555Z" fill="url(#paint0_linear)"/>
<path d="M216.14 221.829L155.151 237.816L93.9871 252.545L70.4284 305.571L45.5072 358.288L82.9375 395.327L119.181 433.315L180.17 417.328L241.334 402.599L264.893 349.574L289.814 296.856L252.384 259.817L216.14 221.829Z" fill="url(#paint1_linear)"/>
<path d="M-0.17662 173.638L-61.1656 189.625L-122.33 204.354L-145.889 257.38L-170.81 310.097L-133.38 347.136L-97.1365 385.124L-36.1475 369.137L25.0168 354.408L48.5756 301.382L73.4968 248.665L36.0665 211.626L-0.17662 173.638Z" fill="url(#paint2_linear)"/>
<defs>
<linearGradient id="paint0_linear" x1="242.112" y1="-75.7273" x2="150.757" y2="179.672" gradientUnits="userSpaceOnUse">
<stop stop-color="#1E0B6D"/>
<stop offset="1" stop-color="#250B71" stop-opacity="0.41"/>
</linearGradient>
<linearGradient id="paint1_linear" x1="214.664" y1="211.582" x2="125.795" y2="346.446" gradientUnits="userSpaceOnUse">
<stop stop-color="#1E0B6D"/>
<stop offset="1" stop-color="#250B71" stop-opacity="0"/>
</linearGradient>
<linearGradient id="paint2_linear" x1="12.6882" y1="151.482" x2="-87.5153" y2="300.639" gradientUnits="userSpaceOnUse">
<stop stop-color="#1E0B6D"/>
<stop offset="1" stop-color="#250B71" stop-opacity="0"/>
</linearGradient>
</defs>
</svg>
