<svg width="75" height="86" viewBox="0 0 75 86" fill="none" xmlns="http://www.w3.org/2000/svg">

<path d="M37.5 0L18.8805 10.9744L0 21.5L0.26091 43L0 64.5L18.8805 75.0256L37.5 86L56.1195 75.0256L75 64.5L74.7391 43L75 21.5L56.1195 10.9744L37.5 0Z" fill="white" fill-opacity="0.3"/>

<path d="M32 42H39.59L36.29 38.71C36.1017 38.5217 35.9959 38.2663 35.9959 38C35.9959 37.7337 36.1017 37.4783 36.29 37.29C36.4783 37.1017 36.7337 36.9959 37 36.9959C37.2663 36.9959 37.5217 37.1017 37.71 37.29L42.71 42.29C42.801 42.3851 42.8724 42.4973 42.92 42.62C43.02 42.8635 43.02 43.1365 42.92 43.38C42.8724 43.5028 42.801 43.6149 42.71 43.71L37.71 48.71C37.617 48.8037 37.5064 48.8781 37.3846 48.9289C37.2627 48.9797 37.132 49.0058 37 49.0058C36.868 49.0058 36.7373 48.9797 36.6154 48.9289C36.4935 48.8781 36.3829 48.8037 36.29 48.71C36.1963 48.617 36.1219 48.5064 36.0711 48.3846C36.0203 48.2627 35.9942 48.132 35.9942 48C35.9942 47.868 36.0203 47.7373 36.0711 47.6154C36.1219 47.4936 36.1963 47.383 36.29 47.29L39.59 44H32C31.7348 44 31.4804 43.8946 31.2929 43.7071C31.1053 43.5196 31 43.2652 31 43C31 42.7348 31.1053 42.4804 31.2929 42.2929C31.4804 42.1054 31.7348 42 32 42Z" fill="white"/>
<defs>

</defs>
</svg>
