<svg width="295" height="242" viewBox="0 0 295 242" fill="none" xmlns="http://www.w3.org/2000/svg">
<g opacity="0.2">
<mask id="mask0" style="mask-type:alpha" maskUnits="userSpaceOnUse" x="0" y="0" width="295" height="242">
<rect width="295" height="242" fill="url(#paint0_linear)"/>
</mask>
<g mask="url(#mask0)">
<path fill-rule="evenodd" clip-rule="evenodd" d="M46.9653 -5.99997L-9.00001 -5.99997L-9 166.56L46.9653 -5.99997ZM-9 189.25L-9 247L45.1691 247L127.223 -5.99998L54.3243 -5.99997L-9 189.25ZM52.528 247L134.582 -5.99998L207.481 -5.99998L125.427 247L52.528 247ZM132.786 247L205.685 247L287.739 -5.99998L214.84 -5.99998L132.786 247ZM213.044 247L295.098 -5.99998L305.541 -5.99998L305.541 196.888L289.288 247L213.044 247ZM296.647 247L305.541 247L305.541 219.578L296.647 247Z" fill="url(#paint1_linear)"/>
</g>
</g>
<defs>
<linearGradient id="paint0_linear" x1="1118" y1="-0.000318034" x2="320.967" y2="641.06" gradientUnits="userSpaceOnUse">
<stop stop-color="#CE09FF"/>
<stop offset="1" stop-color="#FFA34E"/>
</linearGradient>
<linearGradient id="paint1_linear" x1="148.27" y1="247" x2="148.27" y2="86" gradientUnits="userSpaceOnUse">
<stop stop-color="white" stop-opacity="0.38"/>
<stop offset="1" stop-color="white" stop-opacity="0.08"/>
</linearGradient>
</defs>
</svg>
