<svg width="57" height="64" viewBox="0 0 57 64" fill="none" xmlns="http://www.w3.org/2000/svg">

<path d="M14.849 9.03308L14.8387 9.03902L14.8283 9.04472L1.00738 16.5894L1.19822 31.9876L1.19837 32L1.19822 32.0124L1.00738 47.4106L14.8283 54.9553L14.8387 54.961L14.849 54.9669L28.5 62.8454L42.151 54.9669L42.1613 54.961L42.1717 54.9553L55.9926 47.4106L55.8018 32.0124L55.8016 32L55.8018 31.9876L55.9926 16.5894L42.1717 9.04472L42.1613 9.03902L42.151 9.03308L28.5 1.15459L14.849 9.03308Z" stroke="url(#paint0_linear)" stroke-width="2"/>

<path d="M39 25.5885C38.2191 25.9258 37.3869 26.1493 36.5194 26.2579C37.4119 25.7332 38.0931 24.9087 38.4133 23.9149C37.5812 24.4034 36.6624 24.7485 35.6833 24.941C34.8932 24.1127 33.7671 23.5996 32.5386 23.5996C30.1551 23.5996 28.2362 25.5045 28.2362 27.8397C28.2362 28.1757 28.2651 28.4987 28.3359 28.8063C24.7568 28.6344 21.5897 26.9454 19.4621 24.3724C19.0907 25.0069 18.8728 25.7332 18.8728 26.5151C18.8728 27.9831 19.6406 29.2845 20.7851 30.0379C20.0934 30.025 19.4149 29.8272 18.84 29.5158C18.84 29.5287 18.84 29.5455 18.84 29.5623C18.84 31.6223 20.3323 33.3333 22.2892 33.7274C21.9388 33.8218 21.5569 33.867 21.1605 33.867C20.8849 33.867 20.6066 33.8515 20.3454 33.7946C20.9032 35.4733 22.4861 36.7075 24.3683 36.7475C22.9035 37.8757 21.0437 38.5555 19.0303 38.5555C18.6773 38.5555 18.3386 38.54 18 38.4973C19.9071 39.7082 22.1672 40.3996 24.6045 40.3996C32.5267 40.3996 36.858 33.9381 36.858 28.3372C36.858 28.1498 36.8514 27.9689 36.8423 27.7893C37.6967 27.1922 38.4146 26.4466 39 25.5885Z" fill="white"/>
<defs>

<linearGradient id="paint0_linear" x1="-2.14371" y1="31.544" x2="57.3966" y2="30.7153" gradientUnits="userSpaceOnUse">
<stop stop-color="#CE09FF"/>
<stop offset="1" stop-color="#FFA34E"/>
</linearGradient>
</defs>
</svg>
